
<svg width="99px" height="69px" viewBox="0 0 99 69" version="1.1" xmlns="http://www.w3.org/2000/svg" xmlns:xlink="http://www.w3.org/1999/xlink">
    <defs>
        <polygon id="path-hhr9gbtfjm-1" points="0.288803739 0.970350327 23.492 0.970350327 23.492 2.0479355 0.288803739 2.0479355"></polygon>
    </defs>
    <g id="Page-1" stroke="none" stroke-width="1" fill="none" fill-rule="evenodd">
        <g id="designer-profile" transform="translate(-6.000000, -437.000000)">
            <g id="Group-78" transform="translate(6.000000, 437.000000)">
                <path d="M5.1472,31.96 C3.5082,33.943 2.1322,36.205 1.5532,38.712 C0.9742,41.219 1.2642,43.998 2.7172,46.121 C4.0232,48.032 6.1212,49.25 8.2482,50.164 C18.3152,54.495 29.7622,53.258 40.7012,53.926 C53.8282,54.728 67.2262,58.352 79.9002,54.843 C82.8382,54.03 85.8162,52.731 87.6172,50.272 C89.1402,48.195 89.6362,45.507 89.4972,42.935 C89.3582,40.363 88.6362,37.864 87.9172,35.391 C86.4012,30.17 84.8862,24.95 83.3702,19.73 C69.9182,18.171 70.9372,17.441 57.4082,18.036 C50.6612,19.659 40.1282,15.964 25.0712,19.33 C18.3502,20.832 9.5342,26.652 5.1472,31.96" id="Fill-1" fill="#B08B6A"></path>
                <path d="M83.3704,19.7296 C76.2754,18.9086 73.2064,18.3166 69.9044,18.0286 C65.8944,18.1466 61.8844,18.3266 57.9274,18.0136 C57.7564,18.0206 57.5844,18.0276 57.4084,18.0356 C56.4884,18.2566 55.4984,18.3796 54.4364,18.4346 C53.6564,18.4746 52.4004,23.9216 54.1714,26.5466 C55.9244,29.1456 52.6924,32.3946 55.5154,33.7566 C58.1464,35.0266 61.4034,34.8016 63.8014,36.4736 C65.1354,37.4036 66.0374,38.8156 67.1344,40.0176 C69.1414,42.2156 71.8764,43.7376 74.8034,44.2826 C75.2514,44.3666 75.7174,44.4276 76.1584,44.3156 C77.0994,44.0776 77.6684,43.1506 78.1404,42.3026 C79.0594,40.6486 79.9794,38.9936 80.8994,37.3386 C81.4164,36.4096 81.9574,35.4526 82.8064,34.8116 C83.5104,34.2796 84.3794,34.0046 85.0944,33.4876 C85.8124,32.9676 86.3304,32.2376 86.7764,31.4616 C85.6414,27.5506 84.5054,23.6406 83.3704,19.7296" id="Fill-3" fill="#E0D7CE"></path>
                <path d="M53.6897,55.2769 C51.9517,53.0199 50.9397,50.1989 50.9057,47.3479 C50.8817,45.4509 51.2617,43.4969 50.6797,41.6919 C49.6937,38.6309 46.1047,36.4809 46.3467,33.2729 C46.4977,31.2909 48.0987,29.7869 49.2717,28.1819 C51.2947,25.4149 52.1617,21.8419 51.6987,18.4509 C45.1757,18.2629 36.4057,16.7969 25.0707,19.3299 C18.3507,20.8319 9.5337,26.6519 5.1477,31.9599 C3.5077,33.9439 2.1317,36.2049 1.5527,38.7119 C0.9737,41.2189 1.2647,43.9979 2.7167,46.1209 C4.0237,48.0319 6.1217,49.2499 8.2477,50.1639 C18.3157,54.4949 29.7617,53.2579 40.7007,53.9259 C45.0137,54.1889 49.3547,54.7569 53.6897,55.2769" id="Fill-5" fill="#685547"></path>
                <path d="M53.6897,55.2769 C52.7897,54.1079 52.0847,52.7869 51.6087,51.3889 C47.0897,50.1619 43.1067,46.8669 38.7517,44.8369 C35.4307,43.2879 31.8267,42.4639 28.3527,41.2949 C24.8787,40.1269 21.4187,38.5329 18.9677,35.8079 C16.7907,33.3869 15.5507,30.1439 15.5587,26.8879 C15.5617,25.5899 15.7627,24.2959 16.1427,23.0539 C11.8307,25.5469 7.7247,28.8419 5.1477,31.9599 C3.5077,33.9439 2.1317,36.2049 1.5527,38.7119 C0.9737,41.2189 1.2647,43.9979 2.7167,46.1209 C4.0237,48.0319 6.1217,49.2499 8.2477,50.1639 C18.3157,54.4949 29.7617,53.2579 40.7007,53.9259 C45.0137,54.1889 49.3547,54.7569 53.6897,55.2769" id="Fill-7" fill="#604C3E"></path>
                <path d="M57.5589,51.7598 C57.8559,53.3678 59.1269,54.6478 60.5589,55.4388 C61.9909,56.2298 63.5989,56.6258 65.1479,57.1528 C66.9119,57.7528 68.6219,58.5318 70.4399,58.9388 C72.2579,59.3438 74.2539,59.3418 75.8819,58.4358 C77.5109,57.5298 78.6209,55.5478 78.0999,53.7598 C76.0359,53.0778 74.2329,51.7908 72.4949,50.4848 C70.7569,49.1788 69.0249,47.8208 67.0289,46.9588 C65.0329,46.0978 62.6989,45.7788 60.6899,46.6098 C58.6809,47.4398 57.1629,49.6228 57.5589,51.7598" id="Fill-9" fill="#000000"></path>
                <path d="M90.4592,56.4102 C90.8612,56.2152 91.2842,56.0012 91.5212,55.6232 C91.9302,54.9762 91.6482,54.1412 91.5122,53.3892 C91.2732,52.0792 91.5222,50.7372 91.6242,49.4092 C91.7252,48.0802 91.6472,46.6492 90.8652,45.5712 C89.7822,44.0772 87.5502,43.7312 85.8662,44.4872 C84.1832,45.2422 83.0232,46.8782 82.4222,48.6232 C81.8612,50.2502 81.7222,52.0202 82.0212,53.7152 C82.2512,55.0232 82.7982,56.3602 83.8962,57.1072 C84.8512,57.7582 86.0962,57.8632 87.2302,57.6442 C88.3652,57.4262 89.4202,56.9162 90.4592,56.4102" id="Fill-11" fill="#000000"></path>
                <path d="M41.7971,68.9459 C38.4621,68.7119 35.0741,67.9819 32.3911,66.2439 C30.7011,65.1489 29.3641,63.7039 27.8561,62.4239 C24.7031,59.7459 20.8331,57.8109 17.0361,55.8629 C13.2391,53.9139 6.9151,53.1249 3.9261,50.3079 C0.9361,47.4909 -0.2939,44.2259 0.0591,40.4069 C0.4121,36.5879 5.2291,28.1029 9.6001,27.5949 C8.3941,29.2599 7.3811,34.0559 6.7771,35.9529 C6.1731,37.8489 6.1061,39.9239 6.9511,41.7489 C7.7791,43.5359 9.4081,44.9539 11.1571,46.1369 C16.4921,49.7449 23.1021,51.5379 29.3601,53.7589 C35.6191,55.9809 41.9551,58.9269 45.4961,63.9299 C46.3241,65.0989 46.9671,66.6369 46.1081,67.7879 C45.2471,68.9419 43.3751,69.0559 41.7971,68.9459" id="Fill-13" fill="#000000"></path>
                <path d="M70.9671,56.4507 C70.6141,56.9587 70.3111,57.5607 70.4111,58.1717 C70.5051,58.7437 70.9481,59.2127 71.4661,59.4757 C71.9831,59.7387 72.5701,59.8257 73.1471,59.8887 C75.8071,60.1777 78.5171,59.9967 81.1171,59.3647 C81.7081,59.2207 82.4711,56.7917 81.8671,55.9277 C80.9501,54.6137 79.4991,53.6437 77.9101,53.3707 C75.2761,52.9197 72.4921,54.2557 70.9671,56.4507" id="Fill-15" fill="#FFFFFF"></path>
                <path d="M93.0178,54.4439 C91.6238,53.4649 89.8198,53.0939 88.1528,53.4429 C86.4848,53.7919 84.9798,54.8549 84.0948,56.3099 C83.8048,56.7849 83.5748,57.3599 83.7468,57.8899 C83.9598,58.5549 84.7028,58.8759 85.3738,59.0689 C87.3528,59.6369 89.4478,59.7989 91.4908,59.5419 C92.6728,59.3929 93.9988,58.9769 94.4708,57.8819 C95.0038,56.6439 94.1218,55.2179 93.0178,54.4439" id="Fill-17" fill="#FFFFFF"></path>
                <path d="M83.7649,26.251 C84.6129,25.502 85.4849,24.722 85.9549,23.693 C86.6189,22.241 86.3679,20.521 85.7719,19.04 C85.1759,17.559 84.2629,16.229 83.5659,14.793 C82.0779,11.728 81.4599,8.028 78.8359,5.855 C76.7369,4.116 73.8279,3.791 71.1029,3.732 C67.5499,3.656 63.7889,3.978 60.8729,6.009 C58.7279,7.505 57.2469,9.806 56.3049,12.246 C55.3619,14.685 54.9109,17.282 54.4659,19.859 C54.2009,21.396 53.9429,23.024 54.5139,24.476 C54.9259,25.524 55.7289,26.362 56.5119,27.171 C57.6749,28.373 58.8539,29.587 60.2689,30.479 C63.6239,32.595 67.8439,32.644 71.8069,32.476 C73.7269,32.395 75.7039,32.263 77.4249,31.409 C78.5519,30.849 79.5089,30.007 80.4519,29.174 C81.5569,28.2 82.6609,27.226 83.7649,26.251" id="Fill-19" fill="#EDE7E2"></path>
                <path d="M63.6282,25.5923 C66.8212,26.7293 70.3252,27.8713 73.5212,26.7433 C75.8812,25.9103 77.6672,23.9613 79.8832,22.7963 C81.5582,21.9173 83.5372,21.4413 84.7702,20.0063 C85.1352,19.5813 85.4012,19.1103 85.5872,18.6083 C84.9982,17.2973 84.1942,16.0883 83.5652,14.7933 C82.0772,11.7283 81.4602,8.0283 78.8362,5.8543 C76.7362,4.1163 73.8282,3.7913 71.1032,3.7323 C67.5502,3.6563 63.7892,3.9773 60.8732,6.0093 C58.7282,7.5053 57.2472,9.8063 56.3052,12.2453 C55.3612,14.6853 54.9112,17.2813 54.4662,19.8593 C54.3312,20.6363 54.1992,21.4373 54.1762,22.2263 C57.3262,23.3483 60.4782,24.4703 63.6282,25.5923" id="Fill-21" fill="#B08B6A"></path>
                <path d="M82.8645,14.4634 C79.3285,8.9214 75.1725,8.0784 73.1545,7.2214 C71.1365,6.3654 81.3125,-0.6796 83.4835,0.0534 C84.7705,0.4874 83.6135,15.6384 82.8645,14.4634" id="Fill-23" fill="#000000"></path>
                <path d="M56.7132,3.2813 C56.1172,3.1263 53.9402,2.2003 53.7652,3.7223 C53.5412,5.6593 54.3822,20.7883 55.2242,18.7983 C56.4222,15.9663 60.3352,9.3913 64.8512,8.5573 C66.3642,8.2783 57.9342,3.5983 56.7132,3.2813" id="Fill-25" fill="#000000"></path>
                <path d="M82.8577,1.7549 C84.5997,-0.0531 83.5967,10.5399 82.4637,13.8599 C80.1647,11.0729 77.5167,9.0209 76.1467,8.4299 C74.7767,7.8389 81.1167,3.5629 82.8577,1.7549" id="Fill-27" fill="#645047"></path>
                <path d="M54.2424,4.2256 C54.1624,6.0896 54.9544,19.5386 55.6174,18.1286 C57.1754,14.8186 59.6464,12.1486 61.2294,10.4126 C62.1614,9.3916 54.3224,2.3616 54.2424,4.2256" id="Fill-29" fill="#645047"></path>
                <path d="M79.7952,23.3829 C80.9692,22.1599 82.0062,20.7659 82.5682,19.1659 C82.8212,18.4469 82.9722,17.6419 82.6912,16.9339 C82.3302,16.0219 81.3552,15.5109 80.4082,15.2529 C79.4622,14.9959 78.4582,14.9069 77.5802,14.4689 C75.6972,13.5309 74.8932,11.2799 73.3232,9.8799 C71.8272,8.5449 69.6072,8.0799 67.7012,8.7029 C65.7962,9.3259 64.2782,11.0129 63.8602,12.9729 C63.7092,13.6819 63.6752,14.4609 63.2232,15.0269 C62.9062,15.4229 62.4322,15.6509 61.9832,15.8879 C60.8912,16.4659 59.8622,17.1639 58.9232,17.9669 C58.1282,18.6469 57.3592,19.4749 57.2042,20.5079 C57.0662,21.4339 57.4462,22.3569 57.9052,23.1729 C58.4982,24.2269 59.2452,25.2109 60.2062,25.9439 C61.1682,26.6769 62.3582,27.1469 63.5662,27.1149 C64.9572,27.0779 66.2362,26.4039 67.5442,25.9289 C69.3832,25.2599 71.3612,24.9749 73.3152,25.0969 C74.7992,25.1889 76.3532,25.5029 77.7302,24.9389 C78.5332,24.6099 79.1932,24.0089 79.7952,23.3829" id="Fill-31" fill="#423227"></path>
                <path d="M65.8352,21.0694 C66.5822,20.9114 67.3492,20.5534 67.7042,19.8774 C68.0792,19.1624 67.8502,18.1884 67.1942,17.7154 C66.7542,17.3984 66.1902,17.3104 65.6482,17.2724 C65.0912,17.2324 64.5312,17.2344 63.9752,17.2774 C63.6442,17.3034 63.3072,17.3464 63.0102,17.4944 C62.3492,17.8264 62.0302,18.6664 62.2012,19.3864 C62.3722,20.1064 62.9622,20.6824 63.6502,20.9544 C64.3382,21.2254 65.1112,21.2214 65.8352,21.0694" id="Fill-33" fill="#231913"></path>
                <path d="M67.4924,19.3492 C67.4924,19.3492 67.2684,17.6612 65.0924,17.5722 C62.9154,17.4832 62.7824,18.7982 62.7824,18.7982 C62.7824,18.7982 63.2264,20.7132 64.8254,20.7862 C66.4254,20.8592 67.1384,19.9712 67.4924,19.3492" id="Fill-35" fill="#489FCB"></path>
                <path d="M65.0921,17.5723 C64.5241,17.5493 64.0961,17.6223 63.7721,17.7413 C63.6581,17.9733 63.5921,18.2343 63.5921,18.5103 C63.5921,19.4683 64.3611,20.2433 65.3091,20.2433 C66.2571,20.2433 67.0261,19.4683 67.0261,18.5103 C67.0261,18.4683 67.0231,18.4263 67.0201,18.3853 C66.6761,17.9893 66.0891,17.6133 65.0921,17.5723" id="Fill-37" fill="#000000"></path>
                <path d="M65.426,18.6939 C65.426,18.9239 65.25,19.1109 65.034,19.1109 C64.818,19.1109 64.643,18.9239 64.643,18.6939 C64.643,18.4639 64.818,18.2769 65.034,18.2769 C65.25,18.2769 65.426,18.4639 65.426,18.6939" id="Fill-39" fill="#FFFFFF"></path>
                <path d="M75.5549,20.5543 C76.4139,20.6793 77.3339,20.5333 78.0439,20.0333 C78.7529,19.5323 79.2129,18.6493 79.0919,17.7893 C78.7949,17.3053 78.2899,16.9723 77.7469,16.8063 C77.2039,16.6403 76.6249,16.6293 76.0609,16.6873 C75.4449,16.7503 74.8189,16.9003 74.3149,17.2613 C73.8109,17.6203 73.4479,18.2233 73.5029,18.8403 C73.5459,19.3193 73.8349,19.7563 74.2209,20.0443 C74.6059,20.3323 75.0789,20.4853 75.5549,20.5543" id="Fill-41" fill="#231913"></path>
                <path d="M73.7717,18.7286 C73.7717,18.7286 73.9947,17.0406 76.1707,16.9516 C78.3477,16.8626 78.4817,18.1776 78.4817,18.1776 C78.4817,18.1776 78.0377,20.0936 76.4377,20.1656 C74.8387,20.2386 74.1257,19.3506 73.7717,18.7286" id="Fill-43" fill="#489FCB"></path>
                <path d="M77.843,17.959 C77.843,17.684 77.778,17.425 77.665,17.194 C77.326,17.032 76.847,16.924 76.171,16.952 C75.359,16.985 74.818,17.241 74.46,17.549 C74.428,17.681 74.409,17.817 74.409,17.959 C74.409,18.916 75.178,19.692 76.126,19.692 C77.074,19.692 77.843,18.916 77.843,17.959" id="Fill-45" fill="#000000"></path>
                <path d="M76.2434,18.1422 C76.2434,18.3722 76.0674,18.5592 75.8514,18.5592 C75.6354,18.5592 75.4594,18.3722 75.4594,18.1422 C75.4594,17.9122 75.6354,17.7252 75.8514,17.7252 C76.0674,17.7252 76.2434,17.9122 76.2434,18.1422" id="Fill-47" fill="#FFFFFF"></path>
                <path d="M67.4924,28.7935 C68.3214,29.9645 69.7184,30.7125 71.1514,30.7545 C72.5854,30.7965 74.0234,30.1315 74.9194,29.0115 C74.2274,28.6085 73.5354,28.2055 72.8444,27.8035 C72.4494,27.5735 72.0494,27.3415 71.6074,27.2285 C70.8694,27.0385 70.0764,27.1985 69.3864,27.5225 C68.6954,27.8455 68.0914,28.3215 67.4924,28.7935" id="Fill-49" fill="#FFFFFF"></path>
                <path d="M74.9192,29.0113 C74.2282,28.6083 73.5352,28.2053 72.8442,27.8033 C72.4492,27.5743 72.0492,27.3423 71.6072,27.2283 C70.8692,27.0383 70.0762,27.1993 69.3862,27.5223 C68.6952,27.8453 68.0912,28.3213 67.4922,28.7933 C67.6362,28.9963 67.7972,29.1843 67.9712,29.3603 C69.1942,29.1823 70.4192,29.0763 71.6432,28.7943 C72.6282,28.5473 73.4112,29.3803 74.3802,29.5743 C74.5752,29.4023 74.7572,29.2153 74.9192,29.0113" id="Fill-51" fill="#E7DFD5"></path>
                <path d="M69.5823,13.4644 C69.2243,14.8474 68.7563,16.5714 68.6483,17.9964 C68.5613,19.1614 68.4163,20.3404 67.9673,21.4194 C67.5193,22.4984 66.7303,23.4794 65.6563,23.9404 C64.9563,24.2404 64.1063,24.3474 63.6433,24.9524 C63.2283,25.4934 63.2723,26.2504 63.3873,26.9224 C63.4873,27.5094 63.6423,28.1224 64.0543,28.5534 C64.7583,29.2904 65.9273,29.2464 66.9413,29.1494 C68.5713,28.9924 70.3363,28.7764 71.5113,27.6354 C72.3893,28.7264 73.9053,29.0764 75.3053,29.0764 C76.1043,29.0754 76.9203,28.9804 77.6453,28.6454 C78.3723,28.3104 79.0033,27.7104 79.2383,26.9464 C79.4743,26.1824 79.2453,25.2604 78.5963,24.7944 C78.1133,24.4494 77.4773,24.3824 76.9843,24.0514 C76.5523,23.7614 76.2693,23.2944 75.8583,22.9734 C75.3353,22.5644 74.6433,22.4224 74.1093,22.0264 C73.5093,21.5804 73.1753,20.8574 72.9813,20.1344 C72.7873,19.4114 72.7103,18.6594 72.4933,17.9434 C72.2063,16.9934 71.7223,14.3484 71.2053,13.5014 C70.6993,12.6714 70.0093,11.8214 69.5823,13.4644" id="Fill-53" fill="#FFFFFF"></path>
                <path d="M71.5755,26.5469 C71.8685,26.5369 73.5535,25.4809 73.6415,24.9149 C73.7305,24.3479 73.3315,23.7259 71.6535,23.7149 C69.9755,23.7039 69.4645,24.2749 69.5785,25.0039 C69.6935,25.7329 71.2825,26.5569 71.5755,26.5469" id="Fill-55" fill="#F76F87"></path>
                <path d="M69.5784,24.6412 C69.5574,24.7562 69.5584,24.8772 69.5784,25.0032 C69.6934,25.7322 71.2824,26.5572 71.5754,26.5472 C71.7854,26.5392 72.7104,25.9952 73.2504,25.4792 C71.9594,25.7662 70.5334,25.5382 69.5784,24.6412" id="Fill-57" fill="#E74F61"></path>
                <path d="M72.5715,23.9703 C72.0495,23.9193 71.5235,23.9083 70.9995,23.9383 C70.8385,23.9483 70.6755,23.9613 70.5175,24.0043 C70.4465,24.0243 70.3615,24.0713 70.3685,24.1453 C70.3745,24.2213 70.4675,24.2523 70.5445,24.2623 C71.4365,24.3773 72.3695,24.1713 73.2315,24.4293 C73.2385,24.2813 73.1325,24.1463 73.0015,24.0743 C72.8715,24.0043 72.7185,23.9853 72.5715,23.9703" id="Fill-59" fill="#FCB4C4"></path>
                <g id="Group-63" transform="translate(75.000000, 22.978900)">
                    <mask id="mask-hhr9gbtfjm-2" fill="white">
                        <use xlink:href="#path-hhr9gbtfjm-1"></use>
                    </mask>
                    <g id="Clip-62"></g>
                    <path d="M21.4749,1.694 C21.2599,1.66 21.0289,1.624 20.7849,1.586 C20.6629,1.565 20.5369,1.55 20.4079,1.537 C20.2799,1.522 20.1479,1.507 20.0149,1.492 C19.4819,1.433 18.9139,1.369 18.3469,1.306 C18.2049,1.29 18.0629,1.274 17.9219,1.258 C17.8509,1.251 17.7809,1.243 17.7099,1.235 C17.6399,1.231 17.5699,1.226 17.4989,1.221 C17.2189,1.201 16.9429,1.183 16.6739,1.164 C16.1389,1.129 15.6369,1.094 15.2029,1.066 C15.0749,1.057 14.9479,1.048 14.8219,1.04 C14.6969,1.037 14.5729,1.034 14.4499,1.03 C14.2039,1.025 13.9639,1.019 13.7279,1.013 C13.2549,1.001 12.7959,0.99 12.3369,0.979 C11.8789,0.959 11.4199,0.979 10.9469,0.986 C10.4739,0.995 9.9869,1.004 9.4709,1.014 C8.9489,1.014 8.3649,1.069 7.7469,1.107 C7.4389,1.128 7.1229,1.15 6.8029,1.172 C6.6429,1.183 6.4819,1.194 6.3199,1.206 L6.0779,1.223 L5.8349,1.25 C5.1899,1.322 4.5439,1.395 3.9299,1.464 C3.6229,1.501 3.3239,1.527 3.0379,1.569 C2.7519,1.612 2.4779,1.654 2.2199,1.693 C1.8229,1.755 0.8079,1.913 0.4109,1.975 C-0.0191,2.04 0.7159,1.984 2.1559,1.776 C2.3619,1.747 2.5819,1.715 2.8189,1.682 C2.9369,1.666 3.0589,1.649 3.1839,1.632 C3.3109,1.619 3.4409,1.607 3.5739,1.594 C4.1069,1.541 4.6959,1.483 5.3329,1.419 C5.4939,1.402 5.6519,1.385 5.8109,1.368 L6.0489,1.342 C6.1289,1.335 6.2089,1.331 6.2889,1.325 C6.6099,1.302 6.9319,1.28 7.2609,1.257 C7.5899,1.235 7.9249,1.212 8.2709,1.188 C8.6169,1.167 8.9719,1.135 9.3429,1.134 C9.8289,1.126 10.3309,1.117 10.8389,1.109 C11.3469,1.104 11.8609,1.082 12.3689,1.106 C12.8769,1.12 13.3809,1.133 13.8699,1.147 C14.3579,1.161 14.8309,1.164 15.2779,1.202 C15.9589,1.244 16.7629,1.293 17.5959,1.344 C18.4279,1.419 19.2869,1.511 20.0859,1.588 C20.2859,1.609 20.4819,1.625 20.6709,1.649 C20.8599,1.675 21.0439,1.701 21.2209,1.726 C21.5749,1.777 21.9019,1.823 22.1899,1.863 C22.7659,1.946 23.1879,2.007 23.3639,2.032 C23.7799,2.096 23.1989,1.964 21.4749,1.694" id="Fill-61" fill="#FFFFFF" mask="url(#mask-hhr9gbtfjm-2)"></path>
                </g>
                <path d="M96.4592,28.6207 C96.2502,28.5587 96.0232,28.4927 95.7852,28.4237 C95.6662,28.3867 95.5432,28.3547 95.4162,28.3247 C95.2902,28.2937 95.1612,28.2617 95.0302,28.2297 C94.5062,28.1007 93.9482,27.9637 93.3912,27.8267 C93.2522,27.7917 93.1122,27.7577 92.9742,27.7247 C92.9042,27.7067 92.8352,27.6907 92.7662,27.6737 C92.6952,27.6597 92.6262,27.6457 92.5572,27.6317 C92.2792,27.5757 92.0072,27.5207 91.7422,27.4677 C91.2122,27.3627 90.7162,27.2637 90.2872,27.1777 C90.1602,27.1527 90.0342,27.1277 89.9102,27.1027 C89.7862,27.0837 89.6622,27.0637 89.5412,27.0447 C89.2972,27.0067 89.0592,26.9697 88.8232,26.9337 C88.3542,26.8607 87.8972,26.7897 87.4412,26.7187 C86.9862,26.6397 86.5262,26.5997 86.0542,26.5437 C85.5802,26.4917 85.0942,26.4377 84.5782,26.3807 C84.0572,26.3127 83.4672,26.2907 82.8472,26.2487 C82.5372,26.2297 82.2192,26.2107 81.8962,26.1907 C81.7352,26.1817 81.5732,26.1717 81.4112,26.1617 L81.1672,26.1467 L80.9222,26.1427 C80.2692,26.1307 79.6152,26.1197 78.9942,26.1077 C78.6842,26.1047 78.3812,26.0907 78.0912,26.0967 C77.8002,26.1027 77.5222,26.1087 77.2602,26.1137 C76.8552,26.1237 75.8222,26.1487 75.4182,26.1587 C74.9812,26.1677 75.7222,26.2067 77.1852,26.1867 C77.3932,26.1847 77.6172,26.1827 77.8572,26.1807 C77.9782,26.1797 78.1022,26.1787 78.2292,26.1777 C78.3562,26.1817 78.4872,26.1857 78.6222,26.1907 C79.1602,26.2067 79.7562,26.2257 80.3992,26.2457 C80.5612,26.2487 80.7222,26.2527 80.8832,26.2567 L81.1242,26.2617 C81.2042,26.2647 81.2842,26.2707 81.3652,26.2757 C81.6882,26.2947 82.0122,26.3147 82.3432,26.3347 C82.6742,26.3557 83.0112,26.3757 83.3582,26.3977 C83.7062,26.4217 84.0642,26.4357 84.4352,26.4837 C84.9212,26.5377 85.4232,26.5947 85.9302,26.6527 C86.4382,26.7137 86.9522,26.7587 87.4562,26.8487 C87.9612,26.9287 88.4612,27.0077 88.9462,27.0847 C89.4322,27.1627 89.9032,27.2277 90.3442,27.3237 C91.0182,27.4537 91.8132,27.6077 92.6382,27.7667 C93.4572,27.9497 94.3032,28.1537 95.0892,28.3337 C95.2842,28.3807 95.4782,28.4217 95.6642,28.4707 C95.8492,28.5217 96.0292,28.5717 96.2022,28.6197 C96.5492,28.7157 96.8692,28.8037 97.1502,28.8827 C97.7152,29.0397 98.1272,29.1557 98.2992,29.2037 C98.7052,29.3217 98.1432,29.1137 96.4592,28.6207" id="Fill-64" fill="#FFFFFF"></path>
                <path d="M96.4798,32.9507 C96.2858,32.8577 96.0758,32.7577 95.8548,32.6517 C95.7458,32.5967 95.6298,32.5467 95.5118,32.4967 C95.3948,32.4467 95.2738,32.3957 95.1518,32.3437 C94.6638,32.1347 94.1428,31.9127 93.6228,31.6917 C93.4928,31.6357 93.3628,31.5807 93.2328,31.5257 L93.0388,31.4427 C92.9728,31.4187 92.9078,31.3937 92.8428,31.3687 C92.5828,31.2707 92.3258,31.1747 92.0768,31.0807 C91.5788,30.8937 91.1118,30.7197 90.7088,30.5677 C90.5878,30.5227 90.4708,30.4787 90.3538,30.4357 C90.2358,30.3967 90.1198,30.3587 90.0038,30.3207 C89.7728,30.2447 89.5468,30.1707 89.3248,30.0977 C88.8788,29.9517 88.4468,29.8107 88.0148,29.6697 C87.5848,29.5197 87.1438,29.4087 86.6928,29.2797 C86.2418,29.1537 85.7768,29.0247 85.2848,28.8867 C84.7898,28.7377 84.2188,28.6237 83.6238,28.4847 C83.3248,28.4167 83.0178,28.3467 82.7088,28.2777 C82.5528,28.2427 82.3968,28.2067 82.2408,28.1717 L82.0048,28.1187 L81.7678,28.0757 C81.1348,27.9607 80.5008,27.8457 79.8998,27.7367 C79.5978,27.6837 79.3058,27.6227 79.0228,27.5817 C78.7398,27.5417 78.4678,27.5037 78.2118,27.4677 C77.8178,27.4127 76.8098,27.2737 76.4158,27.2197 C75.9888,27.1587 76.7028,27.3147 78.1268,27.5277 C78.3308,27.5587 78.5488,27.5917 78.7828,27.6277 C78.8998,27.6457 79.0198,27.6647 79.1438,27.6837 C79.2668,27.7087 79.3938,27.7337 79.5238,27.7597 C80.0448,27.8607 80.6208,27.9727 81.2448,28.0947 C81.3998,28.1237 81.5558,28.1527 81.7108,28.1817 L81.9448,28.2247 C82.0228,28.2407 82.0998,28.2597 82.1768,28.2767 C82.4878,28.3467 82.7998,28.4177 83.1188,28.4897 C83.4368,28.5617 83.7608,28.6357 84.0958,28.7117 C84.4298,28.7897 84.7768,28.8607 85.1278,28.9657 C85.5918,29.0967 86.0718,29.2307 86.5558,29.3677 C87.0388,29.5077 87.5328,29.6327 88.0078,29.8007 C88.4858,29.9577 88.9598,30.1147 89.4188,30.2657 C89.8778,30.4187 90.3268,30.5567 90.7398,30.7197 C91.3748,30.9537 92.1238,31.2297 92.8998,31.5147 C93.6668,31.8227 94.4568,32.1557 95.1918,32.4547 C95.3758,32.5317 95.5568,32.6027 95.7298,32.6797 C95.9018,32.7587 96.0688,32.8357 96.2288,32.9097 C96.5508,33.0577 96.8478,33.1947 97.1098,33.3157 C97.6328,33.5587 98.0158,33.7367 98.1738,33.8097 C98.5508,33.9897 98.0378,33.6977 96.4798,32.9507" id="Fill-66" fill="#FFFFFF"></path>
                <path d="M88.7512,35.3985 C88.5132,35.1775 88.2382,34.9195 87.9322,34.6605 C87.7792,34.5295 87.6232,34.3935 87.4642,34.2565 C87.3002,34.1245 87.1342,33.9895 86.9682,33.8555 C86.3052,33.3165 85.6112,32.8155 85.0752,32.4455 C84.4392,32.0095 83.8592,31.6385 83.2702,31.2875 C82.9782,31.1055 82.6752,30.9425 82.3662,30.7685 C82.0602,30.5905 81.7332,30.4275 81.3912,30.2495 C81.0462,30.0645 80.6452,29.8865 80.2272,29.6905 C80.0182,29.5885 79.7962,29.5035 79.5762,29.4075 C79.3542,29.3155 79.1332,29.2135 78.9052,29.1295 C78.4512,28.9545 77.9992,28.7755 77.5612,28.6295 C77.3422,28.5545 77.1312,28.4765 76.9252,28.4105 C76.7192,28.3455 76.5222,28.2825 76.3352,28.2235 C76.0512,28.1235 75.3072,27.9325 75.0182,27.8485 C74.8612,27.8045 74.9122,27.8335 75.1322,27.9105 C75.2412,27.9485 75.3942,27.9995 75.5842,28.0595 C75.7742,28.1195 76.0022,28.1875 76.2602,28.2755 C76.4072,28.3245 76.5652,28.3765 76.7342,28.4335 C76.8192,28.4615 76.9062,28.4905 76.9962,28.5205 C77.0852,28.5535 77.1762,28.5875 77.2702,28.6235 C77.6452,28.7625 78.0612,28.9125 78.5042,29.0945 C79.3962,29.4425 80.2592,29.8135 81.2502,30.3095 C82.5492,30.9625 83.9512,31.8275 85.0512,32.5885 C85.2592,32.7355 85.4902,32.8905 85.7282,33.0615 C85.9632,33.2335 86.2102,33.4155 86.4612,33.6005 C86.9552,33.9805 87.4662,34.3775 87.9212,34.7665 C88.0352,34.8635 88.1492,34.9555 88.2582,35.0495 C88.3642,35.1445 88.4682,35.2365 88.5672,35.3255 C88.7662,35.5045 88.9542,35.6655 89.1112,35.8155 C89.4262,36.1165 89.6552,36.3365 89.7512,36.4285 C89.8632,36.5385 89.8482,36.5085 89.6882,36.3355 C89.6082,36.2495 89.4922,36.1275 89.3392,35.9695 C89.2612,35.8905 89.1752,35.8025 89.0792,35.7055 C88.9802,35.6115 88.8702,35.5095 88.7512,35.3985" id="Fill-68" fill="#FFFFFF"></path>
                <path d="M49.0335,25.315 C49.8115,25.207 50.8415,25.121 51.8685,25.014 C52.3815,24.957 52.8965,24.923 53.3805,24.887 C53.8645,24.85 54.3175,24.815 54.7105,24.786 C54.8265,24.777 54.9405,24.768 55.0545,24.759 C55.1675,24.753 55.2795,24.748 55.3895,24.742 C55.6115,24.731 55.8285,24.72 56.0425,24.709 C56.4695,24.687 56.8835,24.666 57.2985,24.645 C57.7125,24.619 58.1265,24.615 58.5545,24.603 C58.9815,24.591 59.4225,24.579 59.8875,24.566 C60.3595,24.546 60.8885,24.552 61.4485,24.545 C62.0075,24.543 62.5945,24.528 63.1815,24.533 C63.7695,24.542 64.3565,24.55 64.9155,24.559 C65.1945,24.565 65.4675,24.565 65.7285,24.575 C65.9895,24.587 66.2395,24.598 66.4755,24.609 C66.8395,24.624 67.7675,24.662 68.1325,24.676 C68.5245,24.695 67.8645,24.61 66.5475,24.54 C66.3595,24.529 66.1575,24.518 65.9415,24.506 C65.8335,24.5 65.7215,24.493 65.6065,24.486 C65.4925,24.482 65.3745,24.479 65.2535,24.474 C64.7665,24.461 64.2305,24.444 63.6495,24.428 C63.3585,24.423 63.0705,24.41 62.7785,24.415 C62.4875,24.418 62.1945,24.421 61.8955,24.424 C61.5965,24.426 61.2925,24.429 60.9785,24.432 C60.6645,24.436 60.3415,24.432 60.0055,24.445 C59.5645,24.456 59.1095,24.467 58.6495,24.479 C58.1885,24.491 57.7225,24.493 57.2625,24.521 C56.8025,24.543 56.3455,24.564 55.9035,24.586 C55.4615,24.607 55.0325,24.624 54.6275,24.66 C54.0105,24.711 53.2825,24.771 52.5275,24.833 C51.7745,24.912 50.9965,25.004 50.2735,25.085 C50.0935,25.106 49.9165,25.124 49.7445,25.147 C49.5735,25.171 49.4065,25.194 49.2465,25.217 C48.9255,25.262 48.6295,25.304 48.3675,25.34 C47.8455,25.412 47.4625,25.465 47.3045,25.487 C46.9255,25.535 47.4675,25.509 49.0335,25.315" id="Fill-70" fill="#FFFFFF"></path>
                <path d="M45.5393,28.1495 C45.7543,28.0905 45.9863,28.0285 46.2303,27.9625 C46.3513,27.9265 46.4783,27.8975 46.6083,27.8695 C46.7373,27.8395 46.8693,27.8095 47.0033,27.7795 C47.5403,27.6585 48.1103,27.5285 48.6813,27.3995 C48.8233,27.3675 48.9663,27.3355 49.1073,27.3025 C49.1793,27.2865 49.2503,27.2705 49.3203,27.2545 C49.3923,27.2415 49.4633,27.2285 49.5343,27.2155 C49.8173,27.1645 50.0973,27.1125 50.3673,27.0635 C50.9083,26.9645 51.4153,26.8715 51.8533,26.7905 C51.9823,26.7665 52.1113,26.7425 52.2373,26.7195 C52.3643,26.7015 52.4903,26.6835 52.6153,26.6665 C52.8633,26.6315 53.1073,26.5975 53.3473,26.5635 C53.8273,26.4965 54.2923,26.4305 54.7583,26.3655 C55.2223,26.2915 55.6913,26.2585 56.1733,26.2085 C56.6553,26.1605 57.1523,26.1115 57.6783,26.0595 C58.2093,25.9955 58.8093,25.9765 59.4403,25.9325 C59.7563,25.9135 60.0803,25.8925 60.4083,25.8725 C60.5723,25.8615 60.7373,25.8515 60.9033,25.8405 L61.1523,25.8245 L61.4013,25.8185 C62.0673,25.8055 62.7323,25.7915 63.3663,25.7785 C63.6833,25.7745 63.9913,25.7605 64.2873,25.7675 C64.5833,25.7745 64.8673,25.7825 65.1343,25.7895 C65.5473,25.7985 66.6003,25.8225 67.0123,25.8325 C67.4583,25.8445 66.7083,25.7705 65.2133,25.7195 C65.0003,25.7115 64.7703,25.7035 64.5253,25.6945 C64.4033,25.6905 64.2763,25.6855 64.1463,25.6795 C64.0173,25.6805 63.8823,25.6815 63.7453,25.6815 C63.1943,25.6865 62.5853,25.6915 61.9273,25.6965 C61.7623,25.6985 61.5983,25.7015 61.4343,25.7035 L61.1863,25.7075 C61.1043,25.7105 61.0223,25.7175 60.9393,25.7215 C60.6103,25.7425 60.2783,25.7635 59.9403,25.7845 C59.6023,25.8055 59.2583,25.8265 58.9023,25.8495 C58.5483,25.8725 58.1823,25.8845 57.8033,25.9285 C57.3063,25.9775 56.7923,26.0265 56.2723,26.0765 C55.7533,26.1295 55.2263,26.1635 54.7093,26.2455 C54.1913,26.3165 53.6793,26.3865 53.1813,26.4555 C52.6843,26.5255 52.2003,26.5835 51.7493,26.6765 C51.0603,26.8075 50.2463,26.9615 49.4023,27.1215 C48.5643,27.3095 47.7023,27.5235 46.9003,27.7135 C46.7013,27.7625 46.5033,27.8055 46.3143,27.8575 C46.1253,27.9115 45.9423,27.9635 45.7653,28.0145 C45.4123,28.1155 45.0863,28.2085 44.7983,28.2915 C44.2233,28.4545 43.8023,28.5735 43.6283,28.6235 C43.2103,28.7375 43.8133,28.6165 45.5393,28.1495" id="Fill-72" fill="#FFFFFF"></path>
                <path d="M53.0911,29.7261 C53.6911,29.5101 54.4981,29.2911 55.2991,29.0501 C55.6971,28.9251 56.1051,28.8261 56.4861,28.7281 C56.8651,28.6301 57.2231,28.5391 57.5311,28.4591 C57.6221,28.4351 57.7121,28.4131 57.8021,28.3901 C57.8921,28.3701 57.9801,28.3501 58.0681,28.3311 C58.2431,28.2921 58.4151,28.2551 58.5841,28.2181 C58.9221,28.1441 59.2511,28.0731 59.5791,28.0011 C59.9061,27.9241 60.2381,27.8721 60.5781,27.8091 C60.9191,27.7481 61.2711,27.6841 61.6421,27.6171 C62.0171,27.5411 62.4431,27.4891 62.8901,27.4181 C63.1131,27.3841 63.3431,27.3491 63.5751,27.3131 C63.6921,27.2951 63.8081,27.2781 63.9251,27.2591 C64.0421,27.2401 64.1601,27.2241 64.2791,27.2121 C64.7511,27.1571 65.2251,27.1031 65.6741,27.0511 C65.9001,27.0271 66.1171,26.9971 66.3291,26.9811 C66.5401,26.9661 66.7421,26.9511 66.9341,26.9381 C67.2281,26.9151 67.9791,26.8581 68.2731,26.8351 C68.5911,26.8131 68.0511,26.7971 66.9841,26.8621 C66.8311,26.8711 66.6671,26.8801 66.4921,26.8901 C66.4041,26.8951 66.3151,26.9001 66.2211,26.9051 C66.1281,26.9131 66.0331,26.9221 65.9351,26.9311 C65.5431,26.9671 65.1101,27.0081 64.6411,27.0581 C64.4071,27.0841 64.1731,27.1011 63.9401,27.1401 C63.7061,27.1751 63.4721,27.2111 63.2321,27.2471 C62.9921,27.2841 62.7481,27.3211 62.4971,27.3591 C62.2451,27.3981 61.9861,27.4301 61.7181,27.4831 C61.3661,27.5461 61.0031,27.6111 60.6351,27.6761 C60.2681,27.7431 59.8951,27.7981 59.5301,27.8831 C59.1651,27.9611 58.8031,28.0391 58.4511,28.1141 C58.1011,28.1901 57.7591,28.2581 57.4421,28.3471 C56.9561,28.4761 56.3841,28.6281 55.7911,28.7861 C55.2031,28.9621 54.5981,29.1571 54.0351,29.3321 C53.8961,29.3771 53.7571,29.4171 53.6241,29.4631 C53.4921,29.5111 53.3631,29.5571 53.2391,29.6011 C52.9921,29.6891 52.7641,29.7711 52.5631,29.8431 C52.1591,29.9861 51.8641,30.0901 51.7421,30.1331 C51.4491,30.2331 51.8791,30.1321 53.0911,29.7261" id="Fill-74" fill="#FFFFFF"></path>
                <path d="M51.2298,34.3853 C51.8768,34.0273 52.7558,33.6133 53.6258,33.1783 C54.0578,32.9573 54.5008,32.7603 54.9168,32.5693 C55.3318,32.3783 55.7198,32.1993 56.0558,32.0453 C56.1558,31.9993 56.2538,31.9533 56.3508,31.9083 C56.4488,31.8673 56.5458,31.8253 56.6418,31.7843 C56.8338,31.7033 57.0218,31.6233 57.2078,31.5453 C57.5778,31.3873 57.9368,31.2353 58.2948,31.0823 C58.6528,30.9253 59.0188,30.7893 59.3928,30.6413 C59.7678,30.4943 60.1538,30.3433 60.5608,30.1833 C60.9718,30.0133 61.4438,29.8523 61.9358,29.6693 C62.4298,29.4903 62.9468,29.2913 63.4688,29.1113 C63.9928,28.9343 64.5168,28.7593 65.0158,28.5923 C65.2648,28.5103 65.5068,28.4243 65.7428,28.3533 C65.9778,28.2833 66.2038,28.2163 66.4168,28.1533 C66.7448,28.0533 67.5818,27.8013 67.9098,27.7013 C68.2648,27.5963 67.6508,27.7223 66.4578,28.0653 C66.2878,28.1143 66.1038,28.1663 65.9088,28.2213 C65.8108,28.2493 65.7088,28.2783 65.6048,28.3073 C65.5018,28.3393 65.3958,28.3723 65.2868,28.4063 C64.8508,28.5433 64.3698,28.6963 63.8488,28.8653 C63.5898,28.9523 63.3288,29.0303 63.0728,29.1263 C62.8158,29.2213 62.5558,29.3163 62.2928,29.4133 C62.0288,29.5103 61.7588,29.6093 61.4818,29.7113 C61.2058,29.8133 60.9178,29.9123 60.6248,30.0313 C60.2378,30.1823 59.8378,30.3383 59.4348,30.4953 C59.0318,30.6533 58.6198,30.8023 58.2218,30.9763 C57.8218,31.1453 57.4258,31.3113 57.0418,31.4733 C56.6578,31.6363 56.2838,31.7883 55.9388,31.9543 C55.4118,32.2013 54.7898,32.4923 54.1438,32.7953 C53.5058,33.1133 52.8508,33.4533 52.2428,33.7643 C52.0908,33.8433 51.9408,33.9173 51.7968,33.9943 C51.6548,34.0733 51.5158,34.1503 51.3818,34.2233 C51.1158,34.3713 50.8698,34.5073 50.6518,34.6273 C50.2158,34.8663 49.8978,35.0403 49.7658,35.1133 C49.4498,35.2823 49.9178,35.0803 51.2298,34.3853" id="Fill-76" fill="#FFFFFF"></path>
            </g>
        </g>
    </g>
</svg>