<svg height="104" viewBox="0 0 75 104" width="75" xmlns="http://www.w3.org/2000/svg" xmlns:xlink="http://www.w3.org/1999/xlink"><mask id="a" fill="#fff"><path d="m.43186779.00381472h32.64588221v15.34577758h-32.64588221z" fill="#fff" fill-rule="evenodd"/></mask><mask id="b" fill="#fff"><path d="m.89702855.05171852h29.78254355v87.94828148h-29.78254355z" fill="#fff" fill-rule="evenodd"/></mask><mask id="c" fill="#fff"><path d="m.25783333.78626157h12.43740167v33.21373843h-12.43740167z" fill="#fff" fill-rule="evenodd"/></mask><mask id="d" fill="#fff"><path d="m.47046939.16225639h9.17453061v8.83774361h-9.17453061z" fill="#fff" fill-rule="evenodd"/></mask><mask id="e" fill="#fff"><path d="m.89921912.07h14.32019418v13.5139846h-14.32019418z" fill="#fff" fill-rule="evenodd"/></mask><g fill="none" fill-rule="evenodd"><path d="m17.2576975 96.0294898c-.3899903-.7662836-.2585806-1.6864697-.1155134-2.5377763.4164842-2.4979553.8340282-4.9948344 1.2505125-7.4917135 8.8288304 1.0105903 17.7233657 1.4314005 26.6073034 1.259202-1.5048541.7856559-2.5105629 2.295622-3.236496 3.8486377-.7259331 1.5508633-1.2388552 3.2082744-2.1036164 4.6859533-.8637014 1.4766026-2.1756798 2.8036078-3.8341986 3.1404712-1.6585187.3368634-3.623307-.6478971-3.9369949-2.3365192-2.7034385-1.1235956-5.8042857-1.2247622-8.5723694-.2808989-1.0544576.3594645-2.0760627.866374-3.1824484.9858367-1.1053259.1173103-2.366436-.2690602-2.8761788-1.273193" fill="#0f0d0d"/><path d="m31.6525125 13.82464c-1.3844375 1.2672-3.4244375 1.4133333-5.2955 1.4933333-1.5140625.0650667-3.1290625.1056-4.4231875-.6848-1.294125-.7914666-1.9858125-2.752-.9594375-3.8709333.7225-.78826667 1.914625-.8384 2.968625-1.00373333 1.054-.16426667 2.2695-.7072 2.3916875-1.77066667.0988125-.86293333-.5981875-1.6128-1.3345-2.07146667-1.598-.99626666-3.5370625-1.24266666-5.4113125-1.40586666-6.3665-.55573334-12.7925-.42986667-19.131375.37546666-.1785-1.168.5981875-2.31573333 1.6033125-2.92906666 1.0061875-.6144 2.203625-.80746667 3.368125-.9824 4.1448125-.62506667 8.3353125-1.18933334 12.5151875-.8864 4.1788125.30293333 8.3948125 1.536 11.6630625 4.16853333 1.445 1.1616 2.713625 2.63893333 3.2385 4.42026667.524875 1.78133333.17425 3.89653333-1.1931875 5.14773333" fill="#0f0d0d" mask="url(#a)" transform="translate(41 83)"/><path d="m15.4091661 30.9537281c2.2823073-2.1559205 5.6518894-2.6362051 8.7919477-2.8398973 2.868509-.1876112 5.7973623-.2262055 8.5656566.5467526 2.7682944.7729581 5.3889608 2.4593146 6.71438 4.997962 1.4816679 2.8388252 1.1594725 6.2383399 1.79201 9.3741268.717666 3.554964 2.6551488 6.7239849 4.2876774 9.9648341 3.031223 6.0196389 5.0861617 12.5238506 6.0624461 19.1867278.7015024 4.7889095.6918042 10.1535174-2.4170044 13.8757233-1.8685179 2.2395415-4.6508207 3.5753331-7.5020885 4.2260759-2.8523453.6507428-5.8049053.6786165-8.7316034.7011298-4.7305614.0375222-9.5246998.0696842-14.1097884-1.0924331s-9.01500609-3.672891-11.48373415-7.6888424c-2.43101287-3.95806-2.69286399-8.8831216-2.12929142-13.4876361.48383191-3.9409069 1.5172279-7.8067694 2.95902543-11.5096782 1.37067747-3.5217299 3.12389464-6.9534065 3.71225144-10.685261.4245652-2.6919525.224136-5.4428685.470901-8.1573343.2478427-2.7144658 1.0301633-5.536138 3.0172146-7.4122499" fill="#e7dfd5"/><path d="m8.0656651 57c.00107758 2.9548629.00215515 5.9086671.00323273 8.86353.00107758 2.1460076.0193964 4.3724772.94288045 6.3173296 1.12391352 2.3693957 7.51502662 4.9960581 10.34797822 5.278734 5.2758203.5261794 4.189622 1.5033699 9.4740628 1.077768 3.3706629-.2720888 7.3803294-.2826759 10.3447455-1.8834472 4.3200089-2.331282 8.1249356-7.7264742 8.8555332-12.5171423.2769375-1.8188658.3372818-3.6504362.2618514-5.4841239 1.5624876 4.1247387 2.6820908 8.4114603 3.3275598 12.7659394.7015031 4.7292628.6907273 10.0270536-2.4170067 13.7028988-1.8685196 2.2116477-4.6508251 3.5308018-7.5020956 4.1734395-2.8523481.6426377-5.8049109.6701642-8.7316118.6923971-4.7305659.0370549-9.5247089.0688162-14.1098019-1.0788267-4.5850929-1.1476429-9.01501465-3.6271445-11.48374507-7.5930766-2.43209278-3.9087617-2.69286657-8.7724808-2.12929345-13.3196454.46659112-3.7605421 1.44934195-7.452268 2.81571042-10.9957743" fill="#d7cdc2"/><path d="m32.5360547 89.1412565c-.2115614.9574843-.4460237 1.9591767-1.1003372 2.6966984-1.3816919 1.5569902-3.8724452 1.2442983-5.9182653.8000601.5485328-6.0543629-.993466-12.109804-3.0447387-17.8417707-.9400304-2.6287687-1.9989277-5.251068-2.356619-8.0167743-.3576914-2.7678628.0719745-5.7632359 1.8386208-7.936984 1.5114641-1.8599779 3.9476913-2.9457737 6.3588364-2.8347141 2.4100546.1121378 4.7328675 1.4168179 6.0622143 3.4083421 1.5616282 2.3365635 1.7023056 5.3082152 1.5976154 8.1062689-.2704496 7.3008176-1.8571597 14.4830279-3.4373267 21.6188736" fill="#c0b5ab"/><path d="m24.5341483 79.8790181c1.361862 2.9101927 2.3891379 4.6676747.804931 6.156012-1.5842069 1.4904819-4.1390345 2.0695181-5.9904827.9318193-2.4340345-1.4947711-2.6168276-4.9400361-2.2726207-7.7816024 1.2421379-10.2253494 5.6601724-20.3681325 3.6836551-30.4755301-.2907586-1.4872651-.7397241-2.9884699-1.6804138-4.1744217-.9396206-1.1859518-2.4596896-2.0041085-3.9498275-1.7531928-2.5452069.4267711-3.6825863 3.5128193-3.6473104 6.1013253.0652069 4.8703374 2.4543448 9.3610843 3.7766552 14.0480603 1.7776896 6.300771 1.6162758 12.9661204 1.4420345 19.5124457-.0384828 1.4701085-.093 2.9970482-.775 4.2988073-.682 1.3006867-3.4324483 1.4711807-4.838138 1.0572771-2.09624134-.6187109-4.5591379-3.9320844-2.1721379-5.7967952 5.2347241-4.0854217-3.67082758-21.4028916-6.10806896-32.6351205-2.95889655-13.6352289-2.47251724-28.0092651 1.40248276-41.41287951.57510344-1.99124096 1.28596551-4.05861446 2.82848276-5.4386506 1.33620689-1.19560241 3.13420694-1.7210241 4.89693104-2.0373494 4.9375517-.88785542 10.1166896-.38495181 14.7923448 1.43579518.5173793 8.20622893.0566552 14.63138553 2.1742759 23.66006023 2.2865172 9.7460362 1.9893448 20.1601084 1.1918965 30.1399036-.8957931 11.2022048-7.2999655 20.4464097-5.5596896 24.1640362" fill="#f3eee9" mask="url(#b)" transform="translate(11 16)"/><path d="m4.0235.79549375c1.4365-.0988125 3.01275.6236875 4.50125.8255625.81791667 2.5170625 1.8730833 4.9990625 2.6065 7.5395 1.8005 6.24325005 1.638 12.84775005 1.4614167 19.33325005-.0400834 1.4566875-.09425 2.97075-.7854167 4.260625-.69225 1.2888125-3.47858333 1.45775-4.90316667 1.0465625-2.12441666-.6130625-4.6215-3.8961875-2.20241666-5.7428125 4.394-3.35325-1.04325-15.7005625-4.44383334-26.16725005 1.2415-.4494375 2.4635-1.0061875 3.76566667-1.0954375" fill="#a78f81" mask="url(#c)" transform="translate(15 70)"/><path d="m28.1292185 95.5283233c.9752474-8.3852073 3.975531-16.7162185 4.0511075-25.0179639 1.0073415-.0986368 2.0105419-.1300705 2.9712952-.5072747 1.0176946-.3988827 1.9722361-1.468712 3.0468718-1.6399714.9307298-.1506649 1.8987302-.0986368 2.801507-.3631133-.0776471 1.2725224-.1666824 2.5417931-.2640001 3.8034763-.8665415 11.324799-7.068991 20.6692758-5.3835315 24.4261434 1.3189652 2.9417597 2.3138832 4.7183053.7795768 6.2238703-1.5343065 1.505565-4.0086604 2.090882-5.8017905.941927-2.3573657-1.512069-2.5354363-4.9947049-2.2010362-7.8670937" fill="#a78f81"/><path d="m1.48944444 2.7088875c.74111112-.583875 1.20888889-1.425375 1.45777778-2.471625.93333334-.136125 1.90777778-.06075 2.85444445.02025 1.28222222.11025 2.56444444.2205 3.84333333.365625-.01888889.849375-.04 1.699875-.06333333 2.547-.04 1.542375-.09666667 3.1455-.80555556 4.51125-.70888889 1.364625-3.56777778 1.5435-5.02888889 1.108125-2.17888889-.649125-4.73888889-4.125375-2.25777778-6.080625" fill="#382e2a" mask="url(#d)" transform="translate(18 95)"/><path d="m30.3537246 103.36334c-2.1463688-1.432996-2.504097-4.5486494-2.3064051-7.36334.9413899.1197013 1.8796417.2622028 2.8126637.4446048 1.6725359.3283236 3.3618077.7888886 5.0479415.5654462.0104599-.00114.0209198-.0034201.0313797-.0045601 1.0438967 2.4088462 1.6191905 3.9957431.276141 5.3671781-1.5501553 1.584617-4.0500683 2.200224-5.8617208.990671" fill="#382e2a"/><path d="m19.2226507 60.5618794c.074807 1.0658464.4678067 2.1021445.4288228 3.1679908-.0379302 1.0679569-.7396403 2.2519961-1.8059023 2.2701298-1.2885756.0198569-1.9428728-1.5208715-2.2189209-2.7808918-1.2854147-5.8822054-1.8143313-11.9300919-1.5677845-17.9463196.0558417-1.3697708.1896513-2.8376839 1.0631012-3.8908668 1.4023664-1.69058 3.9605525-1.5702765 6.083594-2.1232503 2.1651864-.5624714 4.4947372-1.9375187 6.4523606-.8547876 1.4518865.8041335 1.9502482 2.6224041 2.2494759 4.2570535.715407 3.9077515 1.0810127 7.8798759 1.0926025 11.8541108-2.4559851 1.0204688-5.3397393-.2047269-7.898979.5181491-2.3421943.6627242-4.0501101 3.0972861-3.8783703 5.5286821" fill="#f8f7f6"/><path d="m15.2194133 7.76106154c-4.5002666-2.47369231-11.80799997-6.27523077-13.49866663-7.42107692-1.69173334-1.14476924-.30613334 1.66923076.06506666 2.42523076.37013334.756.95466667 1.37953847 1.4688 2.04507693 1.9072 2.46615384 2.88 5.65169229 2.68053334 8.77369229 2.7456-2.4446154 5.87840003-4.46492306 9.28426663-5.82292306" fill="#0f0d0d" mask="url(#e)" transform="translate(5)"/><g fill="#fff"><path d="m.30003578 33.5126384c.06081938-.0882502.139163-.1765003.22162996-.274556.08246696-.0969662.17111895-.201559.26389428-.3115993.09689868-.1067717.20204406-.212454.30718943-.3224943.05257269-.0555649.10617621-.1111298.15977974-.1666947.05463436-.0555649.11339207-.1067718.16905727-.1601576.11442291-.1056823.22884582-.2113646.33914538-.3148678.11751542-.0969662.23193833-.1917534.34120706-.283272.05463436-.0457594.10823789-.0904292.15977974-.13292.05257269-.0435803.10617621-.0806236.15668722-.1187564.10102203-.075176.1948282-.145994.278326-.2080959.04948018-.0370433.09689868-.0751761.1474097-.1089508.04948017-.0337748.09896035-.06646.14740969-.0991452.09792952-.0653705.19379736-.1296515.28760353-.1928429.09277533-.0653705.18967401-.1198459.28554186-.1765003.094837-.0566544.18864317-.1122193.28348018-.1688737.09277533-.0577439.19070485-.1056823.28863436-.1568891.09792952-.0501174.19688988-.1013243.29688107-.1536207.09896035-.0544753.20410573-.0991452.31131278-.145994.10617621-.0479383.21544494-.0958767.32677534-.1459941.91229076-.3900438 1.89364761-.6983745 2.87603529-.8258469.09483701-.0098056.27523349-.0283272.45666081-.0337747.18142731-.0021791.36285463-.0043581.45769163-.0098056.20513657-.0119846.26286345.0882501-.41542732.137278-.09689868.004358-.20101322.0228796-.31131278.0392223-.11029956.0152531-.22781498.0326852-.35254626.0512068-.12370044.0163426-.25255507.0501174-.38759472.0751761-.06803524.0130741-.13710133.0272377-.20822908.0414013-.07112775.0130741-.14328635.0272377-.21544494.0468488-.5875771.1307409-1.27720707.3856858-1.9183877.6580627-.84013218.3606271-1.63181501.7909827-2.32144498 1.2954249-.12885463.0980557-.26904846.1982904-.4092423.3083307-.13710132.1133088-.27935683.2309756-.4205815.3486425-.27626433.2473183-.55562116.4979051-.79168284.7517604-.24740088.2418707-.44635243.4902785-.61334803.6787634-.15977974.1939324-.26904846.3464635-.32162115.4129235-.12060793.1634261-.3814097.351911.12473128-.3333894"/><path d="m2.21231663 36.4788191c.04565344-.0946523.10689586-.1957582.17147877-.3054688s.13361982-.228026.20711072-.3506437c.0757179-.1215422.16034378-.2441599.24496967-.3721556.04231294-.0634601.08573938-.1279958.12916582-.1914558.04342645-.0645357.09130688-.1258446.13807382-.1893046.09353387-.124769.18595425-.2495379.27726112-.3732312.09798787-.1183154.19374874-.2344796.28505562-.3452658.04565343-.0548553.09019337-.1097106.13361982-.1624147.04342644-.0527041.08907987-.1000303.13139282-.148432.08685288-.0946523.16591127-.1839267.23606168-.262445.04231294-.0462506.08351238-.0935767.12582533-.1376761.04231294-.0430238.08462588-.0860476.12693883-.1290713.08462588-.084972.16591127-.1688683.24719666-.2506135.07905839-.0838963.16479778-.1602635.24831016-.2366307.08239889-.0763672.16591128-.1527344.24719667-.2291016.08128539-.0774428.16925177-.148432.25610465-.2204968.08685289-.0731405.17481927-.1462809.26389915-.2194213.08685288-.0763672.18261375-.1462808.27837462-.2183456.09687437-.0720648.19486224-.1462808.2961906-.222648.82621588-.6055596 1.73371715-1.1670198 2.68687186-1.5735945.09242038-.0376458.27058013-.1075594.45096689-.1667171.18261375-.0570065.36411401-.1129374.45764788-.1473564.20265671-.0731404.29285011.0043024-.37636249.2549158-.09576087.0344191-.19486224.0817452-.30287159.1279958-.10689585.0484017-.2204727.0989546-.33961704.1527344-.12137134.0516285-.24162917.1193909-.3719085.1817754-.06458291.0322678-.13139282.0656112-.19820273.0989547-.06792341.0333434-.13696031.0666868-.20488372.1054082-.55897624.2893349-1.19032989.7163458-1.7715761 1.1412055-.76163297.5593091-1.46425052 1.1616419-2.05106423 1.8005449-.45319388.4807906-.9609492 1.123996-1.34733317 1.7005145-.20042973.2839569-.35409252.559309-.48659884.7733523-.12471183.2161945-.20711072.3829116-.24719667.4571276-.09242037.1785486-.32402806.4098014.05790192-.342039"/><path d="m6.06036803 36.5680741c.03479945-.1583916.09211619-.3501856.14943293-.5613745.03172891-.1045169.06857539-.2133438.10439835-.3243257s.07266944-.2241188.11565699-.3351007c.04094053-.1120594.08290457-.2241188.12282159-.3329457.04503458-.1077494.08802213-.2133439.12998617-.3135508.08085755-.2036464.16785617-.3825105.2323375-.5301272.15864455-.3447981.31319505-.6464965.47695716-.9417299.07983403-.1486942.16990319-.2920009.25792533-.4417726s.19037346-.2963109.29170127-.4557801c.42475798-.6357216.89250352-1.2768306 1.4257539-1.8198877.05322269-.0506422.1545505-.1465392.26201938-.2359712.10746889-.0883545.21493778-.1756316.26816047-.2251963.11565703-.1077494.21084373-.0581847-.16785617.3038534-.10746889.1034394-.22210237.2338162-.35515909.3738905-.06652835.0700371-.13100969.1486942-.2016321.2284287-.0695989.0808121-.1473859.1605467-.22005534.2510562-.30398342.3512631-.62536657.8188956-.92423243 1.2660557-.38995853.5883118-.74614113 1.1830886-1.02044267 1.7789429-.21391427.4525476-.44318123 1.0311619-.60796685 1.5343517-.08802214.2499787-.14943293.4837949-.20572616.6680464-.05015215.185329-.08085754.3243258-.09621024.3868205-.03479945.1519266-.1780913.359883-.03786999-.2736836"/><path d="m9.00486392 35.7236015c.00528611-.414224.21012281-1.2068749.32509567-1.6078029.06871941-.2383066.14801103-.4469528.21805197-.6576445.0779701-.2086462.17312005-.4142241.27223458-.6453713.11365133-.23217.22730266-.4674084.34095396-.7026467.0647549-.1155736.1308312-.2311472.1942645-.3456981.0673979-.1145508.1321527-.2291016.2140874-.3364931.0607903-.0828448.2709131-.2996731.3317033-.3825179.0660764-.0900043.192943-.0634121-.0171798.2372838-.0594688.0848904-.1255451.1861452-.1995506.2976277-.0713625.113528-.1400819.2423977-.2246596.3774041-.0422889.0675032-.0845778.1401202-.1281882.2147828-.0422888.0746626-.075327.1564846-.1149728.2372839-.0383243.0807992-.0779701.1626213-.1162944.2454661s-.0832562.163644-.1162944.2464888c-.04625345.1084142-.09514995.2147829-.14404645.3201287-.0488965.1063687-.10307912.209669-.1414034.3160376-.03964581.1053459-.08061315.2106918-.12025897.3139921-.03832428.1033003-.08193468.2055778-.10572217.3088781-.04361039.1564847-.09250689.332402-.1414034.5093422-.04228886.1789857-.07664857.3610397-.11365133.5277521-.04096734.1667123-.05286108.3201286-.07136246.4418389-.01585833.1227331-.02775207.2117145-.03171665.2536483-.00792916.0981864-.1414034.2423978-.10968675-.1697807"/></g><path d="m9.00587419 19.235718c-.02351012-1.7047854-.01175506-3.4797178.73736301-5.0144497.6401166-1.3125997 1.7579162-2.3201661 2.8489997-3.2937219 1.4127448-1.25945797 2.8650293-2.54442399 4.6272201-3.24164294 1.7696712-.70040745 3.7306293-.75673764 5.6317435-.6355746 2.5305444.16155074 5.0696379.62707193 7.3693556 1.68990569 2.2997177 1.06177094 4.3547163 2.75380225 5.55587 4.97512485 1.5644919 2.8887822 1.5484623 6.464155.4071526 9.5431844-1.1402411 3.0790294-3.313859 5.6978518-5.8315797 7.819268-3.4613315 2.9174787-7.8235284 5.0325179-12.3588452 4.9177319-2.994335-.0765241-6.1660646-1.3221652-7.6226237-3.9250451-.91048304-1.6261357-1.0440633-3.5573046-1.13489787-5.4162009-.11861927-2.4710885-.19556149-4.9443027-.22975804-7.4185797" fill="#f3eee9"/><path d="m10.3566898 31.9783584c-.90128851-1.664677-1.03351981-3.641617-1.12343709-5.5445713-.1174214-2.5296563-.19358663-5.0614887-.22743784-7.594409-.02327271-1.7462789-.01163635-3.5632793.72991678-5.1332983.29196675-.6201738.68548705-1.1728901 1.12978425-1.6864375.7880985-.0641934 1.6037012.0337287 2.3717006.224133 1.5042633.3731923 2.9186093 1.0619116 4.4144097 1.4677446 2.8942788.7866416 6.1556316.5505403 8.6246544 2.291379 1.725354 1.2164111 2.7567582 3.2031433 3.7215178 5.1126258.5659499 1.1184889 1.1488255 2.3338119.9689909 3.5817757-.1533883 1.0662637-.8378175 1.9551795-1.322313 2.9104648-.7732886 1.5254099-1.046214 3.2564565-1.4905112 4.9146054-3.0434356 2.1477597-6.5893502 3.5698074-10.2516283 3.4729732-2.963039-.0772497-6.1037969-1.3524141-7.545647-4.0169854" fill="#a78f81"/><path d="m12.3059914 19.038875c.9416249.4509733 2.0550257.2168556 3.0301679-.1510436.9751422-.3678993 1.9314309-.8663434 2.9683705-.9299975 1.4820904-.0906262 2.8667713.7185363 4.0807238 1.5989051 1.2129051.87929 2.4017197 1.8815726 3.8356291 2.2732072.6033103.1650692 1.316599.2697209 1.6360602.823188.2890862.499523.1047414 1.1619574-.2388103 1.6237194-.3425043.462841-.8211724.7972948-1.2108103 1.2191382-1.1395861 1.2364003-1.3993447 3.052161-2.0864481 4.6046741-1.3459266 3.0359777-4.3572411 4.994151-7.478534 5.8885453-.0136163.0043155-.0261853.0075521-.0398017.0107888-2.6122498-.3107184-5.195172-1.5686964-6.4594004-3.9087943-.89239649-1.6517704-1.02332321-3.6110226-1.11235337-5.4979895-.11626293-2.5094827-.19167672-5.0189653-.22519395-7.5316846-.00942673-.6796965-.01152156-1.3723396.03142241-2.0563517 1.29984041-.1068094 2.08644811 1.4672814 3.26897821 2.0336951" fill="#382e2a"/><path d="m11.9141425 23.8601493c-.6008519.2012616-1.2980075.2120821-1.8255848-.146077-.41243136-.2802514-.67307964-.752026-.81648853-1.2400313-.14236211-.4880053-.18213976-1.0019799-.24494657-1.5083801-.08269564-.6632977-.08374242-2.5471498 1.6423982-1.7886315.6207407.272677 1.2875397.5302053 1.6654273 1.109103.2386659.3678976.3632328.8007183.4836125 1.2259646.1549235.5486002.3025195 1.1696979.0282631 1.6663597-.1926076.3495027-.562121.5583387-.9326812.6816926" fill="#1c1514"/><path d="m9.51324869 20.1490872c-.23998241.1664506-.3665403.4509512-.43578896.7319103-.19938837.7956573-.01074548 1.6881156.53011041 2.3102393.54085586.6221237 1.43153686.9396783 2.24102976.7578813.1540186-.6799683.2184915-1.394171.0585032-2.0741393-.1576004-.6799682-.559959-1.3233409-1.1712574-1.672769-.373704-.2124901-.87038401-.2986666-1.22259701-.0531226" fill="#489fcb"/><path d="m10.0919507 20.0658148c.2734013-.1357803.6102708-.0472279.8748842.1357803.4989574.3494868.8280155.9929674.9569047 1.6730497.130842.6800823.0790911 1.3932242-.0478453 2.0744872-.4843109.1334189-1.0037734-.0023614-1.4207104-.3282342-.0419866-.1039014-.0790911-.2101643-.1132663-.3164272-.2616841-.8371152-.35346883-1.7403495-.3407752-2.6353189.0039057-.2066222.0146465-.4203287.0908083-.6033369" fill="#137aa2"/><path d="m11.9148635 21.5566048c-.0347444-.1675076-.0913281-.3418722-.2203787-.4564827-.1300432-.1146104-.3504219-.1430182-.4715309-.0205711-.2154151.30073-.2799404.7003973-.1707438 1.0520652.1091966.351668.44175 1.1363089.7385663.7758247.2968163-.3595046.2183933-.9002309.1240871-1.3508361" fill="#0f0d0d"/><path d="m10.4173084 21.0674765c.212-.023.307.172.365.333.059.162.048.354-.064.491-.113.138-.435-.084-.508-.282-.072-.198-.005-.52.207-.542" fill="#fff"/><path d="m10.3135009 30.7322355c-.77056205-.5703932-1.68014862-2.5941313-1.16069278-3.1055909.51837813-.5125119 3.74611718-4.7620464 4.10068358-6.1322529.1530347-.5935456.3944416-1.5838408.4580264-2.2068533.7403862.0684051 1.5228031-.119972 2.2351689-.373597 1.0033473-.3588636 1.9872958-.8450659 3.0542279-.9071567 1.5249586-.0884004 2.9496901.7008891 4.1987551 1.559636.8557011.5882837 1.7006252 1.2333963 2.6231442 1.7027604.6390816 2.339454-.5183781 4.9451616-2.3838927 6.5805693-1.9711302 1.7290701-5.3034071 3.6275744-7.9168519 4.0443192-2.7535471.4388449-4.4380066-.5914409-5.2085687-1.1618341" fill="#2b2120"/><path d="m16.6792874 21.4987368c.5481177-.5399017 1.0716762-1.1643002 1.8106862-1.3958434.6028178-.1887461 1.2558704-.0844968 1.8732005.0471865 1.2770808.2721456 2.5284859.6551247 3.7374705 1.142353.2299639.0921784.4666257.194233.6351914.3742002.2991763.31604.3192702.8109499.1841943 1.221363-.2098699.6331774-.735661 1.130282-1.3373625 1.4364458-.6017015.3061637-1.2759644.4422365-1.9468783.5399017-.8517592.1240018-1.7224961.1920382-2.576488.0757179s-1.6968205-.4246788-2.3465242-.9821383c-.4856032-.4169972-.8685042-1.0732192-.6497037-1.6690863.114982-.31604.3750867-.5530701.6162138-.7901001" fill="#000"/><path d="m17 23.2702435s.1899395-2.1329132 1.3473179-2.2573738c1.635358-.1769293 3.6526821 1.5289131 3.6526821 1.5289131s-1.1020664 2.3464486-2.3231058 2.4501658c-1.7271969.145204-2.6768942-1.7217051-2.6768942-1.7217051" fill="#489fcb"/><path d="m18.7951095 21.0127589c.5993696-.0610152 1.2472176.1037258 1.837773.3465662.2258654.7578086.3503668 1.551006.3657917 2.3478642.0077125.3673114-.0132214.7565883-.1983208 1.0604439-.0088143.0134234-.0176285.0244061-.0264428.0366091-.1862012.1037258-.3790131.1720628-.5751304.1879268-.4825807.0378294-.9078687-.0646761-1.2714568-.2367389-.288667-.3123978-.4880896-.7321822-.628016-1.1556276-.1784887-.5430351-.2787509-1.1165778-.2974812-1.6937815-.0044071-.1476567-.0022036-.3001947.0220356-.4466311.1961173-.2391795.4473237-.4136829.7712477-.4466311" fill="#137aa2"/><path d="m19.6982942 22.1492354c.1450282.3147391.3698218 1.3793678.2818985 1.6964913s-.4686222.0810691-.6335918-.1347179c-.1640631-.215787-.2402028-.5197963-.3009334-.8154603-.0271928-.1347179-.0534791-.2742045-.0435084-.4124989.0099707-.1394867.0634498-.2813577.1577181-.344544.1060518-.0274204.3933888-.3040093.538417.0107298" fill="#0f0d0d"/><path d="m18.5647644 22.9177268c-.166-.008-.328-.104-.405-.251-.076-.147-.059-.341.051-.466.05-.057.117-.106.192-.115.354-.041.399.254.448.375s.057.274-.033.37c-.063.067-.161.091-.253.087" fill="#fff"/><path d="m9.26181683 28.4277205c.36402142-.5392933 1.81472217-.4225037 2.23043897-.4053287.4167937.0160299.8422034.1706044 1.1286818.4934934.3360197.3755588.4415644.942332.3446356 1.4507104-.0958518.5072334-.3758682.960652-.7194269 1.3281958-.4674121.4992185-1.1620684.8724873-1.7845666.628603-.62680608-.2450292-2.04519723-2.2441929-1.19976287-3.4956739" fill="#000"/><path d="m9.06633384 28.6155899c-.26870003.266.31690194.043 1.07274896.053.9004527.011 2.0162758.215 1.842954.068-.3179275-.269-.5866276-.377-.9414757-.428-.5866275-.084-1.38554858-.275-1.97422726.307" fill="#514d4c"/><path d="m37.4854828 11.5547202c.7070327 1.4756765 1.4261232 3.0006152 1.5072401 4.6350255.0855017 1.7197981-.5864534 3.4625852-1.8043034 4.6810036-.5886458.5878623-1.3373331 1.0695371-2.1671373 1.1242729-.9503834.061304-1.8613045-.4510228-2.529971-1.1286517-.6686665-.677629-1.1455025-1.516181-1.6716663-2.3098498-2.008192-3.0312673-4.8385149-5.5129874-8.1073076-7.1101774-.3047366-.1488813-.6533201-.3415512-.7059365-.6765342-.0624819-.4083288.345295-.7126598.6642818-.97539149.9185944-.75535371 1.4173538-1.90261559 1.7604565-3.04002502.3420065-1.13740943.5645299-2.3197022 1.0819244-3.38923927.5173944-1.07063179 1.4031035-2.04602332 2.5650486-2.29890261 1.6672816-.36344555 3.2644081.82869965 4.3934679 2.10513796 2.164945 2.44887864 3.6031261 5.43745203 5.0139028 8.38333153" fill="#0f0d0d"/><path d="m31.0914897 3.83139912c1.099392.88937851 1.7911442 2.22344628 2.1668727 3.60821496.3767579 1.38265614.4652857 2.82868842.5517548 4.26310172.057646.9675424.1163214 1.9350849.1749968 2.9026273.0504403.8312837.0082352 1.8453019-.7020462 2.2477404-.7020461.3982135-1.5523249-.0887266-2.2101071-.5608788-2.3573105-1.6910867-4.7146209-3.3821734-7.0729607-5.0732601.7154283-.8312837 1.0510105-1.93085975 1.301153-3.00931041s.4385215-2.1885894.9274833-3.1772572c.4899911-.98761153 1.3526226-1.85903346 2.4231916-2.00902366.8708666-.12252721 1.7499684.25033575 2.4396618.80804579" fill="#605555"/><path d="m20.3685554 11.9956362c-.5430922.6689717-1.5013626.9814841-2.4206085 1.0029693-.9203298.0214852-1.8222314-.2089926-2.7057047-.4365407-.4043381-.1044963-.8401127-.2285246-1.0764283-.541037-.2731721-.3613424-.1799467-.8642919.0704611-1.2383302.4867233-.7256146 1.4363216-1.07816755 2.3436433-1.30376241 1.7571905-.43751728 3.6065224-.57717124 5.4200817-.41114905-1.0005471.64455671-.9062377 2.03328346-1.6314446 2.92785006" fill="#f8f7f6"/><path d="m30.0986606 34.5701936c-.3292131-.1791999-.7441699-.3848203-1.1940592-.621456-.2286496-.1125743-.4668263-.2297435-.7092373-.3492101-.1217348-.0597333-.2445281-.1194666-.36838-.1803486-.1227933-.060882-.2487623-.1160205-.3736728-.174605-.2508794-.1160205-.5017589-.2320409-.746287-.3457639-.2477038-.1068307-.4901147-.2125127-.7229986-.3135999-.4636507-.2056204-.8944859-.3687382-1.2395775-.5100304-.2043027-.0838564-.4043711-.158523-.6012638-.2308922-.1968928-.0723692-.3895513-.1447384-.5790341-.2148102-.1884242-.0723691-.3768485-.1343999-.5642141-.198728-.1863071-.0643282-.3715557-.1286564-.5568043-.1918358-.1841899-.0666256-.3715556-.1240615-.5589213-.1837948-.1884242-.0597333-.377907-.1194666-.569507-.1803486-.1915999-.0631795-.3884926-.1194666-.5885611-.1780512-.201127-.0585846-.4064882-.1194666-.6171423-.1814973-1.710638-.491651-3.5049026-.8385637-5.2494146-1.1360814-.1693702-.0264205-.4879977-.0941949-.8087423-.150482-.3207446-.0562872-.6414893-.1114256-.8108594-.1355487-.3652043-.0516922-.4551821-.1757537.7716926-.0091897.3503844.0470974.7526384.1148717 1.2035863.1826461.2254739.0333128.4615335.0804102.7092373.1240614.2466452.0482462.5059932.0896.7738096.1493333 1.0712659.2182563 2.3711815.507733 3.5906462.8557944 1.6005475.4583382 3.1312298 1.0166148 4.5613486 1.5817837 1.0945543.4238767 2.4251682 1.0235071 3.5377181 1.5783376.5599799.2699485 1.0585631.5433432 1.4576414.7501124.3969612.2136614.6870075.3802254.821445.4514459.3196861.174605.7547556.5272612-.5684484-.187241" fill="#fff"/><path d="m30.1433032 30.6724862c-.155972-.073601-.3343784-.1435219-.5266727-.2232563-.1922943-.0797345-.3984765-.1643756-.6132051-.2539235-.2179336-.0846411-.4454818-.1668289-.6773032-.2551501-.1164449-.0429339-.2339581-.0870945-.3514713-.1312551-.1185815-.0441606-.2392995-.0809611-.3589493-.1214417-.2392996-.0797344-.4785991-.1594688-.7136255-.2379765-.2360946-.069921-.4679161-.1373886-.6901228-.2024028-.1111034-.0318937-.2200702-.0637875-.325832-.0944546-.1046936-.0318938-.2093871-.0539741-.3087392-.0797344-.1997724-.050294-.3845886-.0956813-.549107-.1373885-.0982838-.023307-.1944309-.0490674-.2895097-.069921-.0961472-.0196269-.191226-.0380272-.2841683-.0576541-.1869527-.0392539-.3707006-.0772811-.5512436-.1140816-.180543-.0404805-.3600176-.0674675-.5373557-.0969079-.1773381-.0306671-.3536078-.0601075-.5288093-.0895479-.1762698-.0331205-.3536078-.0539741-.5309459-.0760544-.1784064-.023307-.357881-.0466139-.5405606-.0711476-.1816113-.026987-.3685641-.0417072-.5576535-.0601075-.1901576-.0171736-.3835202-.0355738-.5822243-.0552007-1.6174087-.1373886-3.2882324-.0662409-4.9002995.0760543-.1549037.0171736-.4518916.0282137-.7488794.0539741-.2959196.0294404-.5929074.0576541-.7478111.0785077-.3343785.0441606-.4444135-.0588808.6826447-.2171229.1602452-.0257604.3343784-.0404806.5191946-.0613342.1848161-.0196269.3813836-.0417072.5897024-.0637875.2083189-.0245337.428389-.0331205.6580738-.050294.1143083-.0073601.2318215-.0147202.3525396-.0220803.1196497-.0085868.2425044-.0159469.3674957-.0159469.998862-.0368005 2.2167259-.0368005 3.3715599.0576541 1.5148517.1288017 2.9784249.4048055 4.3447826.7335566.2606656.0662409.5373557.1300284.8204557.2073095.2820316.0834145.5726096.1680556.8653243.2526968.581156.1889092 1.1687219.3802718 1.6996678.5900346.5362874.193816 1.0127499.4097122 1.3952019.5679544.3792471.1668289.6548689.3017641.7841334.3581915.3066026.1386152.7243085.4477394-.5362874-.1177616" fill="#fff"/><path d="m28.2468934 36.4915169c-.1332641-.1043958-.2894671-.2118322-.455501-.3314313-.1671263-.1185855-.3462683-.246293-.5330565-.3800817-.1900652-.1317617-.392146-.2625098-.5953191-.4003528-.1015866-.0689215-.2053578-.137843-.3091291-.207778-.1037712-.0689215-.2119118-.1337888-.3178676-.2006832-.2140965-.1337888-.4271006-.266564-.6357354-.3973121-.2140964-.1246669-.4238235-.246293-.6237197-.3628514-.1004942-.0577724-.1977115-.1145313-.2927441-.1702766-.0961249-.0557454-.1922499-.1043958-.2829131-.1530463-.1824189-.0983145-.3506376-.187507-.5013789-.2685911-.089571-.0476369-.1769573-.0962874-.2654359-.1408836-.0884786-.0435827-.1758649-.0861519-.2632512-.1287211-.1736803-.0861518-.3429913-.169263-.5101176-.2513607-.1660339-.0851383-.3342526-.158114-.5002865-.2341303-.1671263-.0750028-.3309756-.1500056-.4959173-.2250084-.1638493-.0770299-.3320679-.1449379-.5013789-.2158865-.1682186-.069935-.3375296-.1408836-.5112098-.2138593-.1704033-.0739893-.3495452-.1398701-.5308718-.2098051-.1813266-.0689215-.3670225-.1398701-.5570877-.2138594-1.5511068-.5807649-3.2114465-1.0115242-4.834647-1.3662672-.1572953-.0324336-.4522241-.1094635-.7515222-.1763579-.2982057-.0628402-.5975038-.1256804-.7558915-.1540598-.3408065-.0628402-.4194542-.1763579.730768.0263523.1638493.0263524.3386219.0648673.5265024.1023687.1867882.038515.3866844.079057.5964115.1216262.2119118.040542.4292852.0983145.6597666.1520327.1146945.0263523.232666.0557453.3528222.0841247.1201561.0283795.2424969.058786.3648378.0942603.9918345.2625098 2.1890268.6162392 3.2977404 1.0287546 1.4527973.5432635 2.8138389 1.1899093 4.06674 1.8497312.2381276.1277075.4915479.2604827.7482452.404407.2556049.1479785.5177638.3000112.781015.4530574.5199485.3192687 1.0442663.6436051 1.508506.9649009.4729784.3101467.8815093.621307 1.2135773.858478.3266062.2432523.5603646.4317729.6717821.5138705.2621589.1996696.5887652.5665752-.4937326-.2513607" fill="#fff"/><path d="m24.4365655 36.5839921c-.097343-.0860407-.2121858-.1751181-.3346848-.274318-.1214052-.0981877-.2526542-.2044733-.3904655-.3158201-.1389052-.1083101-.287654-.2186446-.4364027-.3330282-.0754682-.0576979-.1520301-.1143835-.2274982-.1730937-.0765619-.0576978-.1574987-.1113468-.2351543-.1680324-.1574987-.1113468-.3149975-.2237059-.469215-.3330282-.1585924-.1042611-.3128099-.2064977-.4615587-.3046854-.2942163-.199412-.5774953-.361371-.8006185-.4990361-.1323426-.0819918-.2646853-.1568978-.3937468-.2287671-.1301552-.0718693-.2570291-.1427264-.3817156-.2125712-.1235928-.0718693-.2504667-.1346284-.3751532-.199412-.1235927-.0647836-.2482792-.128555-.3707782-.1923264-.122499-.0657958-.249373-.1245059-.376247-.1852406-.1268739-.0607346-.2548416-.1214692-.3839031-.1832161-.1279677-.0647836-.2635916-.1214692-.4003092-.1811916-.1367177-.0607346-.2756228-.1224815-.4189029-.1852406-1.1692092-.5051096-2.4335739-.8867255-3.6684076-1.2157048-.1192178-.029355-.3434347-.1012243-.5698391-.1639834-.2274982-.0607347-.4549963-.1204571-.5753078-.1487999-.2603104-.0597224-.3117162-.1710692.5676516.0222694.2504667.0546611.5370269.1305794.8585868.20751.1607799.0384652.3270285.0900896.5020271.1386773.1749986.0516245.3598408.0991999.5468706.1629713.7535876.2358528 1.6635802.5466116 2.5013858.9059581 1.0970224.4727179 2.1142016 1.0284397 3.0482565 1.5871982.7174941.419069 1.562956 1.0011091 2.2487317 1.5315248.3489034.2591344.646401.5172566.8903052.7146441.2384356.2014365.4079654.3573221.489996.4251424.1914047.166008.4079655.4767668-.3839031-.1983998" fill="#fff"/></g></svg>