<svg height="92" viewBox="0 0 142 92" width="142" xmlns="http://www.w3.org/2000/svg" xmlns:xlink="http://www.w3.org/1999/xlink"><mask id="a" fill="#fff"><path d="m.95061177.11918474h13.94408823v16.88081526h-13.94408823z" fill="#fff" fill-rule="evenodd"/></mask><mask id="b" fill="#fff"><path d="m0 .21706041h16.6055525v4.6749324h-16.6055525z" fill="#fff" fill-rule="evenodd"/></mask><g fill="none" fill-rule="evenodd"><path d="m62.2303 83.0624c-1.421.312-3.065-.171-4.257.665-1.114.781-1.271 2.495-.579 3.666.692 1.172 2.02 1.844 3.356 2.102 2.246.433 4.601-.15 6.613-1.24 2.011-1.089 3.721-2.659 5.316-4.297 3.78-3.882 7.116-8.384 8.593-13.597-4.438-1.881-8.894-3.769-13.555-4.993-4.661-1.226-9.569-1.773-14.316-.936.742 3.458 3.527 6.396 6.94 7.32 1.501.408 3.088.45 4.573.918 1.483.468 2.94 1.525 3.217 3.056.321 1.761-.983 3.361-2.196 4.676-1.049 1.137-2.195 2.33-3.705 2.66" fill="#383838"/><path d="m22.1356 83.0741c-.598-6.427.744-12.872 2.407-19.107.346-1.294.678-2.778-.07-3.89-.437-.65-1.165-1.033-1.862-1.391l-13.07-6.694c3.122 4.578 4.642 10.095 5.193 15.608.55 5.513.18 11.073-.19 16.601-2.213-.045-4.171 2.217-3.808 4.401 1.798.945 3.816 1.467 5.846 1.514 1.928.045 4.086-.484 5.091-2.129.874-1.431.618-3.244.463-4.913" fill="#383838"/><path d="m71.1707 81.5536c-.518-.115-1.057-.241-1.46-.585-.402-.344.184-.982-.129-2.398-.131-.595-.926-.593-1.956-.372-.437.797-1.075 1.538-1.69 2.204-1.049 1.136-2.196 2.33-3.705 2.66-1.422.311-3.066-.171-4.257.665-1.114.781-1.271 2.495-.579 3.666.692 1.172 2.02 1.844 3.355 2.101 2.246.434 4.602-.149 6.613-1.239s3.721-2.659 5.317-4.298c.543-.558 1.077-1.13 1.597-1.714-1.035-.23-2.071-.46-3.106-.69" fill="#c8bcb7"/><path d="m21.2562 85.3232c-1.118-.266-2.198-.859-3.341-.741-.854.089-1.665.575-2.517.47-.603-.073-1.109-.426-1.621-.774-1.875.409-3.362 2.397-3.042 4.324 1.798.945 3.816 1.467 5.847 1.514 1.927.045 4.085-.484 5.09-2.129.473-.774.615-1.66.622-2.575-.351.02-.71-.011-1.038-.089" fill="#c8bcb7"/><path d="m8.7288.0048c2.518-.223 6.15 7.427 6.15 7.427s7.303 1.036 8.471.524c1.167-.513 6.637-5.488 9.285-4.818 1.593.404-4.178 10.677-3.83 12.882s.382 3.526.325 6.488c20.037-4.602 51.768 4.422 62.224 16.024 10.458 11.604 20.168 16.833 27.852 15.202 7.684-1.629 13.874-8.881 15.975-11.06 2.798-2.901 5.586-6.61 6.514-1.969.929 4.642-5.173 17.063-22.373 19.412-17.2 2.351-26.372-7.042-31.604-10.729-3.598 7.717 5.378 14.443 6.886 15.836 1.509 1.392.116 5.338 0 10.066-.116 4.729-2.435 13.559-3.933 14.278-2.487 1.191-6.166.88-7.876-.467-2.406-1.897-.726-4.767 3.105-4.961 1.296-.067 3.423-11.465.58-11.373-22.033.708-23.426-7.968-25.762-7.311-6.477 1.82-17.354-.968-21.352-2.67.103 1.061-1.373 4.605-2.531 8.956-1.834 6.89-3.793 15.437-4.432 16.576-1.045 1.856-2.866 2.959-6.812 2.959-1.554 0-3.395-.542-3.627-2.747-.232-2.204 2.676-2.188 4.301-4.973 1.624-2.785-1.289-20.538-1.289-20.538-4.722-.706-13.486-6.422-16.131-10.212-5.29924841-7.594-5.222-13.23-4.638-16.827.584-3.598.163-10.335-.534-14.861-.696-4.526 1.69-11.018 1.69-11.018s.848-9.874 3.366-10.096" fill="#000"/><path d="m25.1005642 63.8066c.0148358-3.662-.9981642-7.329-2.9241642-10.446-1.266-2.048-2.931-3.907-3.645-6.207-.678-2.182-.42-4.568.299-6.737.72-2.168 1.878-4.16 3.028-6.133.929-1.595 1.858-3.19 2.787-4.785-3.818 1.259-8.03 1.292-11.867.095-3.352-1.047-6.405-3.028-8.739-5.65.455 4.181.639 9.132.167 12.036-.584 3.598-.661 9.233 4.639 16.827 2.644 3.79 11.408 9.506 16.13 10.212 0 0 .047.285.1251642.788" fill="#ece7e5"/><path d="m94.0076 76.5595c-.852-.173-1.713-.569-2.555-.351-.763.2-1.308.862-1.748 1.518-.439.656-.854 1.37-1.526 1.784-.191.117-.41.197-.635.238-.408 2.335-1.098 4.363-1.643 4.391-3.831.194-5.512 3.065-3.106 4.961 1.71 1.348 5.389 1.658 7.876.467 1.368-.656 3.419-8.07 3.855-12.954-.177-.002-.352-.021-.518-.054" fill="#fff"/><path d="m11.3777 1.2339c-.566-.315-1.029-.824-1.648-1.021-1.353-.43-2.9.759-4.206.763.316 3.76.383 7.202-.259 8.304-1.625 2.785-4.533 2.769-4.301 4.974s2.073 2.747 3.627 2.747c3.946 0 5.767-1.104 6.812-2.96.531-.945 1.97-6.99 3.492-12.956-1.1.578-2.446.747-3.517.149" fill="#fff" mask="url(#a)" transform="translate(21 74.2768)"/><path d="m61.3182 50.8105c1.348-1.062 1.757-2.89 2.579-4.395 1.112-2.037 3.008-3.502 4.631-5.162 1.624-1.659 3.076-3.782 2.894-6.096-.157-2.002-1.546-3.743-3.235-4.831-1.687-1.089-3.66-1.633-5.598-2.162-6.871-1.874-13.82-3.759-20.939-3.975-1.217-.037-2.577.031-3.428.903-1.212 1.242-.696 3.28-.95 4.996-.236 1.596-1.182 2.979-1.954 4.395-.772 1.415-1.402 3.067-.944 4.614.468 1.584 1.954 2.637 3.428 3.383s3.081 1.346 4.226 2.536c.715.744 1.203 1.673 1.846 2.48 1.418 1.776 3.544 2.878 5.741 3.462s4.488.695 6.759.802c1.715.081 3.595.112 4.944-.95" fill="#1e1e1e"/><path d="m8.6063 1.0194c-.408.18-.628.618-.803 1.027-1.269 2.96-1.926 6.181-1.916 9.401 2.259-1.841 5-3.086 7.872-3.577-.457-2.341-1.645-4.533-3.356-6.194-.487-.472-1.176-.93-1.797-.657" fill="#b77b81"/><path d="m26.261 9.3583c1.704-2.133 5.314-4.99 6.112-5.391s-3.056 8.443-3.783 10.484c-.493-1.61-1.145-3.898-2.329-5.093" fill="#b77b81"/><path d="m25.8548 21.0341c-1.075-.779-2.569-.638-3.513-1.616-1.402-1.452-.712-4.382-2.023-5.944-.22-.261-.567-.477-.843-.297-.284.183-.292.639-.265 1.011.063.851.126 1.7.188 2.55.058.768.096 1.613-.306 2.232-.238.368-.602.599-.963.796-1.171.638-2.444 1.03-3.736 1.15-.883.082-1.835.059-2.56.642-.676.542-.996 1.49-1.232 2.394-.282 1.083-.483 2.315.013 3.291.474.935 1.444 1.354 2.348 1.659 3.233 1.092 6.743 1.59 9.953.414 1.038-.38 2.043-.942 2.84-1.795.797-.851 1.371-2.017 1.44-3.264.07-1.246-.42-2.556-1.341-3.223" fill="#dfd7d4"/><path d="m14.6326 36.8085c-.496-1.351-1.843-2.229-3.23-2.613-1.386-.384-4.171-2.055-4.966-.197-.795 1.859-1.071 8.254.808 12.082 1.88 3.829 5.554 6.728 9.714 7.665 1.237-1.312.627-3.491-.395-4.978-1.021-1.486-2.422-2.847-2.681-4.632-.356-2.464 1.607-4.99.75-7.327" fill="#fff"/><path d="m24.0789 24.0194c-2.75-.913-1.736-4.639-4.157-4.6400002-2.274-.0009998-.796 3.4580002-3.386 4.3640002-.731.255-2.47 1.193-2.517 2.097-.06 1.125.999 1.28 1.883 1.625 2.177.852 3.914-.315 4.541-.266 1.263.096 2.221.621 2.819.581s1.489-.667 1.804-1.278c.343-.665.128-2.112-.987-2.483" fill="#fff"/><path d="m21.9857 27.9257c-.957-.328-2.08-.315-3.024.035-.275.102-.539.234-.746.413-.119.104-.222.234-.217.375.004.13.102.249.228.328s.28.124.431.162c1.017.253 2.114.236 3.153.057.2-.034.401-.075.577-.159.177-.083.327-.216.373-.378.053-.186-.039-.384-.194-.525-.156-.142-.367-.235-.581-.308" fill="#fff"/><path d="m24.1141 27.3525c-.959.963-2.392-.083-3.455-.154-.022-.001-.043-.001-.065-.002 0-.003.001-.005.001-.007-.018-.415.018-.83 0-1.245-.007-.164-.311-.123-.305.019.017.413-.017.826 0 1.238-1.325.099-2.634 1.084-3.877.194-.082-.059-.359.061-.238.147.536.384 1.209.456 1.849.385.427-.048.844-.248 1.251-.374.712-.221 1.444-.237 2.148.009.923.324 2.138.642 2.933-.156.125-.126-.17-.126-.242-.054" fill="#928f8e"/><path d="m21.824 22.4247c-.997-.287-2.076-.289-3.074-.003-.305.087-.61.205-.847.416s-.396.531-.346.845c.043.26.218.476.395.672.633.694 1.377 1.287 2.197 1.746.114.064.238.128.369.121s.247-.082.357-.155c.34-.228 2.163-1.517 1.982-2.751-.035-.239-.182-.452-.376-.596s-.425-.228-.657-.295" fill="#000"/><path d="m21.973 23.203c.056-.069.053-.173.014-.254-.039-.08-.108-.141-.18-.195-.458-.341-2.735-.461-3.102-.025-.088.103-.151.255-.078.369.068.087.188.109.297.116.935.021 1.87.041 2.805.06.087.002.184-.007.244-.071" fill="#5b5959"/><path d="m17.2562 18.5692s-.312-2.243-2.306-2.368c-1.995-.124-3.148.81-3.148 1.184 0 1.215.967 2.436 2.587 2.498s2.306-.472 2.867-1.314" fill="#bbbb4b"/><path d="m12.1424 17.7333c-.01-.09-.009-.189.048-.26.084-.102.254-.089.36-.009s.166.204.231.32c.594 1.07 1.874 1.716 3.088 1.557-.745.198-1.547.277-2.278.031-.73-.245-1.366-.872-1.449-1.639" fill="#dcd972"/><path d="m16.5496 17.496c.053.099.083.204.0820242.31-.0010242.072-.0210242.15-.0960242.199-.105.067-.272.049-.398.002-.353-.129-.535-.41-.783-.633-.478-.429-1.277-.657-2.032-.582.501-.164 1.077-.181 1.618-.108.673.089 1.363.352 1.609.812" fill="#9f9c2b"/><path d="m15.6683 17.8993c0 .834-.325 1.511-.727 1.511-.401 0-.727-.677-.727-1.511 0-.835.326-1.512.727-1.512.402 0 .727.677.727 1.512" fill="#000"/><path d="m14.7908 17.7284c0 .292-.258.529-.577.529-.318 0-.576-.237-.576-.529 0-.293.258-.53.576-.53.319 0 .577.237.577.53" fill="#fff"/><path d="m22.6468 18.3339s.498-2.205 2.231-2.152c1.733.051 2.633 1.084 2.595 1.455-.124 1.209-1.081 2.338-2.486 2.257-1.404-.081-1.942-.673-2.34-1.56" fill="#bbbb4b"/><path d="m23.0159 17.9657c-.007-.09-.006-.189.034-.26.059-.102.179-.088.254-.009.074.08.117.204.162.32.42 1.07 1.322 1.716 2.178 1.557-.525.198-1.091.277-1.606.032-.515-.246-.963-.873-1.022-1.64" fill="#dcd972"/><path d="m27.1204 17.3485c.053.099.083.204.0820242.31-.0010242.072-.0210242.15-.0960242.199-.105.067-.272.049-.398.003-.353-.13-.535-.411-.783-.634-.477-.429-1.277-.657-2.031-.582.501-.164 1.077-.181 1.618-.108.672.089 1.362.352 1.608.812" fill="#9f9c2b"/><path d="m26.1409 17.9843c0 .835-.325 1.512-.727 1.512-.401 0-.727-.677-.727-1.512s.326-1.512.727-1.512c.402 0 .727.677.727 1.512" fill="#000"/><g fill="#fff"><path d="m25.2151 17.6337c0 .292-.258.529-.577.529-.318 0-.576-.237-.576-.529 0-.293.258-.53.576-.53.319 0 .577.237.577.53"/><path d="m2.4188 24.9042c.284-.088.612-.192.968-.283.178-.048.361-.098.547-.148.187-.044.377-.089.567-.132.761-.181 1.531-.319 2.121-.41.698-.105 1.323-.18 1.951-.235.313-.034.628-.048.952-.068.325-.025.66-.03 1.014-.038.359-.015.762 0 1.187.005.213.001.431.02.651.03.221.013.445.018.668.041.446.04.893.074 1.316.13.211.026.418.046.615.075.198.028.387.055.566.082.275.03.973.174 1.246.221.148.025.094.035-.12.017-.107-.009-.254-.024-.436-.047-.183-.024-.4-.056-.649-.086-.142-.017-.294-.036-.457-.056-.082-.01-.166-.02-.253-.031-.086-.006-.176-.014-.267-.022-.368-.032-.773-.072-1.212-.099-.878-.068-1.74-.115-2.757-.101-1.334.02-2.833.183-4.041.371-.23.037-.482.072-.745.117-.263.047-.538.097-.819.147-.559.114-1.137.233-1.668.369-.133.032-.264.061-.39.094-.126.036-.248.069-.366.102-.235.065-.454.121-.644.181-.379.118-.657.206-.772.245-.136.046-.112.022.086-.062.099-.042.243-.098.432-.17.094-.034.2-.073.317-.116.12-.037.25-.078.392-.123"/><path d="m1.3572 4.1909c.147-.066.306-.141.475-.214.169-.071.347-.146.531-.224.367-.161.763-.312 1.158-.469.395-.158.795-.299 1.169-.44.376-.135.73-.255 1.036-.361 1.455-.485 2.603-.829 4.089-1.207.752-.195 1.701-.391 2.652-.566.953-.164 1.911-.308 2.684-.385.075-.008.179-.019.296-.03.118-.014.251-.026.384-.032.266-.016.532-.034.681-.043.162-.011.108.011-.122.048-.114.018-.273.04-.47.064-.098.011-.207.02-.323.037-.117.014-.242.031-.377.049-.153.019-.317.04-.493.062-.176.024-.361.059-.558.091-.196.033-.403.063-.619.102-.216.04-.441.081-.675.124-.235.04-.468.085-.702.132-.234.045-.47.09-.711.136-.239.053-.483.105-.734.16-.126.028-.253.057-.383.085-.129.033-.26.066-.394.1-1.403.348-2.964.842-4.225 1.265-.964.319-2.265.777-3.375 1.213-.557.213-1.06.433-1.46.601-.394.178-.683.309-.802.367-.141.067-.118.04.087-.075.205-.113.587-.327 1.181-.59" mask="url(#b)" transform="translate(0 25.2768)"/><path d="m4.8504 31.3368c.447-.263 1.055-.564 1.658-.879.3-.16.608-.303.896-.439.289-.137.56-.265.794-.375.138-.067.274-.128.408-.185.134-.058.265-.114.394-.17.258-.111.509-.22.759-.328.249-.112.505-.207.766-.311.262-.102.532-.208.817-.319.288-.116.62-.223.967-.341.349-.115.713-.243 1.082-.356.37-.11.74-.22 1.091-.324.177-.052.347-.107.512-.153.166-.045.324-.088.474-.129.23-.06.82-.215 1.051-.276.248-.068-.152.119-.981.36-.118.036-.245.074-.38.115-.068.02-.138.042-.21.063-.071.025-.144.049-.22.075-.3.102-.634.214-.996.329-.364.11-.72.231-1.091.356-.186.061-.375.125-.57.191-.194.067-.395.132-.599.215-.269.107-.546.216-.827.327-.279.114-.564.222-.839.348-.276.121-.55.242-.816.358-.265.118-.525.227-.764.342-.368.172-.803.369-1.256.572-.448.216-.911.439-1.34.645-.107.053-.213.102-.315.152-.1.053-.198.104-.293.153-.189.097-.363.188-.517.268-.307.159-.532.277-.624.328-.219.121.063-.102.969-.612"/><path d="m33.619 25.4657c-.101-.05-.21-.104-.326-.159-.114-.059-.239-.105-.366-.16s-.258-.111-.391-.167c-.135-.049-.272-.1-.409-.15-.548-.203-1.107-.354-1.534-.457-.507-.119-.964-.199-1.422-.255-.228-.037-.46-.048-.697-.068-.237-.025-.482-.027-.742-.036-.263-.016-.56 0-.872-.001-.156-.003-.316.016-.479.022-.162.013-.327.013-.491.035-.33.038-.66.069-.972.131-.156.029-.31.05-.455.083-.146.036-.286.069-.418.1-.204.039-.72.191-.923.249-.109.033-.074.002.08-.066.077-.036.184-.08.317-.129.134-.05.293-.108.478-.152.105-.028.219-.059.339-.091.061-.017.123-.035.187-.052.065-.015.131-.03.2-.044.136-.029.279-.061.43-.093.15-.035.308-.05.471-.075.656-.096 1.297-.102 2.052-.098.494.008 1.021.034 1.534.097.256.033.512.058.755.11.245.046.483.085.703.147.169.045.354.088.546.146.191.064.391.13.594.198.403.153.819.32 1.194.505.095.046.188.087.277.133.088.048.174.094.257.139.165.091.319.168.451.248.264.161.457.278.538.324.096.055.071.059-.079-.008-.075-.032-.18-.083-.317-.152-.068-.036-.144-.075-.229-.12-.085-.04-.179-.085-.281-.134"/><path d="m33.6629 29.2118c-.092-.08-.191-.166-.296-.258-.103-.093-.22-.175-.336-.268-.117-.092-.237-.187-.36-.284-.125-.087-.253-.178-.381-.268-.252-.187-.516-.346-.761-.501-.061-.038-.122-.076-.181-.114-.06-.034-.12-.067-.177-.099-.116-.065-.225-.127-.327-.184-.483-.262-.923-.469-1.369-.651-.22-.1-.448-.173-.68-.258-.231-.091-.475-.157-.731-.235-.258-.086-.555-.149-.864-.232-.078-.021-.157-.039-.237-.053-.08-.016-.161-.032-.242-.048-.081-.017-.163-.032-.245-.049-.083-.019-.166-.033-.249-.043-.332-.046-.664-.099-.984-.115-.16-.01-.314-.028-.464-.029s-.294-.002-.429-.003c-.208-.013-.744.016-.954.026-.112.007-.074-.017.089-.048.081-.015.194-.034.334-.052.139-.018.306-.037.496-.036.109-.003.226-.006.351-.009.062-.002.126-.003.193-.005.066.002.134.003.204.005.14.005.287.01.441.015.154.002.313.028.479.045.665.07 1.303.231 2.051.436.49.139 1.008.308 1.507.511.249.104.498.2.731.32.235.114.465.218.674.344.16.093.337.188.517.301.179.118.367.242.558.369.188.132.375.279.563.417.046.035.093.071.14.105.044.038.089.076.134.113.089.075.177.148.263.221s.172.142.252.215c.08.074.158.146.232.215.148.142.288.265.406.385.234.241.405.418.478.488.087.084.061.081-.076-.031-.068-.056-.164-.138-.288-.25-.061-.056-.13-.12-.206-.189-.078-.067-.163-.14-.256-.219"/><path d="m30.3343 29.872c-.264-.229-.64-.47-1.004-.731-.181-.136-.371-.246-.549-.353-.177-.108-.344-.21-.488-.297-.042-.026-.084-.052-.126-.077-.042-.022-.084-.044-.126-.065-.083-.043-.165-.085-.245-.127-.16-.083-.316-.163-.472-.244-.154-.086-.316-.146-.48-.218-.164-.071-.333-.144-.512-.222-.179-.086-.388-.15-.605-.235-.109-.041-.221-.083-.333-.126-.057-.022-.114-.043-.171-.065-.056-.023-.114-.044-.173-.059-.233-.069-.466-.137-.688-.202-.111-.032-.218-.069-.324-.09s-.207-.04-.303-.059c-.147-.031-.522-.11-.669-.141-.16-.03.121-.061.659.028.077.011.16.023.248.037.045.006.09.013.137.018.047.011.095.022.143.033.197.044.414.093.647.155.116.033.234.057.348.102.113.042.229.086.346.13.116.044.236.089.359.135.123.047.251.086.38.147.17.072.347.147.525.222.178.076.362.141.535.235.174.088.348.174.516.258.167.086.332.164.479.261.227.142.492.313.767.492.268.196.54.412.794.606.063.05.126.096.184.145.058.052.115.103.169.151.108.097.208.186.297.265.176.158.305.272.36.317.131.107-.083.011-.625-.426"/></g></g></svg>