
<svg width="75px" height="104px" viewBox="0 0 75 104" version="1.1" xmlns="http://www.w3.org/2000/svg" xmlns:xlink="http://www.w3.org/1999/xlink">
    <defs>
        <polygon id="path-qgmqda85yi-1" points="0.431867792 0.00381471536 33.07775 0.00381471536 33.07775 15.3495923 0.431867792 15.3495923"></polygon>
        <polygon id="path-qgmqda85yi-3" points="0.897028546 0.0517185237 30.6795721 0.0517185237 30.6795721 88 0.897028546 88"></polygon>
        <polygon id="path-qgmqda85yi-5" points="0.257833333 0.786261573 12.695235 0.786261573 12.695235 34 0.257833333 34"></polygon>
        <polygon id="path-qgmqda85yi-7" points="0.470469388 0.162256394 9.645 0.162256394 9.645 9 0.470469388 9"></polygon>
        <polygon id="path-qgmqda85yi-9" points="0.899219122 0.07 15.2194133 0.07 15.2194133 13.5839846 0.899219122 13.5839846"></polygon>
    </defs>
    <g id="Page-1" stroke="none" stroke-width="1" fill="none" fill-rule="evenodd">
        <g id="designer-profile" transform="translate(-306.000000, -448.000000)">
            <g id="Group-84" transform="translate(306.000000, 448.000000)">
                <path d="M17.2576975,96.0294898 C16.8677072,95.2632062 16.9991169,94.3430201 17.1421841,93.4917135 C17.5586683,90.9937582 17.9762123,88.4968791 18.3926966,86 C27.221527,87.0105903 36.1160623,87.4314005 45,87.259202 C43.4951459,88.0448579 42.4894371,89.554824 41.763504,91.1078397 C41.0375709,92.658703 40.5246488,94.3161141 39.6598876,95.793793 C38.7961862,97.2703956 37.4842078,98.5974008 35.825689,98.9342642 C34.1671703,99.2711276 32.202382,98.2863671 31.8886941,96.597745 C29.1852556,95.4741494 26.0844084,95.3729828 23.3163247,96.3168461 C22.2618671,96.6763106 21.240262,97.1832201 20.1338763,97.3026828 C19.0285504,97.4199931 17.7674403,97.0336226 17.2576975,96.0294898" id="Fill-1" fill="#0F0D0D"></path>
                <g id="Group-5" transform="translate(41.000000, 83.000000)">
                    <mask id="mask-qgmqda85yi-2" fill="white">
                        <use xlink:href="#path-qgmqda85yi-1"></use>
                    </mask>
                    <g id="Clip-4"></g>
                    <path d="M31.6525125,13.82464 C30.268075,15.09184 28.228075,15.2379733 26.3570125,15.3179733 C24.84295,15.38304 23.22795,15.4235733 21.933825,14.6331733 C20.6397,13.8417067 19.9480125,11.8811733 20.9743875,10.76224 C21.6968875,9.97397333 22.8890125,9.92384 23.9430125,9.75850667 C24.9970125,9.59424 26.2125125,9.05130667 26.3347,7.98784 C26.4335125,7.12490667 25.7365125,6.37504 25.0002,5.91637333 C23.4022,4.92010667 21.4631375,4.67370667 19.5888875,4.51050667 C13.2223875,3.95477333 6.7963875,4.08064 0.4575125,4.88597333 C0.2790125,3.71797333 1.0557,2.57024 2.060825,1.95690667 C3.0670125,1.34250667 4.26445,1.14944 5.42895,0.974506667 C9.5737625,0.34944 13.7642625,-0.214826667 17.9441375,0.0881066667 C22.12295,0.39104 26.33895,1.62410667 29.6072,4.25664 C31.0522,5.41824 32.320825,6.89557333 32.8457,8.67690667 C33.370575,10.45824 33.01995,12.57344 31.6525125,13.82464" id="Fill-3" fill="#0F0D0D" mask="url(#mask-qgmqda85yi-2)"></path>
                </g>
                <path d="M15.4091661,30.9537281 C17.6914734,28.7978076 21.0610555,28.317523 24.2011138,28.1138308 C27.0696228,27.9262196 29.9984761,27.8876253 32.7667704,28.6605834 C35.5350648,29.4335415 38.1557312,31.119898 39.4811504,33.6585454 C40.9628183,36.4973706 40.6406229,39.8968853 41.2731604,43.0326722 C41.9908264,46.5876362 43.9283092,49.7566571 45.5608378,52.9975063 C48.5920608,59.0171452 50.6469995,65.5213569 51.6232839,72.1842341 C52.3247863,76.9731436 52.3150881,82.3377515 49.2062795,86.0599574 C47.3377616,88.2994989 44.5554588,89.6352905 41.704191,90.2860333 C38.8518457,90.9367761 35.8992857,90.9646498 32.9725876,90.9871631 C28.2420262,91.0246853 23.4478878,91.0568473 18.8627992,89.89473 C14.2777106,88.7326127 9.84779311,86.221839 7.37906505,82.2058876 C4.94805218,78.2478276 4.68620106,73.322766 5.24977363,68.7182515 C5.73360554,64.7773446 6.76700153,60.9114821 8.20879906,57.2085733 C9.57947653,53.6868434 11.3326937,50.2551668 11.9210505,46.5233123 C12.3456157,43.8313598 12.1451865,41.0804438 12.3919515,38.365978 C12.6397942,35.6515122 13.4221148,32.82984 15.4091661,30.9537281" id="Fill-6" fill="#E7DFD5"></path>
                <path d="M8.0656651,57 C8.06674268,59.9548629 8.06782025,62.9086671 8.06889783,65.86353 C8.06997541,68.0095376 8.08829423,70.2360072 9.01177828,72.1808596 C10.1356918,74.5502553 16.5268049,77.1769177 19.3597565,77.4595936 C24.6355768,77.985773 23.5493785,78.9629635 28.8338193,78.5373616 C32.2044822,78.2652728 36.2141487,78.2546857 39.1785648,76.6539144 C43.4985737,74.3226324 47.3035004,68.9274402 48.034098,64.1367721 C48.3110355,62.3179063 48.3713798,60.4863359 48.2959494,58.6526482 C49.858437,62.7773869 50.9780402,67.0641085 51.6235092,71.4185876 C52.3250123,76.1478504 52.3142365,81.4456412 49.2065025,85.1214864 C47.3379829,87.3331341 44.5556774,88.6522882 41.7044069,89.2949259 C38.8520588,89.9375636 35.899496,89.9650901 32.9727951,89.987323 C28.2422292,90.0243779 23.4480862,90.0561392 18.8629932,88.9084963 C14.2779003,87.7608534 9.84797855,85.2813518 7.37924813,81.3154197 C4.94715535,77.406658 4.68638156,72.5429389 5.24995468,67.9957743 C5.7165458,64.2352322 6.69929663,60.5435063 8.0656651,57" id="Fill-8" fill="#D7CDC2"></path>
                <path d="M32.5360547,89.1412565 C32.3244933,90.0987408 32.090031,91.1004332 31.4357175,91.8379549 C30.0540256,93.3949451 27.5632723,93.0822532 25.5174522,92.638015 C26.065985,86.5836521 24.5239862,80.528211 22.4727135,74.7962443 C21.5326831,72.1674756 20.4737858,69.5451763 20.1160945,66.77947 C19.7584031,64.0116072 20.188069,61.0162341 21.9547153,58.842486 C23.4661794,56.9825081 25.9024066,55.8967123 28.3135517,56.0077719 C30.7236063,56.1199097 33.0464192,57.4245898 34.375766,59.416114 C35.9373942,61.7526775 36.0780716,64.7243292 35.9733814,67.5223829 C35.7029318,74.8232005 34.1162217,82.0054108 32.5360547,89.1412565" id="Fill-10" fill="#C0B5AB"></path>
                <g id="Group-14" transform="translate(11.000000, 16.000000)">
                    <mask id="mask-qgmqda85yi-4" fill="white">
                        <use xlink:href="#path-qgmqda85yi-3"></use>
                    </mask>
                    <g id="Clip-13"></g>
                    <path d="M24.5341483,79.8790181 C25.8960103,82.7892108 26.9232862,84.5466928 25.3390793,86.0350301 C23.7548724,87.525512 21.2000448,88.1045482 19.3485966,86.9668494 C16.9145621,85.4720783 16.731769,82.0268133 17.0759759,79.185247 C18.3181138,68.9598976 22.7361483,58.8171145 20.759631,48.7097169 C20.4688724,47.2224518 20.0199069,45.721247 19.0792172,44.5352952 C18.1395966,43.3493434 16.6195276,42.5311867 15.1293897,42.7821024 C12.5841828,43.2088735 11.4468034,46.2949217 11.4820793,48.8834277 C11.5472862,53.7537651 13.9364241,58.244512 15.2587345,62.931488 C17.0364241,69.232259 16.8750103,75.8976084 16.700769,82.4439337 C16.6622862,83.9140422 16.607769,85.4409819 15.925769,86.742741 C15.243769,88.0434277 12.4933207,88.2139217 11.087631,87.8000181 C8.99138966,87.1813072 6.5284931,83.8679337 8.9154931,82.0032229 C14.1502172,77.9178012 5.24466552,60.6003313 2.80742414,49.3681024 C-0.151472414,35.7328735 0.334906897,21.3588373 4.2099069,7.95522289 C4.78501034,5.96398193 5.49587241,3.89660843 7.03838966,2.51657229 C8.37459655,1.32096988 10.1725966,0.795548193 11.9353207,0.479222892 C16.8728724,-0.40863253 22.0520103,0.0942710843 26.7276655,1.91501807 C27.2450448,10.121247 26.7843207,16.5464036 28.9019414,25.5750783 C31.1884586,35.3211145 30.8912862,45.7351867 30.0938379,55.7149819 C29.1980448,66.9171867 22.7938724,76.1613916 24.5341483,79.8790181" id="Fill-12" fill="#F3EEE9" mask="url(#mask-qgmqda85yi-4)"></path>
                </g>
                <g id="Group-17" transform="translate(15.000000, 70.000000)">
                    <mask id="mask-qgmqda85yi-6" fill="white">
                        <use xlink:href="#path-qgmqda85yi-5"></use>
                    </mask>
                    <g id="Clip-16"></g>
                    <path d="M4.0235,0.79549375 C5.46,0.69668125 7.03625,1.41918125 8.52475,1.62105625 C9.34266667,4.13811875 10.3978333,6.62011875 11.13125,9.16055625 C12.93175,15.4038063 12.76925,22.0083063 12.5926667,28.4938063 C12.5525833,29.9504938 12.4984167,31.4645563 11.80725,32.7544313 C11.115,34.0432438 8.32866667,34.2121813 6.90408333,33.8009938 C4.77966667,33.1879313 2.28258333,29.9048063 4.70166667,28.0581813 C9.09566667,24.7049313 3.65841667,12.3576188 0.257833333,1.89093125 C1.49933333,1.44149375 2.72133333,0.88474375 4.0235,0.79549375" id="Fill-15" fill="#A78F81" mask="url(#mask-qgmqda85yi-6)"></path>
                </g>
                <path d="M28.1292185,95.5283233 C29.1044659,87.143116 32.1047495,78.8121048 32.180326,70.5103594 C33.1876675,70.4117226 34.1908679,70.3802889 35.1516212,70.0030847 C36.1693158,69.604202 37.1238573,68.5343727 38.198493,68.3631133 C39.1292228,68.2124484 40.0972232,68.2644765 41,68 C40.9223529,69.2725224 40.8333176,70.5417931 40.7359999,71.8034763 C39.8694584,83.1282753 33.6670089,92.4727521 35.3524684,96.2296197 C36.6714336,99.1713794 37.6663516,100.947925 36.1320452,102.45349 C34.5977387,103.959055 32.1233848,104.544372 30.3302547,103.395417 C27.972889,101.883348 27.7948184,98.4007121 28.1292185,95.5283233" id="Fill-18" fill="#A78F81"></path>
                <g id="Group-22" transform="translate(18.000000, 95.000000)">
                    <mask id="mask-qgmqda85yi-8" fill="white">
                        <use xlink:href="#path-qgmqda85yi-7"></use>
                    </mask>
                    <g id="Clip-21"></g>
                    <path d="M1.48944444,2.7088875 C2.23055556,2.1250125 2.69833333,1.2835125 2.94722222,0.2372625 C3.88055556,0.1011375 4.855,0.1765125 5.80166667,0.2575125 C7.08388889,0.3677625 8.36611111,0.4780125 9.645,0.6231375 C9.62611111,1.4725125 9.605,2.3230125 9.58166667,3.1701375 C9.54166667,4.7125125 9.485,6.3156375 8.77611111,7.6813875 C8.06722222,9.0460125 5.20833333,9.2248875 3.74722222,8.7895125 C1.56833333,8.1403875 -0.991666667,4.6641375 1.48944444,2.7088875" id="Fill-20" fill="#382E2A" mask="url(#mask-qgmqda85yi-8)"></path>
                </g>
                <path d="M30.3537246,103.36334 C28.2073558,101.930344 27.8496276,98.8146906 28.0473195,96 C28.9887094,96.1197013 29.9269612,96.2622028 30.8599832,96.4446048 C32.5325191,96.7729284 34.2217909,97.2334934 35.9079247,97.010051 C35.9183846,97.008911 35.9288445,97.0066309 35.9393044,97.0054909 C36.9832011,99.4143371 37.5584949,101.001234 36.2154454,102.372669 C34.6652901,103.957286 32.1653771,104.572893 30.3537246,103.36334" id="Fill-23" fill="#382E2A"></path>
                <path d="M19.2226507,60.5618794 C19.2974577,61.6277258 19.6904574,62.6640239 19.6514735,63.7298702 C19.6135433,64.7978271 18.9118332,65.9818663 17.8455712,66 C16.5569956,66.0198569 15.9026984,64.4791285 15.6266503,63.2191082 C14.3412356,57.3369028 13.812319,51.2890163 14.0588658,45.2727886 C14.1147075,43.9030178 14.2485171,42.4351047 15.121967,41.3819218 C16.5243334,39.6913418 19.0825195,39.8116453 21.205561,39.2586715 C23.3707474,38.6962001 25.7002982,37.3211528 27.6579216,38.4038839 C29.1098081,39.2080174 29.6081698,41.026288 29.9073975,42.6609374 C30.6228045,46.5686889 30.9884102,50.5408133 31,54.5150482 C28.5440149,55.535517 25.6602607,54.3103213 23.101021,55.0331973 C20.7588267,55.6959215 19.0509109,58.1304834 19.2226507,60.5618794" id="Fill-25" fill="#F8F7F6"></path>
                <g id="Group-29" transform="translate(5.000000, 0.000000)">
                    <mask id="mask-qgmqda85yi-10" fill="white">
                        <use xlink:href="#path-qgmqda85yi-9"></use>
                    </mask>
                    <g id="Clip-28"></g>
                    <path d="M15.2194133,7.76106154 C10.7191467,5.28736923 3.41141333,1.48583077 1.72074667,0.339984615 C0.0290133333,-0.804784615 1.41461333,2.00921538 1.78581333,2.76521538 C2.15594667,3.52121538 2.74048,4.14475385 3.25461333,4.81029231 C5.16181333,7.27644615 6.13461333,10.4619846 5.93514667,13.5839846 C8.68074667,11.1393692 11.8135467,9.11906154 15.2194133,7.76106154" id="Fill-27" fill="#0F0D0D" mask="url(#mask-qgmqda85yi-10)"></path>
                </g>
                <path d="M0.30003578,33.5126384 C0.360855164,33.4243882 0.439198778,33.3361381 0.52166574,33.2380824 C0.604132702,33.1411162 0.692784686,33.0365234 0.785560018,32.9264831 C0.882458698,32.8197114 0.987604075,32.7140291 1.09274945,32.6039888 C1.14532214,32.5484239 1.19892566,32.492859 1.25252919,32.4372941 C1.30716355,32.3817292 1.36592126,32.3305223 1.42158646,32.2771365 C1.53600937,32.1714542 1.65043228,32.0657719 1.76073184,31.9622687 C1.87824726,31.8653025 1.99267017,31.7705153 2.1019389,31.6789967 C2.15657326,31.6332373 2.21017679,31.5885675 2.26171864,31.5460767 C2.31429133,31.5024964 2.36789485,31.4654531 2.41840586,31.4273203 C2.51942789,31.3521443 2.61323406,31.2813263 2.69673186,31.2192244 C2.74621204,31.1821811 2.79363054,31.1440483 2.84414156,31.1102736 C2.89362173,31.0764988 2.94310191,31.0438136 2.99155125,31.0111284 C3.08948077,30.9457579 3.18534861,30.8814769 3.27915478,30.8182855 C3.37193011,30.752915 3.46882879,30.6984396 3.56469664,30.6417852 C3.65953364,30.5851308 3.75333981,30.5295659 3.84817682,30.4729115 C3.94095215,30.4151676 4.03888167,30.3672292 4.13681118,30.3160224 C4.2347407,30.265905 4.33370106,30.2146981 4.43369225,30.1624017 C4.5326526,30.1079264 4.63779798,30.0632565 4.74500503,30.0164077 C4.85118124,29.9684694 4.96044997,29.920531 5.07178037,29.8704136 C5.98407113,29.4803698 6.96542798,29.1720391 7.94781566,29.0445667 C8.04265267,29.0347611 8.22304915,29.0162395 8.40447647,29.010792 C8.58590378,29.0086129 8.7673311,29.0064339 8.8621681,29.0009864 C9.06730467,28.9890018 9.12503155,29.0892365 8.44674078,29.1382644 C8.3498421,29.1426224 8.24572756,29.161144 8.135428,29.1774867 C8.02512844,29.1927398 7.90761302,29.2101719 7.78288174,29.2286935 C7.6591813,29.2450361 7.53032667,29.2788109 7.39528702,29.3038696 C7.32725178,29.3169437 7.25818569,29.3311073 7.18705794,29.3452709 C7.11593019,29.358345 7.04377159,29.3725086 6.971613,29.3921197 C6.3840359,29.5228606 5.69440593,29.7778055 5.0532253,30.0501824 C4.21309312,30.4108095 3.42141029,30.8411651 2.73178032,31.3456073 C2.60292569,31.443663 2.46273186,31.5438977 2.32253802,31.653938 C2.1854367,31.7672468 2.04318119,31.8849136 1.90195652,32.0025805 C1.62569219,32.2498988 1.34633536,32.5004856 1.11027368,32.7543409 C0.862872795,32.9962116 0.663921249,33.2446194 0.496925651,33.4331043 C0.337145913,33.6270367 0.227877188,33.7795678 0.1753045,33.8460278 C0.0546965678,34.0094539 -0.206105199,34.1979388 0.30003578,33.5126384" id="Fill-30" fill="#FFFFFF"></path>
                <path d="M2.21231663,36.4788191 C2.25797007,36.3841668 2.31921249,36.2830609 2.3837954,36.1733503 C2.44837831,36.0636397 2.51741522,35.9453243 2.59090612,35.8227066 C2.66662402,35.7011644 2.7512499,35.5785467 2.83587579,35.450551 C2.87818873,35.3870909 2.92161517,35.3225552 2.96504161,35.2590952 C3.00846806,35.1945595 3.05634849,35.1332506 3.10311543,35.0697906 C3.1966493,34.9450216 3.28906968,34.8202527 3.38037655,34.6965594 C3.47836442,34.578244 3.57412529,34.4620798 3.66543217,34.3512936 C3.7110856,34.2964383 3.75562554,34.241583 3.79905199,34.1888789 C3.84247843,34.1361748 3.88813186,34.0888486 3.93044481,34.0404469 C4.01729769,33.9457946 4.09635608,33.8565202 4.16650649,33.7780019 C4.20881943,33.7317513 4.25001887,33.6844252 4.29233182,33.6403258 C4.33464476,33.597302 4.3769577,33.5542782 4.41927065,33.5112545 C4.50389653,33.4262825 4.58518192,33.3423862 4.66646731,33.260641 C4.7455257,33.1767447 4.83126509,33.1003775 4.91477747,33.0240103 C4.99717636,32.9476431 5.08068875,32.8712759 5.16197414,32.7949087 C5.24325953,32.7174659 5.33122591,32.6464767 5.41807879,32.5744119 C5.50493168,32.5012714 5.59289806,32.428131 5.68197794,32.3549906 C5.76883082,32.2786234 5.86459169,32.2087098 5.96035256,32.136645 C6.05722693,32.0645802 6.1552148,31.9903642 6.25654316,31.913997 C7.08275904,31.3084374 7.99026031,30.7469772 8.94341502,30.3404025 C9.0358354,30.3027567 9.21399515,30.2328431 9.39438191,30.1736854 C9.57699566,30.1166789 9.75849592,30.060748 9.85202979,30.026329 C10.0546865,29.9531886 10.1448799,30.0306314 9.4756673,30.2812448 C9.37990643,30.3156639 9.28080506,30.36299 9.17279571,30.4092406 C9.06589986,30.4576423 8.95232301,30.5081952 8.83317867,30.561975 C8.71180733,30.6136035 8.5915495,30.6813659 8.46127017,30.7437504 C8.39668726,30.7760182 8.32987735,30.8093616 8.26306744,30.8427051 C8.19514403,30.8760485 8.12610713,30.9093919 8.05818372,30.9481133 C7.49920748,31.2374482 6.86785383,31.6644591 6.28660762,32.0893188 C5.52497465,32.6486279 4.8223571,33.2509607 4.23554339,33.8898637 C3.78234951,34.3706543 3.27459419,35.0138597 2.88821022,35.5903782 C2.68778049,35.8743351 2.5341177,36.1496872 2.40161138,36.3637305 C2.27689955,36.579925 2.19450066,36.7466421 2.15441471,36.8208581 C2.06199434,36.9994067 1.83038665,37.2306595 2.21231663,36.4788191" id="Fill-32" fill="#FFFFFF"></path>
                <path d="M6.06036803,36.5680741 C6.09516748,36.4096825 6.15248422,36.2178885 6.20980096,36.0066996 C6.24152987,35.9021827 6.27837635,35.7933558 6.31419931,35.6823739 C6.35002227,35.571392 6.38686875,35.4582551 6.4298563,35.3472732 C6.47079683,35.2352138 6.51276087,35.1231544 6.55267789,35.0143275 C6.59771247,34.9065781 6.64070002,34.8009836 6.68266406,34.7007767 C6.76352161,34.4971303 6.85052023,34.3182662 6.91500156,34.1706495 C7.07364611,33.8258514 7.22819661,33.524153 7.39195872,33.2289196 C7.47179275,33.0802254 7.56186191,32.9369187 7.64988405,32.787147 C7.73790619,32.6373753 7.84025751,32.4908361 7.94158532,32.3313669 C8.3663433,31.6956453 8.83408884,31.0545363 9.36733922,30.5114792 C9.42056191,30.460837 9.52188972,30.36494 9.6293586,30.275508 C9.73682749,30.1871535 9.84429638,30.0998764 9.89751907,30.0503117 C10.0131761,29.9425623 10.1083628,29.992127 9.7296629,30.3541651 C9.62219401,30.4576045 9.50756053,30.5879813 9.37450381,30.7280556 C9.30797546,30.7980927 9.24349412,30.8767498 9.17287171,30.9564843 C9.10327281,31.0372964 9.02548581,31.117031 8.95281637,31.2075405 C8.64883295,31.5588036 8.3274498,32.0264361 8.02858394,32.4735962 C7.63862541,33.061908 7.28244281,33.6566848 7.00814127,34.2525391 C6.794227,34.7050867 6.56496004,35.283701 6.40017442,35.7868908 C6.31215228,36.0368695 6.25074149,36.2706857 6.19444826,36.4549372 C6.14429611,36.6402662 6.11359072,36.779263 6.09823802,36.8417577 C6.06343857,36.9936843 5.92014672,37.2016407 6.06036803,36.5680741" id="Fill-34" fill="#FFFFFF"></path>
                <path d="M9.00486392,35.7236015 C9.01015003,35.3093775 9.21498673,34.5167266 9.32995959,34.1157986 C9.398679,33.877492 9.47797062,33.6688458 9.54801156,33.4581541 C9.62598166,33.2495079 9.72113161,33.04393 9.82024614,32.8127828 C9.93389747,32.5806128 10.0475488,32.3453744 10.1612001,32.1101361 C10.225955,31.9945625 10.2920313,31.8789889 10.3554646,31.764438 C10.4228625,31.6498872 10.4876173,31.5353364 10.569552,31.4279449 C10.6303423,31.3451001 10.8404651,31.1282718 10.9012553,31.045427 C10.9673317,30.9554227 11.0941983,30.9820149 10.8840755,31.2827108 C10.8246067,31.3676012 10.7585304,31.468856 10.6845249,31.5803385 C10.6131624,31.6938665 10.544443,31.8227362 10.4598653,31.9577426 C10.4175764,32.0252458 10.3752875,32.0978628 10.3316771,32.1725254 C10.2893883,32.247188 10.2563501,32.32901 10.2167043,32.4098093 C10.17838,32.4906085 10.1387342,32.5724306 10.1004099,32.6552754 C10.0620856,32.7381202 10.0171537,32.8189194 9.9841155,32.9017642 C9.93786205,33.0101784 9.88896555,33.1165471 9.84006905,33.2218929 C9.79117255,33.3282616 9.73698993,33.4315619 9.69866565,33.5379305 C9.65901984,33.6432764 9.6180525,33.7486223 9.57840668,33.8519226 C9.5400824,33.9552229 9.496472,34.0575004 9.47268451,34.1608007 C9.42907412,34.3172854 9.38017762,34.4932027 9.33128111,34.6701429 C9.28899225,34.8491286 9.25463254,35.0311826 9.21762978,35.197895 C9.17666244,35.3646073 9.1647687,35.5180236 9.14626732,35.6397339 C9.13040899,35.762467 9.11851525,35.8514484 9.11455067,35.8933822 C9.10662151,35.9915686 8.97314727,36.13578 9.00486392,35.7236015" id="Fill-36" fill="#FFFFFF"></path>
                <path d="M9.00587419,19.235718 C8.98236407,17.5309326 8.99411913,15.7560002 9.7432372,14.2212683 C10.3833538,12.9086686 11.5011534,11.9011022 12.5922369,10.9275464 C14.0049817,9.66808843 15.4572662,8.38312241 17.219457,7.68590346 C18.9891282,6.98549601 20.9500863,6.92916582 22.8512005,7.05032886 C25.3817449,7.2118796 27.9208384,7.67740079 30.2205561,8.74023455 C32.5202738,9.80200549 34.5752724,11.4940368 35.7764261,13.7153594 C37.340918,16.6041416 37.3248884,20.1795144 36.1835787,23.2585438 C35.0433376,26.3375732 32.8697197,28.9563956 30.351999,31.0778118 C26.8906675,33.9952905 22.5284706,36.1103297 17.9931538,35.9955437 C14.9988188,35.9190196 11.8270892,34.6733785 10.3705301,32.0704986 C9.46004706,30.4443629 9.3264668,28.513194 9.23563223,26.6542977 C9.11701296,24.1832092 9.04007074,21.709995 9.00587419,19.235718" id="Fill-38" fill="#F3EEE9"></path>
                <path d="M10.3566898,31.9783584 C9.45540129,30.3136814 9.32316999,28.3367414 9.23325271,26.4337871 C9.11583131,23.9041308 9.03966608,21.3722984 9.00581487,18.8393781 C8.98254216,17.0930992 8.99417852,15.2760988 9.73573165,13.7060798 C10.0276984,13.085906 10.4212187,12.5331897 10.8655159,12.0196423 C11.6536144,11.9554489 12.4692171,12.053371 13.2372165,12.2437753 C14.7414798,12.6169676 16.1558258,13.3056869 17.6516262,13.7115199 C20.545905,14.4981615 23.8072578,14.2620602 26.2762806,16.0028989 C28.0016346,17.21931 29.0330388,19.2060422 29.9977984,21.1155247 C30.5637483,22.2340136 31.1466239,23.4493366 30.9667893,24.6973004 C30.813401,25.7635641 30.1289718,26.6524799 29.6444763,27.6077652 C28.8711877,29.1331751 28.5982623,30.8642217 28.1539651,32.5223706 C25.1105295,34.6701303 21.5646149,36.092178 17.9023368,35.9953438 C14.9392978,35.9180941 11.7985399,34.6429297 10.3566898,31.9783584" id="Fill-40" fill="#A78F81"></path>
                <path d="M12.3059914,19.038875 C13.2476163,19.4898483 14.3610171,19.2557306 15.3361593,18.8878314 C16.3113015,18.5199321 17.2675902,18.021488 18.3045298,17.9578339 C19.7866202,17.8672077 21.1713011,18.6763702 22.3852536,19.556739 C23.5981587,20.436029 24.7869733,21.4383116 26.2208827,21.8299462 C26.824193,21.9950154 27.5374817,22.0996671 27.8569429,22.6531342 C28.1460291,23.1526572 27.9616843,23.8150916 27.6181326,24.2768536 C27.2756283,24.7396946 26.7969602,25.0741484 26.4073223,25.4959918 C25.2677362,26.7323921 25.0079776,28.5481528 24.3208742,30.1006659 C22.9749476,33.1366436 19.9636331,35.0948169 16.8423402,35.9892112 C16.8287239,35.9935267 16.8161549,35.9967633 16.8025385,36 C14.1902887,35.6892816 11.6073665,34.4313036 10.3431381,32.0912057 C9.45074161,30.4394353 9.31981489,28.4801831 9.23078473,26.5932162 C9.1145218,24.0837335 9.03910801,21.5742509 9.00559078,19.0615316 C8.99616405,18.3818351 8.99406922,17.689192 9.03701319,17.0051799 C10.3368536,16.8983705 11.1234613,18.4724613 12.3059914,19.038875" id="Fill-42" fill="#382E2A"></path>
                <path d="M11.9141425,23.8601493 C11.3132906,24.0614109 10.616135,24.0722314 10.0885577,23.7140723 C9.67612634,23.4338209 9.41547806,22.9620463 9.27206917,22.474041 C9.12970706,21.9860357 9.08992941,21.4720611 9.0271226,20.9656609 C8.94442696,20.3023632 8.94338018,18.4185111 10.6695208,19.1770294 C11.2902615,19.4497064 11.9570605,19.7072347 12.3349481,20.2861324 C12.573614,20.65403 12.6981809,21.0868507 12.8185606,21.512097 C12.9734841,22.0606972 13.1210801,22.6817949 12.8468237,23.1784567 C12.6542161,23.5279594 12.2847027,23.7367954 11.9141425,23.8601493" id="Fill-44" fill="#1C1514"></path>
                <path d="M9.51324869,20.1490872 C9.27326628,20.3155378 9.14670839,20.6000384 9.07745973,20.8809975 C8.87807136,21.6766548 9.06671425,22.5691131 9.60757014,23.1912368 C10.148426,23.8133605 11.039107,24.1309151 11.8485999,23.9491181 C12.0026185,23.2691498 12.0670914,22.5549471 11.9071031,21.8749788 C11.7495027,21.1950106 11.3471441,20.5516379 10.7358457,20.2022098 C10.3621417,19.9897197 9.86546169,19.9035432 9.51324869,20.1490872" id="Fill-46" fill="#489FCB"></path>
                <path d="M10.0919507,20.0658148 C10.365352,19.9300345 10.7022215,20.0185869 10.9668349,20.2015951 C11.4657923,20.5510819 11.7948504,21.1945625 11.9237396,21.8746448 C12.0545816,22.5547271 12.0028307,23.267869 11.8758943,23.949132 C11.3915834,24.0825509 10.8721209,23.9467706 10.4551839,23.6208978 C10.4131973,23.5169964 10.3760928,23.4107335 10.3419176,23.3044706 C10.0802335,22.4673554 9.98844877,21.5641211 10.0011424,20.6691517 C10.0050481,20.4625295 10.0157889,20.248823 10.0919507,20.0658148" id="Fill-48" fill="#137AA2"></path>
                <path d="M11.9148635,21.5566048 C11.8801191,21.3890972 11.8235354,21.2147326 11.6944848,21.1001221 C11.5644416,20.9855117 11.3440629,20.9571039 11.2229539,21.079551 C11.0075388,21.380281 10.9430135,21.7799483 11.0522101,22.1316162 C11.1614067,22.4832842 11.4939601,23.2679251 11.7907764,22.9074409 C12.0875927,22.5479363 12.0091697,22.00721 11.9148635,21.5566048" id="Fill-50" fill="#0F0D0D"></path>
                <path d="M10.4173084,21.0674765 C10.6293084,21.0444765 10.7243084,21.2394765 10.7823084,21.4004765 C10.8413084,21.5624765 10.8303084,21.7544765 10.7183084,21.8914765 C10.6053084,22.0294765 10.2833084,21.8074765 10.2103084,21.6094765 C10.1383084,21.4114765 10.2053084,21.0894765 10.4173084,21.0674765" id="Fill-52" fill="#FFFFFF"></path>
                <path d="M10.3135009,30.7322355 C9.54293885,30.1618423 8.63335228,28.1381042 9.15280812,27.6266446 C9.67118625,27.1141327 12.8989253,22.8645982 13.2534917,21.4943917 C13.4065264,20.9008461 13.6479333,19.9105509 13.7115181,19.2875384 C14.4519043,19.3559435 15.2343212,19.1675664 15.946687,18.9139414 C16.9500343,18.5550778 17.9339828,18.0688755 19.0009149,18.0067847 C20.5258735,17.9183843 21.950605,18.7076738 23.19967,19.5664207 C24.0553711,20.1547044 24.9002952,20.799817 25.8228142,21.2691811 C26.4618958,23.6086351 25.3044361,26.2143427 23.4389215,27.8497504 C21.4677913,29.5788205 18.1355144,31.4773248 15.5220696,31.8940696 C12.7685225,32.3329145 11.084063,31.3026287 10.3135009,30.7322355" id="Fill-54" fill="#2B2120"></path>
                <path d="M16.6792874,21.4987368 C17.2274051,20.9588351 17.7509636,20.3344366 18.4899736,20.1028934 C19.0927914,19.9141473 19.745844,20.0183966 20.3631741,20.1500799 C21.6402549,20.4222255 22.89166,20.8052046 24.1006446,21.2924329 C24.3306085,21.3846113 24.5672703,21.4866659 24.735836,21.6666331 C25.0350123,21.9826731 25.0551062,22.477583 24.9200303,22.8879961 C24.7101604,23.5211735 24.1843693,24.0182781 23.5826678,24.3244419 C22.9809663,24.6306056 22.3067034,24.7666784 21.6357895,24.8643436 C20.7840303,24.9883454 19.9132934,25.0563818 19.0593015,24.9400615 C18.2053096,24.8237412 17.362481,24.5153827 16.7127773,23.9579232 C16.2271741,23.540926 15.8442731,22.884704 16.0630736,22.2888369 C16.1780556,21.9727969 16.4381603,21.7357668 16.6792874,21.4987368" id="Fill-56" fill="#000000"></path>
                <path d="M17,23.2702435 C17,23.2702435 17.1899395,21.1373303 18.3473179,21.0128697 C19.9826759,20.8359404 22,22.5417828 22,22.5417828 C22,22.5417828 20.8979336,24.8882314 19.6768942,24.9919486 C17.9496973,25.1371526 17,23.2702435 17,23.2702435" id="Fill-58" fill="#489FCB"></path>
                <path d="M18.7951095,21.0127589 C19.3944791,20.9517437 20.0423271,21.1164847 20.6328825,21.3593251 C20.8587479,22.1171337 20.9832493,22.9103311 20.9986742,23.7071893 C21.0063867,24.0745007 20.9854528,24.4637776 20.8003534,24.7676332 C20.7915391,24.7810566 20.7827249,24.7920393 20.7739106,24.8042423 C20.5877094,24.9079681 20.3948975,24.9763051 20.1987802,24.9921691 C19.7161995,25.0299985 19.2909115,24.927493 18.9273234,24.7554302 C18.6386564,24.4430324 18.4392338,24.023248 18.2993074,23.5998026 C18.1208187,23.0567675 18.0205565,22.4832248 18.0018262,21.9060211 C17.9974191,21.7583644 17.9996226,21.6058264 18.0238618,21.45939 C18.2199791,21.2202105 18.4711855,21.0457071 18.7951095,21.0127589" id="Fill-60" fill="#137AA2"></path>
                <path d="M19.6982942,22.1492354 C19.8433224,22.4639745 20.068116,23.5286032 19.9801927,23.8457267 C19.8922694,24.1628502 19.5115705,23.9267958 19.3466009,23.7110088 C19.1825378,23.4952218 19.1063981,23.1912125 19.0456675,22.8955485 C19.0184747,22.7608306 18.9921884,22.621344 19.0021591,22.4830496 C19.0121298,22.3435629 19.0656089,22.2016919 19.1598772,22.1385056 C19.265929,22.1110852 19.553266,21.8344963 19.6982942,22.1492354" id="Fill-62" fill="#0F0D0D"></path>
                <path d="M18.5647644,22.9177268 C18.3987644,22.9097268 18.2367644,22.8137268 18.1597644,22.6667268 C18.0837644,22.5197268 18.1007644,22.3257268 18.2107644,22.2007268 C18.2607644,22.1437268 18.3277644,22.0947268 18.4027644,22.0857268 C18.7567644,22.0447268 18.8017644,22.3397268 18.8507644,22.4607268 C18.8997644,22.5817268 18.9077644,22.7347268 18.8177644,22.8307268 C18.7547644,22.8977268 18.6567644,22.9217268 18.5647644,22.9177268" id="Fill-64" fill="#FFFFFF"></path>
                <path d="M9.26181683,28.4277205 C9.62583825,27.8884272 11.076539,28.0052168 11.4922558,28.0223918 C11.9090495,28.0384217 12.3344592,28.1929962 12.6209376,28.5158852 C12.9569573,28.891444 13.062502,29.4582172 12.9655732,29.9665956 C12.8697214,30.473829 12.589705,30.9272476 12.2461463,31.2947914 C11.7787342,31.7940099 11.0840779,32.1672787 10.4615797,31.9233944 C9.83477362,31.6783652 8.41638247,29.6792015 9.26181683,28.4277205" id="Fill-66" fill="#000000"></path>
                <path d="M9.06633384,28.6155899 C8.79763381,28.8815899 9.38323578,28.6585899 10.1390828,28.6685899 C11.0395355,28.6795899 12.1553586,28.8835899 11.9820368,28.7365899 C11.6641093,28.4675899 11.3954092,28.3595899 11.0405611,28.3085899 C10.4539336,28.2245899 9.65501252,28.0335899 9.06633384,28.6155899" id="Fill-68" fill="#514D4C"></path>
                <path d="M37.4854828,11.5547202 C38.1925155,13.0303967 38.911606,14.5553354 38.9927229,16.1897457 C39.0782246,17.9095438 38.4062695,19.6523309 37.1884195,20.8707493 C36.5997737,21.4586116 35.8510864,21.9402864 35.0212822,21.9950222 C34.0708988,22.0563262 33.1599777,21.5439994 32.4913112,20.8663705 C31.8226447,20.1887415 31.3458087,19.3501895 30.8196449,18.5565207 C28.8114529,15.5252534 25.98113,13.0435333 22.7123373,11.4463433 C22.4076007,11.297462 22.0590172,11.1047921 22.0064008,10.7698091 C21.9439189,10.3614803 22.3516958,10.0571493 22.6706826,9.79441761 C23.589277,9.0390639 24.0880364,7.89180202 24.4311391,6.75439259 C24.7731456,5.61698316 24.995669,4.43469039 25.5130635,3.36515332 C26.0304579,2.29452153 26.916167,1.31913 28.0781121,1.06625071 C29.7453937,0.702805155 31.3425202,1.89495036 32.47158,3.17138867 C34.636525,5.62026731 36.0747061,8.6088407 37.4854828,11.5547202" id="Fill-70" fill="#0F0D0D"></path>
                <path d="M31.0914897,3.83139912 C32.1908817,4.72077763 32.8826339,6.0548454 33.2583624,7.43961408 C33.6351203,8.82227022 33.7236481,10.2683025 33.8101172,11.7027158 C33.8677632,12.6702582 33.9264386,13.6378007 33.985114,14.6053431 C34.0355543,15.4366268 33.9933492,16.450645 33.2830678,16.8530835 C32.5810217,17.251297 31.7307429,16.7643569 31.0729607,16.2922047 C28.7156502,14.601118 26.3583398,12.9100313 24,11.2189446 C24.7154283,10.3876609 25.0510105,9.28808485 25.301153,8.20963419 C25.5512955,7.13118353 25.7396745,6.02104479 26.2286363,5.03237699 C26.7186274,4.04476546 27.5812589,3.17334353 28.6518279,3.02335333 C29.5226945,2.90082612 30.4017963,3.27368908 31.0914897,3.83139912" id="Fill-72" fill="#605555"></path>
                <path d="M20.3685554,11.9956362 C19.8254632,12.6646079 18.8671928,12.9771203 17.9479469,12.9986055 C17.0276171,13.0200907 16.1257155,12.7896129 15.2422422,12.5620648 C14.8379041,12.4575685 14.4021295,12.3335402 14.1658139,12.0210278 C13.8926418,11.6596854 13.9858672,11.1567359 14.236275,10.7826976 C14.7229983,10.057083 15.6725966,9.70453005 16.5799183,9.47893519 C18.3371088,9.04141791 20.1864407,8.90176395 22,9.06778614 C20.9994529,9.71234285 21.0937623,11.1010696 20.3685554,11.9956362" id="Fill-74" fill="#F8F7F6"></path>
                <path d="M30.0986606,34.5701936 C29.7694475,34.3909937 29.3544907,34.1853733 28.9046014,33.9487376 C28.6759518,33.8361633 28.4377751,33.7189941 28.1953641,33.5995275 C28.0736293,33.5397942 27.950836,33.4800609 27.8269841,33.4191789 C27.7041908,33.3582969 27.5782218,33.3031584 27.4533113,33.2445739 C27.2024319,33.1285534 26.9515524,33.012533 26.7070243,32.89881 C26.4593205,32.7919793 26.2169096,32.6862973 25.9840257,32.5852101 C25.520375,32.3795897 25.0895398,32.2164719 24.7444482,32.0751797 C24.5401455,31.9913233 24.3400771,31.9166567 24.1431844,31.8442875 C23.9462916,31.7719183 23.7536331,31.6995491 23.5641503,31.6294773 C23.3757261,31.5571082 23.1873018,31.4950774 22.9999362,31.4307493 C22.8136291,31.3664211 22.6283805,31.3020929 22.4431319,31.2389135 C22.258942,31.1722879 22.0715763,31.114852 21.8842106,31.0551187 C21.6957864,30.9953854 21.5063036,30.9356521 21.3147036,30.8747701 C21.1231037,30.8115906 20.926211,30.7553035 20.7261425,30.6967189 C20.5250155,30.6381343 20.3196543,30.5772523 20.1090002,30.5152216 C18.3983622,30.0235706 16.6040976,29.6766579 14.8595856,29.3791402 C14.6902154,29.3527197 14.3715879,29.2849453 14.0508433,29.2286582 C13.7300987,29.172371 13.409354,29.1172326 13.2399839,29.0931095 C12.8747796,29.0414173 12.7848018,28.9173558 14.0116765,29.0839198 C14.3620609,29.1310172 14.7643149,29.1987915 15.2152628,29.2665659 C15.4407367,29.2998787 15.6767963,29.3469761 15.9245001,29.3906273 C16.1711453,29.4388735 16.4304933,29.4802273 16.6983097,29.5399606 C17.7695756,29.7582169 19.0694912,30.0476936 20.2889559,30.395755 C21.8895034,30.8540932 23.4201857,31.4123698 24.8503045,31.9775387 C25.9448588,32.4014154 27.2754727,33.0010458 28.3880226,33.5558763 C28.9480025,33.8258248 29.4465857,34.0992195 29.845664,34.3059887 C30.2426252,34.5196501 30.5326715,34.6862141 30.667109,34.7574346 C30.9867951,34.9320396 31.4218646,35.2846958 30.0986606,34.5701936" id="Fill-76" fill="#FFFFFF"></path>
                <path d="M30.1433032,30.6724862 C29.9873312,30.5988852 29.8089248,30.5289643 29.6166305,30.4492299 C29.4243362,30.3694954 29.218154,30.2848543 29.0034254,30.1953064 C28.7854918,30.1106653 28.5579436,30.0284775 28.3261222,29.9401563 C28.2096773,29.8972224 28.0921641,29.8530618 27.9746509,29.8089012 C27.8560694,29.7647406 27.7353514,29.7279401 27.6157016,29.6874595 C27.376402,29.6077251 27.1371025,29.5279907 26.9020761,29.449483 C26.6659815,29.379562 26.43416,29.3120944 26.2119533,29.2470802 C26.1008499,29.2151865 25.9918831,29.1832927 25.8861213,29.1526256 C25.7814277,29.1207318 25.6767342,29.0986515 25.5773821,29.0728912 C25.3776097,29.0225972 25.1927935,28.9772099 25.0282751,28.9355027 C24.9299913,28.9121957 24.8338442,28.8864353 24.7387654,28.8655817 C24.6426182,28.8459548 24.5475394,28.8275545 24.4545971,28.8079276 C24.2676444,28.7686737 24.0838965,28.7306465 23.9033535,28.693846 C23.7228105,28.6533655 23.5433359,28.6263785 23.3659978,28.5969381 C23.1886597,28.566271 23.01239,28.5368306 22.8371885,28.5073902 C22.6609187,28.4742697 22.4835807,28.4534161 22.3062426,28.4313358 C22.1278362,28.4080288 21.9483616,28.3847219 21.765682,28.3601882 C21.5840707,28.3332012 21.3971179,28.318481 21.2080285,28.3000807 C21.0178709,28.2829071 20.8245083,28.2645069 20.6258042,28.24488 C19.0083955,28.1074914 17.3375718,28.1786391 15.7255047,28.3209343 C15.570601,28.3381079 15.2736131,28.349148 14.9766253,28.3749084 C14.6807057,28.4043488 14.3837179,28.4325625 14.2288142,28.4534161 C13.8944357,28.4975767 13.7844007,28.3945353 14.9114589,28.2362932 C15.0717041,28.2105328 15.2458373,28.1958126 15.4306535,28.174959 C15.6154696,28.1553321 15.8120371,28.1332518 16.0203559,28.1111715 C16.2286748,28.0866378 16.4487449,28.078051 16.6784297,28.0608775 C16.792738,28.0535174 16.9102512,28.0461573 17.0309693,28.0387972 C17.150619,28.0302104 17.2734737,28.0228503 17.398465,28.0228503 C18.397327,27.9860498 19.6151909,27.9860498 20.7700249,28.0805044 C22.2848766,28.2093061 23.7484498,28.4853099 25.1148075,28.814061 C25.3754731,28.8803019 25.6521632,28.9440894 25.9352632,29.0213705 C26.2172948,29.104785 26.5078728,29.1894261 26.8005875,29.2740673 C27.3817435,29.4629765 27.9693094,29.6543391 28.5002553,29.8641019 C29.0365427,30.0579179 29.5130052,30.2738141 29.8954572,30.4320563 C30.2747043,30.5988852 30.5503261,30.7338204 30.6795906,30.7902478 C30.9861932,30.928863 31.4038991,31.2379872 30.1433032,30.6724862" id="Fill-78" fill="#FFFFFF"></path>
                <path d="M28.2468934,36.4915169 C28.1136293,36.3871211 27.9574263,36.2796847 27.7913924,36.1600856 C27.6242661,36.0415001 27.4451241,35.9137926 27.2583359,35.7800039 C27.0682707,35.6482422 26.8661899,35.5174941 26.6630168,35.3796511 C26.5614302,35.3107296 26.457659,35.2418081 26.3538877,35.1718731 C26.2501165,35.1029516 26.1419759,35.0380843 26.0360201,34.9711899 C25.8219236,34.8374011 25.6089195,34.7046259 25.4002847,34.5738778 C25.1861883,34.4492109 24.9764612,34.3275848 24.776565,34.2110264 C24.6760708,34.153254 24.5788535,34.0964951 24.4838209,34.0407498 C24.387696,33.9850044 24.291571,33.936354 24.2009078,33.8877035 C24.0184889,33.789389 23.8502702,33.7001965 23.6995289,33.6191124 C23.6099579,33.5714755 23.5225716,33.522825 23.434093,33.4782288 C23.3456144,33.4346461 23.2582281,33.3920769 23.1708418,33.3495077 C22.9971615,33.2633559 22.8278505,33.1802447 22.6607242,33.098147 C22.4946903,33.0130087 22.3264716,32.940033 22.1604377,32.8640167 C21.9933114,32.7890139 21.8294621,32.7140111 21.6645204,32.6390083 C21.5006711,32.5619784 21.3324525,32.4940704 21.1631415,32.4231218 C20.9949229,32.3531868 20.8256119,32.2822382 20.6519317,32.2092625 C20.4815284,32.1352732 20.3023865,32.0693924 20.1210599,31.9994574 C19.9397333,31.9305359 19.7540374,31.8595873 19.5639722,31.785598 C18.0128654,31.2048331 16.3525257,30.7740738 14.7293252,30.4193308 C14.5720299,30.3868972 14.2771011,30.3098673 13.977803,30.2429729 C13.6795973,30.1801327 13.3802992,30.1172925 13.2219115,30.0889131 C12.881105,30.0260729 12.8024573,29.9125552 13.9526795,30.1152654 C14.1165288,30.1416178 14.2913014,30.1801327 14.4791819,30.2176341 C14.6659701,30.2561491 14.8658663,30.2966911 15.0755934,30.3392603 C15.2875052,30.3798023 15.5048786,30.4375748 15.73536,30.491293 C15.8500545,30.5176453 15.968026,30.5470383 16.0881822,30.5754177 C16.2083383,30.6037972 16.3306791,30.6342037 16.45302,30.669678 C17.4448545,30.9321878 18.6420468,31.2859172 19.7507604,31.6984326 C21.2035577,32.2416961 22.5645993,32.8883419 23.8175004,33.5481638 C24.055628,33.6758713 24.3090483,33.8086465 24.5657456,33.9525708 C24.8213505,34.1005493 25.0835094,34.252582 25.3467606,34.4056282 C25.8667091,34.7248969 26.3910269,35.0492333 26.8552666,35.3705291 C27.328245,35.6806758 27.7367759,35.9918361 28.0688439,36.2290071 C28.3954501,36.4722594 28.6292085,36.66078 28.740626,36.7428776 C29.0027849,36.9425472 29.3293912,37.3094528 28.2468934,36.4915169" id="Fill-80" fill="#FFFFFF"></path>
                <path d="M24.4365655,36.5839921 C24.3392225,36.4979514 24.2243797,36.408874 24.1018807,36.3096741 C23.9804755,36.2114864 23.8492265,36.1052008 23.7114152,35.993854 C23.57251,35.8855439 23.4237612,35.7752094 23.2750125,35.6608258 C23.1995443,35.6031279 23.1229824,35.5464423 23.0475143,35.4877321 C22.9709524,35.4300343 22.8900156,35.3763853 22.81236,35.3196997 C22.6548613,35.2083529 22.4973625,35.0959938 22.343145,34.9866715 C22.1845526,34.8824104 22.0303351,34.7801738 21.8815863,34.6819861 C21.58737,34.4825741 21.304091,34.3206151 21.0809678,34.18295 C20.9486252,34.1009582 20.8162825,34.0260522 20.687221,33.9541829 C20.5570658,33.8823136 20.4301919,33.8114565 20.3055054,33.7416117 C20.1819126,33.6697424 20.0550387,33.6069833 19.9303522,33.5421997 C19.8067595,33.4774161 19.682073,33.4136447 19.559574,33.3498733 C19.437075,33.2840775 19.310201,33.2253674 19.183327,33.1646327 C19.0564531,33.1038981 18.9284854,33.0431635 18.7994239,32.9814166 C18.6714562,32.916633 18.5358323,32.8599474 18.3991147,32.800225 C18.262397,32.7394904 18.1234919,32.6777435 17.9802118,32.6149844 C16.8110026,32.1098748 15.5466379,31.7282589 14.3118042,31.3992796 C14.1925864,31.3699246 13.9683695,31.2980553 13.7419651,31.2352962 C13.5144669,31.1745615 13.2869688,31.1148391 13.1666573,31.0864963 C12.9063469,31.0267739 12.8549411,30.9154271 13.7343089,31.1087657 C13.9847756,31.1634268 14.2713358,31.2393451 14.5928957,31.3162757 C14.7536756,31.3547409 14.9199242,31.4063653 15.0949228,31.454953 C15.2699214,31.5065775 15.4547636,31.5541529 15.6417934,31.6179243 C16.395381,31.8537771 17.3053736,32.1645359 18.1431792,32.5238824 C19.2402016,32.9966003 20.2573808,33.5523221 21.1914357,34.1110806 C21.9089298,34.5301496 22.7543917,35.1121897 23.4401674,35.6426054 C23.7890708,35.9017398 24.0865684,36.159862 24.3304726,36.3572495 C24.5689082,36.558686 24.738438,36.7145716 24.8204686,36.7823919 C25.0118733,36.9483999 25.2284341,37.2591587 24.4365655,36.5839921" id="Fill-82" fill="#FFFFFF"></path>
            </g>
        </g>
    </g>
</svg>