<svg height="69" viewBox="0 0 99 69" width="99" xmlns="http://www.w3.org/2000/svg" xmlns:xlink="http://www.w3.org/1999/xlink"><mask id="a" fill="#fff"><path d="m.28880374.97035033h23.20319626v1.07758517h-23.20319626z" fill="#fff" fill-rule="evenodd"/></mask><g fill="none" fill-rule="evenodd"><path d="m5.1472 31.96c-1.639 1.983-3.015 4.245-3.594 6.752s-.289 5.286 1.164 7.409c1.306 1.911 3.404 3.129 5.531 4.043 10.067 4.331 21.514 3.094 32.453 3.762 13.127.802 26.525 4.426 39.199.917 2.938-.813 5.916-2.112 7.717-4.571 1.523-2.077 2.019-4.765 1.88-7.337s-.861-5.071-1.58-7.544c-1.516-5.221-3.031-10.441-4.547-15.661-13.452-1.559-12.433-2.289-25.962-1.694-6.747 1.623-17.28-2.072-32.337 1.294-6.721 1.502-15.537 7.322-19.924 12.63" fill="#b08b6a"/><path d="m83.3704 19.7296c-7.095-.821-10.164-1.413-13.466-1.701-4.01.118-8.02.298-11.977-.015-.171.007-.343.014-.519.022-.92.221-1.91.344-2.972.399-.78.04-2.036 5.487-.265 8.112 1.753 2.599-1.479 5.848 1.344 7.21 2.631 1.27 5.888 1.045 8.286 2.717 1.334.93 2.236 2.342 3.333 3.544 2.007 2.198 4.742 3.72 7.669 4.265.448.084.914.145 1.355.033.941-.238 1.51-1.165 1.982-2.013.919-1.654 1.839-3.309 2.759-4.964.517-.929 1.058-1.886 1.907-2.527.704-.532 1.573-.807 2.288-1.324.718-.52 1.236-1.25 1.682-2.026-1.135-3.911-2.271-7.821-3.406-11.732" fill="#e0d7ce"/><path d="m53.6897 55.2769c-1.738-2.257-2.75-5.078-2.784-7.929-.024-1.897.356-3.851-.226-5.656-.986-3.061-4.575-5.211-4.333-8.419.151-1.982 1.752-3.486 2.925-5.091 2.023-2.767 2.89-6.34 2.427-9.731-6.523-.188-15.293-1.654-26.628.879-6.72 1.502-15.537 7.322-19.923 12.63-1.64 1.984-3.016 4.245-3.595 6.752s-.288 5.286 1.164 7.409c1.307 1.911 3.405 3.129 5.531 4.043 10.068 4.331 21.514 3.094 32.453 3.762 4.313.263 8.654.831 12.989 1.351" fill="#685547"/><path d="m53.6897 55.2769c-.9-1.169-1.605-2.49-2.081-3.888-4.519-1.227-8.502-4.522-12.857-6.552-3.321-1.549-6.925-2.373-10.399-3.542-3.474-1.168-6.934-2.762-9.385-5.487-2.177-2.421-3.417-5.664-3.409-8.92.003-1.298.204-2.592.584-3.834-4.312 2.493-8.418 5.788-10.995 8.906-1.64 1.984-3.016 4.245-3.595 6.752s-.288 5.286 1.164 7.409c1.307 1.911 3.405 3.129 5.531 4.043 10.068 4.331 21.514 3.094 32.453 3.762 4.313.263 8.654.831 12.989 1.351" fill="#604c3e"/><path d="m57.5589 51.7598c.297 1.608 1.568 2.888 3 3.679s3.04 1.187 4.589 1.714c1.764.6 3.474 1.379 5.292 1.786 1.818.405 3.814.403 5.442-.503 1.629-.906 2.739-2.888 2.218-4.676-2.064-.682-3.867-1.969-5.605-3.275s-3.47-2.664-5.466-3.526c-1.996-.861-4.33-1.18-6.339-.349-2.009.83-3.527 3.013-3.131 5.15" fill="#000"/><path d="m90.4592 56.4102c.402-.195.825-.409 1.062-.787.409-.647.127-1.482-.009-2.234-.239-1.31.01-2.652.112-3.98.101-1.329.023-2.76-.759-3.838-1.083-1.494-3.315-1.84-4.999-1.084-1.683.755-2.843 2.391-3.444 4.136-.561 1.627-.7 3.397-.401 5.092.23 1.308.777 2.645 1.875 3.392.955.651 2.2.756 3.334.537 1.135-.218 2.19-.728 3.229-1.234" fill="#000"/><path d="m41.7971 68.9459c-3.335-.234-6.723-.964-9.406-2.702-1.69-1.095-3.027-2.54-4.535-3.82-3.153-2.678-7.023-4.613-10.82-6.561-3.797-1.949-10.121-2.738-13.11-5.555-2.99-2.817-4.22-6.082-3.867-9.901s5.17-12.304 9.541-12.812c-1.206 1.665-2.219 6.461-2.823 8.358-.604 1.896-.671 3.971.174 5.796.828 1.787 2.457 3.205 4.206 4.388 5.335 3.608 11.945 5.401 18.203 7.622 6.259 2.222 12.595 5.168 16.136 10.171.828 1.169 1.471 2.707.612 3.858-.861 1.154-2.733 1.268-4.311 1.158" fill="#000"/><path d="m70.9671 56.4507c-.353.508-.656 1.11-.556 1.721.094.572.537 1.041 1.055 1.304.517.263 1.104.35 1.681.413 2.66.289 5.37.108 7.97-.524.591-.144 1.354-2.573.75-3.437-.917-1.314-2.368-2.284-3.957-2.557-2.634-.451-5.418.885-6.943 3.08" fill="#fff"/><path d="m93.0178 54.4439c-1.394-.979-3.198-1.35-4.865-1.001-1.668.349-3.173 1.412-4.058 2.867-.29.475-.52 1.05-.348 1.58.213.665.956.986 1.627 1.179 1.979.568 4.074.73 6.117.473 1.182-.149 2.508-.565 2.98-1.66.533-1.238-.349-2.664-1.453-3.438" fill="#fff"/><path d="m83.7649 26.251c.848-.749 1.72-1.529 2.19-2.558.664-1.452.413-3.172-.183-4.653s-1.509-2.811-2.206-4.247c-1.488-3.065-2.106-6.765-4.73-8.938-2.099-1.739-5.008-2.064-7.733-2.123-3.553-.076-7.314.246-10.23 2.277-2.145 1.496-3.626 3.797-4.568 6.237-.943 2.439-1.394 5.036-1.839 7.613-.265 1.537-.523 3.165.048 4.617.412 1.048 1.215 1.886 1.998 2.695 1.163 1.202 2.342 2.416 3.757 3.308 3.355 2.116 7.575 2.165 11.538 1.997 1.92-.081 3.897-.213 5.618-1.067 1.127-.56 2.084-1.402 3.027-2.235 1.105-.974 2.209-1.948 3.313-2.923" fill="#ede7e2"/><path d="m63.6282 25.5923c3.193 1.137 6.697 2.279 9.893 1.151 2.36-.833 4.146-2.782 6.362-3.947 1.675-.879 3.654-1.355 4.887-2.79.365-.425.631-.896.817-1.398-.589-1.311-1.393-2.52-2.022-3.815-1.488-3.065-2.105-6.765-4.729-8.939-2.1-1.738-5.008-2.063-7.733-2.122-3.553-.076-7.314.245-10.23 2.277-2.145 1.496-3.626 3.797-4.568 6.236-.944 2.44-1.394 5.036-1.839 7.614-.135.777-.267 1.578-.29 2.367 3.15 1.122 6.302 2.244 9.452 3.366" fill="#b08b6a"/><path d="m82.8645 14.4634c-3.536-5.542-7.692-6.385-9.71-7.242-2.018-.856 8.158-7.901 10.329-7.168 1.287.434.13 15.585-.619 14.41" fill="#000"/><path d="m56.7132 3.2813c-.596-.155-2.773-1.081-2.948.441-.224 1.937.617 17.066 1.459 15.076 1.198-2.832 5.111-9.407 9.627-10.241 1.513-.279-6.917-4.959-8.138-5.276" fill="#000"/><path d="m82.8577 1.7549c1.742-1.808.739 8.785-.394 12.105-2.299-2.787-4.947-4.839-6.317-5.43s4.97-4.867 6.711-6.675" fill="#645047"/><path d="m54.2424 4.2256c-.08 1.864.712 15.313 1.375 13.903 1.558-3.31 4.029-5.98 5.612-7.716.932-1.021-6.907-8.051-6.987-6.187" fill="#645047"/><path d="m79.7952 23.3829c1.174-1.223 2.211-2.617 2.773-4.217.253-.719.404-1.524.123-2.232-.361-.912-1.336-1.423-2.283-1.681-.946-.257-1.95-.346-2.828-.784-1.883-.938-2.687-3.189-4.257-4.589-1.496-1.335-3.716-1.8-5.622-1.177-1.905.623-3.423 2.31-3.841 4.27-.151.709-.185 1.488-.637 2.054-.317.396-.791.624-1.24.861-1.092.578-2.121 1.276-3.06 2.079-.795.68-1.564 1.508-1.719 2.541-.138.926.242 1.849.701 2.665.593 1.054 1.34 2.038 2.301 2.771.962.733 2.152 1.203 3.36 1.171 1.391-.037 2.67-.711 3.978-1.186 1.839-.669 3.817-.954 5.771-.832 1.484.092 3.038.406 4.415-.158.803-.329 1.463-.93 2.065-1.556" fill="#423227"/><path d="m65.8352 21.0694c.747-.158 1.514-.516 1.869-1.192.375-.715.146-1.689-.51-2.162-.44-.317-1.004-.405-1.546-.443-.557-.04-1.117-.038-1.673.005-.331.026-.668.069-.965.217-.661.332-.98 1.172-.809 1.892s.761 1.296 1.449 1.568c.688.271 1.461.267 2.185.115" fill="#231913"/><path d="m67.4924 19.3492s-.224-1.688-2.4-1.777c-2.177-.089-2.31 1.226-2.31 1.226s.444 1.915 2.043 1.988c1.6.073 2.313-.815 2.667-1.437" fill="#489fcb"/><path d="m65.0921 17.5723c-.568-.023-.996.05-1.32.169-.114.232-.18.493-.18.769 0 .958.769 1.733 1.717 1.733s1.717-.775 1.717-1.733c0-.042-.003-.084-.006-.125-.344-.396-.931-.772-1.928-.813" fill="#000"/><path d="m65.426 18.6939c0 .23-.176.417-.392.417s-.391-.187-.391-.417.175-.417.391-.417.392.187.392.417" fill="#fff"/><path d="m75.5549 20.5543c.859.125 1.779-.021 2.489-.521.709-.501 1.169-1.384 1.048-2.244-.297-.484-.802-.817-1.345-.983s-1.122-.177-1.686-.119c-.616.063-1.242.213-1.746.574-.504.359-.867.962-.812 1.579.043.479.332.916.718 1.204.385.288.858.441 1.334.51" fill="#231913"/><path d="m73.7717 18.7286s.223-1.688 2.399-1.777c2.177-.089 2.311 1.226 2.311 1.226s-.444 1.916-2.044 1.988c-1.599.073-2.312-.815-2.666-1.437" fill="#489fcb"/><path d="m77.843 17.959c0-.275-.065-.534-.178-.765-.339-.162-.818-.27-1.494-.242-.812.033-1.353.289-1.711.597-.032.132-.051.268-.051.41 0 .957.769 1.733 1.717 1.733s1.717-.776 1.717-1.733" fill="#000"/><path d="m76.2434 18.1422c0 .23-.176.417-.392.417s-.392-.187-.392-.417.176-.417.392-.417.392.187.392.417" fill="#fff"/><path d="m67.4924 28.7935c.829 1.171 2.226 1.919 3.659 1.961 1.434.042 2.872-.623 3.768-1.743-.692-.403-1.384-.806-2.075-1.208-.395-.23-.795-.462-1.237-.575-.738-.19-1.531-.03-2.221.294-.691.323-1.295.799-1.894 1.271" fill="#fff"/><path d="m74.9192 29.0113c-.691-.403-1.384-.806-2.075-1.208-.395-.229-.795-.461-1.237-.575-.738-.19-1.531-.029-2.221.294-.691.323-1.295.799-1.894 1.271.144.203.305.391.479.567 1.223-.178 2.448-.284 3.672-.566.985-.247 1.768.586 2.737.78.195-.172.377-.359.539-.563" fill="#e7dfd5"/><path d="m69.5823 13.4644c-.358 1.383-.826 3.107-.934 4.532-.087 1.165-.232 2.344-.681 3.423-.448 1.079-1.237 2.06-2.311 2.521-.7.3-1.55.407-2.013 1.012-.415.541-.371 1.298-.256 1.97.1.587.255 1.2.667 1.631.704.737 1.873.693 2.887.596 1.63-.157 3.395-.373 4.57-1.514.878 1.091 2.394 1.441 3.794 1.441.799-.001 1.615-.096 2.34-.431.727-.335 1.358-.935 1.593-1.699.236-.764.007-1.686-.642-2.152-.483-.345-1.119-.412-1.612-.743-.432-.29-.715-.757-1.126-1.078-.523-.409-1.215-.551-1.749-.947-.6-.446-.934-1.169-1.128-1.892s-.271-1.475-.488-2.191c-.287-.95-.771-3.595-1.288-4.442-.506-.83-1.196-1.68-1.623-.037" fill="#fff"/><path d="m71.5755 26.5469c.293-.01 1.978-1.066 2.066-1.632.089-.567-.31-1.189-1.988-1.2s-2.189.56-2.075 1.289c.115.729 1.704 1.553 1.997 1.543" fill="#f76f87"/><path d="m69.5784 24.6412c-.021.115-.02.236 0 .362.115.729 1.704 1.554 1.997 1.544.21-.008 1.135-.552 1.675-1.068-1.291.287-2.717.059-3.672-.838" fill="#e74f61"/><path d="m72.5715 23.9703c-.522-.051-1.048-.062-1.572-.032-.161.01-.324.023-.482.066-.071.02-.156.067-.149.141.006.076.099.107.176.117.892.115 1.825-.091 2.687.167.007-.148-.099-.283-.23-.355-.13-.07-.283-.089-.43-.104" fill="#fcb4c4"/><g fill="#fff"><path d="m21.4749 1.694c-.215-.034-.446-.07-.69-.108-.122-.021-.248-.036-.377-.049-.128-.015-.26-.03-.393-.045-.533-.059-1.101-.123-1.668-.186-.142-.016-.284-.032-.425-.048-.071-.007-.141-.015-.212-.023-.07-.004-.14-.009-.211-.014-.28-.02-.556-.038-.825-.057-.535-.035-1.037-.07-1.471-.098-.128-.009-.255-.018-.381-.026-.125-.003-.249-.006-.372-.01-.246-.005-.486-.011-.722-.017-.473-.012-.932-.023-1.391-.034-.458-.02-.917 0-1.39.007-.473.009-.96.018-1.476.028-.522 0-1.106.055-1.724.093-.308.021-.624.043-.944.065-.16.011-.321.022-.483.034l-.242.017-.243.027c-.645.072-1.291.145-1.905.214-.307.037-.606.063-.892.105-.286.043-.56.085-.818.124-.397.062-1.412.22-1.809.282-.43.065.305.009 1.745-.199.206-.029.426-.061.663-.094.118-.016.24-.033.365-.05.127-.013.257-.025.39-.038.533-.053 1.122-.111 1.759-.175.161-.017.319-.034.478-.051l.238-.026c.08-.007.16-.011.24-.017.321-.023.643-.045.972-.068.329-.022.664-.045 1.01-.069.346-.021.701-.053 1.072-.054.486-.008.988-.017 1.496-.025.508-.005 1.022-.027 1.53-.003.508.014 1.012.027 1.501.041.488.014.961.017 1.408.055.681.042 1.485.091 2.318.142.832.075 1.691.167 2.49.244.2.021.396.037.585.061.189.026.373.052.55.077.354.051.681.097.969.137.576.083.998.144 1.174.169.416.064-.165-.068-1.889-.338" mask="url(#a)" transform="translate(75 22.9789)"/><path d="m96.4592 28.6207c-.209-.062-.436-.128-.674-.197-.119-.037-.242-.069-.369-.099-.126-.031-.255-.063-.386-.095-.524-.129-1.082-.266-1.639-.403-.139-.035-.279-.069-.417-.102-.07-.018-.139-.034-.208-.051-.071-.014-.14-.028-.209-.042-.278-.056-.55-.111-.815-.164-.53-.105-1.026-.204-1.455-.29-.127-.025-.253-.05-.377-.075-.124-.019-.248-.039-.369-.058-.244-.038-.482-.075-.718-.111-.469-.073-.926-.144-1.382-.215-.455-.079-.915-.119-1.387-.175-.474-.052-.96-.106-1.476-.163-.521-.068-1.111-.09-1.731-.132-.31-.019-.628-.038-.951-.058-.161-.009-.323-.019-.485-.029l-.244-.015-.245-.004c-.653-.012-1.307-.023-1.928-.035-.31-.003-.613-.017-.903-.011-.291.006-.569.012-.831.017-.405.01-1.438.035-1.842.045-.437.009.304.048 1.767.028.208-.002.432-.004.672-.006.121-.001.245-.002.372-.003.127.004.258.008.393.013.538.016 1.134.035 1.777.055.162.003.323.007.484.011l.241.005c.08.003.16.009.241.014.323.019.647.039.978.059.331.021.668.041 1.015.063.348.024.706.038 1.077.086.486.054.988.111 1.495.169.508.061 1.022.106 1.526.196.505.08 1.005.159 1.49.236.486.078.957.143 1.398.239.674.13 1.469.284 2.294.443.819.183 1.665.387 2.451.567.195.047.389.088.575.137.185.051.365.101.538.149.347.096.667.184.948.263.565.157.977.273 1.149.321.406.118-.156-.09-1.84-.583"/><path d="m96.4798 32.9507c-.194-.093-.404-.193-.625-.299-.109-.055-.225-.105-.343-.155-.117-.05-.238-.101-.36-.153-.488-.209-1.009-.431-1.529-.652-.13-.056-.26-.111-.39-.166l-.194-.083c-.066-.024-.131-.049-.196-.074-.26-.098-.517-.194-.766-.288-.498-.187-.965-.361-1.368-.513-.121-.045-.238-.089-.355-.132-.118-.039-.234-.077-.35-.115-.231-.076-.457-.15-.679-.223-.446-.146-.878-.287-1.31-.428-.43-.15-.871-.261-1.322-.39-.451-.126-.916-.255-1.408-.393-.495-.149-1.066-.263-1.661-.402-.299-.068-.606-.138-.915-.207-.156-.035-.312-.071-.468-.106l-.236-.053-.237-.043c-.633-.115-1.267-.23-1.868-.339-.302-.053-.594-.114-.877-.155-.283-.04-.555-.078-.811-.114-.394-.055-1.402-.194-1.796-.248-.427-.061.287.095 1.711.308.204.031.422.064.656.1.117.018.237.037.361.056.123.025.25.05.38.076.521.101 1.097.213 1.721.335.155.029.311.058.466.087l.234.043c.078.016.155.035.232.052.311.07.623.141.942.213.318.072.642.146.977.222.334.078.681.149 1.032.254.464.131.944.265 1.428.402.483.14.977.265 1.452.433.478.157.952.314 1.411.465.459.153.908.291 1.321.454.635.234 1.384.51 2.16.795.767.308 1.557.641 2.292.94.184.077.365.148.538.225.172.079.339.156.499.23.322.148.619.285.881.406.523.243.906.421 1.064.494.377.18-.136-.112-1.694-.859"/><path d="m88.7512 35.3985c-.238-.221-.513-.479-.819-.738-.153-.131-.309-.267-.468-.404-.164-.132-.33-.267-.496-.401-.663-.539-1.357-1.04-1.893-1.41-.636-.436-1.216-.807-1.805-1.158-.292-.182-.595-.345-.904-.519-.306-.178-.633-.341-.975-.519-.345-.185-.746-.363-1.164-.559-.209-.102-.431-.187-.651-.283-.222-.092-.443-.194-.671-.278-.454-.175-.906-.354-1.344-.5-.219-.075-.43-.153-.636-.219-.206-.065-.403-.128-.59-.187-.284-.1-1.028-.291-1.317-.375-.157-.044-.106-.015.114.062.109.038.262.089.452.149s.418.128.676.216c.147.049.305.101.474.158.085.028.172.057.262.087.089.033.18.067.274.103.375.139.791.289 1.234.471.892.348 1.755.719 2.746 1.215 1.299.653 2.701 1.518 3.801 2.279.208.147.439.302.677.473.235.172.482.354.733.539.494.38 1.005.777 1.46 1.166.114.097.228.189.337.283.106.095.21.187.309.276.199.179.387.34.544.49.315.301.544.521.64.613.112.11.097.08-.063-.093-.08-.086-.196-.208-.349-.366-.078-.079-.164-.167-.26-.264-.099-.094-.209-.196-.328-.307"/><path d="m49.0335 25.315c.778-.108 1.808-.194 2.835-.301.513-.057 1.028-.091 1.512-.127.484-.037.937-.072 1.33-.101.116-.009.23-.018.344-.027.113-.006.225-.011.335-.017.222-.011.439-.022.653-.033.427-.022.841-.043 1.256-.064.414-.026.828-.03 1.256-.042.427-.012.868-.024 1.333-.037.472-.02 1.001-.014 1.561-.021.559-.002 1.146-.017 1.733-.012.588.009 1.175.017 1.734.026.279.006.552.006.813.016.261.012.511.023.747.034.364.015 1.292.053 1.657.067.392.019-.268-.066-1.585-.136-.188-.011-.39-.022-.606-.034-.108-.006-.22-.013-.335-.02-.114-.004-.232-.007-.353-.012-.487-.013-1.023-.03-1.604-.046-.291-.005-.579-.018-.871-.013-.291.003-.584.006-.883.009-.299.002-.603.005-.917.008-.314.004-.637 0-.973.013-.441.011-.896.022-1.356.034-.461.012-.927.014-1.387.042-.46.022-.917.043-1.359.065-.442.021-.871.038-1.276.074-.617.051-1.345.111-2.1.173-.753.079-1.531.171-2.254.252-.18.021-.357.039-.529.062-.171.024-.338.047-.498.07-.321.045-.617.087-.879.123-.522.072-.905.125-1.063.147-.379.048.163.022 1.729-.172"/><path d="m45.5393 28.1495c.215-.059.447-.121.691-.187.121-.036.248-.065.378-.093.129-.03.261-.06.395-.09.537-.121 1.107-.251 1.678-.38.142-.032.285-.064.426-.097.072-.016.143-.032.213-.048.072-.013.143-.026.214-.039.283-.051.563-.103.833-.152.541-.099 1.048-.192 1.486-.273.129-.024.258-.048.384-.071.127-.018.253-.036.378-.053.248-.035.492-.069.732-.103.48-.067.945-.133 1.411-.198.464-.074.933-.107 1.415-.157.482-.048.979-.097 1.505-.149.531-.064 1.131-.083 1.762-.127.316-.019.64-.04.968-.06.164-.011.329-.021.495-.032l.249-.016.249-.006c.666-.013 1.331-.027 1.965-.04.317-.004.625-.018.921-.011s.58.015.847.022c.413.009 1.466.033 1.878.043.446.012-.304-.062-1.799-.113-.213-.008-.443-.016-.688-.025-.122-.004-.249-.009-.379-.015-.129.001-.264.002-.401.002-.551.005-1.16.01-1.818.015-.165.002-.329.005-.493.007l-.248.004c-.082.003-.164.01-.247.014-.329.021-.661.042-.999.063s-.682.042-1.038.065c-.354.023-.72.035-1.099.079-.497.049-1.011.098-1.531.148-.519.053-1.046.087-1.563.169-.518.071-1.03.141-1.528.21-.497.07-.981.128-1.432.221-.689.131-1.503.285-2.347.445-.838.188-1.7.402-2.502.592-.199.049-.397.092-.586.144-.189.054-.372.106-.549.157-.353.101-.679.194-.967.277-.575.163-.996.282-1.17.332-.418.114.185-.007 1.911-.474"/><path d="m53.0911 29.7261c.6-.216 1.407-.435 2.208-.676.398-.125.806-.224 1.187-.322.379-.098.737-.189 1.045-.269.091-.024.181-.046.271-.069.09-.02.178-.04.266-.059.175-.039.347-.076.516-.113.338-.074.667-.145.995-.217.327-.077.659-.129.999-.192.341-.061.693-.125 1.064-.192.375-.076.801-.128 1.248-.199.223-.034.453-.069.685-.105.117-.018.233-.035.35-.054s.235-.035.354-.047c.472-.055.946-.109 1.395-.161.226-.024.443-.054.655-.07.211-.015.413-.03.605-.043.294-.023 1.045-.08 1.339-.103.318-.022-.222-.038-1.289.027-.153.009-.317.018-.492.028-.088.005-.177.01-.271.015-.093.008-.188.017-.286.026-.392.036-.825.077-1.294.127-.234.026-.468.043-.701.082-.234.035-.468.071-.708.107-.24.037-.484.074-.735.112-.252.039-.511.071-.779.124-.352.063-.715.128-1.083.193-.367.067-.74.122-1.105.207-.365.078-.727.156-1.079.231-.35.076-.692.144-1.009.233-.486.129-1.058.281-1.651.439-.588.176-1.193.371-1.756.546-.139.045-.278.085-.411.131-.132.048-.261.094-.385.138-.247.088-.475.17-.676.242-.404.143-.699.247-.821.29-.293.1.137-.001 1.349-.407"/><path d="m51.2298 34.3853c.647-.358 1.526-.772 2.396-1.207.432-.221.875-.418 1.291-.609.415-.191.803-.37 1.139-.524.1-.046.198-.092.295-.137.098-.041.195-.083.291-.124.192-.081.38-.161.566-.239.37-.158.729-.31 1.087-.463.358-.157.724-.293 1.098-.441.375-.147.761-.298 1.168-.458.411-.17.883-.331 1.375-.514.494-.179 1.011-.378 1.533-.558.524-.177 1.048-.352 1.547-.519.249-.082.491-.168.727-.239.235-.07.461-.137.674-.2.328-.1 1.165-.352 1.493-.452.355-.105-.259.021-1.452.364-.17.049-.354.101-.549.156-.098.028-.2.057-.304.086-.103.032-.209.065-.318.099-.436.137-.917.29-1.438.459-.259.087-.52.165-.776.261-.257.095-.517.19-.78.287-.264.097-.534.196-.811.298-.276.102-.564.201-.857.32-.387.151-.787.307-1.19.464-.403.158-.815.307-1.213.481-.4.169-.796.335-1.18.497-.384.163-.758.315-1.103.481-.527.247-1.149.538-1.795.841-.638.318-1.293.658-1.901.969-.152.079-.302.153-.446.23-.142.079-.281.156-.415.229-.266.148-.512.284-.73.404-.436.239-.754.413-.886.486-.316.169.152-.033 1.464-.728"/></g></g></svg>