<svg height="116" viewBox="0 0 84 116" width="84" xmlns="http://www.w3.org/2000/svg" xmlns:xlink="http://www.w3.org/1999/xlink"><mask id="a" fill="#fff"><path d="m.08623901.663h8.73483082v13.3777493h-8.73483082z" fill="#fff" fill-rule="evenodd"/></mask><mask id="b" fill="#fff"><path d="m.67645672.3567h51.80648928v33.6433h-51.80648928z" fill="#fff" fill-rule="evenodd"/></mask><mask id="c" fill="#fff"><path d="m.67648678.80964239h6.91091322v9.19035761h-6.91091322z" fill="#fff" fill-rule="evenodd"/></mask><mask id="d" fill="#fff"><path d="m.0415.24963718h4.848v2.75036282h-4.848z" fill="#fff" fill-rule="evenodd"/></mask><mask id="e" fill="#fff"><path d="m0 .97595812h21.6767477v2.29503605h-21.6767477z" fill="#fff" fill-rule="evenodd"/></mask><g fill="none" fill-rule="evenodd"><path d="m10.308 91.392c-.155-1.544 1.246-2.936 2.778-3.179.757-.12 1.541-.023 2.284-.213 1.372-.349 2.345-1.634 2.737-2.996.392-1.361.308-2.807.242-4.221-.281-5.996-.187-12.008.28-17.992 2.397 2.301 4.795 4.601 7.192 6.902.765.735 1.583 1.58 1.628 2.64.019.434-.098.86-.214 1.278-.781 2.824-1.562 5.648-2.343 8.471-.816 2.951-1.114 7.324-2.938 9.782-1.823 2.458-5.417 2.911-8.431 2.384-1.518-.264-3.062-1.323-3.215-2.856" fill="#66422a"/><path d="m13.0863 88.2133c.459-.073.93-.066 1.395-.092.144.446.484.836.883 1.099.534.352 1.164.521 1.779.7 1.444.419 2.862.922 4.28 1.423.237.084.476.17.708.267-.057.086-.116.171-.177.253-1.824 2.458-5.417 2.912-8.431 2.385-1.519-.264-3.062-1.323-3.215-2.856-.155-1.544 1.246-2.936 2.778-3.179" fill="#28170f"/><path d="m26.2509 7.9564c2.414.282 12.384-.126 12.763 7.456s-1.895 8.719-2.275 10.362c-.379 1.643.506 7.582 3.033 8.846 2.527 1.263 13.269 3.285 16.049 5.939s16.806 9.604 21.735 23.377c4.928 13.775 6.823 24.515 2.401 27.675-4.423 3.158-17.692 4.802-20.345 4.675-2.654-.126-19.84.253-21.356-1.895-1.517-2.149-1.137-3.917-.758-4.675.378-.759 2.527-2.528 4.043-2.402 1.517.126 5.687 2.149 7.582 2.402 1.896.252 3.033-.885 1.138-3.286-1.896-2.401-9.604-10.868-9.857-13.016s-7.329 12.763-7.961 14.153-2.78 9.478-5.181 10.236-9.098 1.01-8.719-1.517 2.021-3.791 3.412-4.423c1.39-.632 6.065-15.037 6.065-17.059s-8.294-8.079-10.109-10.742c-1.896-2.779-6.951-14.405-6.319-21.608s3.539-11.499 3.539-15.164c0-3.664-2.78-9.604-.127-14.152 2.654-4.55 5.495-5.854 11.247-5.182" fill="#755239"/><path d="m50.8114 60.9252c-1.67 1.287-8.451 9.085-6.283 18.672-2.12-2.606-4.002-5.14-4.125-6.183-.017-.152-.07-.218-.152-.21.288-.589.636-1.154.871-1.766.728-1.896.308-4.023-.225-5.983-1.151-4.231-1.087-3.939-2.177-6.432-2.53-5.791 27.439-1.099 22.953-.779-4.486.321-7.858.365-10.862 2.681" fill="#66422a"/><path d="m.6693.8763c-.368.297-.436.822-.476 1.294-.433 5.104.54 10.617 1.265 11.771.347.554 1.548-1.321 3.323-2.794 1.93-1.601 4.416-2.855 3.992-3.291-.815-.836-2.267-2.256-3.169-3.588-.902-1.331-1.908-2.69-3.364-3.374-.5-.236-1.141-.366-1.571-.018" fill="#f3a158" mask="url(#a)" transform="translate(13 .337)"/><path d="m19.6586 9.6556c-.615-1.366-1.704-3.596-2.506-4.861-.803-1.265-2.475-3.78-3.254-3.249-1.568 1.067.343 12.786.797 12.733s1.064-2.114 4.963-4.623" fill="#ffcaa3"/><path d="m41.5135 2.6127c.685 4.074.129 8.353-1.585 12.112-.354.777-1.133 2.142-1.443 1.094-.309-1.049-3.049-5.471-6.56-6.849-.63-.247 2.48-2.786 4.046-4.146 1.371-1.19 2.951-2.169 4.659-2.732.661-.217.845.296.883.521" fill="#f3a158"/><path d="m33.3417 9.4926c2.573-2.046 6.127-5.427 7.492-6.88.697-.742.848 3.646.21 7.237-.611 3.44-1.99 6.088-2.31 5.49-.656-1.225-4.086-5.373-5.392-5.847" fill="#ffcaa3"/><path d="m30.6439 14.2797c1.017-.021 1.961.524 2.749 1.168.456.372.879.782 1.302 1.192.166.162.341.336.394.563.072.299-.087.601-.264.852-.774 1.095-2.041 1.826-3.375 1.947-1.334.122-2.712-.368-3.671-1.306-.265-.259-.509-.572-.551-.94-.032-.278.055-.555.158-.814.273-.692.678-1.342 1.237-1.832.559-.491 1.278-.815 2.021-.83" fill="#f3a158"/><path d="m28.0438 17.766c.139.564 1.274 1.374 2.847 1.374 1.571 0 2.538-1.053 2.846-2.039-.245-.954-1.765-2.279-3.337-2.279s-2.356 1.818-2.356 2.944" fill="#4e3427"/><path d="m28.4388 17.6566c.12.486 1.098 1.184 2.452 1.184s2.186-.907 2.451-1.757c-.212-.822-1.52-1.962-2.874-1.962s-2.029 1.565-2.029 2.535" fill="#757f38"/><path d="m31.3885 18.0717c-.248.142-.561.149-.829.049-.267-.101-.49-.303-.644-.543-.279-.435-.336-1.014-.111-1.48.224-.464.734-.788 1.25-.756.203.012.412.082.547.234.131.149.175.352.213.547.071.349.14.707.098 1.061s-.214.711-.524.888" fill="#000"/><path d="m29.6053 16.9486c-.131-.12-.157-.339-.057-.485.101-.147.314-.202.473-.123.099.12.174.266.176.421s-.084.317-.229.372c-.145.054-.337-.033-.363-.185" fill="#fff"/><path d="m22.5311 13.639c-.719-.423-1.635-.687-2.427-.427-4.757 1.554-3.955 3.896-2.872 4.517 1.082.62 4.378 2.391 7.247-.172.745-.665-1.298-3.535-1.948-3.918" fill="#f3a158"/><path d="m23.6429 16.8851c-.144.581-1.312 1.415-2.931 1.415-1.618 0-2.613-1.084-2.931-2.1.253-.982 1.818-2.346 3.437-2.346 1.618 0 2.425 1.872 2.425 3.031" fill="#4e3427"/><path d="m23.1635 16.7533c-.12.485-1.098 1.184-2.451 1.184-1.354 0-2.186-.908-2.452-1.757.212-.822 1.521-1.963 2.874-1.963 1.354 0 2.029 1.565 2.029 2.536" fill="#757f38"/><path d="m21.205 17.3148c-.249.141-.561.149-.829.048-.267-.101-.49-.302-.644-.543-.28-.434-.336-1.014-.111-1.479.224-.465.734-.788 1.25-.756.203.011.412.082.547.234.131.148.175.352.213.547.071.349.14.706.098 1.06-.042.355-.214.712-.524.889" fill="#000"/><path d="m19.4213 16.1908c-.131-.119-.157-.338-.056-.484.1-.147.314-.203.473-.123.098.119.174.265.175.42.002.155-.084.317-.229.372-.145.054-.336-.032-.363-.185" fill="#fff"/><path d="m19.7489 26.556c1.267-1.111 2.927-1.765 4.612-1.814 1.684-.05 3.38.504 4.711 1.54.114.088.231.187.277.325.073.214-.048.444-.188.622-.687.869-1.828 1.185-2.867 1.627-.649.276-3.131.308-3.851-.109l-1.766-1.022c-.457-.264-.977-.644-.928-1.169" fill="#fff"/><path d="m19.7489 26.556c1.267-1.111 2.927-1.765 4.612-1.814 1.684-.05 3.38.504 4.711 1.54.114.088.231.187.277.325.073.214-.048.444-.188.622-.099.125-.208.238-.324.343-.144.024-.291.031-.438.012-.564-.069-1.039-.433-1.54-.703-1.062-.57-2.341-.724-3.509-.422-.994.258-1.89.826-2.891 1.053-.03.006-.06.013-.09.019-.352-.247-.658-.567-.62-.975" fill="#eee8e5"/><path d="m21.6532 26.4125c-.941.6889952-3.933 1.05-3.9300023-2.473.0010023-.722.2520023-1.568.8750023-1.933 1.724-1.011 7.964-.464 9.073-.357 1.116.109 2.32.081 3.244.716.896.615 1.328 1.834 1.02 2.877-.309 1.043-1.334 1.83-2.421 1.858-1.024.028-1.955-.54-2.844-1.05-.888-.51-1.448-.881-2.459-.837-.808.035-1.905.72-2.558 1.199" fill="#fff"/><path d="m20.1151 26.5375c.777.678 1.739-.324 2.35-.77.583-.423 1.288-.62 2.001-.612.011-.705.088-1.407.09-2.113.001-.201.409-.132.409.036-.003.704-.079 1.404-.091 2.107.679.098 1.293.441 1.873.792.407.246 2.105 1.383 2.407.602.074-.191.477-.078.405.108-.307.791-1.43.367-1.978.118-.856-.391-1.577-1.034-2.503-1.272-.538-.138-1.116-.069-1.633.115-.512.182-.914.553-1.339.876-.647.492-1.574.812-2.263.211-.207-.18.112-.338.272-.198" fill="#a28e85"/><path d="m24.9139 23.4027c-.507.087-1.191-.686-1.544-1.057-.352-.372-.622-.897-.471-1.386.154-.495.324-1.064 2.182-1.0630013 1.186.0020013 2.665.6340013 2.093 1.7740013-.18.36-1.753 1.645-2.26 1.732" fill="#4e3427"/><path d="m23.8129 20.8471c-.133.006-.278.009-.386-.07s-.134-.274-.016-.335c.902-.281 1.872-.192 2.813-.1.115.012.235.025.332.086.097.063.163.19.116.297-.953.04-1.906.081-2.859.122" fill="#7c5646"/><path d="m27.2777 52.8207c.432 3.791 1.275 7.533 1.544 11.339.231 3.264.01 6.645-1.193 9.664-1.663-2.564-8.14-7.445-9.718-9.761-1.896-2.779-6.95-14.405-6.319-21.608.172-1.95.51-3.688.912-5.258.877-.126 1.772-.174 2.653-.232 9.401-.623 11.729 12.418 12.121 15.856" fill="#bb815b"/><path d="m26.2704 8.2172c-.343.481-.811.491-.729 1.229.039.488.029 1.257-.572.686-.732-.693-.982-1.434-.794-2.334.648.019 1.338.072 2.075.158.037.005.074.009.114.013-.01.095-.038.179-.094.248" fill="#000"/><path d="m36.66 20.6566c-.127.014-1.421.042-.88-.41 1.1-.918 1.93-1.163 3.197-1.205-.068.81-.177 1.504-.311 2.107-.104-.019-.21-.056-.317-.116-.597-.334-.996-.449-1.689-.376" fill="#000"/><path d="m27.4252 12.6898c-.041.13-.506 1.928-.759 1.196-.582-1.675-.366-3.092.667-4.536.3-.418.612-.863.975-1.249.477.034 1 .078 1.549.141-.188.324-.283.745-.35 1.048-.176.842-.371 1.497-1.105 2.001-.522.367-.795.78-.977 1.399" fill="#000"/><path d="m16.868 19.4457c-1.209.329-1.981.263-2.941-.125-.063-.691-.088-1.386-.056-2.073.453-.047.883-.003 1.158.417.315.48.546.779 1.103.983.133.05 1.451.604.736.798" fill="#000"/><path d="m14.7347 21.1898c.409.407.668.577 1.262.602.18.006 1.119.151.623.524-.786.589-1.349.809-2.089.801-.137-.693-.276-1.408-.392-2.135.207-.026.409.022.596.208" fill="#000"/><path d="m33.8456 22.4486c.08.08.048.048.01.009.542.528 1.657.221 2.288.134.723-.102 1.358-.034 1.971.344-.325.792-.676 1.354-.948 1.842-.153-.031-.307-.067-.466-.108-.791-.209-1.655-.385-2.371-.796-.307-.176-.818-.515-.856-.911-.009-.095.153-.738.372-.514" fill="#000"/><path d="m33.8553 22.4574c-.003-.003-.007-.006-.01-.009-.089-.091-.034-.036.01.009" fill="#000"/><path d="m22.9691 9.6049c-.244.472-.304.904-.141 1.429.04.139.44 1.65-.142 1.19-1.182-.935-1.708-1.907-1.673-3.44.006-.239.009-.481.019-.723.52-.119 1.073-.197 1.664-.237.278.592.564 1.223.273 1.781" fill="#000"/><path d="m7.1498 31.6517c-.658.818-1.212 1.822-2.191 2.203-1.45.564-3.068-.595-3.739-1.998-1.154-2.415-.371-5.447 1.418-7.438 1.788-1.992 4.401-3.07 7.027-3.585 2.627-.516 5.321-.531 7.989-.748 10.308-.844 20.336-4.842 28.396-11.322 1.323-1.063 2.609-2.208 3.561-3.613.953-1.405 1.554-3.105 1.381-4.794 2.235 3.918 1.832 9.001-.373 12.936-2.206 3.935-5.999 6.8-10.127 8.618-4.129 1.817-8.609 2.674-13.067 3.362s-8.958 1.225-13.298 2.451c-2.611.739-5.278 1.813-6.977 3.928" fill="#4e3427" mask="url(#b)" transform="translate(31 81.337)"/><path d="m77.5424 93.2338c-.001 0-.001 0-.002-.001-.04-.02-.014-.007.002.001" fill="#604131"/><path d="m4.9584 9.8548c-1.45.563-3.068-.595-3.739-1.998-.87-1.82-.638-3.992.295-5.804.347-.056.629-.212.767-.561.683-1.732 3.592.301 4.358.97 1.673 1.462.189 2.126.679 3.77.108.362.199.664.269.92-.151.16-.298.326-.438.5-.657.818-1.212 1.822-2.191 2.203" fill="#604131" mask="url(#c)" transform="translate(31 105.337)"/><path d="m52.7802 104.5473c2.398-1.542 2.452-.362 4.168.403 2.212 1.013 2.573-.436 3.538 1.326-.686.118-1.374.227-2.061.334-2.279.351-4.569.664-6.843 1.048-.536-1.005-.819-1.818 1.198-3.111" fill="#604131"/><path d="m75.2211 95.0326c1.59-1.126.628-2.634 2.319-1.8.019.01.013.007.002.001.6.283.803-1.383 1.428-.772.941.941 1.167 2.401 1.778 3.551-1.542 2.205-3.6 4.026-5.904 5.467-.919-.49-2.141-.051-2.359-1.541-.381-2.536 1.083-3.71 2.736-4.906" fill="#604131"/><path d="m65.8573 101.7934c-.835 1.079-1.911 2.345-3.219 1.437-2.289-1.535-3.449 1.028-4.095-2.271.005.024.007.035-.005-.027-.082-.441-.369-.786-.681-1.117 3.243-.872 6.402-2.054 9.42-3.525-.292.278-.754.552-.429.645.232.062 1.24-.158 1.369.057-.049-.065-2.208 4.604-2.36 4.801" fill="#604131"/><path d="m41.9271 106.9457c-1.734-.785-1.053-1.31-1.374-2.608-.246-1.005-.615-1.546-.864-1.949.324-.082.65-.154.976-.218 2.626-.516 5.321-.531 7.989-.748.489-.04.979-.088 1.467-.142.464.711.7 1.44.438 1.996-.241.512-1.052.394-1.48.533-.969.323.489 1.41.194 1.94-.377.77-2.264-.061-2.842.632-1.224 1.548-2.213 1.6-4.504.564" fill="#604131"/><path d="m77.4403 89.7826c1.183-.975 2.313-2.028 3.171-3.295.302-.445.569-.921.787-1.416.632-.189 1.227-.358 1.731-.491.494 2.026.454 4.189-.035 6.254-.116.044-.217.07-.298.073-1.147.051-3.566-.419-5.356-1.125" fill="#604131"/><path d="m76.3905 96.6557c-.013.011-.022.019-.027.023.006-.004.015-.013.027-.023" fill="#28170f"/><path d="m76.411 96.6381c.009-.007.019-.016.028-.023-.01.008-.02.016-.028.023" fill="#28170f"/><path d="m76.3632 96.6791c-.002.001-.003.003-.004.003.001 0 .002-.002.004-.003" fill="#28170f"/><path d="m76.3588 96.682c-.002.003-.002.003 0 0" fill="#28170f"/><path d="m71.287 99.5746c.876-1.436 3.304.007 4.522 1.268-1.223.85-2.532 1.586-3.882 2.209-.651-1.379-1.068-2.774-.64-3.477" fill="#28170f"/><path d="m35.6234 113.0414c.004-.004.008-.007.01-.008-.003.002-.006.004-.01.008" fill="#28170f"/><path d="m36.2899 110.2084c-1.06.794-3.326.731-4.591-.025.132-1.613.848-3.213 1.939-4.428.013-.015.027-.029.04-.044 2 1.345 4.027 3.436 2.612 4.497" fill="#28170f"/><path d="m35.6332 113.0336c.004-.004.005-.005 0 0" fill="#28170f"/><path d="m81.6184 94.6293c.25-.444.475-.905.676-1.376-.74-.167-1.595-.146-2.216-.016-.016-.179-.04-.373-.074-.583-.202-1.25-2.273-1.799-3.765-1.916-.867.668-1.756 1.309-2.664 1.921-.236 2.19 1.274 5.292 2.864 3.955.029-.024.058-.048.072-.06-.012.01-.034.028-.072.06.883-.743 1.845-.867 2.56-1.154.177.577.5 1.179.879 1.691.652-.785 1.238-1.626 1.74-2.522" fill="#28170f"/><path d="m76.411 96.6381c-.007.007-.014.013-.021.018.006-.005.013-.011.021-.018" fill="#28170f"/><path d="m.0415 2.0047c.798.791 1.899 1.246 2.917.85.848-.33 1.377-1.127 1.931-1.866-.525-.768-1.361-1.083-2.331-.227.033-.029.053-.047.065-.057-.015.012-.04.035-.065.057-.79.698-1.793.879-2.517 1.243" fill="#28170f" mask="url(#d)" transform="translate(33 112.337)"/><path d="m43.8446 109.4535c-1.439.48-2.844 1.098-4.042 1.973-.387-.826-.572-1.594-.343-2.029.675-1.275 3.13-.78 4.385.056" fill="#28170f"/><path d="m54.2606 103.4604c.005-.006.011-.015.019-.024-.007.009-.014.017-.019.024" fill="#28170f"/><path d="m69.0702 98.3285c-.002.002-.002.002 0 0" fill="#28170f"/><path d="m72.4969 94.5063c.757 3.102-1.708 2.318-3.35 3.755.051-.045.074-.065.078-.068-.005.004-.041.036-.078.068-1.375 1.203-2.496-.019-2.822-1.519 1.893-.876 3.734-1.865 5.509-2.96.34.166.584.401.663.724" fill="#28170f"/><path d="m69.0702 98.3285c.007-.007.042-.037.077-.067-.049.043-.072.062-.077.067" fill="#28170f"/><path d="m57.181 106.7982c-.764-2.213.225-2.709 1.321-4.173 1.185-1.583 3.234 2.332 4.002 3.284-1.355.264-2.718.491-4.079.701-.414.063-.829.126-1.244.188" fill="#28170f"/><path d="m65.8802 103.4291c.028-.064.068-.154.03-.066.5-1.13 2.026-.393 3.082.859-1.652.57-3.345 1.019-5.059 1.393.562-.687 1.489-1.197 1.947-2.186" fill="#28170f"/><path d="m35.183 105.3588c-.188-.244-.32-.465-.407-.669 1.303-1.031 2.865-1.732 4.491-2.187.71.717 1.036 1.606.336 2.486-.508.642-3.891 1.089-4.42.37" fill="#28170f"/><path d="m42.4911 104.5365c-.822-1.345-.383-1.913.088-2.661 1.235-.147 2.48-.222 3.725-.296 1.028.925 1.688 2.156.726 3.206-.641.701-4.045.594-4.539-.249" fill="#28170f"/><path d="m66.5013 100.9457c-.835.67-3.321 1.402-4.206.386-1.37-1.573-.914-2.052-.317-2.807 1.038-.373 2.065-.777 3.077-1.215 1.356.973 2.587 2.721 1.446 3.636" fill="#28170f"/><path d="m51.4843 105.2475c.918.424 2.07 1.13 2.92 1.964-1.558.234-3.113.482-4.658.777-.357-2.173-.306-3.683 1.738-2.741" fill="#28170f"/><path d="m54.2474 103.4779c.001-.002.002-.003.003-.005-.001.002-.002.003-.003.005" fill="#28170f"/><path d="m54.2509 103.473c.003-.004.006-.008.01-.013-.004.005-.008.01-.01.013" fill="#28170f"/><path d="m54.2474 103.4779c-.006.008-.005.006 0 0" fill="#28170f"/><path d="m54.3319 103.3688c-.006.008-.012.016-.02.025 1.423-1.826 3.322-1.289 3.132-3.469-2.046.533-4.125.942-6.22 1.221.864 1.816 2.308 3.25 3.088 2.248.007-.009.014-.017.02-.025" fill="#28170f"/><path d="m54.2797 103.4359c.005-.006.01-.013.016-.021-.006.008-.011.015-.016.021" fill="#28170f"/><path d="m54.3124 103.3939-.001.002z" fill="#28170f"/><path d="m54.2953 103.4154c.005-.006.01-.013.016-.02-.005.007-.011.014-.016.02" fill="#28170f"/><path d="m49.3617 67.8002c1.01-.718 1.152-2.082 1.435-3.195.329-1.246.738-2.462 1.401-3.574 1.184-1.996 3.567-4.043 6.06-3.223 1.966.646 3.19 2.472 5.301 2.857 1.532.28 3.153.217 4.619.796.793.314 1.648.836 1.285 1.824-.329.896-1.904 1.351-2.666 1.802-1.781 1.063-3.522 2.549-5.56 3.079-1.076.28-2.175.232-3.276.289-.946.047-1.697.638-2.602.699-.998.068-2.113-.012-3.109-.101-.243-.023-3.641-.726-2.888-1.253.345-.246-.087.061 0 0" fill="#976e52"/><path d="m65.0155 57.6664c.283-2.438-4.705-1.187-5.777-.982-.917.175-2.158.411-2.755-.521-.736-1.129-.623-2.681-1.782-3.557-1.263-.976-4.728.279-5.269-1.43-.345-1.092.568-1.877 1.251-2.597.909-.958 1.951-1.805 3.131-2.406 4.117-2.099 7.755.375 11.037 2.754 1.421 1.03 2.828 2.255 3.269 4.032.249 1.006.214 2.195-.426 3.05-.359.478-.823.88-1.311 1.219-.076.052-1.428.907-1.368.438.082-.7-.022.175 0 0" fill="#976e52"/><path d="m48.556 42.6156c-1.858-1.142-2.661 3.94-2.919 4.897-.271 1.007-.624 1.686-1.743 1.248-.91-.358-2.212-1.083-3.096-.291-.804.792-.39 2.573-1.811 2.678-2.043.152-3.327-2.64-3.703-4.323-.369-1.617-.103-3.379.861-4.744 1.336-1.896 3.498-2.697 5.53-3.602 1.981-.882 4.359-1.362 5.884.654.505.667.819 1.505 1.03 2.309.022.084.303 1.382-.033 1.174-.561-.344.559.346 0 0" fill="#976e52"/><path d="m37.0458 37.0512c-1.582-.685-3.377 2.785-4.298 3.698-1.454 1.442-3.722 2.457-5.354.684-1.278-1.416-1.778-2.922-3.628-3.778-1.06-.471-4.991-1.984-2.881-3.602.732-.563 2.065-.638 2.935-.968.952-.361 1.871-.803 2.794-1.231 1.495-.661 2.414-.603 3.976-.229 1.341.371 2.559-.092 3.782.744.774.53 1.439 1.174 1.922 1.98.156.263 1.185 2.892.752 2.702-.158-.068.159.07 0 0" fill="#976e52"/><path d="m56.9989 77.559c.701.361 1.932.736 2.293 1.482.385.826-.78 1.872-1.171 2.533-1.022 1.724.321 2.46 1.296 3.62 1.614 1.922-1.49 2.562-2.849 2.655-1.829.123-4.022-.109-5.468-1.369-1.425-1.207-1.992-2.968-2.308-4.745-.312-1.998-1.006-4.517.127-6.39.565-.932 1.553-1.693 2.661-1.781.594-.047 1.198.017 1.781.129.075.014 2.9 3.486 3.638 3.866" fill="#976e52"/><path d="m74.7699 71.7211c-1.015 1.551 3.354 3.552 4.208 4.376 1.775 1.712 1.687 3.841-.173 5.385-.691.58-1.464 1.078-2.035 1.788-.648.806-.969 1.794-1.441 2.701-.428.822-1.813 2.984-3.012 2.174-.928-.627-.607-1.987-.802-2.941-.197-.958-.581-1.859-1.056-2.711-.403-.716-1.108-1.527-1.16-2.384-.066-.518.115-1.054.185-1.563.253-1.492-.396-2.874.336-4.308.477-.936 1.211-1.693 2.174-2.117.304-.133 2.999-.742 2.776-.4-.369.563.184-.281 0 0" fill="#976e52"/><path d="m59.286 80.4623c-1.884-.27-3.93-1.572-3.121-3.734.657-1.701 1.902-2.775 1.727-4.743-.068-1.24-.102-4.138 1.968-3.069.771.398 1.356 1.306 2.043 1.848.771.609 1.61 1.114 2.474 1.578.607.322 1.471.625 1.647 1.367.065.332.061.666.204.982.436.809.545 1.218.343 2.191-.188.903-.443 1.746-.851 2.575-.222.45-5.357 1.159-6.434 1.005" fill="#976e52"/><g fill="#000"><path d="m49.9633 76.3412c-.658.265-.818.552-.935 1.232-.079.458-.489.895-.892.406-.476-.578-1.101-1.232-1.256-1.992-.14-.691.316-1.334.525-1.963.188-.567.525-.918 1.125-1.037.297-.059 1.272.392 1.278.389-.032.014-.047.02-.053.023.008-.004.03-.013.053-.023-.898.367 1.844 2.285.155 2.965"/><path d="m27.226 60.5258c1.179.594 2.847-1.781 4.236-1.62.934.108 1.511 1.057 2.447 1.247.374.076 3 .129 2.535.957-.343.61-2.197 1.168-2.851 1.352-1.113.324-2.247.022-3.374-.009-.594-.022-1.19.043-1.775-.093-.442-.104-1.005-.322-1.236-.746-.045-.082-.326-1.256.017-1.089-.03-.015-.044-.022.001.001"/><path d="m15.8529 28.8871c0-.004-.002-.006-.002-.01-.017-.078-.006-.028.002.01"/><path d="m35.6532 49.6166c.217.278.456.688.402 1.063-.014.096-.531 1.178-.681.854-.029-.06-.019-.039-.006-.01-.608-1.238-3.287.405-4.27-.315-.771-.544-.94-1.302-2-1.415-.39-.042-2.291.165-2.071-.625.215-.776 2.102-1.47 2.787-1.615 1.173-.236 2.296.178 3.365.622.863.358 1.882.666 2.474 1.441"/><path d="m27.7689 90.8793c1.191-.228 2.418-.464 3.635-.356-.248.712-.527 1.487-.831 2.256-.255-.148-.534-.277-.856-.387-.259-.088-3.273-1.261-1.948-1.513"/><path d="m52.974 66.1469c.003.002.007.004.011.007.044.037.009.009-.011-.007"/><path d="m35.3685 51.5238c.001.003.003.006.005.01.035.073.012.025-.005-.01"/><path d="m23.8163 32.351c-.254.81-2.211 1.345-2.964 1.423-1.033.092-1.981-.28-2.866-.778-.943-.532-2.081-1.12-2.688-2.048-.241-.368-.493-.958-.317-1.407.037-.093.797-1.018.869-.664.014.067.009.042.003.01.278 1.232 2.723.518 3.584.796.833.273.962 1.261 1.678 1.693.446.264 2.942.208 2.701.975"/><path d="m26.4095 69.6361c-.001-.002-.001-.002 0 0"/><path d="m23.3925 43.8705c.699.1 1.325-.639 1.768-1.069.665-.669 1.362-1.42 2.315-1.652.889-.216 1.61.286 2.434.504.981.26 3.127-.55 3.878.204.461.462-.991 1.13-1.298 1.331-1.127.755-2.256 1.257-3.61 1.429-1.222.174-2.475.602-3.701.668-.481.026-1.169.006-1.544-.348-.084-.08-.68-1.116-.248-1.067-.04-.006-.075-.011.006 0"/><path d="m52.4525 68.0551c-.392-.071-.974-.228-1.042.343-.11.669-.481.789-1.063.344-1.477-1.131-1.102-2.507.198-3.546.475-.41 1.064-.782 1.701-.485.307.151.471.369.595.68.019.049.177.791.143.763-.031-.025-.024-.019-.011-.007-.454-.343-.38.83-.353.985.057.31.41 1.027-.168.923"/><path d="m49.8422 73.3627c.007-.003.013-.005.017-.007-.004.002-.01.004-.017.007"/><path d="m49.8593 73.3558c.009-.004.008-.003 0 0"/><path d="m29.1957 83.5023c-.101-.46 1.726-.727 2.079-.805 1.255-.25 2.415-.242 3.543-.069-.41.83-.794 1.618-1.13 2.314-.893-.395-1.867-.545-2.872-.751-.392-.073-1.506-.17-1.62-.689"/><path d="m34.6786 76.1556c1.275-1.296 2.475-1.269 4.117-1.067-.532.886-1.151 2.016-1.791 3.234-.153-.109-.31-.252-.48-.419-.886-.872-3.695.132-1.846-1.748"/><path d="m26.4637 69.6918c-.024-.024-.048-.05-.054-.056.004.004.019.02.054.056.519.531 1.563-.21 2.035-.467.925-.504 1.729-.717 2.525.108.643.666 1.211.809 2.113.858.875.047 1.72.408.702 1.114-.715.495-1.486 1.018-2.357 1.178-1.075.198-2.174-.228-3.226-.397-.787-.128-1.531-.365-1.981-1.072-.153-.241.009-1.507.189-1.322"/><path d="m49.8422 73.3627c-.01.004-.022.009-.034.014.015-.006.025-.01.034-.014"/><path d="m60.2958 70.5131c.002.001.003.001.005.002.033.017.018.01-.005-.002"/><path d="m55.9525 63.8646c-.385-.545.017-1.839.277-2.362.439-.912 1.413-1.265 2.348-1.407.829-.126 1.937-.348 2.674.18.396.275.62.655.569 1.14-.001.013-.2.885-.308.723-.028-.038-.022-.03-.011-.012-.656-.892-1.759 1.734-2.479 1.521-.605-.159-1.022-.755-1.673-.304-.351.242-.969 1.125-1.397.521"/><path d="m69.4437 56.7601c0 .003 0 .003 0 0"/><path d="m57.8241 69.6058c.486-.332.947-.667 1.562-.424.308.122.5.315.667.595.016.027.333.78.248.738-.119-.057-.047-.022-.005-.002-.58-.274-.464 1.22-.455 1.447.02.613-.124.877-.778.727-.681-.158-.865.064-1.209.637-.444.81-.983-.248-1.138-.624-.607-1.468-.092-2.251 1.108-3.094"/><path d="m70.1747 55.5853c0 .285-.721 1.222-.745 1.109.006.029.013.058.014.066-.001-.006-.005-.026-.014-.066-.249-1.199-3.072.846-3.468-1.115-.156-.766-.459-1.07-1.137-1.421-.36-.186-1.153-.867-.341-1.105.815-.239 1.734-.562 2.594-.401.756.142 1.28.727 1.872 1.164.643.477 1.225.888 1.225 1.769"/><path d="m61.5018 62.1264c.003.004.007.009.01.013.039.058.008.012-.01-.013"/><path d="m58.7806 45.5824c.218.659 1.549-.04 1.922-.156.99-.31 1.281.12 1.587.971.31.858 2.966 1.263 1.229 2.101-.629.304-1.333.655-2.05.642-.82-.017-1.496-.623-2.194-.978-.585-.297-.993-.697-1.072-1.376-.034-.286.553-1.281.578-1.204-.018-.055-.037-.11 0 0"/><path d="m65.7123 64.1058c.788.453 2.067-.129 2.858-.297 1.131-.223 2.468-.297 3.337.612.641.671.988 1.538 1.708 2.151.599.495 2.257 1.466 2.2421011 2.389-.0111011.746-4.9301011-1.084-5.2371011-1.229-1.123-.566-2.197-.982-3.377-1.399-.576-.182-1.133-.469-1.571-.892-.206-.198-.397-1.581.039-1.336-.036-.02-.103-.059.001.001"/><path d="m15.0687 33.6849c.974.116 2.002.512.66 1.24-.946.514-1.869.723-2.773.646.244-.817.496-1.586.739-2.315.396.267.884.356 1.374.429"/><path d="m59.5736 92.5209c.05-.545.717-1.437.99-1.932.322-.567.681-.811 1.254-1.102.594-.302.922-.824 1.639-.834.325-.012.593.055.878.21.008.004.746.496.556.551.028-.005.05-.01-.006.002-1.3.264.37 3.813-2.168 3.238-.642-.156-1.122-.181-1.747.086-.352.16-1.466.54-1.396-.219"/><path d="m24.3153 87.1684c.283-.739.57-1.527.854-2.335.483.191.988.339 1.523.49.601.169 3.423 1.216 1.46 1.485-1.141.156-2.286.369-3.442.368-.132.002-.264-.002-.395-.008"/><path d="m75.0985 77.4828c-1.18-.325-2.4-.507-3.505-1.062-1.122-.56-2.192-.887-3.394-1.177-.461-.105-.916-.234-1.325-.478-.346-.182-.598-.39-.713-.774-.028-.095-.166-.927.189-.791-.039-.015-.108-.043.002.001.914.367 2.262-.484 3.123-.711 1.273-.336 2.566-.205 3.44.866.58.726 1.048 1.395 1.764 2.002.573.487 1.259.936 1.642 1.603.721 1.21-.596.696-1.223.521"/><path d="m68.6395 81.2445c.719.624 2.302.104 3.18.233.912.129 1.838.619 2.146 1.54.242.725.114 1.517.287 2.259.18.774 1.045 2.525.342 3.198-.464.44-3.348-3.314-3.821-3.825-.46-.56-1.117-.816-1.658-1.273-.321-.272-.703-.663-.797-1.088-.021-.094-.008-1.272.305-1.055-.016-.014-.018-.016.016.011"/><path d="m39.9252 42.2445c1.005.114 1.768.545 2.61 1.077.721.457 1.612.729 2.219 1.345.267.271.545.658.549 1.056 0 .088-.297 1.253-.502.966.019.027.027.038-.001-.001-.639-.922-3.009.203-4-.2-.89-.361-.924-1.39-1.53-2.021-.381-.397-2.452-1.253-2.135-1.955.236-.521 2.291-.315 2.79-.267"/><path d="m48.9047 51.183c.503.18.963.474 1.319.875.168.19.313 1.563-.044 1.336.031.02.09.059-.002-.001-.61-.398-1.653.064-2.265.237-.817.232-1.826.417-2.621.008-.799-.392-1.038-1.186-1.484-1.887-.632-.99-1.84-1.489-2.348-2.575-.433-.927.871-.438 1.307-.332 1.282.311 2.501.533 3.635 1.244.817.476 1.636.747 2.503 1.095"/><path d="m26.8265 79.7523c.291-.968.544-1.867.742-2.635.833-.279 1.717-.547 2.24.197.507.722.756 1.223 1.66 1.469.301.082 2.094.682 1.067 1.144-.875.394-1.824.864-2.808.846-.917-.015-1.704-.52-2.523-.863-.127-.053-.253-.104-.378-.158"/><path d="m33.2064 32.2523c.58-.179 1.19-.298 1.8-.261.369.024 1.303 1.045.705 1.138.05-.006.091-.012-.008.002-1.198.153-2.13 1.654-2.907 2.444-1.048 1.066-2.261 1.801-3.797 1.657-1.335-.126-2.434-.18-3.767.1-.638.143-1.304.251-1.959.2590335-.312.0029665-1.529-.1950335-.729-.6890335 1.052-.65 2.071-1.351 3.159-1.94 1.152-.623 2.421-.948 3.673-1.304 1.317-.374 2.527-1.005 3.83-1.406"/><path d="m37.9789 35.1107c0-.002-.001-.004-.001-.005-.012-.047-.007-.027.001.005"/><path d="m39.3602 58.5521.002.004z"/><path d="m57.0931 49.2621c.083.453-.013.865-.339 1.194-.009.009-.707.576-.694.371.009-.155.003-.056 0-.003.045-.829-1.801-.499-2.243-.536-.793-.069-.825-.612-.944-1.274-.157-.869-2.868-1.481-1.183-2.207 1.706-.735 2.841-.457 4.151.796.492.462 1.122.956 1.252 1.659"/><path d="m59.202 79.3051c.009-.005.008-.004 0 0"/><path d="m41.974 36.2933c.404.781.594 1.335 1.527 1.602.284.086 2.131.711 1.106 1.167-2.098.936-3.52.809-5.403-.478-.718-.481-1.599-.969-1.928-1.818-.159-.411-.191-.812.054-1.195.016-.023.583-.733.647-.465.043.172.017.064.002.004.344 1.372 3.254-.251 3.995 1.183"/><path d="m57.9545 83.559c-.457-.386-1.005-.82-1.239-1.391-.258-.626.085-1.397.206-2.021.109-.562.552-.984 1.133-1.038.153-.015 1.149.196 1.101.222.019-.01.037-.02.047-.026-.008.005-.022.013-.047.026-.793.453 2.012 1.817.89 2.584-.576.394-.971.526-.95 1.315.025.938-.592.792-1.141.329"/><path d="m53.8714 41.7638c-.602-.128-.786-.309-.924-.921-.373-1.652-2.32.916-2.499.139-.023-.099-.011-.05 0 0 .001.003-.429.851-.458 1.025-.086.525.123 1.061.618 1.286.507.229 1.101.698 1.687.566.568-.128 1.064-.585 1.494-.947.397-.336.903-.974.082-1.148"/><path d="m56.0599 50.8246v.003c-.003.041-.002.025 0-.003"/><path d="m32.722 56.7592c1.548-1.647 2.962-1.625 5.004-1.01.696.22 1.45.402 1.898 1.032.046.065.088.131.124.198-.711.321-1.137.748-1.176 1.303-.38.064-.787.254-.998.349-.86.399-1.549.66-2.222-.179-.517-.64-1.029-.756-1.849-.7-.831.059-1.552-.172-.781-.993"/><path d="m35.2225 66.0326c1.821-1.416 3.394-1.226 5.544-1.057.042.154.085.313.131.48.176.645.338 1.308.452 1.975-.239.15-.455.309-.614.412-.922.593-1.743.878-2.666.137-.84-.675-1.53-.651-2.563-.642-1.418.012-1.153-.63-.284-1.305"/></g><path d="m1.8177 2.5989c.196-.062.408-.127.631-.197.056-.017.112-.035.17-.052.058-.016.116-.031.176-.047.118-.032.238-.064.361-.098.245-.066.498-.133.755-.203.26-.058.523-.119.787-.178.131-.031.263-.06.394-.09.066-.015.132-.03.197-.044.066-.012.132-.025.197-.036.262-.049.52-.097.77-.143.125-.023.248-.046.368-.068.122-.018.24-.035.356-.052.232-.033.452-.064.656-.094.967-.129 1.833-.211 2.701-.26.434-.036.868-.037 1.316-.051.448-.019.91-.006 1.398 0 .123.002.251.004.382.006.131.001.264.012.401.019.273.016.558.032.85.05.073.004.146.009.22.013.074.007.148.014.223.022.148.015.298.03.45.045.151.016.303.03.455.046l.23.023.228.032c.305.043.609.085.91.127.075.01.15.021.225.032.074.012.148.026.222.039.147.026.293.053.436.078.144.025.286.051.426.076.14.026.277.047.411.078.267.058.523.113.764.165.376.067 1.311.331 1.681.422.199.051.126.049-.164-.008-.144-.028-.343-.07-.589-.126-.122-.028-.257-.059-.403-.092-.146-.036-.305-.063-.473-.099-.192-.039-.399-.081-.62-.126-.11-.021-.225-.045-.342-.067-.118-.02-.239-.038-.364-.059-.25-.04-.514-.082-.789-.126-.069-.012-.138-.022-.209-.034-.07-.009-.142-.018-.214-.027-.144-.019-.291-.038-.442-.057-1.199-.165-2.382-.274-3.783-.314-.23-.003-.463-.005-.699-.007-.118-.001-.237-.002-.356-.003-.119.003-.239.006-.359.01-.48.017-.965.02-1.444.062-.479.034-.955.059-1.413.117-.459.05-.904.09-1.322.156-.16.023-.327.046-.499.071-.087.011-.175.023-.264.036-.089.012-.18.024-.27.041-.364.064-.746.131-1.134.198-.388.074-.78.163-1.169.244-.097.021-.194.041-.291.062-.095.024-.191.048-.285.072-.19.047-.377.095-.561.141-.183.046-.364.088-.538.137-.173.051-.342.1-.504.148s-.318.093-.467.136c-.148.044-.29.083-.42.129-.521.176-.902.305-1.06.361-.188.066-.154.041.122-.071.138-.055.336-.132.598-.23.13-.049.276-.103.438-.163.165-.052.345-.11.542-.172" fill="#fff" mask="url(#e)" transform="translate(0 20.337)"/><path d="m2.4423 24.7699c.188-.058.392-.119.606-.186.107-.033.218-.064.332-.094.113-.032.229-.063.346-.095.236-.064.478-.131.724-.198.248-.061.5-.122.752-.184l.378-.091c.062-.015.125-.03.187-.045.063-.013.126-.027.188-.04.25-.053.496-.105.735-.156.119-.024.237-.05.352-.074.115-.021.229-.041.339-.062.221-.04.431-.078.625-.113.923-.159 1.748-.278 2.577-.374.413-.057.829-.088 1.256-.13.428-.045.871-.068 1.338-.097.473-.038 1.006-.043 1.567-.061.07-.002.14-.003.212-.005h.214c.143 0 .288.001.434.001.146.001.292.001.439.001l.221.001.221.007c.295.01.59.018.881.028.073.002.146.004.218.007.072.004.144.008.216.012.143.009.285.017.425.025.28.019.553.029.814.051.261.021.512.043.748.062.365.02 1.29.143 1.653.181.196.022.127.029-.156.016-.141-.007-.336-.02-.577-.039-.121-.011-.253-.022-.396-.035s-.298-.02-.463-.034c-.187-.012-.389-.027-.605-.043-.109-.007-.22-.013-.335-.021-.114-.005-.233-.009-.354-.014-.243-.01-.498-.02-.766-.031-.067-.003-.135-.006-.203-.008s-.137-.003-.207-.004c-.14-.003-.283-.006-.428-.009-1.162-.031-2.301-.031-3.645.04-.882.051-1.819.134-2.735.249-.457.058-.911.111-1.349.183-.437.068-.862.129-1.261.205-.305.056-.639.11-.987.176-.347.07-.713.144-1.084.218-.37.079-.745.169-1.118.252-.093.02-.186.042-.278.062-.092.025-.183.048-.275.07-.181.047-.361.093-.537.138-.176.046-.349.088-.516.134-.167.047-.329.094-.485.138-.312.09-.601.168-.853.248-.504.159-.872.277-1.025.328-.181.06-.148.036.119-.067.133-.051.325-.123.577-.212.126-.044.267-.094.423-.149.158-.049.332-.103.521-.162" fill="#fff"/><path d="m2.7738 27.9721c.18-.067.374-.14.578-.216.204-.078.422-.149.645-.229.224-.078.455-.159.69-.241.235-.077.475-.155.715-.233.478-.16.962-.302 1.417-.438.113-.035.225-.068.335-.101.11-.03.218-.061.323-.089.211-.058.41-.113.596-.164.879-.237 1.667-.432 2.458-.609.394-.095.792-.172 1.201-.258.409-.088.833-.162 1.281-.245.453-.087.966-.16 1.506-.244.269-.044.547-.075.829-.113.14-.017.282-.036.424-.054.142-.02.284-.037.427-.051.571-.061 1.141-.126 1.685-.168.272-.023.536-.05.791-.068.254-.017.498-.035.728-.05.354-.033 1.261-.061 1.616-.08.192-.009.126.009-.148.04-.137.015-.326.034-.56.052-.235.02-.516.038-.836.066-.182.015-.379.032-.589.05-.105.008-.213.018-.324.028-.111.012-.226.024-.344.037-.235.025-.482.052-.741.079-.26.025-.529.064-.81.095-1.125.128-2.225.269-3.515.495-.845.151-1.742.334-2.617.538-.437.104-.871.201-1.288.312-.418.107-.824.207-1.204.314-.29.081-.608.163-.941.257-.332.096-.68.196-1.034.298-.353.105-.711.219-1.066.327-.089.027-.178.055-.266.082-.087.029-.174.058-.261.087-.174.057-.345.113-.513.169-.168.055-.334.108-.493.164s-.313.11-.462.163c-.297.105-.574.199-.815.29-.48.182-.833.315-.978.373-.172.068-.141.042.112-.072.127-.057.309-.136.549-.237.12-.049.254-.106.403-.168.151-.056.316-.119.496-.188" fill="#fff"/><path d="m50.0551 21.7709c-.229-.023-.475-.05-.735-.077-.13-.015-.263-.027-.4-.036-.136-.012-.275-.023-.417-.034-.282-.024-.574-.048-.87-.072-.297-.017-.599-.036-.9-.053l-.451-.027c-.075-.005-.15-.009-.224-.013-.075-.002-.149-.005-.224-.008-.297-.01-.59-.021-.873-.032-.142-.004-.281-.009-.418-.014-.137-.002-.271-.004-.402-.006-.261-.003-.509-.007-.738-.01-1.09-.009-2.06.008-3.029.045-.485.011-.968.046-1.467.072-.5.023-1.013.068-1.556.11-.55.036-1.166.106-1.816.165-.082.008-.163.015-.245.024s-.165.02-.248.029c-.166.02-.333.04-.501.059-.169.02-.338.04-.508.06l-.256.03-.255.036c-.34.048-.68.096-1.016.144-.084.011-.168.023-.251.035-.083.013-.166.027-.248.041-.165.027-.328.054-.489.081-.322.055-.637.103-.937.16-.3.059-.588.115-.859.168-.419.072-1.481.306-1.897.395-.225.05-.151.018.167-.07.159-.044.379-.101.654-.17.137-.033.288-.07.451-.109.164-.04.341-.073.53-.113.216-.044.448-.092.696-.144.124-.025.251-.053.383-.08.132-.024.268-.05.408-.075.279-.051.573-.106.881-.161.078-.014.156-.029.234-.042.079-.013.159-.025.24-.037.162-.025.327-.05.495-.076 1.344-.208 2.67-.337 4.236-.475 1.028-.087 2.125-.162 3.203-.204.539-.02 1.073-.045 1.592-.045.518-.006 1.02-.017 1.496-.004.362.007.756.009 1.171.023.415.019.85.038 1.292.059.442.024.892.06 1.337.092.112.007.222.015.333.023.11.011.22.022.329.032.219.021.435.042.646.063.211.02.419.038.621.061.2.025.396.048.584.071.376.047.724.084 1.03.129.611.086 1.058.15 1.243.176.222.03.174.036-.158.005-.166-.014-.403-.039-.713-.075-.154-.018-.327-.038-.519-.062-.192-.019-.403-.041-.632-.064" fill="#fff"/><path d="m49.7079 25.2689c-.213-.036-.443-.074-.685-.115-.121-.022-.246-.039-.374-.056-.127-.017-.257-.035-.389-.054-.529-.072-1.091-.15-1.654-.227-.14-.02-.28-.039-.42-.059-.071-.009-.141-.018-.21-.028-.07-.008-.14-.015-.209-.023-.278-.03-.552-.059-.817-.087-.531-.059-1.028-.113-1.458-.16-.127-.014-.253-.028-.377-.042-.124-.009-.247-.019-.368-.029-.244-.019-.481-.038-.716-.057-.469-.037-.923-.073-1.378-.109-.454-.043-.91-.057-1.38-.082-.469-.024-.953-.049-1.464-.075-.518-.035-1.101-.039-1.714-.06-.307-.008-.622-.018-.941-.027-.16-.005-.32-.01-.481-.016l-.242-.006-.242-.001h-1.906c-.308.001-.607-.004-.894.004-.287.01-.563.02-.822.029-.401.012-1.422.043-1.822.055-.433.016.295-.074 1.744-.135.206-.01.429-.021.667-.032.118-.005.241-.011.367-.018.126-.002.256-.005.39-.008.534-.01 1.125-.019 1.764-.025.159-.001.319-.002.478-.003l.24-.001c.079 0 .159.004.239.006.32.009.642.018.971.028s.664.019 1.008.029c.345.011.701.013 1.07.037.484.024.984.048 1.49.073.505.026 1.017.039 1.523.084.505.039 1.006.077 1.492.114.486.038.957.068 1.4.124.677.078 1.474.171 2.302.267.824.117 1.676.252 2.466.372.197.03.391.057.579.089.187.036.369.069.544.101.351.065.674.125.959.178.571.105.989.181 1.162.211.414.07-.181.019-1.892-.266" fill="#fff"/><path d="m47.3358 28.058c-.188-.051-.391-.106-.605-.164-.107-.03-.217-.058-.331-.084-.112-.027-.228-.055-.345-.083-.469-.112-.967-.231-1.465-.352-.124-.029-.249-.059-.373-.089l-.186-.044c-.062-.014-.124-.027-.185-.039-.247-.052-.49-.103-.726-.152-.472-.099-.913-.192-1.296-.273-.113-.024-.224-.047-.335-.071-.111-.02-.22-.04-.328-.059-.217-.039-.429-.077-.637-.114-.418-.076-.824-.148-1.229-.22-.404-.079-.813-.132-1.232-.196-.419-.063-.852-.128-1.309-.197-.462-.077-.985-.132-1.535-.205-.275-.035-.557-.071-.842-.108-.144-.019-.287-.037-.431-.056l-.217-.028-.217-.022c-.581-.057-1.161-.114-1.713-.169-.276-.025-.545-.056-.804-.074-.259-.015-.507-.031-.741-.046-.36-.024-1.281-.087-1.641-.111-.39-.023.271-.046 1.579.023.186.009.387.02.602.03.107.005.218.01.332.015.113.009.231.018.351.028.481.037 1.012.079 1.587.13.144.012.287.025.43.039l.216.019c.071.008.143.019.214.026.287.038.576.075.87.113s.594.076.903.115c.309.041.629.074.958.128.433.063.88.13 1.332.196.453.069.911.124 1.361.21.451.079.898.157 1.331.234s.854.146 1.247.235c.602.129 1.31.284 2.044.447.73.179 1.483.377 2.182.556.175.046.346.088.512.134.165.049.325.095.48.14.309.09.594.173.845.246.503.147.871.253 1.025.295.365.101-.166.006-1.678-.403" fill="#fff"/><path d="m42.7181 31.2572c-.226-.157-.486-.342-.772-.525-.143-.094-.289-.191-.438-.288-.151-.094-.305-.19-.458-.286-.614-.383-1.244-.739-1.728-1.004-.573-.312-1.091-.575-1.616-.825-.26-.129-.527-.244-.799-.369-.272-.127-.557-.243-.857-.371-.303-.133-.65-.265-1.013-.412-.18-.076-.37-.141-.56-.214-.191-.069-.382-.147-.577-.213-.39-.134-.778-.271-1.153-.384-.187-.057-.369-.117-.545-.167-.177-.048-.346-.095-.505-.139-.245-.074-.877-.233-1.125-.295-.134-.032-.085-.036.111-.006.098.015.233.039.399.071.167.033.366.074.589.136.128.032.266.068.413.105.074.019.15.039.228.058.078.022.158.044.24.067.165.046.337.096.518.147.182.05.367.115.562.178.777.251 1.519.552 2.392.909.572.237 1.178.499 1.764.776.292.14.584.275.859.42.277.143.547.277.795.42.19.107.398.22.612.347.214.129.437.264.664.402.45.285.912.586 1.328.881.105.073.208.144.307.215.098.072.193.141.284.21.183.135.354.257.5.371.293.227.507.393.597.461.108.08.077.073-.091-.035-.084-.055-.202-.135-.355-.243-.076-.054-.162-.115-.256-.181-.095-.067-.2-.138-.314-.217" fill="#fff"/><path d="m11.8964 29.8461c.134-.124.288-.269.46-.413.086-.074.174-.149.263-.227.092-.074.185-.149.278-.224.373-.303.762-.584 1.062-.792.357-.245.682-.454 1.012-.654.164-.102.333-.195.506-.294.171-.099.354-.193.546-.293.193-.105.418-.205.653-.315.117-.057.242-.104.366-.158.124-.052.249-.109.376-.155.255-.099.509-.199.755-.283.122-.042.24-.086.355-.124.116-.038.226-.074.33-.108.159-.058.577-.165.737-.215.088-.025.062-.001-.058.052-.06.027-.143.06-.248.099-.105.038-.231.083-.374.133-.328.114-.75.283-1.245.488-.497.2-.982.4-1.535.682-.725.37-1.502.866-2.117 1.291-.474.319-1.102.774-1.622 1.197-.065.052-.13.103-.192.154-.061.052-.12.102-.177.15-.113.098-.221.185-.311.267-.18.164-.312.284-.365.336-.064.06-.059.039.026-.062.043-.051.106-.121.191-.211.043-.044.091-.093.144-.149.056-.052.117-.11.184-.172" fill="#fff"/><path d="m32.349 11.2572c-.109.088-.23.229-.359.36-.066.064-.121.137-.176.204s-.106.129-.151.183c-.013.016-.026.031-.039.047-.011.017-.023.032-.034.049-.023.032-.045.064-.066.094-.044.063-.086.124-.127.184-.045.059-.078.124-.117.19-.039.064-.079.131-.121.203-.046.069-.085.155-.134.241-.046.088-.101.178-.147.271-.043.096-.086.192-.127.283-.019.045-.041.089-.056.134-.014.044-.028.087-.04.127-.019.063-.078.219-.098.282-.02.068-.046-.06.014-.293.008-.034.017-.069.026-.108.003-.019.008-.039.012-.059.007-.02.013-.04.02-.062.026-.084.056-.178.095-.276.02-.049.036-.1.063-.146.025-.047.051-.094.077-.141.026-.048.052-.096.08-.147.027-.05.051-.103.084-.154.041-.07.082-.141.123-.214.042-.072.078-.149.127-.218.047-.069.092-.138.137-.206.046-.066.088-.133.138-.187.073-.086.163-.186.256-.287.101-.094.21-.187.309-.274.025-.021.048-.044.073-.062.026-.019.051-.038.075-.054.047-.035.091-.067.13-.095.078-.056.133-.098.155-.116.053-.045.007.06-.202.247" fill="#ffcaa3"/><path d="m33.3173 12.5873c-.095.056-.21.145-.329.227-.06.04-.115.086-.169.128-.053.041-.104.081-.147.114-.102.081-.187.16-.275.234-.087.076-.167.159-.263.247-.05.043-.101.097-.158.15-.056.053-.119.107-.178.165-.113.119-.235.232-.313.339-.031.042-.121.138-.153.178-.034.044-.028-.065.08-.22.058-.089.134-.208.242-.335.052-.065.114-.12.177-.177.064-.058.125-.121.194-.187.093-.084.183-.184.279-.273.098-.088.19-.18.284-.249.071-.053.157-.112.247-.171.093-.056.192-.108.282-.159.184-.096.345-.162.383-.188.046-.027.003.057-.183.177" fill="#ffcaa3"/><path d="m19.8905 10.4223c.088.113.183.275.283.435.051.079.094.162.135.24s.08.152.112.216c.076.151.132.292.195.429.032.069.055.141.082.214.026.073.053.15.082.23.03.08.05.175.075.274.022.1.049.203.068.309.031.212.072.421.09.591.009.065.021.233.029.298.01.071-.068-.041-.11-.272-.019-.133-.079-.301-.123-.504-.019-.102-.043-.201-.066-.306-.026-.103-.046-.214-.086-.327-.027-.075-.055-.151-.085-.228-.031-.077-.058-.155-.095-.229-.035-.075-.069-.149-.103-.221-.033-.071-.063-.142-.097-.206-.05-.098-.105-.216-.16-.34-.061-.122-.125-.247-.184-.363-.027-.058-.059-.113-.088-.163s-.056-.097-.08-.138c-.047-.082-.083-.141-.1-.165-.039-.056.058-.005.226.226" fill="#ffcaa3"/><path d="m18.2372 10.4633c.111.102.242.248.377.392.069.071.132.147.192.217.059.072.115.138.163.196.112.138.205.267.302.393.096.126.182.26.282.407.052.075.101.164.153.257.052.094.107.192.157.292.098.202.201.402.275.566.03.062.097.226.127.289.032.067-.079-.02-.195-.239-.064-.127-.174-.28-.28-.471-.053-.097-.104-.192-.158-.291-.056-.099-.109-.203-.18-.309-.095-.137-.195-.283-.303-.421-.11-.134-.213-.271-.309-.39-.074-.09-.158-.201-.243-.315-.089-.112-.181-.228-.266-.336-.173-.214-.326-.388-.367-.432-.052-.051.056-.014.273.195" fill="#ffcaa3"/><path d="m18.5424 96.2865c.379-2.527 2.022-3.791 3.412-4.423.095-.043.205-.15.328-.313 1.135 2.172 3.699 3.566 6.142 3.212.44-.065.902-.175 1.326-.083-.753 1.568-1.604 2.844-2.489 3.124-2.401.757-9.098 1.01-8.719-1.517" fill="#28170f"/><path d="m37.4974 89.7162c.379-.759 2.527-2.527 4.043-2.401.509.042 1.315.297 2.234.628-.76 1.055-1.204 2.34-1.235 3.642-.037 1.523.492 3.05 1.449 4.235-2.922-.266-5.221-.704-5.733-1.429-1.516-2.149-1.137-3.917-.758-4.675" fill="#28170f"/></g></svg>