
<svg width="84px" height="116px" viewBox="0 0 84 116" version="1.1" xmlns="http://www.w3.org/2000/svg" xmlns:xlink="http://www.w3.org/1999/xlink">
    <defs>
        <polygon id="path-l7d_4u5vfq-1" points="0.0862390135 0.663 8.82106983 0.663 8.82106983 14.0407493 0.0862390135 14.0407493"></polygon>
        <polygon id="path-l7d_4u5vfq-3" points="0.676456719 0.3567 52.482946 0.3567 52.482946 34 0.676456719 34"></polygon>
        <polygon id="path-l7d_4u5vfq-5" points="0.676486784 0.80964239 7.5874 0.80964239 7.5874 10 0.676486784 10"></polygon>
        <polygon id="path-l7d_4u5vfq-7" points="0.0415 0.24963718 4.8895 0.24963718 4.8895 3 0.0415 3"></polygon>
        <polygon id="path-l7d_4u5vfq-9" points="0 0.975958124 21.6767477 0.975958124 21.6767477 3.27099417 0 3.27099417"></polygon>
    </defs>
    <g id="Page-1" stroke="none" stroke-width="1" fill="none" fill-rule="evenodd">
        <g id="designer-profile" transform="translate(-297.000000, -617.000000)">
            <g id="Group-276" transform="translate(297.000000, 617.000000)">
                <path d="M10.308,91.392 C10.153,89.848 11.554,88.456 13.086,88.213 C13.843,88.093 14.627,88.19 15.37,88 C16.742,87.651 17.715,86.366 18.107,85.004 C18.499,83.643 18.415,82.197 18.349,80.783 C18.068,74.787 18.162,68.775 18.629,62.791 C21.026,65.092 23.424,67.392 25.821,69.693 C26.586,70.428 27.404,71.273 27.449,72.333 C27.468,72.767 27.351,73.193 27.235,73.611 C26.454,76.435 25.673,79.259 24.892,82.082 C24.076,85.033 23.778,89.406 21.954,91.864 C20.131,94.322 16.537,94.775 13.523,94.248 C12.005,93.984 10.461,92.925 10.308,91.392" id="Fill-1" fill="#66422A"></path>
                <path d="M13.0863,88.2133 C13.5453,88.1403 14.0163,88.1473 14.4813,88.1213 C14.6253,88.5673 14.9653,88.9573 15.3643,89.2203 C15.8983,89.5723 16.5283,89.7413 17.1433,89.9203 C18.5873,90.3393 20.0053,90.8423 21.4233,91.3433 C21.6603,91.4273 21.8993,91.5133 22.1313,91.6103 C22.0743,91.6963 22.0153,91.7813 21.9543,91.8633 C20.1303,94.3213 16.5373,94.7753 13.5233,94.2483 C12.0043,93.9843 10.4613,92.9253 10.3083,91.3923 C10.1533,89.8483 11.5543,88.4563 13.0863,88.2133" id="Fill-3" fill="#28170F"></path>
                <path d="M26.2509,7.9564 C28.6649,8.2384 38.6349,7.8304 39.0139,15.4124 C39.3929,22.9944 37.1189,24.1314 36.7389,25.7744 C36.3599,27.4174 37.2449,33.3564 39.7719,34.6204 C42.2989,35.8834 53.0409,37.9054 55.8209,40.5594 C58.6009,43.2134 72.6269,50.1634 77.5559,63.9364 C82.4839,77.7114 84.3789,88.4514 79.9569,91.6114 C75.5339,94.7694 62.2649,96.4134 59.6119,96.2864 C56.9579,96.1604 39.7719,96.5394 38.2559,94.3914 C36.7389,92.2424 37.1189,90.4744 37.4979,89.7164 C37.8759,88.9574 40.0249,87.1884 41.5409,87.3144 C43.0579,87.4404 47.2279,89.4634 49.1229,89.7164 C51.0189,89.9684 52.1559,88.8314 50.2609,86.4304 C48.3649,84.0294 40.6569,75.5624 40.4039,73.4144 C40.1509,71.2664 33.0749,86.1774 32.4429,87.5674 C31.8109,88.9574 29.6629,97.0454 27.2619,97.8034 C24.8609,98.5614 18.1639,98.8134 18.5429,96.2864 C18.9219,93.7594 20.5639,92.4954 21.9549,91.8634 C23.3449,91.2314 28.0199,76.8264 28.0199,74.8044 C28.0199,72.7824 19.7259,66.7254 17.9109,64.0624 C16.0149,61.2834 10.9599,49.6574 11.5919,42.4544 C12.2239,35.2514 15.1309,30.9554 15.1309,27.2904 C15.1309,23.6264 12.3509,17.6864 15.0039,13.1384 C17.6579,8.5884 20.4989,7.2844 26.2509,7.9564" id="Fill-5" fill="#755239"></path>
                <path d="M50.8114,60.9252 C49.1414,62.2122 42.3604,70.0102 44.5284,79.5972 C42.4084,76.9912 40.5264,74.4572 40.4034,73.4142 C40.3864,73.2622 40.3334,73.1962 40.2514,73.2042 C40.5394,72.6152 40.8874,72.0502 41.1224,71.4382 C41.8504,69.5422 41.4304,67.4152 40.8974,65.4552 C39.7464,61.2242 39.8104,61.5162 38.7204,59.0232 C36.1904,53.2322 66.1594,57.9242 61.6734,58.2442 C57.1874,58.5652 53.8154,58.6092 50.8114,60.9252" id="Fill-7" fill="#66422A"></path>
                <g id="Group-11" transform="translate(13.000000, 0.337000)">
                    <mask id="mask-l7d_4u5vfq-2" fill="white">
                        <use xlink:href="#path-l7d_4u5vfq-1"></use>
                    </mask>
                    <g id="Clip-10"></g>
                    <path d="M0.6693,0.8763 C0.3013,1.1733 0.2333,1.6983 0.1933,2.1703 C-0.2397,7.2743 0.7333,12.7873 1.4583,13.9413 C1.8053,14.4953 3.0063,12.6203 4.7813,11.1473 C6.7113,9.5463 9.1973,8.2923 8.7733,7.8563 C7.9583,7.0203 6.5063,5.6003 5.6043,4.2683 C4.7023,2.9373 3.6963,1.5783 2.2403,0.8943 C1.7403,0.6583 1.0993,0.5283 0.6693,0.8763" id="Fill-9" fill="#F3A158" mask="url(#mask-l7d_4u5vfq-2)"></path>
                </g>
                <path d="M19.6586,9.6556 C19.0436,8.2896 17.9546,6.0596 17.1526,4.7946 C16.3496,3.5296 14.6776,1.0146 13.8986,1.5456 C12.3306,2.6126 14.2416,14.3316 14.6956,14.2786 C15.1496,14.2256 15.7596,12.1646 19.6586,9.6556" id="Fill-12" fill="#FFCAA3"></path>
                <path d="M41.5135,2.6127 C42.1985,6.6867 41.6425,10.9657 39.9285,14.7247 C39.5745,15.5017 38.7955,16.8667 38.4855,15.8187 C38.1765,14.7697 35.4365,10.3477 31.9255,8.9697 C31.2955,8.7227 34.4055,6.1837 35.9715,4.8237 C37.3425,3.6337 38.9225,2.6547 40.6305,2.0917 C41.2915,1.8747 41.4755,2.3877 41.5135,2.6127" id="Fill-14" fill="#F3A158"></path>
                <path d="M33.3417,9.4926 C35.9147,7.4466 39.4687,4.0656 40.8337,2.6126 C41.5307,1.8706 41.6817,6.2586 41.0437,9.8496 C40.4327,13.2896 39.0537,15.9376 38.7337,15.3396 C38.0777,14.1146 34.6477,9.9666 33.3417,9.4926" id="Fill-16" fill="#FFCAA3"></path>
                <path d="M30.6439,14.2797 C31.6609,14.2587 32.6049,14.8037 33.3929,15.4477 C33.8489,15.8197 34.2719,16.2297 34.6949,16.6397 C34.8609,16.8017 35.0359,16.9757 35.0889,17.2027 C35.1609,17.5017 35.0019,17.8037 34.8249,18.0547 C34.0509,19.1497 32.7839,19.8807 31.4499,20.0017 C30.1159,20.1237 28.7379,19.6337 27.7789,18.6957 C27.5139,18.4367 27.2699,18.1237 27.2279,17.7557 C27.1959,17.4777 27.2829,17.2007 27.3859,16.9417 C27.6589,16.2497 28.0639,15.5997 28.6229,15.1097 C29.1819,14.6187 29.9009,14.2947 30.6439,14.2797" id="Fill-18" fill="#F3A158"></path>
                <path d="M28.0438,17.766 C28.1828,18.33 29.3178,19.14 30.8908,19.14 C32.4618,19.14 33.4288,18.087 33.7368,17.101 C33.4918,16.147 31.9718,14.822 30.3998,14.822 C28.8278,14.822 28.0438,16.64 28.0438,17.766" id="Fill-20" fill="#4E3427"></path>
                <path d="M28.4388,17.6566 C28.5588,18.1426 29.5368,18.8406 30.8908,18.8406 C32.2448,18.8406 33.0768,17.9336 33.3418,17.0836 C33.1298,16.2616 31.8218,15.1216 30.4678,15.1216 C29.1138,15.1216 28.4388,16.6866 28.4388,17.6566" id="Fill-22" fill="#757F38"></path>
                <path d="M31.3885,18.0717 C31.1405,18.2137 30.8275,18.2207 30.5595,18.1207 C30.2925,18.0197 30.0695,17.8177 29.9155,17.5777 C29.6365,17.1427 29.5795,16.5637 29.8045,16.0977 C30.0285,15.6337 30.5385,15.3097 31.0545,15.3417 C31.2575,15.3537 31.4665,15.4237 31.6015,15.5757 C31.7325,15.7247 31.7765,15.9277 31.8145,16.1227 C31.8855,16.4717 31.9545,16.8297 31.9125,17.1837 C31.8705,17.5377 31.6985,17.8947 31.3885,18.0717" id="Fill-24" fill="#000000"></path>
                <path d="M29.6053,16.9486 C29.4743,16.8286 29.4483,16.6096 29.5483,16.4636 C29.6493,16.3166 29.8623,16.2616 30.0213,16.3406 C30.1203,16.4606 30.1953,16.6066 30.1973,16.7616 C30.1993,16.9166 30.1133,17.0786 29.9683,17.1336 C29.8233,17.1876 29.6313,17.1006 29.6053,16.9486" id="Fill-26" fill="#FFFFFF"></path>
                <path d="M22.5311,13.639 C21.8121,13.216 20.8961,12.952 20.1041,13.212 C15.3471,14.766 16.1491,17.108 17.2321,17.729 C18.3141,18.349 21.6101,20.12 24.4791,17.557 C25.2241,16.892 23.1811,14.022 22.5311,13.639" id="Fill-28" fill="#F3A158"></path>
                <path d="M23.6429,16.8851 C23.4989,17.4661 22.3309,18.3001 20.7119,18.3001 C19.0939,18.3001 18.0989,17.2161 17.7809,16.2001 C18.0339,15.2181 19.5989,13.8541 21.2179,13.8541 C22.8359,13.8541 23.6429,15.7261 23.6429,16.8851" id="Fill-30" fill="#4E3427"></path>
                <path d="M23.1635,16.7533 C23.0435,17.2383 22.0655,17.9373 20.7125,17.9373 C19.3585,17.9373 18.5265,17.0293 18.2605,16.1803 C18.4725,15.3583 19.7815,14.2173 21.1345,14.2173 C22.4885,14.2173 23.1635,15.7823 23.1635,16.7533" id="Fill-32" fill="#757F38"></path>
                <path d="M21.205,17.3148 C20.956,17.4558 20.644,17.4638 20.376,17.3628 C20.109,17.2618 19.886,17.0608 19.732,16.8198 C19.452,16.3858 19.396,15.8058 19.621,15.3408 C19.845,14.8758 20.355,14.5528 20.871,14.5848 C21.074,14.5958 21.283,14.6668 21.418,14.8188 C21.549,14.9668 21.593,15.1708 21.631,15.3658 C21.702,15.7148 21.771,16.0718 21.729,16.4258 C21.687,16.7808 21.515,17.1378 21.205,17.3148" id="Fill-34" fill="#000000"></path>
                <path d="M19.4213,16.1908 C19.2903,16.0718 19.2643,15.8528 19.3653,15.7068 C19.4653,15.5598 19.6793,15.5038 19.8383,15.5838 C19.9363,15.7028 20.0123,15.8488 20.0133,16.0038 C20.0153,16.1588 19.9293,16.3208 19.7843,16.3758 C19.6393,16.4298 19.4483,16.3438 19.4213,16.1908" id="Fill-36" fill="#FFFFFF"></path>
                <path d="M19.7489,26.556 C21.0159,25.445 22.6759,24.791 24.3609,24.742 C26.0449,24.692 27.7409,25.246 29.0719,26.282 C29.1859,26.37 29.3029,26.469 29.3489,26.607 C29.4219,26.821 29.3009,27.051 29.1609,27.229 C28.4739,28.098 27.3329,28.414 26.2939,28.856 C25.6449,29.132 23.1629,29.164 22.4429,28.747 L20.6769,27.725 C20.2199,27.461 19.6999,27.081 19.7489,26.556" id="Fill-38" fill="#FFFFFF"></path>
                <path d="M19.7489,26.556 C21.0159,25.445 22.6759,24.791 24.3609,24.742 C26.0449,24.692 27.7409,25.246 29.0719,26.282 C29.1859,26.37 29.3029,26.469 29.3489,26.607 C29.4219,26.821 29.3009,27.051 29.1609,27.229 C29.0619,27.354 28.9529,27.467 28.8369,27.572 C28.6929,27.596 28.5459,27.603 28.3989,27.584 C27.8349,27.515 27.3599,27.151 26.8589,26.881 C25.7969,26.311 24.5179,26.157 23.3499,26.459 C22.3559,26.717 21.4599,27.285 20.4589,27.512 C20.4289,27.518 20.3989,27.525 20.3689,27.531 C20.0169,27.284 19.7109,26.964 19.7489,26.556" id="Fill-40" fill="#EEE8E5"></path>
                <path d="M21.6532,26.4125 C20.7122,27.1014952 17.7202,27.4625 17.7231977,23.9395 C17.7242,23.2175 17.9752,22.3715 18.5982,22.0065 C20.3222,20.9955 26.5622,21.5425 27.6712,21.6495 C28.7872,21.7585 29.9912,21.7305 30.9152,22.3655 C31.8112,22.9805 32.2432,24.1995 31.9352,25.2425 C31.6262,26.2855 30.6012,27.0725 29.5142,27.1005 C28.4902,27.1285 27.5592,26.5605 26.6702,26.0505 C25.7822,25.5405 25.2222,25.1695 24.2112,25.2135 C23.4032,25.2485 22.3062,25.9335 21.6532,26.4125" id="Fill-42" fill="#FFFFFF"></path>
                <path d="M20.1151,26.5375 C20.8921,27.2155 21.8541,26.2135 22.4651,25.7675 C23.0481,25.3445 23.7531,25.1475 24.4661,25.1555 C24.4771,24.4505 24.5541,23.7485 24.5561,23.0425 C24.5571,22.8415 24.9651,22.9105 24.9651,23.0785 C24.9621,23.7825 24.8861,24.4825 24.8741,25.1855 C25.5531,25.2835 26.1671,25.6265 26.7471,25.9775 C27.1541,26.2235 28.8521,27.3605 29.1541,26.5795 C29.2281,26.3885 29.6311,26.5015 29.5591,26.6875 C29.2521,27.4785 28.1291,27.0545 27.5811,26.8055 C26.7251,26.4145 26.0041,25.7715 25.0781,25.5335 C24.5401,25.3955 23.9621,25.4645 23.4451,25.6485 C22.9331,25.8305 22.5311,26.2015 22.1061,26.5245 C21.4591,27.0165 20.5321,27.3365 19.8431,26.7355 C19.6361,26.5555 19.9551,26.3975 20.1151,26.5375" id="Fill-44" fill="#A28E85"></path>
                <path d="M24.9139,23.4027 C24.4069,23.4897 23.7229,22.7167 23.3699,22.3457 C23.0179,21.9737 22.7479,21.4487 22.8989,20.9597 C23.0529,20.4647 23.2229,19.8957 25.0809,19.8966987 C26.2669,19.8987 27.7459,20.5307 27.1739,21.6707 C26.9939,22.0307 25.4209,23.3157 24.9139,23.4027" id="Fill-46" fill="#4E3427"></path>
                <path d="M23.8129,20.8471 C23.6799,20.8531 23.5349,20.8561 23.4269,20.7771 C23.3189,20.6981 23.2929,20.5031 23.4109,20.4421 C24.3129,20.1611 25.2829,20.2501 26.2239,20.3421 C26.3389,20.3541 26.4589,20.3671 26.5559,20.4281 C26.6529,20.4911 26.7189,20.6181 26.6719,20.7251 C25.7189,20.7651 24.7659,20.8061 23.8129,20.8471" id="Fill-48" fill="#7C5646"></path>
                <path d="M27.2777,52.8207 C27.7097,56.6117 28.5527,60.3537 28.8217,64.1597 C29.0527,67.4237 28.8317,70.8047 27.6287,73.8237 C25.9657,71.2597 19.4887,66.3787 17.9107,64.0627 C16.0147,61.2837 10.9607,49.6577 11.5917,42.4547 C11.7637,40.5047 12.1017,38.7667 12.5037,37.1967 C13.3807,37.0707 14.2757,37.0227 15.1567,36.9647 C24.5577,36.3417 26.8857,49.3827 27.2777,52.8207" id="Fill-50" fill="#BB815B"></path>
                <path d="M26.2704,8.2172 C25.9274,8.6982 25.4594,8.7082 25.5414,9.4462 C25.5804,9.9342 25.5704,10.7032 24.9694,10.1322 C24.2374,9.4392 23.9874,8.6982 24.1754,7.7982 C24.8234,7.8172 25.5134,7.8702 26.2504,7.9562 C26.2874,7.9612 26.3244,7.9652 26.3644,7.9692 C26.3544,8.0642 26.3264,8.1482 26.2704,8.2172" id="Fill-52" fill="#000000"></path>
                <path d="M36.66,20.6566 C36.533,20.6706 35.239,20.6986 35.78,20.2466 C36.88,19.3286 37.71,19.0836 38.977,19.0416 C38.909,19.8516 38.8,20.5456 38.666,21.1486 C38.562,21.1296 38.456,21.0926 38.349,21.0326 C37.752,20.6986 37.353,20.5836 36.66,20.6566" id="Fill-54" fill="#000000"></path>
                <path d="M27.4252,12.6898 C27.3842,12.8198 26.9192,14.6178 26.6662,13.8858 C26.0842,12.2108 26.3002,10.7938 27.3332,9.3498 C27.6332,8.9318 27.9452,8.4868 28.3082,8.1008 C28.7852,8.1348 29.3082,8.1788 29.8572,8.2418 C29.6692,8.5658 29.5742,8.9868 29.5072,9.2898 C29.3312,10.1318 29.1362,10.7868 28.4022,11.2908 C27.8802,11.6578 27.6072,12.0708 27.4252,12.6898" id="Fill-56" fill="#000000"></path>
                <path d="M16.868,19.4457 C15.659,19.7747 14.887,19.7087 13.927,19.3207 C13.864,18.6297 13.839,17.9347 13.871,17.2477 C14.324,17.2007 14.754,17.2447 15.029,17.6647 C15.344,18.1447 15.575,18.4437 16.132,18.6477 C16.265,18.6977 17.583,19.2517 16.868,19.4457" id="Fill-58" fill="#000000"></path>
                <path d="M14.7347,21.1898 C15.1437,21.5968 15.4027,21.7668 15.9967,21.7918 C16.1767,21.7978 17.1157,21.9428 16.6197,22.3158 C15.8337,22.9048 15.2707,23.1248 14.5307,23.1168 C14.3937,22.4238 14.2547,21.7088 14.1387,20.9818 C14.3457,20.9558 14.5477,21.0038 14.7347,21.1898" id="Fill-60" fill="#000000"></path>
                <path d="M33.8456,22.4486 C33.9256,22.5286 33.8936,22.4966 33.8556,22.4576 C34.3976,22.9856 35.5126,22.6786 36.1436,22.5916 C36.8666,22.4896 37.5016,22.5576 38.1146,22.9356 C37.7896,23.7276 37.4386,24.2896 37.1666,24.7776 C37.0136,24.7466 36.8596,24.7106 36.7006,24.6696 C35.9096,24.4606 35.0456,24.2846 34.3296,23.8736 C34.0226,23.6976 33.5116,23.3586 33.4736,22.9626 C33.4646,22.8676 33.6266,22.2246 33.8456,22.4486" id="Fill-62" fill="#000000"></path>
                <path d="M33.8553,22.4574 C33.8523,22.4544 33.8483,22.4514 33.8453,22.4484 C33.7563,22.3574 33.8113,22.4124 33.8553,22.4574" id="Fill-64" fill="#000000"></path>
                <path d="M22.9691,9.6049 C22.7251,10.0769 22.6651,10.5089 22.8281,11.0339 C22.8681,11.1729 23.2681,12.6839 22.6861,12.2239 C21.5041,11.2889 20.9781,10.3169 21.0131,8.7839 C21.0191,8.5449 21.0221,8.3029 21.0321,8.0609 C21.5521,7.9419 22.1051,7.8639 22.6961,7.8239 C22.9741,8.4159 23.2601,9.0469 22.9691,9.6049" id="Fill-66" fill="#000000"></path>
                <g id="Group-70" transform="translate(31.000000, 81.337000)">
                    <mask id="mask-l7d_4u5vfq-4" fill="white">
                        <use xlink:href="#path-l7d_4u5vfq-3"></use>
                    </mask>
                    <g id="Clip-69"></g>
                    <path d="M7.1498,31.6517 C6.4918,32.4697 5.9378,33.4737 4.9588,33.8547 C3.5088,34.4187 1.8908,33.2597 1.2198,31.8567 C0.0658,29.4417 0.8488,26.4097 2.6378,24.4187 C4.4258,22.4267 7.0388,21.3487 9.6648,20.8337 C12.2918,20.3177 14.9858,20.3027 17.6538,20.0857 C27.9618,19.2417 37.9898,15.2437 46.0498,8.7637 C47.3728,7.7007 48.6588,6.5557 49.6108,5.1507 C50.5638,3.7457 51.1648,2.0457 50.9918,0.3567 C53.2268,4.2747 52.8238,9.3577 50.6188,13.2927 C48.4128,17.2277 44.6198,20.0927 40.4918,21.9107 C36.3628,23.7277 31.8828,24.5847 27.4248,25.2727 C22.9668,25.9607 18.4668,26.4977 14.1268,27.7237 C11.5158,28.4627 8.8488,29.5367 7.1498,31.6517" id="Fill-68" fill="#4E3427" mask="url(#mask-l7d_4u5vfq-4)"></path>
                </g>
                <path d="M77.5424,93.2338 C77.5414,93.2338 77.5414,93.2338 77.5404,93.2328 C77.5004,93.2128 77.5264,93.2258 77.5424,93.2338" id="Fill-71" fill="#604131"></path>
                <g id="Group-75" transform="translate(31.000000, 105.337000)">
                    <mask id="mask-l7d_4u5vfq-6" fill="white">
                        <use xlink:href="#path-l7d_4u5vfq-5"></use>
                    </mask>
                    <g id="Clip-74"></g>
                    <path d="M4.9584,9.8548 C3.5084,10.4178 1.8904,9.2598 1.2194,7.8568 C0.3494,6.0368 0.5814,3.8648 1.5144,2.0528 C1.8614,1.9968 2.1434,1.8408 2.2814,1.4918 C2.9644,-0.2402 5.8734,1.7928 6.6394,2.4618 C8.3124,3.9238 6.8284,4.5878 7.3184,6.2318 C7.4264,6.5938 7.5174,6.8958 7.5874,7.1518 C7.4364,7.3118 7.2894,7.4778 7.1494,7.6518 C6.4924,8.4698 5.9374,9.4738 4.9584,9.8548" id="Fill-73" fill="#604131" mask="url(#mask-l7d_4u5vfq-6)"></path>
                </g>
                <path d="M52.7802,104.5473 C55.1782,103.0053 55.2322,104.1853 56.9482,104.9503 C59.1602,105.9633 59.5212,104.5143 60.4862,106.2763 C59.8002,106.3943 59.1122,106.5033 58.4252,106.6103 C56.1462,106.9613 53.8562,107.2743 51.5822,107.6583 C51.0462,106.6533 50.7632,105.8403 52.7802,104.5473" id="Fill-76" fill="#604131"></path>
                <path d="M75.2211,95.0326 C76.8111,93.9066 75.8491,92.3986 77.5401,93.2326 C77.5591,93.2426 77.5531,93.2396 77.5421,93.2336 C78.1421,93.5166 78.3451,91.8506 78.9701,92.4616 C79.9111,93.4026 80.1371,94.8626 80.7481,96.0126 C79.2061,98.2176 77.1481,100.0386 74.8441,101.4796 C73.9251,100.9896 72.7031,101.4286 72.4851,99.9386 C72.1041,97.4026 73.5681,96.2286 75.2211,95.0326" id="Fill-78" fill="#604131"></path>
                <path d="M65.8573,101.7934 C65.0223,102.8724 63.9463,104.1384 62.6383,103.2304 C60.3493,101.6954 59.1893,104.2584 58.5433,100.9594 C58.5483,100.9834 58.5503,100.9944 58.5383,100.9324 C58.4563,100.4914 58.1693,100.1464 57.8573,99.8154 C61.1003,98.9434 64.2593,97.7614 67.2773,96.2904 C66.9853,96.5684 66.5233,96.8424 66.8483,96.9354 C67.0803,96.9974 68.0883,96.7774 68.2173,96.9924 C68.1683,96.9274 66.0093,101.5964 65.8573,101.7934" id="Fill-80" fill="#604131"></path>
                <path d="M41.9271,106.9457 C40.1931,106.1607 40.8741,105.6357 40.5531,104.3377 C40.3071,103.3327 39.9381,102.7917 39.6891,102.3887 C40.0131,102.3067 40.3391,102.2347 40.6651,102.1707 C43.2911,101.6547 45.9861,101.6397 48.6541,101.4227 C49.1431,101.3827 49.6331,101.3347 50.1211,101.2807 C50.5851,101.9917 50.8211,102.7207 50.5591,103.2767 C50.3181,103.7887 49.5071,103.6707 49.0791,103.8097 C48.1101,104.1327 49.5681,105.2197 49.2731,105.7497 C48.8961,106.5197 47.0091,105.6887 46.4311,106.3817 C45.2071,107.9297 44.2181,107.9817 41.9271,106.9457" id="Fill-82" fill="#604131"></path>
                <path d="M77.4403,89.7826 C78.6233,88.8076 79.7533,87.7546 80.6113,86.4876 C80.9133,86.0426 81.1803,85.5666 81.3983,85.0716 C82.0303,84.8826 82.6253,84.7136 83.1293,84.5806 C83.6233,86.6066 83.5833,88.7696 83.0943,90.8346 C82.9783,90.8786 82.8773,90.9046 82.7963,90.9076 C81.6493,90.9586 79.2303,90.4886 77.4403,89.7826" id="Fill-84" fill="#604131"></path>
                <path d="M76.3905,96.6557 C76.3775,96.6667 76.3685,96.6747 76.3635,96.6787 C76.3695,96.6747 76.3785,96.6657 76.3905,96.6557" id="Fill-86" fill="#28170F"></path>
                <path d="M76.411,96.6381 C76.42,96.6311 76.43,96.6221 76.439,96.6151 C76.429,96.6231 76.419,96.6311 76.411,96.6381" id="Fill-88" fill="#28170F"></path>
                <path d="M76.3632,96.6791 C76.3612,96.6801 76.3602,96.6821 76.3592,96.6821 C76.3602,96.6821 76.3612,96.6801 76.3632,96.6791" id="Fill-90" fill="#28170F"></path>
                <path d="M76.3588,96.682 C76.3568,96.685 76.3568,96.685 76.3588,96.682" id="Fill-92" fill="#28170F"></path>
                <path d="M71.287,99.5746 C72.163,98.1386 74.591,99.5816 75.809,100.8426 C74.586,101.6926 73.277,102.4286 71.927,103.0516 C71.276,101.6726 70.859,100.2776 71.287,99.5746" id="Fill-94" fill="#28170F"></path>
                <path d="M35.6234,113.0414 C35.6274,113.0374 35.6314,113.0344 35.6334,113.0334 C35.6304,113.0354 35.6274,113.0374 35.6234,113.0414" id="Fill-96" fill="#28170F"></path>
                <path d="M36.2899,110.2084 C35.2299,111.0024 32.9639,110.9394 31.6989,110.1834 C31.8309,108.5704 32.5469,106.9704 33.6379,105.7554 C33.6509,105.7404 33.6649,105.7264 33.6779,105.7114 C35.6779,107.0564 37.7049,109.1474 36.2899,110.2084" id="Fill-98" fill="#28170F"></path>
                <path d="M35.6332,113.0336 C35.6372,113.0296 35.6382,113.0286 35.6332,113.0336" id="Fill-100" fill="#28170F"></path>
                <path d="M81.6184,94.6293 C81.8684,94.1853 82.0934,93.7243 82.2944,93.2533 C81.5544,93.0863 80.6994,93.1073 80.0784,93.2373 C80.0624,93.0583 80.0384,92.8643 80.0044,92.6543 C79.8024,91.4043 77.7314,90.8553 76.2394,90.7383 C75.3724,91.4063 74.4834,92.0473 73.5754,92.6593 C73.3394,94.8493 74.8494,97.9513 76.4394,96.6143 C76.4684,96.5903 76.4974,96.5663 76.5114,96.5543 C76.4994,96.5643 76.4774,96.5823 76.4394,96.6143 C77.3224,95.8713 78.2844,95.7473 78.9994,95.4603 C79.1764,96.0373 79.4994,96.6393 79.8784,97.1513 C80.5304,96.3663 81.1164,95.5253 81.6184,94.6293" id="Fill-102" fill="#28170F"></path>
                <path d="M76.411,96.6381 C76.404,96.6451 76.397,96.6511 76.39,96.6561 C76.396,96.6511 76.403,96.6451 76.411,96.6381" id="Fill-104" fill="#28170F"></path>
                <g id="Group-108" transform="translate(33.000000, 112.337000)">
                    <mask id="mask-l7d_4u5vfq-8" fill="white">
                        <use xlink:href="#path-l7d_4u5vfq-7"></use>
                    </mask>
                    <g id="Clip-107"></g>
                    <path d="M0.0415,2.0047 C0.8395,2.7957 1.9405,3.2507 2.9585,2.8547 C3.8065,2.5247 4.3355,1.7277 4.8895,0.9887 C4.3645,0.2207 3.5285,-0.0943 2.5585,0.7617 C2.5915,0.7327 2.6115,0.7147 2.6235,0.7047 C2.6085,0.7167 2.5835,0.7397 2.5585,0.7617 C1.7685,1.4597 0.7655,1.6407 0.0415,2.0047" id="Fill-106" fill="#28170F" mask="url(#mask-l7d_4u5vfq-8)"></path>
                </g>
                <path d="M43.8446,109.4535 C42.4056,109.9335 41.0006,110.5515 39.8026,111.4265 C39.4156,110.6005 39.2306,109.8325 39.4596,109.3975 C40.1346,108.1225 42.5896,108.6175 43.8446,109.4535" id="Fill-109" fill="#28170F"></path>
                <path d="M54.2606,103.4604 C54.2656,103.4544 54.2716,103.4454 54.2796,103.4364 C54.2726,103.4454 54.2656,103.4534 54.2606,103.4604" id="Fill-111" fill="#28170F"></path>
                <path d="M69.0702,98.3285 C69.0682,98.3305 69.0682,98.3305 69.0702,98.3285" id="Fill-113" fill="#28170F"></path>
                <path d="M72.4969,94.5063 C73.2539,97.6083 70.7889,96.8243 69.1469,98.2613 C69.1979,98.2163 69.2209,98.1963 69.2249,98.1933 C69.2199,98.1973 69.1839,98.2293 69.1469,98.2613 C67.7719,99.4643 66.6509,98.2423 66.3249,96.7423 C68.2179,95.8663 70.0589,94.8773 71.8339,93.7823 C72.1739,93.9483 72.4179,94.1833 72.4969,94.5063" id="Fill-115" fill="#28170F"></path>
                <path d="M69.0702,98.3285 C69.0772,98.3215 69.1122,98.2915 69.1472,98.2615 L69.1472,98.2615 C69.0982,98.3045 69.0752,98.3235 69.0702,98.3285" id="Fill-117" fill="#28170F"></path>
                <path d="M57.181,106.7982 C56.417,104.5852 57.406,104.0892 58.502,102.6252 C59.687,101.0422 61.736,104.9572 62.504,105.9092 C61.149,106.1732 59.786,106.4002 58.425,106.6102 C58.011,106.6732 57.596,106.7362 57.181,106.7982" id="Fill-119" fill="#28170F"></path>
                <path d="M65.8802,103.4291 C65.9082,103.3651 65.9482,103.2751 65.9102,103.3631 C66.4102,102.2331 67.9362,102.9701 68.9922,104.2221 C67.3402,104.7921 65.6472,105.2411 63.9332,105.6151 C64.4952,104.9281 65.4222,104.4181 65.8802,103.4291" id="Fill-121" fill="#28170F"></path>
                <path d="M35.183,105.3588 C34.995,105.1148 34.863,104.8938 34.776,104.6898 C36.079,103.6588 37.641,102.9578 39.267,102.5028 C39.977,103.2198 40.303,104.1088 39.603,104.9888 C39.095,105.6308 35.712,106.0778 35.183,105.3588" id="Fill-123" fill="#28170F"></path>
                <path d="M42.4911,104.5365 C41.6691,103.1915 42.1081,102.6235 42.5791,101.8755 C43.8141,101.7285 45.0591,101.6535 46.3041,101.5795 C47.3321,102.5045 47.9921,103.7355 47.0301,104.7855 C46.3891,105.4865 42.9851,105.3795 42.4911,104.5365" id="Fill-125" fill="#28170F"></path>
                <path d="M66.5013,100.9457 C65.6663,101.6157 63.1803,102.3477 62.2953,101.3317 C60.9253,99.7587 61.3813,99.2797 61.9783,98.5247 C63.0163,98.1517 64.0433,97.7477 65.0553,97.3097 C66.4113,98.2827 67.6423,100.0307 66.5013,100.9457" id="Fill-127" fill="#28170F"></path>
                <path d="M51.4843,105.2475 C52.4023,105.6715 53.5543,106.3775 54.4043,107.2115 C52.8463,107.4455 51.2913,107.6935 49.7463,107.9885 C49.3893,105.8155 49.4403,104.3055 51.4843,105.2475" id="Fill-129" fill="#28170F"></path>
                <path d="M54.2474,103.4779 C54.2484,103.4759 54.2494,103.4749 54.2504,103.4729 C54.2494,103.4749 54.2484,103.4759 54.2474,103.4779" id="Fill-131" fill="#28170F"></path>
                <path d="M54.2509,103.473 C54.2539,103.469 54.2569,103.465 54.2609,103.46 C54.2569,103.465 54.2529,103.47 54.2509,103.473" id="Fill-133" fill="#28170F"></path>
                <path d="M54.2474,103.4779 C54.2414,103.4859 54.2424,103.4839 54.2474,103.4779" id="Fill-135" fill="#28170F"></path>
                <path d="M54.3319,103.3688 C54.3259,103.3768 54.3199,103.3848 54.3119,103.3938 C55.7349,101.5678 57.6339,102.1048 57.4439,99.9248 C55.3979,100.4578 53.3189,100.8668 51.2239,101.1458 C52.0879,102.9618 53.5319,104.3958 54.3119,103.3938 C54.3189,103.3848 54.3259,103.3768 54.3319,103.3688" id="Fill-137" fill="#28170F"></path>
                <path d="M54.2797,103.4359 C54.2847,103.4299 54.2897,103.4229 54.2957,103.4149 C54.2897,103.4229 54.2847,103.4299 54.2797,103.4359" id="Fill-139" fill="#28170F"></path>
                <path d="M54.3124,103.3939 L54.3114,103.3959 L54.3124,103.3939 Z" id="Fill-141" fill="#28170F"></path>
                <path d="M54.2953,103.4154 C54.3003,103.4094 54.3053,103.4024 54.3113,103.3954 C54.3063,103.4024 54.3003,103.4094 54.2953,103.4154" id="Fill-143" fill="#28170F"></path>
                <path d="M49.3617,67.8002 C50.3717,67.0822 50.5137,65.7182 50.7967,64.6052 C51.1257,63.3592 51.5347,62.1432 52.1977,61.0312 C53.3817,59.0352 55.7647,56.9882 58.2577,57.8082 C60.2237,58.4542 61.4477,60.2802 63.5587,60.6652 C65.0907,60.9452 66.7117,60.8822 68.1777,61.4612 C68.9707,61.7752 69.8257,62.2972 69.4627,63.2852 C69.1337,64.1812 67.5587,64.6362 66.7967,65.0872 C65.0157,66.1502 63.2747,67.6362 61.2367,68.1662 C60.1607,68.4462 59.0617,68.3982 57.9607,68.4552 C57.0147,68.5022 56.2637,69.0932 55.3587,69.1542 C54.3607,69.2222 53.2457,69.1422 52.2497,69.0532 C52.0067,69.0302 48.6087,68.3272 49.3617,67.8002 C49.7067,67.5542 49.2747,67.8612 49.3617,67.8002" id="Fill-145" fill="#976E52"></path>
                <path d="M65.0155,57.6664 C65.2985,55.2284 60.3105,56.4794 59.2385,56.6844 C58.3215,56.8594 57.0805,57.0954 56.4835,56.1634 C55.7475,55.0344 55.8605,53.4824 54.7015,52.6064 C53.4385,51.6304 49.9735,52.8854 49.4325,51.1764 C49.0875,50.0844 50.0005,49.2994 50.6835,48.5794 C51.5925,47.6214 52.6345,46.7744 53.8145,46.1734 C57.9315,44.0744 61.5695,46.5484 64.8515,48.9274 C66.2725,49.9574 67.6795,51.1824 68.1205,52.9594 C68.3695,53.9654 68.3345,55.1544 67.6945,56.0094 C67.3355,56.4874 66.8715,56.8894 66.3835,57.2284 C66.3075,57.2804 64.9555,58.1354 65.0155,57.6664 C65.0975,56.9664 64.9935,57.8414 65.0155,57.6664" id="Fill-147" fill="#976E52"></path>
                <path d="M48.556,42.6156 C46.698,41.4736 45.895,46.5556 45.637,47.5126 C45.366,48.5196 45.013,49.1986 43.894,48.7606 C42.984,48.4026 41.682,47.6776 40.798,48.4696 C39.994,49.2616 40.408,51.0426 38.987,51.1476 C36.944,51.2996 35.66,48.5076 35.284,46.8246 C34.915,45.2076 35.181,43.4456 36.145,42.0806 C37.481,40.1846 39.643,39.3836 41.675,38.4786 C43.656,37.5966 46.034,37.1166 47.559,39.1326 C48.064,39.7996 48.378,40.6376 48.589,41.4416 C48.611,41.5256 48.892,42.8236 48.556,42.6156 C47.995,42.2716 49.115,42.9616 48.556,42.6156" id="Fill-149" fill="#976E52"></path>
                <path d="M37.0458,37.0512 C35.4638,36.3662 33.6688,39.8362 32.7478,40.7492 C31.2938,42.1912 29.0258,43.2062 27.3938,41.4332 C26.1158,40.0172 25.6158,38.5112 23.7658,37.6552 C22.7058,37.1842 18.7748,35.6712 20.8848,34.0532 C21.6168,33.4902 22.9498,33.4152 23.8198,33.0852 C24.7718,32.7242 25.6908,32.2822 26.6138,31.8542 C28.1088,31.1932 29.0278,31.2512 30.5898,31.6252 C31.9308,31.9962 33.1488,31.5332 34.3718,32.3692 C35.1458,32.8992 35.8108,33.5432 36.2938,34.3492 C36.4498,34.6122 37.4788,37.2412 37.0458,37.0512 C36.8878,36.9832 37.2048,37.1212 37.0458,37.0512" id="Fill-151" fill="#976E52"></path>
                <path d="M56.9989,77.559 C57.6999,77.92 58.9309,78.295 59.2919,79.041 C59.6769,79.867 58.5119,80.913 58.1209,81.574 C57.0989,83.298 58.4419,84.034 59.4169,85.194 C61.0309,87.116 57.9269,87.756 56.5679,87.849 C54.7389,87.972 52.5459,87.74 51.0999,86.48 C49.6749,85.273 49.1079,83.512 48.7919,81.735 C48.4799,79.737 47.7859,77.218 48.9189,75.345 C49.4839,74.413 50.4719,73.652 51.5799,73.564 C52.1739,73.517 52.7779,73.581 53.3609,73.693 C53.4359,73.707 56.2609,77.179 56.9989,77.559" id="Fill-153" fill="#976E52"></path>
                <path d="M74.7699,71.7211 C73.7549,73.2721 78.1239,75.2731 78.9779,76.0971 C80.7529,77.8091 80.6649,79.9381 78.8049,81.4821 C78.1139,82.0621 77.3409,82.5601 76.7699,83.2701 C76.1219,84.0761 75.8009,85.0641 75.3289,85.9711 C74.9009,86.7931 73.5159,88.9551 72.3169,88.1451 C71.3889,87.5181 71.7099,86.1581 71.5149,85.2041 C71.3179,84.2461 70.9339,83.3451 70.4589,82.4931 C70.0559,81.7771 69.3509,80.9661 69.2989,80.1091 C69.2329,79.5911 69.4139,79.0551 69.4839,78.5461 C69.7369,77.0541 69.0879,75.6721 69.8199,74.2381 C70.2969,73.3021 71.0309,72.5451 71.9939,72.1211 C72.2979,71.9881 74.9929,71.3791 74.7699,71.7211 C74.4009,72.2841 74.9539,71.4401 74.7699,71.7211" id="Fill-155" fill="#976E52"></path>
                <path d="M59.286,80.4623 C57.402,80.1923 55.356,78.8903 56.165,76.7283 C56.822,75.0273 58.067,73.9533 57.892,71.9853 C57.824,70.7453 57.79,67.8473 59.86,68.9163 C60.631,69.3143 61.216,70.2223 61.903,70.7643 C62.674,71.3733 63.513,71.8783 64.377,72.3423 C64.984,72.6643 65.848,72.9673 66.024,73.7093 C66.089,74.0413 66.085,74.3753 66.228,74.6913 C66.664,75.5003 66.773,75.9093 66.571,76.8823 C66.383,77.7853 66.128,78.6283 65.72,79.4573 C65.498,79.9073 60.363,80.6163 59.286,80.4623" id="Fill-157" fill="#976E52"></path>
                <path d="M49.9633,76.3412 C49.3053,76.6062 49.1453,76.8932 49.0283,77.5732 C48.9493,78.0312 48.5393,78.4682 48.1363,77.9792 C47.6603,77.4012 47.0353,76.7472 46.8803,75.9872 C46.7403,75.2962 47.1963,74.6532 47.4053,74.0242 C47.5933,73.4572 47.9303,73.1062 48.5303,72.9872 C48.8273,72.9282 49.8023,73.3792 49.8083,73.3762 C49.7763,73.3902 49.7613,73.3962 49.7553,73.3992 C49.7633,73.3952 49.7853,73.3862 49.8083,73.3762 C48.9103,73.7432 51.6523,75.6612 49.9633,76.3412" id="Fill-159" fill="#000000"></path>
                <path d="M27.226,60.5258 C28.405,61.1198 30.073,58.7448 31.462,58.9058 C32.396,59.0138 32.973,59.9628 33.909,60.1528 C34.283,60.2288 36.909,60.2818 36.444,61.1098 C36.101,61.7198 34.247,62.2778 33.593,62.4618 C32.48,62.7858 31.346,62.4838 30.219,62.4528 C29.625,62.4308 29.029,62.4958 28.444,62.3598 C28.002,62.2558 27.439,62.0378 27.208,61.6138 C27.163,61.5318 26.882,60.3578 27.225,60.5248 C27.195,60.5098 27.181,60.5028 27.226,60.5258" id="Fill-161" fill="#000000"></path>
                <path d="M15.8529,28.8871 C15.8529,28.8831 15.8509,28.8811 15.8509,28.8771 C15.8339,28.7991 15.8449,28.8491 15.8529,28.8871" id="Fill-163" fill="#000000"></path>
                <path d="M35.6532,49.6166 C35.8702,49.8946 36.1092,50.3046 36.0552,50.6796 C36.0412,50.7756 35.5242,51.8576 35.3742,51.5336 C35.3452,51.4736 35.3552,51.4946 35.3682,51.5236 C34.7602,50.2856 32.0812,51.9286 31.0982,51.2086 C30.3272,50.6646 30.1582,49.9066 29.0982,49.7936 C28.7082,49.7516 26.8072,49.9586 27.0272,49.1686 C27.2422,48.3926 29.1292,47.6986 29.8142,47.5536 C30.9872,47.3176 32.1102,47.7316 33.1792,48.1756 C34.0422,48.5336 35.0612,48.8416 35.6532,49.6166" id="Fill-165" fill="#000000"></path>
                <path d="M27.7689,90.8793 C28.9599,90.6513 30.1869,90.4153 31.4039,90.5233 C31.1559,91.2353 30.8769,92.0103 30.5729,92.7793 C30.3179,92.6313 30.0389,92.5023 29.7169,92.3923 C29.4579,92.3043 26.4439,91.1313 27.7689,90.8793" id="Fill-167" fill="#000000"></path>
                <path d="M52.974,66.1469 C52.977,66.1489 52.981,66.1509 52.985,66.1539 C53.029,66.1909 52.994,66.1629 52.974,66.1469" id="Fill-169" fill="#000000"></path>
                <path d="M35.3685,51.5238 C35.3695,51.5268 35.3715,51.5298 35.3735,51.5338 C35.4085,51.6068 35.3855,51.5588 35.3685,51.5238" id="Fill-171" fill="#000000"></path>
                <path d="M23.8163,32.351 C23.5623,33.161 21.6053,33.696 20.8523,33.774 C19.8193,33.866 18.8713,33.494 17.9863,32.996 C17.0433,32.464 15.9053,31.876 15.2983,30.948 C15.0573,30.58 14.8053,29.99 14.9813,29.541 C15.0183,29.448 15.7783,28.523 15.8503,28.877 C15.8643,28.944 15.8593,28.919 15.8533,28.887 C16.1313,30.119 18.5763,29.405 19.4373,29.683 C20.2703,29.956 20.3993,30.944 21.1153,31.376 C21.5613,31.64 24.0573,31.584 23.8163,32.351" id="Fill-173" fill="#000000"></path>
                <path d="M26.4095,69.6361 C26.4085,69.6341 26.4085,69.6341 26.4095,69.6361" id="Fill-175" fill="#000000"></path>
                <path d="M23.3925,43.8705 C24.0915,43.9705 24.7175,43.2315 25.1605,42.8015 C25.8255,42.1325 26.5225,41.3815 27.4755,41.1495 C28.3645,40.9335 29.0855,41.4355 29.9095,41.6535 C30.8905,41.9135 33.0365,41.1035 33.7875,41.8575 C34.2485,42.3195 32.7965,42.9875 32.4895,43.1885 C31.3625,43.9435 30.2335,44.4455 28.8795,44.6175 C27.6575,44.7915 26.4045,45.2195 25.1785,45.2855 C24.6975,45.3115 24.0095,45.2915 23.6345,44.9375 C23.5505,44.8575 22.9545,43.8215 23.3865,43.8705 C23.3465,43.8645 23.3115,43.8595 23.3925,43.8705" id="Fill-177" fill="#000000"></path>
                <path d="M52.4525,68.0551 C52.0605,67.9841 51.4785,67.8271 51.4105,68.3981 C51.3005,69.0671 50.9295,69.1871 50.3475,68.7421 C48.8705,67.6111 49.2455,66.2351 50.5455,65.1961 C51.0205,64.7861 51.6095,64.4141 52.2465,64.7111 C52.5535,64.8621 52.7175,65.0801 52.8415,65.3911 C52.8605,65.4401 53.0185,66.1821 52.9845,66.1541 C52.9535,66.1291 52.9605,66.1351 52.9735,66.1471 C52.5195,65.8041 52.5935,66.9771 52.6205,67.1321 C52.6775,67.4421 53.0305,68.1591 52.4525,68.0551" id="Fill-179" fill="#000000"></path>
                <path d="M49.8422,73.3627 C49.8492,73.3597 49.8552,73.3577 49.8592,73.3557 C49.8552,73.3577 49.8492,73.3597 49.8422,73.3627" id="Fill-181" fill="#000000"></path>
                <path d="M49.8593,73.3558 C49.8683,73.3518 49.8673,73.3528 49.8593,73.3558" id="Fill-183" fill="#000000"></path>
                <path d="M29.1957,83.5023 C29.0947,83.0423 30.9217,82.7753 31.2747,82.6973 C32.5297,82.4473 33.6897,82.4553 34.8177,82.6283 C34.4077,83.4583 34.0237,84.2463 33.6877,84.9423 C32.7947,84.5473 31.8207,84.3973 30.8157,84.1913 C30.4237,84.1183 29.3097,84.0213 29.1957,83.5023" id="Fill-185" fill="#000000"></path>
                <path d="M34.6786,76.1556 C35.9536,74.8596 37.1536,74.8866 38.7956,75.0886 C38.2636,75.9746 37.6446,77.1046 37.0046,78.3226 C36.8516,78.2136 36.6946,78.0706 36.5246,77.9036 C35.6386,77.0316 32.8296,78.0356 34.6786,76.1556" id="Fill-187" fill="#000000"></path>
                <path d="M26.4637,69.6918 C26.4397,69.6678 26.4157,69.6418 26.4097,69.6358 C26.4137,69.6398 26.4287,69.6558 26.4637,69.6918 C26.9827,70.2228 28.0267,69.4818 28.4987,69.2248 C29.4237,68.7208 30.2277,68.5078 31.0237,69.3328 C31.6667,69.9988 32.2347,70.1418 33.1367,70.1908 C34.0117,70.2378 34.8567,70.5988 33.8387,71.3048 C33.1237,71.7998 32.3527,72.3228 31.4817,72.4828 C30.4067,72.6808 29.3077,72.2548 28.2557,72.0858 C27.4687,71.9578 26.7247,71.7208 26.2747,71.0138 C26.1217,70.7728 26.2837,69.5068 26.4637,69.6918" id="Fill-189" fill="#000000"></path>
                <path d="M49.8422,73.3627 C49.8322,73.3667 49.8202,73.3717 49.8082,73.3767 C49.8232,73.3707 49.8332,73.3667 49.8422,73.3627" id="Fill-191" fill="#000000"></path>
                <path d="M60.2958,70.5131 C60.2978,70.5141 60.2988,70.5141 60.3008,70.5151 C60.3338,70.5321 60.3188,70.5251 60.2958,70.5131" id="Fill-193" fill="#000000"></path>
                <path d="M55.9525,63.8646 C55.5675,63.3196 55.9695,62.0256 56.2295,61.5026 C56.6685,60.5906 57.6425,60.2376 58.5775,60.0956 C59.4065,59.9696 60.5145,59.7476 61.2515,60.2756 C61.6475,60.5506 61.8715,60.9306 61.8205,61.4156 C61.8195,61.4286 61.6205,62.3006 61.5125,62.1386 C61.4845,62.1006 61.4905,62.1086 61.5015,62.1266 C60.8455,61.2346 59.7425,63.8606 59.0225,63.6476 C58.4175,63.4886 58.0005,62.8926 57.3495,63.3436 C56.9985,63.5856 56.3805,64.4686 55.9525,63.8646" id="Fill-195" fill="#000000"></path>
                <path d="M69.4437,56.7601 C69.4437,56.7631 69.4437,56.7631 69.4437,56.7601" id="Fill-197" fill="#000000"></path>
                <path d="M57.8241,69.6058 C58.3101,69.2738 58.7711,68.9388 59.3861,69.1818 C59.6941,69.3038 59.8861,69.4968 60.0531,69.7768 C60.0691,69.8038 60.3861,70.5568 60.3011,70.5148 C60.1821,70.4578 60.2541,70.4928 60.2961,70.5128 C59.7161,70.2388 59.8321,71.7328 59.8411,71.9598 C59.8611,72.5728 59.7171,72.8368 59.0631,72.6868 C58.3821,72.5288 58.1981,72.7508 57.8541,73.3238 C57.4101,74.1338 56.8711,73.0758 56.7161,72.6998 C56.1091,71.2318 56.6241,70.4488 57.8241,69.6058" id="Fill-199" fill="#000000"></path>
                <path d="M70.1747,55.5853 C70.1747,55.8703 69.4537,56.8073 69.4297,56.6943 C69.4357,56.7233 69.4427,56.7523 69.4437,56.7603 C69.4427,56.7543 69.4387,56.7343 69.4297,56.6943 C69.1807,55.4953 66.3577,57.5403 65.9617,55.5793 C65.8057,54.8133 65.5027,54.5093 64.8247,54.1583 C64.4647,53.9723 63.6717,53.2913 64.4837,53.0533 C65.2987,52.8143 66.2177,52.4913 67.0777,52.6523 C67.8337,52.7943 68.3577,53.3793 68.9497,53.8163 C69.5927,54.2933 70.1747,54.7043 70.1747,55.5853" id="Fill-201" fill="#000000"></path>
                <path d="M61.5018,62.1264 C61.5048,62.1304 61.5088,62.1354 61.5118,62.1394 C61.5508,62.1974 61.5198,62.1514 61.5018,62.1264" id="Fill-203" fill="#000000"></path>
                <path d="M58.7806,45.5824 C58.9986,46.2414 60.3296,45.5424 60.7026,45.4264 C61.6926,45.1164 61.9836,45.5464 62.2896,46.3974 C62.5996,47.2554 65.2556,47.6604 63.5186,48.4984 C62.8896,48.8024 62.1856,49.1534 61.4686,49.1404 C60.6486,49.1234 59.9726,48.5174 59.2746,48.1624 C58.6896,47.8654 58.2816,47.4654 58.2026,46.7864 C58.1686,46.5004 58.7556,45.5054 58.7806,45.5824 C58.7626,45.5274 58.7436,45.4724 58.7806,45.5824" id="Fill-205" fill="#000000"></path>
                <path d="M65.7123,64.1058 C66.5003,64.5588 67.7793,63.9768 68.5703,63.8088 C69.7013,63.5858 71.0383,63.5118 71.9073,64.4208 C72.5483,65.0918 72.8953,65.9588 73.6153,66.5718 C74.2143,67.0668 75.8723,68.0378 75.8574011,68.9608 C75.8463,69.7068 70.9273,67.8768 70.6203,67.7318 C69.4973,67.1658 68.4233,66.7498 67.2433,66.3328 C66.6673,66.1508 66.1103,65.8638 65.6723,65.4408 C65.4663,65.2428 65.2753,63.8598 65.7113,64.1048 C65.6753,64.0848 65.6083,64.0458 65.7123,64.1058" id="Fill-207" fill="#000000"></path>
                <path d="M15.0687,33.6849 C16.0427,33.8009 17.0707,34.1969 15.7287,34.9249 C14.7827,35.4389 13.8597,35.6479 12.9557,35.5709 C13.1997,34.7539 13.4517,33.9849 13.6947,33.2559 C14.0907,33.5229 14.5787,33.6119 15.0687,33.6849" id="Fill-209" fill="#000000"></path>
                <path d="M59.5736,92.5209 C59.6236,91.9759 60.2906,91.0839 60.5636,90.5889 C60.8856,90.0219 61.2446,89.7779 61.8176,89.4869 C62.4116,89.1849 62.7396,88.6629 63.4566,88.6529 C63.7816,88.6409 64.0496,88.7079 64.3346,88.8629 C64.3426,88.8669 65.0806,89.3589 64.8906,89.4139 C64.9186,89.4089 64.9406,89.4039 64.8846,89.4159 C63.5846,89.6799 65.2546,93.2289 62.7166,92.6539 C62.0746,92.4979 61.5946,92.4729 60.9696,92.7399 C60.6176,92.8999 59.5036,93.2799 59.5736,92.5209" id="Fill-211" fill="#000000"></path>
                <path d="M24.3153,87.1684 C24.5983,86.4294 24.8853,85.6414 25.1693,84.8334 C25.6523,85.0244 26.1573,85.1724 26.6923,85.3234 C27.2933,85.4924 30.1153,86.5394 28.1523,86.8084 C27.0113,86.9644 25.8663,87.1774 24.7103,87.1764 C24.5783,87.1784 24.4463,87.1744 24.3153,87.1684" id="Fill-213" fill="#000000"></path>
                <path d="M75.0985,77.4828 C73.9185,77.1578 72.6985,76.9758 71.5935,76.4208 C70.4715,75.8608 69.4015,75.5338 68.1995,75.2438 C67.7385,75.1388 67.2835,75.0098 66.8745,74.7658 C66.5285,74.5838 66.2765,74.3758 66.1615,73.9918 C66.1335,73.8968 65.9955,73.0648 66.3505,73.2008 C66.3115,73.1858 66.2425,73.1578 66.3525,73.2018 C67.2665,73.5688 68.6145,72.7178 69.4755,72.4908 C70.7485,72.1548 72.0415,72.2858 72.9155,73.3568 C73.4955,74.0828 73.9635,74.7518 74.6795,75.3588 C75.2525,75.8458 75.9385,76.2948 76.3215,76.9618 C77.0425,78.1718 75.7255,77.6578 75.0985,77.4828" id="Fill-215" fill="#000000"></path>
                <path d="M68.6395,81.2445 C69.3585,81.8685 70.9415,81.3485 71.8195,81.4775 C72.7315,81.6065 73.6575,82.0965 73.9655,83.0175 C74.2075,83.7425 74.0795,84.5345 74.2525,85.2765 C74.4325,86.0505 75.2975,87.8015 74.5945,88.4745 C74.1305,88.9145 71.2465,85.1605 70.7735,84.6495 C70.3135,84.0895 69.6565,83.8335 69.1155,83.3765 C68.7945,83.1045 68.4125,82.7135 68.3185,82.2885 C68.2975,82.1945 68.3105,81.0165 68.6235,81.2335 C68.6075,81.2195 68.6055,81.2175 68.6395,81.2445" id="Fill-217" fill="#000000"></path>
                <path d="M39.9252,42.2445 C40.9302,42.3585 41.6932,42.7895 42.5352,43.3215 C43.2562,43.7785 44.1472,44.0505 44.7542,44.6665 C45.0212,44.9375 45.2992,45.3245 45.3032,45.7225 C45.3032,45.8105 45.0062,46.9755 44.8012,46.6885 C44.8202,46.7155 44.8282,46.7265 44.8002,46.6875 C44.1612,45.7655 41.7912,46.8905 40.8002,46.4875 C39.9102,46.1265 39.8762,45.0975 39.2702,44.4665 C38.8892,44.0695 36.8182,43.2135 37.1352,42.5115 C37.3712,41.9905 39.4262,42.1965 39.9252,42.2445" id="Fill-219" fill="#000000"></path>
                <path d="M48.9047,51.183 C49.4077,51.363 49.8677,51.657 50.2237,52.058 C50.3917,52.248 50.5367,53.621 50.1797,53.394 C50.2107,53.414 50.2697,53.453 50.1777,53.393 C49.5677,52.995 48.5247,53.457 47.9127,53.63 C47.0957,53.862 46.0867,54.047 45.2917,53.638 C44.4927,53.246 44.2537,52.452 43.8077,51.751 C43.1757,50.761 41.9677,50.262 41.4597,49.176 C41.0267,48.249 42.3307,48.738 42.7667,48.844 C44.0487,49.155 45.2677,49.377 46.4017,50.088 C47.2187,50.564 48.0377,50.835 48.9047,51.183" id="Fill-221" fill="#000000"></path>
                <path d="M26.8265,79.7523 C27.1175,78.7843 27.3705,77.8853 27.5685,77.1173 C28.4015,76.8383 29.2855,76.5703 29.8085,77.3143 C30.3155,78.0363 30.5645,78.5373 31.4685,78.7833 C31.7695,78.8653 33.5625,79.4653 32.5355,79.9273 C31.6605,80.3213 30.7115,80.7913 29.7275,80.7733 C28.8105,80.7583 28.0235,80.2533 27.2045,79.9103 C27.0775,79.8573 26.9515,79.8063 26.8265,79.7523" id="Fill-223" fill="#000000"></path>
                <path d="M33.2064,32.2523 C33.7864,32.0733 34.3964,31.9543 35.0064,31.9913 C35.3754,32.0153 36.3094,33.0363 35.7114,33.1293 C35.7614,33.1233 35.8024,33.1173 35.7034,33.1313 C34.5054,33.2843 33.5734,34.7853 32.7964,35.5753 C31.7484,36.6413 30.5354,37.3763 28.9994,37.2323 C27.6644,37.1063 26.5654,37.0523 25.2324,37.3323 C24.5944,37.4753 23.9284,37.5833 23.2734,37.5913335 C22.9614,37.5943 21.7444,37.3963 22.5444,36.9023 C23.5964,36.2523 24.6154,35.5513 25.7034,34.9623 C26.8554,34.3393 28.1244,34.0143 29.3764,33.6583 C30.6934,33.2843 31.9034,32.6533 33.2064,32.2523" id="Fill-225" fill="#000000"></path>
                <path d="M37.9789,35.1107 C37.9789,35.1087 37.9779,35.1067 37.9779,35.1057 C37.9659,35.0587 37.9709,35.0787 37.9789,35.1107" id="Fill-227" fill="#000000"></path>
                <path d="M39.3602,58.5521 L39.3622,58.5561 L39.3602,58.5521 Z" id="Fill-229" fill="#000000"></path>
                <path d="M57.0931,49.2621 C57.1761,49.7151 57.0801,50.1271 56.7541,50.4561 C56.7451,50.4651 56.0471,51.0321 56.0601,50.8271 C56.0691,50.6721 56.0631,50.7711 56.0601,50.8241 C56.1051,49.9951 54.2591,50.3251 53.8171,50.2881 C53.0241,50.2191 52.9921,49.6761 52.8731,49.0141 C52.7161,48.1451 50.0051,47.5331 51.6901,46.8071 C53.3961,46.0721 54.5311,46.3501 55.8411,47.6031 C56.3331,48.0651 56.9631,48.5591 57.0931,49.2621" id="Fill-231" fill="#000000"></path>
                <path d="M59.202,79.3051 C59.211,79.3001 59.21,79.3011 59.202,79.3051" id="Fill-233" fill="#000000"></path>
                <path d="M41.974,36.2933 C42.378,37.0743 42.568,37.6283 43.501,37.8953 C43.785,37.9813 45.632,38.6063 44.607,39.0623 C42.509,39.9983 41.087,39.8713 39.204,38.5843 C38.486,38.1033 37.605,37.6153 37.276,36.7663 C37.117,36.3553 37.085,35.9543 37.33,35.5713 C37.346,35.5483 37.913,34.8383 37.977,35.1063 C38.02,35.2783 37.994,35.1703 37.979,35.1103 C38.323,36.4823 41.233,34.8593 41.974,36.2933" id="Fill-235" fill="#000000"></path>
                <path d="M57.9545,83.559 C57.4975,83.173 56.9495,82.739 56.7155,82.168 C56.4575,81.542 56.8005,80.771 56.9215,80.147 C57.0305,79.585 57.4735,79.163 58.0545,79.109 C58.2075,79.094 59.2035,79.305 59.1555,79.331 C59.1745,79.321 59.1925,79.311 59.2025,79.305 C59.1945,79.31 59.1805,79.318 59.1555,79.331 C58.3625,79.784 61.1675,81.148 60.0455,81.915 C59.4695,82.309 59.0745,82.441 59.0955,83.23 C59.1205,84.168 58.5035,84.022 57.9545,83.559" id="Fill-237" fill="#000000"></path>
                <path d="M53.8714,41.7638 C53.2694,41.6358 53.0854,41.4548 52.9474,40.8428 C52.5744,39.1908 50.6274,41.7588 50.4484,40.9818 C50.4254,40.8828 50.4374,40.9318 50.4484,40.9818 C50.4494,40.9848 50.0194,41.8328 49.9904,42.0068 C49.9044,42.5318 50.1134,43.0678 50.6084,43.2928 C51.1154,43.5218 51.7094,43.9908 52.2954,43.8588 C52.8634,43.7308 53.3594,43.2738 53.7894,42.9118 C54.1864,42.5758 54.6924,41.9378 53.8714,41.7638" id="Fill-239" fill="#000000"></path>
                <path d="M56.0599,50.8246 L56.0599,50.8276 C56.0569,50.8686 56.0579,50.8526 56.0599,50.8246" id="Fill-241" fill="#000000"></path>
                <path d="M32.722,56.7592 C34.27,55.1122 35.684,55.1342 37.726,55.7492 C38.422,55.9692 39.176,56.1512 39.624,56.7812 C39.67,56.8462 39.712,56.9122 39.748,56.9792 C39.037,57.3002 38.611,57.7272 38.572,58.2822 C38.192,58.3462 37.785,58.5362 37.574,58.6312 C36.714,59.0302 36.025,59.2912 35.352,58.4522 C34.835,57.8122 34.323,57.6962 33.503,57.7522 C32.672,57.8112 31.951,57.5802 32.722,56.7592" id="Fill-243" fill="#000000"></path>
                <path d="M35.2225,66.0326 C37.0435,64.6166 38.6165,64.8066 40.7665,64.9756 C40.8085,65.1296 40.8515,65.2886 40.8975,65.4556 C41.0735,66.1006 41.2355,66.7636 41.3495,67.4306 C41.1105,67.5806 40.8945,67.7396 40.7355,67.8426 C39.8135,68.4356 38.9925,68.7206 38.0695,67.9796 C37.2295,67.3046 36.5395,67.3286 35.5065,67.3376 C34.0885,67.3496 34.3535,66.7076 35.2225,66.0326" id="Fill-245" fill="#000000"></path>
                <g id="Group-249" transform="translate(0.000000, 20.337000)">
                    <mask id="mask-l7d_4u5vfq-10" fill="white">
                        <use xlink:href="#path-l7d_4u5vfq-9"></use>
                    </mask>
                    <g id="Clip-248"></g>
                    <path d="M1.8177,2.5989 C2.0137,2.5369 2.2257,2.4719 2.4487,2.4019 C2.5047,2.3849 2.5607,2.3669 2.6187,2.3499 C2.6767,2.3339 2.7347,2.3189 2.7947,2.3029 C2.9127,2.2709 3.0327,2.2389 3.1557,2.2049 C3.4007,2.1389 3.6537,2.0719 3.9107,2.0019 C4.1707,1.9439 4.4337,1.8829 4.6977,1.8239 C4.8287,1.7929 4.9607,1.7639 5.0917,1.7339 C5.1577,1.7189 5.2237,1.7039 5.2887,1.6899 C5.3547,1.6779 5.4207,1.6649 5.4857,1.6539 C5.7477,1.6049 6.0057,1.5569 6.2557,1.5109 C6.3807,1.4879 6.5037,1.4649 6.6237,1.4429 C6.7457,1.4249 6.8637,1.4079 6.9797,1.3909 C7.2117,1.3579 7.4317,1.3269 7.6357,1.2969 C8.6027,1.1679 9.4687,1.0859 10.3367,1.0369 C10.7707,1.0009 11.2047,0.9999 11.6527,0.9859 C12.1007,0.9669 12.5627,0.9799 13.0507,0.9859 C13.1737,0.9879 13.3017,0.9899 13.4327,0.9919 C13.5637,0.9929 13.6967,1.0039 13.8337,1.0109 C14.1067,1.0269 14.3917,1.0429 14.6837,1.0609 C14.7567,1.0649 14.8297,1.0699 14.9037,1.0739 C14.9777,1.0809 15.0517,1.0879 15.1267,1.0959 C15.2747,1.1109 15.4247,1.1259 15.5767,1.1409 C15.7277,1.1569 15.8797,1.1709 16.0317,1.1869 L16.2617,1.2099 L16.4897,1.2419 C16.7947,1.2849 17.0987,1.3269 17.3997,1.3689 C17.4747,1.3789 17.5497,1.3899 17.6247,1.4009 C17.6987,1.4129 17.7727,1.4269 17.8467,1.4399 C17.9937,1.4659 18.1397,1.4929 18.2827,1.5179 C18.4267,1.5429 18.5687,1.5689 18.7087,1.5939 C18.8487,1.6199 18.9857,1.6409 19.1197,1.6719 C19.3867,1.7299 19.6427,1.7849 19.8837,1.8369 C20.2597,1.9039 21.1947,2.1679 21.5647,2.2589 C21.7637,2.3099 21.6907,2.3079 21.4007,2.2509 C21.2567,2.2229 21.0577,2.1809 20.8117,2.1249 C20.6897,2.0969 20.5547,2.0659 20.4087,2.0329 C20.2627,1.9969 20.1037,1.9699 19.9357,1.9339 C19.7437,1.8949 19.5367,1.8529 19.3157,1.8079 C19.2057,1.7869 19.0907,1.7629 18.9737,1.7409 C18.8557,1.7209 18.7347,1.7029 18.6097,1.6819 C18.3597,1.6419 18.0957,1.5999 17.8207,1.5559 C17.7517,1.5439 17.6827,1.5339 17.6117,1.5219 C17.5417,1.5129 17.4697,1.5039 17.3977,1.4949 C17.2537,1.4759 17.1067,1.4569 16.9557,1.4379 C15.7567,1.2729 14.5737,1.1639 13.1727,1.1239 C12.9427,1.1209 12.7097,1.1189 12.4737,1.1169 C12.3557,1.1159 12.2367,1.1149 12.1177,1.1139 C11.9987,1.1169 11.8787,1.1199 11.7587,1.1239 C11.2787,1.1409 10.7937,1.1439 10.3147,1.1859 C9.8357,1.2199 9.3597,1.2449 8.9017,1.3029 C8.4427,1.3529 7.9977,1.3929 7.5797,1.4589 C7.4197,1.4819 7.2527,1.5049 7.0807,1.5299 C6.9937,1.5409 6.9057,1.5529 6.8167,1.5659 C6.7277,1.5779 6.6367,1.5899 6.5467,1.6069 C6.1827,1.6709 5.8007,1.7379 5.4127,1.8049 C5.0247,1.8789 4.6327,1.9679 4.2437,2.0489 C4.1467,2.0699 4.0497,2.0899 3.9527,2.1109 C3.8577,2.1349 3.7617,2.1589 3.6677,2.1829 C3.4777,2.2299 3.2907,2.2779 3.1067,2.3239 C2.9237,2.3699 2.7427,2.4119 2.5687,2.4609 C2.3957,2.5119 2.2267,2.5609 2.0647,2.6089 C1.9027,2.6569 1.7467,2.7019 1.5977,2.7449 C1.4497,2.7889 1.3077,2.8279 1.1777,2.8739 C0.6567,3.0499 0.2757,3.1789 0.1177,3.2349 C-0.0703,3.3009 -0.0363,3.2759 0.2397,3.1639 C0.3777,3.1089 0.5757,3.0319 0.8377,2.9339 C0.9677,2.8849 1.1137,2.8309 1.2757,2.7709 C1.4407,2.7189 1.6207,2.6609 1.8177,2.5989" id="Fill-247" fill="#FFFFFF" mask="url(#mask-l7d_4u5vfq-10)"></path>
                </g>
                <path d="M2.4423,24.7699 C2.6303,24.7119 2.8343,24.6509 3.0483,24.5839 C3.1553,24.5509 3.2663,24.5199 3.3803,24.4899 C3.4933,24.4579 3.6093,24.4269 3.7263,24.3949 C3.9623,24.3309 4.2043,24.2639 4.4503,24.1969 C4.6983,24.1359 4.9503,24.0749 5.2023,24.0129 L5.5803,23.9219 C5.6423,23.9069 5.7053,23.8919 5.7673,23.8769 C5.8303,23.8639 5.8933,23.8499 5.9553,23.8369 C6.2053,23.7839 6.4513,23.7319 6.6903,23.6809 C6.8093,23.6569 6.9273,23.6309 7.0423,23.6069 C7.1573,23.5859 7.2713,23.5659 7.3813,23.5449 C7.6023,23.5049 7.8123,23.4669 8.0063,23.4319 C8.9293,23.2729 9.7543,23.1539 10.5833,23.0579 C10.9963,23.0009 11.4123,22.9699 11.8393,22.9279 C12.2673,22.8829 12.7103,22.8599 13.1773,22.8309 C13.6503,22.7929 14.1833,22.7879 14.7443,22.7699 C14.8143,22.7679 14.8843,22.7669 14.9563,22.7649 L15.1703,22.7649 C15.3133,22.7649 15.4583,22.7659 15.6043,22.7659 C15.7503,22.7669 15.8963,22.7669 16.0433,22.7669 L16.2643,22.7679 L16.4853,22.7749 C16.7803,22.7849 17.0753,22.7929 17.3663,22.8029 C17.4393,22.8049 17.5123,22.8069 17.5843,22.8099 C17.6563,22.8139 17.7283,22.8179 17.8003,22.8219 C17.9433,22.8309 18.0853,22.8389 18.2253,22.8469 C18.5053,22.8659 18.7783,22.8759 19.0393,22.8979 C19.3003,22.9189 19.5513,22.9409 19.7873,22.9599 C20.1523,22.9799 21.0773,23.1029 21.4403,23.1409 C21.6363,23.1629 21.5673,23.1699 21.2843,23.1569 C21.1433,23.1499 20.9483,23.1369 20.7073,23.1179 C20.5863,23.1069 20.4543,23.0959 20.3113,23.0829 C20.1683,23.0699 20.0133,23.0629 19.8483,23.0489 C19.6613,23.0369 19.4593,23.0219 19.2433,23.0059 C19.1343,22.9989 19.0233,22.9929 18.9083,22.9849 C18.7943,22.9799 18.6753,22.9759 18.5543,22.9709 C18.3113,22.9609 18.0563,22.9509 17.7883,22.9399 C17.7213,22.9369 17.6533,22.9339 17.5853,22.9319 C17.5173,22.9299 17.4483,22.9289 17.3783,22.9279 C17.2383,22.9249 17.0953,22.9219 16.9503,22.9189 C15.7883,22.8879 14.6493,22.8879 13.3053,22.9589 C12.4233,23.0099 11.4863,23.0929 10.5703,23.2079 C10.1133,23.2659 9.6593,23.3189 9.2213,23.3909 C8.7843,23.4589 8.3593,23.5199 7.9603,23.5959 C7.6553,23.6519 7.3213,23.7059 6.9733,23.7719 C6.6263,23.8419 6.2603,23.9159 5.8893,23.9899 C5.5193,24.0689 5.1443,24.1589 4.7713,24.2419 C4.6783,24.2619 4.5853,24.2839 4.4933,24.3039 C4.4013,24.3289 4.3103,24.3519 4.2183,24.3739 C4.0373,24.4209 3.8573,24.4669 3.6813,24.5119 C3.5053,24.5579 3.3323,24.5999 3.1653,24.6459 C2.9983,24.6929 2.8363,24.7399 2.6803,24.7839 C2.3683,24.8739 2.0793,24.9519 1.8273,25.0319 C1.3233,25.1909 0.9553,25.3089 0.8023,25.3599 C0.6213,25.4199 0.6543,25.3959 0.9213,25.2929 C1.0543,25.2419 1.2463,25.1699 1.4983,25.0809 C1.6243,25.0369 1.7653,24.9869 1.9213,24.9319 C2.0793,24.8829 2.2533,24.8289 2.4423,24.7699" id="Fill-250" fill="#FFFFFF"></path>
                <path d="M2.7738,27.9721 C2.9538,27.9051 3.1478,27.8321 3.3518,27.7561 C3.5558,27.6781 3.7738,27.6071 3.9968,27.5271 C4.2208,27.4491 4.4518,27.3681 4.6868,27.2861 C4.9218,27.2091 5.1618,27.1311 5.4018,27.0531 C5.8798,26.8931 6.3638,26.7511 6.8188,26.6151 C6.9318,26.5801 7.0438,26.5471 7.1538,26.5141 C7.2638,26.4841 7.3718,26.4531 7.4768,26.4251 C7.6878,26.3671 7.8868,26.3121 8.0728,26.2611 C8.9518,26.0241 9.7398,25.8291 10.5308,25.6521 C10.9248,25.5571 11.3228,25.4801 11.7318,25.3941 C12.1408,25.3061 12.5648,25.2321 13.0128,25.1491 C13.4658,25.0621 13.9788,24.9891 14.5188,24.9051 C14.7878,24.8611 15.0658,24.8301 15.3478,24.7921 C15.4878,24.7751 15.6298,24.7561 15.7718,24.7381 C15.9138,24.7181 16.0558,24.7011 16.1988,24.6871 C16.7698,24.6261 17.3398,24.5611 17.8838,24.5191 C18.1558,24.4961 18.4198,24.4691 18.6748,24.4511 C18.9288,24.4341 19.1728,24.4161 19.4028,24.4011 C19.7568,24.3681 20.6638,24.3401 21.0188,24.3211 C21.2108,24.3121 21.1448,24.3301 20.8708,24.3611 C20.7338,24.3761 20.5448,24.3951 20.3108,24.4131 C20.0758,24.4331 19.7948,24.4511 19.4748,24.4791 C19.2928,24.4941 19.0958,24.5111 18.8858,24.5291 C18.7808,24.5371 18.6728,24.5471 18.5618,24.5571 C18.4508,24.5691 18.3358,24.5811 18.2178,24.5941 C17.9828,24.6191 17.7358,24.6461 17.4768,24.6731 C17.2168,24.6981 16.9478,24.7371 16.6668,24.7681 C15.5418,24.8961 14.4418,25.0371 13.1518,25.2631 C12.3068,25.4141 11.4098,25.5971 10.5348,25.8011 C10.0978,25.9051 9.6638,26.0021 9.2468,26.1131 C8.8288,26.2201 8.4228,26.3201 8.0428,26.4271 C7.7528,26.5081 7.4348,26.5901 7.1018,26.6841 C6.7698,26.7801 6.4218,26.8801 6.0678,26.9821 C5.7148,27.0871 5.3568,27.2011 5.0018,27.3091 C4.9128,27.3361 4.8238,27.3641 4.7358,27.3911 C4.6488,27.4201 4.5618,27.4491 4.4748,27.4781 C4.3008,27.5351 4.1298,27.5911 3.9618,27.6471 C3.7938,27.7021 3.6278,27.7551 3.4688,27.8111 C3.3098,27.8671 3.1558,27.9211 3.0068,27.9741 C2.7098,28.0791 2.4328,28.1731 2.1918,28.2641 C1.7118,28.4461 1.3588,28.5791 1.2138,28.6371 C1.0418,28.7051 1.0728,28.6791 1.3258,28.5651 C1.4528,28.5081 1.6348,28.4291 1.8748,28.3281 C1.9948,28.2791 2.1288,28.2221 2.2778,28.1601 C2.4288,28.1041 2.5938,28.0411 2.7738,27.9721" id="Fill-252" fill="#FFFFFF"></path>
                <path d="M50.0551,21.7709 C49.8261,21.7479 49.5801,21.7209 49.3201,21.6939 C49.1901,21.6789 49.0571,21.6669 48.9201,21.6579 C48.7841,21.6459 48.6451,21.6349 48.5031,21.6239 C48.2211,21.5999 47.9291,21.5759 47.6331,21.5519 C47.3361,21.5349 47.0341,21.5159 46.7331,21.4989 L46.2821,21.4719 C46.2071,21.4669 46.1321,21.4629 46.0581,21.4589 C45.9831,21.4569 45.9091,21.4539 45.8341,21.4509 C45.5371,21.4409 45.2441,21.4299 44.9611,21.4189 C44.8191,21.4149 44.6801,21.4099 44.5431,21.4049 C44.4061,21.4029 44.2721,21.4009 44.1411,21.3989 C43.8801,21.3959 43.6321,21.3919 43.4031,21.3889 C42.3131,21.3799 41.3431,21.3969 40.3741,21.4339 C39.8891,21.4449 39.4061,21.4799 38.9071,21.5059 C38.4071,21.5289 37.8941,21.5739 37.3511,21.6159 C36.8011,21.6519 36.1851,21.7219 35.5351,21.7809 C35.4531,21.7889 35.3721,21.7959 35.2901,21.8049 C35.2081,21.8139 35.1251,21.8249 35.0421,21.8339 C34.8761,21.8539 34.7091,21.8739 34.5411,21.8929 C34.3721,21.9129 34.2031,21.9329 34.0331,21.9529 L33.7771,21.9829 L33.5221,22.0189 C33.1821,22.0669 32.8421,22.1149 32.5061,22.1629 C32.4221,22.1739 32.3381,22.1859 32.2551,22.1979 C32.1721,22.2109 32.0891,22.2249 32.0071,22.2389 C31.8421,22.2659 31.6791,22.2929 31.5181,22.3199 C31.1961,22.3749 30.8811,22.4229 30.5811,22.4799 C30.2811,22.5389 29.9931,22.5949 29.7221,22.6479 C29.3031,22.7199 28.2411,22.9539 27.8251,23.0429 C27.6001,23.0929 27.6741,23.0609 27.9921,22.9729 C28.1511,22.9289 28.3711,22.8719 28.6461,22.8029 C28.7831,22.7699 28.9341,22.7329 29.0971,22.6939 C29.2611,22.6539 29.4381,22.6209 29.6271,22.5809 C29.8431,22.5369 30.0751,22.4889 30.3231,22.4369 C30.4471,22.4119 30.5741,22.3839 30.7061,22.3569 C30.8381,22.3329 30.9741,22.3069 31.1141,22.2819 C31.3931,22.2309 31.6871,22.1759 31.9951,22.1209 C32.0731,22.1069 32.1511,22.0919 32.2291,22.0789 C32.3081,22.0659 32.3881,22.0539 32.4691,22.0419 C32.6311,22.0169 32.7961,21.9919 32.9641,21.9659 C34.3081,21.7579 35.6341,21.6289 37.2001,21.4909 C38.2281,21.4039 39.3251,21.3289 40.4031,21.2869 C40.9421,21.2669 41.4761,21.2419 41.9951,21.2419 C42.5131,21.2359 43.0151,21.2249 43.4911,21.2379 C43.8531,21.2449 44.2471,21.2469 44.6621,21.2609 C45.0771,21.2799 45.5121,21.2989 45.9541,21.3199 C46.3961,21.3439 46.8461,21.3799 47.2911,21.4119 C47.4031,21.4189 47.5131,21.4269 47.6241,21.4349 C47.7341,21.4459 47.8441,21.4569 47.9531,21.4669 C48.1721,21.4879 48.3881,21.5089 48.5991,21.5299 C48.8101,21.5499 49.0181,21.5679 49.2201,21.5909 C49.4201,21.6159 49.6161,21.6389 49.8041,21.6619 C50.1801,21.7089 50.5281,21.7459 50.8341,21.7909 C51.4451,21.8769 51.8921,21.9409 52.0771,21.9669 C52.2991,21.9969 52.2511,22.0029 51.9191,21.9719 C51.7531,21.9579 51.5161,21.9329 51.2061,21.8969 C51.0521,21.8789 50.8791,21.8589 50.6871,21.8349 C50.4951,21.8159 50.2841,21.7939 50.0551,21.7709" id="Fill-254" fill="#FFFFFF"></path>
                <path d="M49.7079,25.2689 C49.4949,25.2329 49.2649,25.1949 49.0229,25.1539 C48.9019,25.1319 48.7769,25.1149 48.6489,25.0979 C48.5219,25.0809 48.3919,25.0629 48.2599,25.0439 C47.7309,24.9719 47.1689,24.8939 46.6059,24.8169 C46.4659,24.7969 46.3259,24.7779 46.1859,24.7579 C46.1149,24.7489 46.0449,24.7399 45.9759,24.7299 C45.9059,24.7219 45.8359,24.7149 45.7669,24.7069 C45.4889,24.6769 45.2149,24.6479 44.9499,24.6199 C44.4189,24.5609 43.9219,24.5069 43.4919,24.4599 C43.3649,24.4459 43.2389,24.4319 43.1149,24.4179 C42.9909,24.4089 42.8679,24.3989 42.7469,24.3889 C42.5029,24.3699 42.2659,24.3509 42.0309,24.3319 C41.5619,24.2949 41.1079,24.2589 40.6529,24.2229 C40.1989,24.1799 39.7429,24.1659 39.2729,24.1409 C38.8039,24.1169 38.3199,24.0919 37.8089,24.0659 C37.2909,24.0309 36.7079,24.0269 36.0949,24.0059 C35.7879,23.9979 35.4729,23.9879 35.1539,23.9789 C34.9939,23.9739 34.8339,23.9689 34.6729,23.9629 L34.4309,23.9569 L34.1889,23.9559 L32.2829,23.9559 C31.9749,23.9569 31.6759,23.9519 31.3889,23.9599 C31.1019,23.9699 30.8259,23.9799 30.5669,23.9889 C30.1659,24.0009 29.1449,24.0319 28.7449,24.0439 C28.3119,24.0599 29.0399,23.9699 30.4889,23.9089 C30.6949,23.8989 30.9179,23.8879 31.1559,23.8769 C31.2739,23.8719 31.3969,23.8659 31.5229,23.8589 C31.6489,23.8569 31.7789,23.8539 31.9129,23.8509 C32.4469,23.8409 33.0379,23.8319 33.6769,23.8259 C33.8359,23.8249 33.9959,23.8239 34.1549,23.8229 L34.3949,23.8219 C34.4739,23.8219 34.5539,23.8259 34.6339,23.8279 C34.9539,23.8369 35.2759,23.8459 35.6049,23.8559 C35.9339,23.8659 36.2689,23.8749 36.6129,23.8849 C36.9579,23.8959 37.3139,23.8979 37.6829,23.9219 C38.1669,23.9459 38.6669,23.9699 39.1729,23.9949 C39.6779,24.0209 40.1899,24.0339 40.6959,24.0789 C41.2009,24.1179 41.7019,24.1559 42.1879,24.1929 C42.6739,24.2309 43.1449,24.2609 43.5879,24.3169 C44.2649,24.3949 45.0619,24.4879 45.8899,24.5839 C46.7139,24.7009 47.5659,24.8359 48.3559,24.9559 C48.5529,24.9859 48.7469,25.0129 48.9349,25.0449 C49.1219,25.0809 49.3039,25.1139 49.4789,25.1459 C49.8299,25.2109 50.1529,25.2709 50.4379,25.3239 C51.0089,25.4289 51.4269,25.5049 51.5999,25.5349 C52.0139,25.6049 51.4189,25.5539 49.7079,25.2689" id="Fill-256" fill="#FFFFFF"></path>
                <path d="M47.3358,28.058 C47.1478,28.007 46.9448,27.952 46.7308,27.894 C46.6238,27.864 46.5138,27.836 46.3998,27.81 C46.2878,27.783 46.1718,27.755 46.0548,27.727 C45.5858,27.615 45.0878,27.496 44.5898,27.375 C44.4658,27.346 44.3408,27.316 44.2168,27.286 L44.0308,27.242 C43.9688,27.228 43.9068,27.215 43.8458,27.203 C43.5988,27.151 43.3558,27.1 43.1198,27.051 C42.6478,26.952 42.2068,26.859 41.8238,26.778 C41.7108,26.754 41.5998,26.731 41.4888,26.707 C41.3778,26.687 41.2688,26.667 41.1608,26.648 C40.9438,26.609 40.7318,26.571 40.5238,26.534 C40.1058,26.458 39.6998,26.386 39.2948,26.314 C38.8908,26.235 38.4818,26.182 38.0628,26.118 C37.6438,26.055 37.2108,25.99 36.7538,25.921 C36.2918,25.844 35.7688,25.789 35.2188,25.716 C34.9438,25.681 34.6618,25.645 34.3768,25.608 C34.2328,25.589 34.0898,25.571 33.9458,25.552 L33.7288,25.524 L33.5118,25.502 C32.9308,25.445 32.3508,25.388 31.7988,25.333 C31.5228,25.308 31.2538,25.277 30.9948,25.259 C30.7358,25.244 30.4878,25.228 30.2538,25.213 C29.8938,25.189 28.9728,25.126 28.6128,25.102 C28.2228,25.079 28.8838,25.056 30.1918,25.125 C30.3778,25.134 30.5788,25.145 30.7938,25.155 C30.9008,25.16 31.0118,25.165 31.1258,25.17 C31.2388,25.179 31.3568,25.188 31.4768,25.198 C31.9578,25.235 32.4888,25.277 33.0638,25.328 C33.2078,25.34 33.3508,25.353 33.4938,25.367 L33.7098,25.386 C33.7808,25.394 33.8528,25.405 33.9238,25.412 C34.2108,25.45 34.4998,25.487 34.7938,25.525 C35.0878,25.563 35.3878,25.601 35.6968,25.64 C36.0058,25.681 36.3258,25.714 36.6548,25.768 C37.0878,25.831 37.5348,25.898 37.9868,25.964 C38.4398,26.033 38.8978,26.088 39.3478,26.174 C39.7988,26.253 40.2458,26.331 40.6788,26.408 C41.1118,26.485 41.5328,26.554 41.9258,26.643 C42.5278,26.772 43.2358,26.927 43.9698,27.09 C44.6998,27.269 45.4528,27.467 46.1518,27.646 C46.3268,27.692 46.4978,27.734 46.6638,27.78 C46.8288,27.829 46.9888,27.875 47.1438,27.92 C47.4528,28.01 47.7378,28.093 47.9888,28.166 C48.4918,28.313 48.8598,28.419 49.0138,28.461 C49.3788,28.562 48.8478,28.467 47.3358,28.058" id="Fill-258" fill="#FFFFFF"></path>
                <path d="M42.7181,31.2572 C42.4921,31.1002 42.2321,30.9152 41.9461,30.7322 C41.8031,30.6382 41.6571,30.5412 41.5081,30.4442 C41.3571,30.3502 41.2031,30.2542 41.0501,30.1582 C40.4361,29.7752 39.8061,29.4192 39.3221,29.1542 C38.7491,28.8422 38.2311,28.5792 37.7061,28.3292 C37.4461,28.2002 37.1791,28.0852 36.9071,27.9602 C36.6351,27.8332 36.3501,27.7172 36.0501,27.5892 C35.7471,27.4562 35.4001,27.3242 35.0371,27.1772 C34.8571,27.1012 34.6671,27.0362 34.4771,26.9632 C34.2861,26.8942 34.0951,26.8162 33.9001,26.7502 C33.5101,26.6162 33.1221,26.4792 32.7471,26.3662 C32.5601,26.3092 32.3781,26.2492 32.2021,26.1992 C32.0251,26.1512 31.8561,26.1042 31.6971,26.0602 C31.4521,25.9862 30.8201,25.8272 30.5721,25.7652 C30.4381,25.7332 30.4871,25.7292 30.6831,25.7592 C30.7811,25.7742 30.9161,25.7982 31.0821,25.8302 C31.2491,25.8632 31.4481,25.9042 31.6711,25.9662 C31.7991,25.9982 31.9371,26.0342 32.0841,26.0712 C32.1581,26.0902 32.2341,26.1102 32.3121,26.1292 C32.3901,26.1512 32.4701,26.1732 32.5521,26.1962 C32.7171,26.2422 32.8891,26.2922 33.0701,26.3432 C33.2521,26.3932 33.4371,26.4582 33.6321,26.5212 C34.4091,26.7722 35.1511,27.0732 36.0241,27.4302 C36.5961,27.6672 37.2021,27.9292 37.7881,28.2062 C38.0801,28.3462 38.3721,28.4812 38.6471,28.6262 C38.9241,28.7692 39.1941,28.9032 39.4421,29.0462 C39.6321,29.1532 39.8401,29.2662 40.0541,29.3932 C40.2681,29.5222 40.4911,29.6572 40.7181,29.7952 C41.1681,30.0802 41.6301,30.3812 42.0461,30.6762 C42.1511,30.7492 42.2541,30.8202 42.3531,30.8912 C42.4511,30.9632 42.5461,31.0322 42.6371,31.1012 C42.8201,31.2362 42.9911,31.3582 43.1371,31.4722 C43.4301,31.6992 43.6441,31.8652 43.7341,31.9332 C43.8421,32.0132 43.8111,32.0062 43.6431,31.8982 C43.5591,31.8432 43.4411,31.7632 43.2881,31.6552 C43.2121,31.6012 43.1261,31.5402 43.0321,31.4742 C42.9371,31.4072 42.8321,31.3362 42.7181,31.2572" id="Fill-260" fill="#FFFFFF"></path>
                <path d="M11.8964,29.8461 C12.0304,29.7221 12.1844,29.5771 12.3564,29.4331 C12.4424,29.3591 12.5304,29.2841 12.6194,29.2061 C12.7114,29.1321 12.8044,29.0571 12.8974,28.9821 C13.2704,28.6791 13.6594,28.3981 13.9594,28.1901 C14.3164,27.9451 14.6414,27.7361 14.9714,27.5361 C15.1354,27.4341 15.3044,27.3411 15.4774,27.2421 C15.6484,27.1431 15.8314,27.0491 16.0234,26.9491 C16.2164,26.8441 16.4414,26.7441 16.6764,26.6341 C16.7934,26.5771 16.9184,26.5301 17.0424,26.4761 C17.1664,26.4241 17.2914,26.3671 17.4184,26.3211 C17.6734,26.2221 17.9274,26.1221 18.1734,26.0381 C18.2954,25.9961 18.4134,25.9521 18.5284,25.9141 C18.6444,25.8761 18.7544,25.8401 18.8584,25.8061 C19.0174,25.7481 19.4354,25.6411 19.5954,25.5911 C19.6834,25.5661 19.6574,25.5901 19.5374,25.6431 C19.4774,25.6701 19.3944,25.7031 19.2894,25.7421 C19.1844,25.7801 19.0584,25.8251 18.9154,25.8751 C18.5874,25.9891 18.1654,26.1581 17.6704,26.3631 C17.1734,26.5631 16.6884,26.7631 16.1354,27.0451 C15.4104,27.4151 14.6334,27.9111 14.0184,28.3361 C13.5444,28.6551 12.9164,29.1101 12.3964,29.5331 C12.3314,29.5851 12.2664,29.6361 12.2044,29.6871 C12.1434,29.7391 12.0844,29.7891 12.0274,29.8371 C11.9144,29.9351 11.8064,30.0221 11.7164,30.1041 C11.5364,30.2681 11.4044,30.3881 11.3514,30.4401 C11.2874,30.5001 11.2924,30.4791 11.3774,30.3781 C11.4204,30.3271 11.4834,30.2571 11.5684,30.1671 C11.6114,30.1231 11.6594,30.0741 11.7124,30.0181 C11.7684,29.9661 11.8294,29.9081 11.8964,29.8461" id="Fill-262" fill="#FFFFFF"></path>
                <path d="M32.349,11.2572 C32.24,11.3452 32.119,11.4862 31.99,11.6172 C31.924,11.6812 31.869,11.7542 31.814,11.8212 C31.759,11.8882 31.708,11.9502 31.663,12.0042 C31.65,12.0202 31.637,12.0352 31.624,12.0512 C31.613,12.0682 31.601,12.0832 31.59,12.1002 C31.567,12.1322 31.545,12.1642 31.524,12.1942 C31.48,12.2572 31.438,12.3182 31.397,12.3782 C31.352,12.4372 31.319,12.5022 31.28,12.5682 C31.241,12.6322 31.201,12.6992 31.159,12.7712 C31.113,12.8402 31.074,12.9262 31.025,13.0122 C30.979,13.1002 30.924,13.1902 30.878,13.2832 C30.835,13.3792 30.792,13.4752 30.751,13.5662 C30.732,13.6112 30.71,13.6552 30.695,13.7002 C30.681,13.7442 30.667,13.7872 30.655,13.8272 C30.636,13.8902 30.577,14.0462 30.557,14.1092 C30.537,14.1772 30.511,14.0492 30.571,13.8162 C30.579,13.7822 30.588,13.7472 30.597,13.7082 C30.6,13.6892 30.605,13.6692 30.609,13.6492 C30.616,13.6292 30.622,13.6092 30.629,13.5872 C30.655,13.5032 30.685,13.4092 30.724,13.3112 C30.744,13.2622 30.76,13.2112 30.787,13.1652 C30.812,13.1182 30.838,13.0712 30.864,13.0242 C30.89,12.9762 30.916,12.9282 30.944,12.8772 C30.971,12.8272 30.995,12.7742 31.028,12.7232 C31.069,12.6532 31.11,12.5822 31.151,12.5092 C31.193,12.4372 31.229,12.3602 31.278,12.2912 C31.325,12.2222 31.37,12.1532 31.415,12.0852 C31.461,12.0192 31.503,11.9522 31.553,11.8982 C31.626,11.8122 31.716,11.7122 31.809,11.6112 C31.91,11.5172 32.019,11.4242 32.118,11.3372 C32.143,11.3162 32.166,11.2932 32.191,11.2752 C32.217,11.2562 32.242,11.2372 32.266,11.2212 C32.313,11.1862 32.357,11.1542 32.396,11.1262 C32.474,11.0702 32.529,11.0282 32.551,11.0102 C32.604,10.9652 32.558,11.0702 32.349,11.2572" id="Fill-264" fill="#FFCAA3"></path>
                <path d="M33.3173,12.5873 C33.2223,12.6433 33.1073,12.7323 32.9883,12.8143 C32.9283,12.8543 32.8733,12.9003 32.8193,12.9423 C32.7663,12.9833 32.7153,13.0233 32.6723,13.0563 C32.5703,13.1373 32.4853,13.2163 32.3973,13.2903 C32.3103,13.3663 32.2303,13.4493 32.1343,13.5373 C32.0843,13.5803 32.0333,13.6343 31.9763,13.6873 C31.9203,13.7403 31.8573,13.7943 31.7983,13.8523 C31.6853,13.9713 31.5633,14.0843 31.4853,14.1913 C31.4543,14.2333 31.3643,14.3293 31.3323,14.3693 C31.2983,14.4133 31.3043,14.3043 31.4123,14.1493 C31.4703,14.0603 31.5463,13.9413 31.6543,13.8143 C31.7063,13.7493 31.7683,13.6943 31.8313,13.6373 C31.8953,13.5793 31.9563,13.5163 32.0253,13.4503 C32.1183,13.3663 32.2083,13.2663 32.3043,13.1773 C32.4023,13.0893 32.4943,12.9973 32.5883,12.9283 C32.6593,12.8753 32.7453,12.8163 32.8353,12.7573 C32.9283,12.7013 33.0273,12.6493 33.1173,12.5983 C33.3013,12.5023 33.4623,12.4363 33.5003,12.4103 C33.5463,12.3833 33.5033,12.4673 33.3173,12.5873" id="Fill-266" fill="#FFCAA3"></path>
                <path d="M19.8905,10.4223 C19.9785,10.5353 20.0735,10.6973 20.1735,10.8573 C20.2245,10.9363 20.2675,11.0193 20.3085,11.0973 C20.3495,11.1753 20.3885,11.2493 20.4205,11.3133 C20.4965,11.4643 20.5525,11.6053 20.6155,11.7423 C20.6475,11.8113 20.6705,11.8833 20.6975,11.9563 C20.7235,12.0293 20.7505,12.1063 20.7795,12.1863 C20.8095,12.2663 20.8295,12.3613 20.8545,12.4603 C20.8765,12.5603 20.9035,12.6633 20.9225,12.7693 C20.9535,12.9813 20.9945,13.1903 21.0125,13.3603 C21.0215,13.4253 21.0335,13.5933 21.0415,13.6583 C21.0515,13.7293 20.9735,13.6173 20.9315,13.3863 C20.9125,13.2533 20.8525,13.0853 20.8085,12.8823 C20.7895,12.7803 20.7655,12.6813 20.7425,12.5763 C20.7165,12.4733 20.6965,12.3623 20.6565,12.2493 C20.6295,12.1743 20.6015,12.0983 20.5715,12.0213 C20.5405,11.9443 20.5135,11.8663 20.4765,11.7923 C20.4415,11.7173 20.4075,11.6433 20.3735,11.5713 C20.3405,11.5003 20.3105,11.4293 20.2765,11.3653 C20.2265,11.2673 20.1715,11.1493 20.1165,11.0253 C20.0555,10.9033 19.9915,10.7783 19.9325,10.6623 C19.9055,10.6043 19.8735,10.5493 19.8445,10.4993 C19.8155,10.4493 19.7885,10.4023 19.7645,10.3613 C19.7175,10.2793 19.6815,10.2203 19.6645,10.1963 C19.6255,10.1403 19.7225,10.1913 19.8905,10.4223" id="Fill-268" fill="#FFCAA3"></path>
                <path d="M18.2372,10.4633 C18.3482,10.5653 18.4792,10.7113 18.6142,10.8553 C18.6832,10.9263 18.7462,11.0023 18.8062,11.0723 C18.8652,11.1443 18.9212,11.2103 18.9692,11.2683 C19.0812,11.4063 19.1742,11.5353 19.2712,11.6613 C19.3672,11.7873 19.4532,11.9213 19.5532,12.0683 C19.6052,12.1433 19.6542,12.2323 19.7062,12.3253 C19.7582,12.4193 19.8132,12.5173 19.8632,12.6173 C19.9612,12.8193 20.0642,13.0193 20.1382,13.1833 C20.1682,13.2453 20.2352,13.4093 20.2652,13.4723 C20.2972,13.5393 20.1862,13.4523 20.0702,13.2333 C20.0062,13.1063 19.8962,12.9533 19.7902,12.7623 C19.7372,12.6653 19.6862,12.5703 19.6322,12.4713 C19.5762,12.3723 19.5232,12.2683 19.4522,12.1623 C19.3572,12.0253 19.2572,11.8793 19.1492,11.7413 C19.0392,11.6073 18.9362,11.4703 18.8402,11.3513 C18.7662,11.2613 18.6822,11.1503 18.5972,11.0363 C18.5082,10.9243 18.4162,10.8083 18.3312,10.7003 C18.1582,10.4863 18.0052,10.3123 17.9642,10.2683 C17.9122,10.2173 18.0202,10.2543 18.2372,10.4633" id="Fill-270" fill="#FFCAA3"></path>
                <path d="M18.5424,96.2865 C18.9214,93.7595 20.5644,92.4955 21.9544,91.8635 C22.0494,91.8205 22.1594,91.7135 22.2824,91.5505 C23.4174,93.7225 25.9814,95.1165 28.4244,94.7625 C28.8644,94.6975 29.3264,94.5875 29.7504,94.6795 C28.9974,96.2475 28.1464,97.5235 27.2614,97.8035 C24.8604,98.5605 18.1634,98.8135 18.5424,96.2865" id="Fill-272" fill="#28170F"></path>
                <path d="M37.4974,89.7162 C37.8764,88.9572 40.0244,87.1892 41.5404,87.3152 C42.0494,87.3572 42.8554,87.6122 43.7744,87.9432 C43.0144,88.9982 42.5704,90.2832 42.5394,91.5852 C42.5024,93.1082 43.0314,94.6352 43.9884,95.8202 C41.0664,95.5542 38.7674,95.1162 38.2554,94.3912 C36.7394,92.2422 37.1184,90.4742 37.4974,89.7162" id="Fill-274" fill="#28170F"></path>
            </g>
        </g>
    </g>
</svg>