
<svg width="142px" height="92px" viewBox="0 0 142 92" version="1.1" xmlns="http://www.w3.org/2000/svg" xmlns:xlink="http://www.w3.org/1999/xlink">
    <defs>
        <polygon id="path-tg3nxxpuwl-1" points="0.950611765 0.119184739 14.8947 0.119184739 14.8947 17 0.950611765 17"></polygon>
        <polygon id="path-tg3nxxpuwl-3" points="0 0.217060406 16.6055525 0.217060406 16.6055525 4.89199281 0 4.89199281"></polygon>
    </defs>
    <g id="Page-1" stroke="none" stroke-width="1" fill="none" fill-rule="evenodd">
        <g id="designer-profile" transform="translate(-95.000000, -599.000000)">
            <g id="Group-71" transform="translate(95.000000, 599.000000)">
                <path d="M62.2303,83.0624 C60.8093,83.3744 59.1653,82.8914 57.9733,83.7274 C56.8593,84.5084 56.7023,86.2224 57.3943,87.3934 C58.0863,88.5654 59.4143,89.2374 60.7503,89.4954 C62.9963,89.9284 65.3513,89.3454 67.3633,88.2554 C69.3743,87.1664 71.0843,85.5964 72.6793,83.9584 C76.4593,80.0764 79.7953,75.5744 81.2723,70.3614 C76.8343,68.4804 72.3783,66.5924 67.7173,65.3684 C63.0563,64.1424 58.1483,63.5954 53.4013,64.4324 C54.1433,67.8904 56.9283,70.8284 60.3413,71.7524 C61.8423,72.1604 63.4293,72.2024 64.9143,72.6704 C66.3973,73.1384 67.8543,74.1954 68.1313,75.7264 C68.4523,77.4874 67.1483,79.0874 65.9353,80.4024 C64.8863,81.5394 63.7403,82.7324 62.2303,83.0624" id="Fill-1" fill="#383838"></path>
                <path d="M22.1356,83.0741 C21.5376,76.6471 22.8796,70.2021 24.5426,63.9671 C24.8886,62.6731 25.2206,61.1891 24.4726,60.0771 C24.0356,59.4271 23.3076,59.0441 22.6106,58.6861 L9.5406,51.9921 C12.6626,56.5701 14.1826,62.0871 14.7336,67.6001 C15.2836,73.1131 14.9136,78.6731 14.5436,84.2011 C12.3306,84.1561 10.3726,86.4181 10.7356,88.6021 C12.5336,89.5471 14.5516,90.0691 16.5816,90.1161 C18.5096,90.1611 20.6676,89.6321 21.6726,87.9871 C22.5466,86.5561 22.2906,84.7431 22.1356,83.0741" id="Fill-3" fill="#383838"></path>
                <path d="M71.1707,81.5536 C70.6527,81.4386 70.1137,81.3126 69.7107,80.9686 C69.3087,80.6246 69.8947,79.9866 69.5817,78.5706 C69.4507,77.9756 68.6557,77.9776 67.6257,78.1986 C67.1887,78.9956 66.5507,79.7366 65.9357,80.4026 C64.8867,81.5386 63.7397,82.7326 62.2307,83.0626 C60.8087,83.3736 59.1647,82.8916 57.9737,83.7276 C56.8597,84.5086 56.7027,86.2226 57.3947,87.3936 C58.0867,88.5656 59.4147,89.2376 60.7497,89.4946 C62.9957,89.9286 65.3517,89.3456 67.3627,88.2556 C69.3737,87.1656 71.0837,85.5966 72.6797,83.9576 C73.2227,83.3996 73.7567,82.8276 74.2767,82.2436 C73.2417,82.0136 72.2057,81.7836 71.1707,81.5536" id="Fill-5" fill="#C8BCB7"></path>
                <path d="M21.2562,85.3232 C20.1382,85.0572 19.0582,84.4642 17.9152,84.5822 C17.0612,84.6712 16.2502,85.1572 15.3982,85.0522 C14.7952,84.9792 14.2892,84.6262 13.7772,84.2782 C11.9022,84.6872 10.4152,86.6752 10.7352,88.6022 C12.5332,89.5472 14.5512,90.0692 16.5822,90.1162 C18.5092,90.1612 20.6672,89.6322 21.6722,87.9872 C22.1452,87.2132 22.2872,86.3272 22.2942,85.4122 C21.9432,85.4322 21.5842,85.4012 21.2562,85.3232" id="Fill-7" fill="#C8BCB7"></path>
                <path d="M8.7288,0.0048 C11.2468,-0.2182 14.8788,7.4318 14.8788,7.4318 C14.8788,7.4318 22.1818,8.4678 23.3498,7.9558 C24.5168,7.4428 29.9868,2.4678 32.6348,3.1378 C34.2278,3.5418 28.4568,13.8148 28.8048,16.0198 C29.1528,18.2248 29.1868,19.5458 29.1298,22.5078 C49.1668,17.9058 80.8978,26.9298 91.3538,38.5318 C101.8118,50.1358 111.5218,55.3648 119.2058,53.7338 C126.8898,52.1048 133.0798,44.8528 135.1808,42.6738 C137.9788,39.7728 140.7668,36.0638 141.6948,40.7048 C142.6238,45.3468 136.5218,57.7678 119.3218,60.1168 C102.1218,62.4678 92.9498,53.0748 87.7178,49.3878 C84.1198,57.1048 93.0958,63.8308 94.6038,65.2238 C96.1128,66.6158 94.7198,70.5618 94.6038,75.2898 C94.4878,80.0188 92.1688,88.8488 90.6708,89.5678 C88.1838,90.7588 84.5048,90.4478 82.7948,89.1008 C80.3888,87.2038 82.0688,84.3338 85.8998,84.1398 C87.1958,84.0728 89.3228,72.6748 86.4798,72.7668 C64.4468,73.4748 63.0538,64.7988 60.7178,65.4558 C54.2408,67.2758 43.3638,64.4878 39.3658,62.7858 C39.4688,63.8468 37.9928,67.3908 36.8348,71.7418 C35.0008,78.6318 33.0418,87.1788 32.4028,88.3178 C31.3578,90.1738 29.5368,91.2768 25.5908,91.2768 C24.0368,91.2768 22.1958,90.7348 21.9638,88.5298 C21.7318,86.3258 24.6398,86.3418 26.2648,83.5568 C27.8888,80.7718 24.9758,63.0188 24.9758,63.0188 C20.2538,62.3128 11.4898,56.5968 8.8448,52.8068 C3.54555159,45.2128 3.6228,39.5768 4.2068,35.9798 C4.7908,32.3818 4.3698,25.6448 3.6728,21.1188 C2.9768,16.5928 5.3628,10.1008 5.3628,10.1008 C5.3628,10.1008 6.2108,0.2268 8.7288,0.0048" id="Fill-9" fill="#000000"></path>
                <path d="M25.1005642,63.8066 C25.1154,60.1446 24.1024,56.4776 22.1764,53.3606 C20.9104,51.3126 19.2454,49.4536 18.5314,47.1536 C17.8534,44.9716 18.1114,42.5856 18.8304,40.4166 C19.5504,38.2486 20.7084,36.2566 21.8584,34.2836 C22.7874,32.6886 23.7164,31.0936 24.6454,29.4986 C20.8274,30.7576 16.6154,30.7906 12.7784,29.5936 C9.4264,28.5466 6.3734,26.5656 4.0394,23.9436 C4.4944,28.1246 4.6784,33.0756 4.2064,35.9796 C3.6224,39.5776 3.5454,45.2126 8.8454,52.8066 C11.4894,56.5966 20.2534,62.3126 24.9754,63.0186 C24.9754,63.0186 25.0224,63.3036 25.1005642,63.8066" id="Fill-11" fill="#ECE7E5"></path>
                <path d="M94.0076,76.5595 C93.1556,76.3865 92.2946,75.9905 91.4526,76.2085 C90.6896,76.4085 90.1446,77.0705 89.7046,77.7265 C89.2656,78.3825 88.8506,79.0965 88.1786,79.5105 C87.9876,79.6275 87.7686,79.7075 87.5436,79.7485 C87.1356,82.0835 86.4456,84.1115 85.9006,84.1395 C82.0696,84.3335 80.3886,87.2045 82.7946,89.1005 C84.5046,90.4485 88.1836,90.7585 90.6706,89.5675 C92.0386,88.9115 94.0896,81.4975 94.5256,76.6135 C94.3486,76.6115 94.1736,76.5925 94.0076,76.5595" id="Fill-13" fill="#FFFFFF"></path>
                <g id="Group-17" transform="translate(21.000000, 74.276800)">
                    <mask id="mask-tg3nxxpuwl-2" fill="white">
                        <use xlink:href="#path-tg3nxxpuwl-1"></use>
                    </mask>
                    <g id="Clip-16"></g>
                    <path d="M11.3777,1.2339 C10.8117,0.9189 10.3487,0.4099 9.7297,0.2129 C8.3767,-0.2171 6.8297,0.9719 5.5237,0.9759 C5.8397,4.7359 5.9067,8.1779 5.2647,9.2799 C3.6397,12.0649 0.7317,12.0489 0.9637,14.2539 C1.1957,16.4589 3.0367,17.0009 4.5907,17.0009 C8.5367,17.0009 10.3577,15.8969 11.4027,14.0409 C11.9337,13.0959 13.3727,7.0509 14.8947,1.0849 C13.7947,1.6629 12.4487,1.8319 11.3777,1.2339" id="Fill-15" fill="#FFFFFF" mask="url(#mask-tg3nxxpuwl-2)"></path>
                </g>
                <path d="M61.3182,50.8105 C62.6662,49.7485 63.0752,47.9205 63.8972,46.4155 C65.0092,44.3785 66.9052,42.9135 68.5282,41.2535 C70.1522,39.5945 71.6042,37.4715 71.4222,35.1575 C71.2652,33.1555 69.8762,31.4145 68.1872,30.3265 C66.5002,29.2375 64.5272,28.6935 62.5892,28.1645 C55.7182,26.2905 48.7692,24.4055 41.6502,24.1895 C40.4332,24.1525 39.0732,24.2205 38.2222,25.0925 C37.0102,26.3345 37.5262,28.3725 37.2722,30.0885 C37.0362,31.6845 36.0902,33.0675 35.3182,34.4835 C34.5462,35.8985 33.9162,37.5505 34.3742,39.0975 C34.8422,40.6815 36.3282,41.7345 37.8022,42.4805 C39.2762,43.2265 40.8832,43.8265 42.0282,45.0165 C42.7432,45.7605 43.2312,46.6895 43.8742,47.4965 C45.2922,49.2725 47.4182,50.3745 49.6152,50.9585 C51.8122,51.5425 54.1032,51.6535 56.3742,51.7605 C58.0892,51.8415 59.9692,51.8725 61.3182,50.8105" id="Fill-18" fill="#1E1E1E"></path>
                <path d="M8.6063,1.0194 C8.1983,1.1994 7.9783,1.6374 7.8033,2.0464 C6.5343,5.0064 5.8773,8.2274 5.8873,11.4474 C8.1463,9.6064 10.8873,8.3614 13.7593,7.8704 C13.3023,5.5294 12.1143,3.3374 10.4033,1.6764 C9.9163,1.2044 9.2273,0.7464 8.6063,1.0194" id="Fill-20" fill="#B77B81"></path>
                <path d="M26.261,9.3583 C27.965,7.2253 31.575,4.3683 32.373,3.9673 C33.171,3.5663 29.317,12.4103 28.59,14.4513 C28.097,12.8413 27.445,10.5533 26.261,9.3583" id="Fill-22" fill="#B77B81"></path>
                <path d="M25.8548,21.0341 C24.7798,20.2551 23.2858,20.3961 22.3418,19.4181 C20.9398,17.9661 21.6298,15.0361 20.3188,13.4741 C20.0988,13.2131 19.7518,12.9971 19.4758,13.1771 C19.1918,13.3601 19.1838,13.8161 19.2108,14.1881 C19.2738,15.0391 19.3368,15.8881 19.3988,16.7381 C19.4568,17.5061 19.4948,18.3511 19.0928,18.9701 C18.8548,19.3381 18.4908,19.5691 18.1298,19.7661 C16.9588,20.4041 15.6858,20.7961 14.3938,20.9161 C13.5108,20.9981 12.5588,20.9751 11.8338,21.5581 C11.1578,22.1001 10.8378,23.0481 10.6018,23.9521 C10.3198,25.0351 10.1188,26.2671 10.6148,27.2431 C11.0888,28.1781 12.0588,28.5971 12.9628,28.9021 C16.1958,29.9941 19.7058,30.4921 22.9158,29.3161 C23.9538,28.9361 24.9588,28.3741 25.7558,27.5211 C26.5528,26.6701 27.1268,25.5041 27.1958,24.2571 C27.2658,23.0111 26.7758,21.7011 25.8548,21.0341" id="Fill-24" fill="#DFD7D4"></path>
                <path d="M14.6326,36.8085 C14.1366,35.4575 12.7896,34.5795 11.4026,34.1955 C10.0166,33.8115 7.2316,32.1405 6.4366,33.9985 C5.6416,35.8575 5.3656,42.2525 7.2446,46.0805 C9.1246,49.9095 12.7986,52.8085 16.9586,53.7455 C18.1956,52.4335 17.5856,50.2545 16.5636,48.7675 C15.5426,47.2815 14.1416,45.9205 13.8826,44.1355 C13.5266,41.6715 15.4896,39.1455 14.6326,36.8085" id="Fill-26" fill="#FFFFFF"></path>
                <path d="M24.0789,24.0194 C21.3289,23.1064 22.3429,19.3804 19.9219,19.3793998 C17.6479,19.3784 19.1259,22.8374 16.5359,23.7434 C15.8049,23.9984 14.0659,24.9364 14.0189,25.8404 C13.9589,26.9654 15.0179,27.1204 15.9019,27.4654 C18.0789,28.3174 19.8159,27.1504 20.4429,27.1994 C21.7059,27.2954 22.6639,27.8204 23.2619,27.7804 C23.8599,27.7404 24.7509,27.1134 25.0659,26.5024 C25.4089,25.8374 25.1939,24.3904 24.0789,24.0194" id="Fill-28" fill="#FFFFFF"></path>
                <path d="M21.9857,27.9257 C21.0287,27.5977 19.9057,27.6107 18.9617,27.9607 C18.6867,28.0627 18.4227,28.1947 18.2157,28.3737 C18.0967,28.4777 17.9937,28.6077 17.9987,28.7487 C18.0027,28.8787 18.1007,28.9977 18.2267,29.0767 C18.3527,29.1557 18.5067,29.2007 18.6577,29.2387 C19.6747,29.4917 20.7717,29.4747 21.8107,29.2957 C22.0107,29.2617 22.2117,29.2207 22.3877,29.1367 C22.5647,29.0537 22.7147,28.9207 22.7607,28.7587 C22.8137,28.5727 22.7217,28.3747 22.5667,28.2337 C22.4107,28.0917 22.1997,27.9987 21.9857,27.9257" id="Fill-30" fill="#FFFFFF"></path>
                <path d="M24.1141,27.3525 C23.1551,28.3155 21.7221,27.2695 20.6591,27.1985 C20.6371,27.1975 20.6161,27.1975 20.5941,27.1965 C20.5941,27.1935 20.5951,27.1915 20.5951,27.1895 C20.5771,26.7745 20.6131,26.3595 20.5951,25.9445 C20.5881,25.7805 20.2841,25.8215 20.2901,25.9635 C20.3071,26.3765 20.2731,26.7895 20.2901,27.2015 C18.9651,27.3005 17.6561,28.2855 16.4131,27.3955 C16.3311,27.3365 16.0541,27.4565 16.1751,27.5425 C16.7111,27.9265 17.3841,27.9985 18.0241,27.9275 C18.4511,27.8795 18.8681,27.6795 19.2751,27.5535 C19.9871,27.3325 20.7191,27.3165 21.4231,27.5625 C22.3461,27.8865 23.5611,28.2045 24.3561,27.4065 C24.4811,27.2805 24.1861,27.2805 24.1141,27.3525" id="Fill-32" fill="#928F8E"></path>
                <path d="M21.824,22.4247 C20.827,22.1377 19.748,22.1357 18.75,22.4217 C18.445,22.5087 18.14,22.6267 17.903,22.8377 C17.666,23.0487 17.507,23.3687 17.557,23.6827 C17.6,23.9427 17.775,24.1587 17.952,24.3547 C18.585,25.0487 19.329,25.6417 20.149,26.1007 C20.263,26.1647 20.387,26.2287 20.518,26.2217 C20.649,26.2147 20.765,26.1397 20.875,26.0667 C21.215,25.8387 23.038,24.5497 22.857,23.3157 C22.822,23.0767 22.675,22.8637 22.481,22.7197 C22.287,22.5757 22.056,22.4917 21.824,22.4247" id="Fill-34" fill="#000000"></path>
                <path d="M21.973,23.203 C22.029,23.134 22.026,23.03 21.987,22.949 C21.948,22.869 21.879,22.808 21.807,22.754 C21.349,22.413 19.072,22.293 18.705,22.729 C18.617,22.832 18.554,22.984 18.627,23.098 C18.695,23.185 18.815,23.207 18.924,23.214 C19.859,23.235 20.794,23.255 21.729,23.274 C21.816,23.276 21.913,23.267 21.973,23.203" id="Fill-36" fill="#5B5959"></path>
                <path d="M17.2562,18.5692 C17.2562,18.5692 16.9442,16.3262 14.9502,16.2012 C12.9552,16.0772 11.8022,17.0112 11.8022,17.3852 C11.8022,18.6002 12.7692,19.8212 14.3892,19.8832 C16.0092,19.9452 16.6952,19.4112 17.2562,18.5692" id="Fill-38" fill="#BBBB4B"></path>
                <path d="M12.1424,17.7333 C12.1324,17.6433 12.1334,17.5443 12.1904,17.4733 C12.2744,17.3713 12.4444,17.3843 12.5504,17.4643 C12.6564,17.5443 12.7164,17.6683 12.7814,17.7843 C13.3754,18.8543 14.6554,19.5003 15.8694,19.3413 C15.1244,19.5393 14.3224,19.6183 13.5914,19.3723 C12.8614,19.1273 12.2254,18.5003 12.1424,17.7333" id="Fill-40" fill="#DCD972"></path>
                <path d="M16.5496,17.496 C16.6026,17.595 16.6326,17.7 16.6316242,17.806 C16.6306,17.878 16.6106,17.956 16.5356,18.005 C16.4306,18.072 16.2636,18.054 16.1376,18.007 C15.7846,17.878 15.6026,17.597 15.3546,17.374 C14.8766,16.945 14.0776,16.717 13.3226,16.792 C13.8236,16.628 14.3996,16.611 14.9406,16.684 C15.6136,16.773 16.3036,17.036 16.5496,17.496" id="Fill-42" fill="#9F9C2B"></path>
                <path d="M15.6683,17.8993 C15.6683,18.7333 15.3433,19.4103 14.9413,19.4103 C14.5403,19.4103 14.2143,18.7333 14.2143,17.8993 C14.2143,17.0643 14.5403,16.3873 14.9413,16.3873 C15.3433,16.3873 15.6683,17.0643 15.6683,17.8993" id="Fill-44" fill="#000000"></path>
                <path d="M14.7908,17.7284 C14.7908,18.0204 14.5328,18.2574 14.2138,18.2574 C13.8958,18.2574 13.6378,18.0204 13.6378,17.7284 C13.6378,17.4354 13.8958,17.1984 14.2138,17.1984 C14.5328,17.1984 14.7908,17.4354 14.7908,17.7284" id="Fill-46" fill="#FFFFFF"></path>
                <path d="M22.6468,18.3339 C22.6468,18.3339 23.1448,16.1289 24.8778,16.1819 C26.6108,16.2329 27.5108,17.2659 27.4728,17.6369 C27.3488,18.8459 26.3918,19.9749 24.9868,19.8939 C23.5828,19.8129 23.0448,19.2209 22.6468,18.3339" id="Fill-48" fill="#BBBB4B"></path>
                <path d="M23.0159,17.9657 C23.0089,17.8757 23.0099,17.7767 23.0499,17.7057 C23.1089,17.6037 23.2289,17.6177 23.3039,17.6967 C23.3779,17.7767 23.4209,17.9007 23.4659,18.0167 C23.8859,19.0867 24.7879,19.7327 25.6439,19.5737 C25.1189,19.7717 24.5529,19.8507 24.0379,19.6057 C23.5229,19.3597 23.0749,18.7327 23.0159,17.9657" id="Fill-50" fill="#DCD972"></path>
                <path d="M27.1204,17.3485 C27.1734,17.4475 27.2034,17.5525 27.2024242,17.6585 C27.2014,17.7305 27.1814,17.8085 27.1064,17.8575 C27.0014,17.9245 26.8344,17.9065 26.7084,17.8605 C26.3554,17.7305 26.1734,17.4495 25.9254,17.2265 C25.4484,16.7975 24.6484,16.5695 23.8944,16.6445 C24.3954,16.4805 24.9714,16.4635 25.5124,16.5365 C26.1844,16.6255 26.8744,16.8885 27.1204,17.3485" id="Fill-52" fill="#9F9C2B"></path>
                <path d="M26.1409,17.9843 C26.1409,18.8193 25.8159,19.4963 25.4139,19.4963 C25.0129,19.4963 24.6869,18.8193 24.6869,17.9843 C24.6869,17.1493 25.0129,16.4723 25.4139,16.4723 C25.8159,16.4723 26.1409,17.1493 26.1409,17.9843" id="Fill-54" fill="#000000"></path>
                <path d="M25.2151,17.6337 C25.2151,17.9257 24.9571,18.1627 24.6381,18.1627 C24.3201,18.1627 24.0621,17.9257 24.0621,17.6337 C24.0621,17.3407 24.3201,17.1037 24.6381,17.1037 C24.9571,17.1037 25.2151,17.3407 25.2151,17.6337" id="Fill-56" fill="#FFFFFF"></path>
                <path d="M2.4188,24.9042 C2.7028,24.8162 3.0308,24.7122 3.3868,24.6212 C3.5648,24.5732 3.7478,24.5232 3.9338,24.4732 C4.1208,24.4292 4.3108,24.3842 4.5008,24.3412 C5.2618,24.1602 6.0318,24.0222 6.6218,23.9312 C7.3198,23.8262 7.9448,23.7512 8.5728,23.6962 C8.8858,23.6622 9.2008,23.6482 9.5248,23.6282 C9.8498,23.6032 10.1848,23.5982 10.5388,23.5902 C10.8978,23.5752 11.3008,23.5902 11.7258,23.5952 C11.9388,23.5962 12.1568,23.6152 12.3768,23.6252 C12.5978,23.6382 12.8218,23.6432 13.0448,23.6662 C13.4908,23.7062 13.9378,23.7402 14.3608,23.7962 C14.5718,23.8222 14.7788,23.8422 14.9758,23.8712 C15.1738,23.8992 15.3628,23.9262 15.5418,23.9532 C15.8168,23.9832 16.5148,24.1272 16.7878,24.1742 C16.9358,24.1992 16.8818,24.2092 16.6678,24.1912 C16.5608,24.1822 16.4138,24.1672 16.2318,24.1442 C16.0488,24.1202 15.8318,24.0882 15.5828,24.0582 C15.4408,24.0412 15.2888,24.0222 15.1258,24.0022 C15.0438,23.9922 14.9598,23.9822 14.8728,23.9712 C14.7868,23.9652 14.6968,23.9572 14.6058,23.9492 C14.2378,23.9172 13.8328,23.8772 13.3938,23.8502 C12.5158,23.7822 11.6538,23.7352 10.6368,23.7492 C9.3028,23.7692 7.8038,23.9322 6.5958,24.1202 C6.3658,24.1572 6.1138,24.1922 5.8508,24.2372 C5.5878,24.2842 5.3128,24.3342 5.0318,24.3842 C4.4728,24.4982 3.8948,24.6172 3.3638,24.7532 C3.2308,24.7852 3.0998,24.8142 2.9738,24.8472 C2.8478,24.8832 2.7258,24.9162 2.6078,24.9492 C2.3728,25.0142 2.1538,25.0702 1.9638,25.1302 C1.5848,25.2482 1.3068,25.3362 1.1918,25.3752 C1.0558,25.4212 1.0798,25.3972 1.2778,25.3132 C1.3768,25.2712 1.5208,25.2152 1.7098,25.1432 C1.8038,25.1092 1.9098,25.0702 2.0268,25.0272 C2.1468,24.9902 2.2768,24.9492 2.4188,24.9042" id="Fill-58" fill="#FFFFFF"></path>
                <g id="Group-62" transform="translate(0.000000, 25.276800)">
                    <mask id="mask-tg3nxxpuwl-4" fill="white">
                        <use xlink:href="#path-tg3nxxpuwl-3"></use>
                    </mask>
                    <g id="Clip-61"></g>
                    <path d="M1.3572,4.1909 C1.5042,4.1249 1.6632,4.0499 1.8322,3.9769 C2.0012,3.9059 2.1792,3.8309 2.3632,3.7529 C2.7302,3.5919 3.1262,3.4409 3.5212,3.2839 C3.9162,3.1259 4.3162,2.9849 4.6902,2.8439 C5.0662,2.7089 5.4202,2.5889 5.7262,2.4829 C7.1812,1.9979 8.3292,1.6539 9.8152,1.2759 C10.5672,1.0809 11.5162,0.8849 12.4672,0.7099 C13.4202,0.5459 14.3782,0.4019 15.1512,0.3249 C15.2262,0.3169 15.3302,0.3059 15.4472,0.2949 C15.5652,0.2809 15.6982,0.2689 15.8312,0.2629 C16.0972,0.2469 16.3632,0.2289 16.5122,0.2199 C16.6742,0.2089 16.6202,0.2309 16.3902,0.2679 C16.2762,0.2859 16.1172,0.3079 15.9202,0.3319 C15.8222,0.3429 15.7132,0.3519 15.5972,0.3689 C15.4802,0.3829 15.3552,0.3999 15.2202,0.4179 C15.0672,0.4369 14.9032,0.4579 14.7272,0.4799 C14.5512,0.5039 14.3662,0.5389 14.1692,0.5709 C13.9732,0.6039 13.7662,0.6339 13.5502,0.6729 C13.3342,0.7129 13.1092,0.7539 12.8752,0.7969 C12.6402,0.8369 12.4072,0.8819 12.1732,0.9289 C11.9392,0.9739 11.7032,1.0189 11.4622,1.0649 C11.2232,1.1179 10.9792,1.1699 10.7282,1.2249 C10.6022,1.2529 10.4752,1.2819 10.3452,1.3099 C10.2162,1.3429 10.0852,1.3759 9.9512,1.4099 C8.5482,1.7579 6.9872,2.2519 5.7262,2.6749 C4.7622,2.9939 3.4612,3.4519 2.3512,3.8879 C1.7942,4.1009 1.2912,4.3209 0.8912,4.4889 C0.4972,4.6669 0.2082,4.7979 0.0892,4.8559 C-0.0518,4.9229 -0.0288,4.8959 0.1762,4.7809 C0.3812,4.6679 0.7632,4.4539 1.3572,4.1909" id="Fill-60" fill="#FFFFFF" mask="url(#mask-tg3nxxpuwl-4)"></path>
                </g>
                <path d="M4.8504,31.3368 C5.2974,31.0738 5.9054,30.7728 6.5084,30.4578 C6.8084,30.2978 7.1164,30.1548 7.4044,30.0188 C7.6934,29.8818 7.9644,29.7538 8.1984,29.6438 C8.3364,29.5768 8.4724,29.5158 8.6064,29.4588 C8.7404,29.4008 8.8714,29.3448 9.0004,29.2888 C9.2584,29.1778 9.5094,29.0688 9.7594,28.9608 C10.0084,28.8488 10.2644,28.7538 10.5254,28.6498 C10.7874,28.5478 11.0574,28.4418 11.3424,28.3308 C11.6304,28.2148 11.9624,28.1078 12.3094,27.9898 C12.6584,27.8748 13.0224,27.7468 13.3914,27.6338 C13.7614,27.5238 14.1314,27.4138 14.4824,27.3098 C14.6594,27.2578 14.8294,27.2028 14.9944,27.1568 C15.1604,27.1118 15.3184,27.0688 15.4684,27.0278 C15.6984,26.9678 16.2884,26.8128 16.5194,26.7518 C16.7674,26.6838 16.3674,26.8708 15.5384,27.1118 C15.4204,27.1478 15.2934,27.1858 15.1584,27.2268 C15.0904,27.2468 15.0204,27.2688 14.9484,27.2898 C14.8774,27.3148 14.8044,27.3388 14.7284,27.3648 C14.4284,27.4668 14.0944,27.5788 13.7324,27.6938 C13.3684,27.8038 13.0124,27.9248 12.6414,28.0498 C12.4554,28.1108 12.2664,28.1748 12.0714,28.2408 C11.8774,28.3078 11.6764,28.3728 11.4724,28.4558 C11.2034,28.5628 10.9264,28.6718 10.6454,28.7828 C10.3664,28.8968 10.0814,29.0048 9.8064,29.1308 C9.5304,29.2518 9.2564,29.3728 8.9904,29.4888 C8.7254,29.6068 8.4654,29.7158 8.2264,29.8308 C7.8584,30.0028 7.4234,30.1998 6.9704,30.4028 C6.5224,30.6188 6.0594,30.8418 5.6304,31.0478 C5.5234,31.1008 5.4174,31.1498 5.3154,31.1998 C5.2154,31.2528 5.1174,31.3038 5.0224,31.3528 C4.8334,31.4498 4.6594,31.5408 4.5054,31.6208 C4.1984,31.7798 3.9734,31.8978 3.8814,31.9488 C3.6624,32.0698 3.9444,31.8468 4.8504,31.3368" id="Fill-63" fill="#FFFFFF"></path>
                <path d="M33.619,25.4657 C33.518,25.4157 33.409,25.3617 33.293,25.3067 C33.179,25.2477 33.054,25.2017 32.927,25.1467 C32.8,25.0917 32.669,25.0357 32.536,24.9797 C32.401,24.9307 32.264,24.8797 32.127,24.8297 C31.579,24.6267 31.02,24.4757 30.593,24.3727 C30.086,24.2537 29.629,24.1737 29.171,24.1177 C28.943,24.0807 28.711,24.0697 28.474,24.0497 C28.237,24.0247 27.992,24.0227 27.732,24.0137 C27.469,23.9977 27.172,24.0137 26.86,24.0127 C26.704,24.0097 26.544,24.0287 26.381,24.0347 C26.219,24.0477 26.054,24.0477 25.89,24.0697 C25.56,24.1077 25.23,24.1387 24.918,24.2007 C24.762,24.2297 24.608,24.2507 24.463,24.2837 C24.317,24.3197 24.177,24.3527 24.045,24.3837 C23.841,24.4227 23.325,24.5747 23.122,24.6327 C23.013,24.6657 23.048,24.6347 23.202,24.5667 C23.279,24.5307 23.386,24.4867 23.519,24.4377 C23.653,24.3877 23.812,24.3297 23.997,24.2857 C24.102,24.2577 24.216,24.2267 24.336,24.1947 C24.397,24.1777 24.459,24.1597 24.523,24.1427 C24.588,24.1277 24.654,24.1127 24.723,24.0987 C24.859,24.0697 25.002,24.0377 25.153,24.0057 C25.303,23.9707 25.461,23.9557 25.624,23.9307 C26.28,23.8347 26.921,23.8287 27.676,23.8327 C28.17,23.8407 28.697,23.8667 29.21,23.9297 C29.466,23.9627 29.722,23.9877 29.965,24.0397 C30.21,24.0857 30.448,24.1247 30.668,24.1867 C30.837,24.2317 31.022,24.2747 31.214,24.3327 C31.405,24.3967 31.605,24.4627 31.808,24.5307 C32.211,24.6837 32.627,24.8507 33.002,25.0357 C33.097,25.0817 33.19,25.1227 33.279,25.1687 C33.367,25.2167 33.453,25.2627 33.536,25.3077 C33.701,25.3987 33.855,25.4757 33.987,25.5557 C34.251,25.7167 34.444,25.8337 34.525,25.8797 C34.621,25.9347 34.596,25.9387 34.446,25.8717 C34.371,25.8397 34.266,25.7887 34.129,25.7197 C34.061,25.6837 33.985,25.6447 33.9,25.5997 C33.815,25.5597 33.721,25.5147 33.619,25.4657" id="Fill-65" fill="#FFFFFF"></path>
                <path d="M33.6629,29.2118 C33.5709,29.1318 33.4719,29.0458 33.3669,28.9538 C33.2639,28.8608 33.1469,28.7788 33.0309,28.6858 C32.9139,28.5938 32.7939,28.4988 32.6709,28.4018 C32.5459,28.3148 32.4179,28.2238 32.2899,28.1338 C32.0379,27.9468 31.7739,27.7878 31.5289,27.6328 C31.4679,27.5948 31.4069,27.5568 31.3479,27.5188 C31.2879,27.4848 31.2279,27.4518 31.1709,27.4198 C31.0549,27.3548 30.9459,27.2928 30.8439,27.2358 C30.3609,26.9738 29.9209,26.7668 29.4749,26.5848 C29.2549,26.4848 29.0269,26.4118 28.7949,26.3268 C28.5639,26.2358 28.3199,26.1698 28.0639,26.0918 C27.8059,26.0058 27.5089,25.9428 27.1999,25.8598 C27.1219,25.8388 27.0429,25.8208 26.9629,25.8068 C26.8829,25.7908 26.8019,25.7748 26.7209,25.7588 C26.6399,25.7418 26.5579,25.7268 26.4759,25.7098 C26.3929,25.6908 26.3099,25.6768 26.2269,25.6668 C25.8949,25.6208 25.5629,25.5678 25.2429,25.5518 C25.0829,25.5418 24.9289,25.5238 24.7789,25.5228 C24.6289,25.5218 24.4849,25.5208 24.3499,25.5198 C24.1419,25.5068 23.6059,25.5358 23.3959,25.5458 C23.2839,25.5528 23.3219,25.5288 23.4849,25.4978 C23.5659,25.4828 23.6789,25.4638 23.8189,25.4458 C23.9579,25.4278 24.1249,25.4088 24.3149,25.4098 C24.4239,25.4068 24.5409,25.4038 24.6659,25.4008 C24.7279,25.3988 24.7919,25.3978 24.8589,25.3958 C24.9249,25.3978 24.9929,25.3988 25.0629,25.4008 C25.2029,25.4058 25.3499,25.4108 25.5039,25.4158 C25.6579,25.4178 25.8169,25.4438 25.9829,25.4608 C26.6479,25.5308 27.2859,25.6918 28.0339,25.8968 C28.5239,26.0358 29.0419,26.2048 29.5409,26.4078 C29.7899,26.5118 30.0389,26.6078 30.2719,26.7278 C30.5069,26.8418 30.7369,26.9458 30.9459,27.0718 C31.1059,27.1648 31.2829,27.2598 31.4629,27.3728 C31.6419,27.4908 31.8299,27.6148 32.0209,27.7418 C32.2089,27.8738 32.3959,28.0208 32.5839,28.1588 C32.6299,28.1938 32.6769,28.2298 32.7239,28.2638 C32.7679,28.3018 32.8129,28.3398 32.8579,28.3768 C32.9469,28.4518 33.0349,28.5248 33.1209,28.5978 C33.2069,28.6708 33.2929,28.7398 33.3729,28.8128 C33.4529,28.8868 33.5309,28.9588 33.6049,29.0278 C33.7529,29.1698 33.8929,29.2928 34.0109,29.4128 C34.2449,29.6538 34.4159,29.8308 34.4889,29.9008 C34.5759,29.9848 34.5499,29.9818 34.4129,29.8698 C34.3449,29.8138 34.2489,29.7318 34.1249,29.6198 C34.0639,29.5638 33.9949,29.4998 33.9189,29.4308 C33.8409,29.3638 33.7559,29.2908 33.6629,29.2118" id="Fill-67" fill="#FFFFFF"></path>
                <path d="M30.3343,29.872 C30.0703,29.643 29.6943,29.402 29.3303,29.141 C29.1493,29.005 28.9593,28.895 28.7813,28.788 C28.6043,28.68 28.4373,28.578 28.2933,28.491 C28.2513,28.465 28.2093,28.439 28.1673,28.414 C28.1253,28.392 28.0833,28.37 28.0413,28.349 C27.9583,28.306 27.8763,28.264 27.7963,28.222 C27.6363,28.139 27.4803,28.059 27.3243,27.978 C27.1703,27.892 27.0083,27.832 26.8443,27.76 C26.6803,27.689 26.5113,27.616 26.3323,27.538 C26.1533,27.452 25.9443,27.388 25.7273,27.303 C25.6183,27.262 25.5063,27.22 25.3943,27.177 C25.3373,27.155 25.2803,27.134 25.2233,27.112 C25.1673,27.089 25.1093,27.068 25.0503,27.053 C24.8173,26.984 24.5843,26.916 24.3623,26.851 C24.2513,26.819 24.1443,26.782 24.0383,26.761 C23.9323,26.74 23.8313,26.721 23.7353,26.702 C23.5883,26.671 23.2133,26.592 23.0663,26.561 C22.9063,26.531 23.1873,26.5 23.7253,26.589 C23.8023,26.6 23.8853,26.612 23.9733,26.626 C24.0183,26.632 24.0633,26.639 24.1103,26.644 C24.1573,26.655 24.2053,26.666 24.2533,26.677 C24.4503,26.721 24.6673,26.77 24.9003,26.832 C25.0163,26.865 25.1343,26.889 25.2483,26.934 C25.3613,26.976 25.4773,27.02 25.5943,27.064 C25.7103,27.108 25.8303,27.153 25.9533,27.199 C26.0763,27.246 26.2043,27.285 26.3333,27.346 C26.5033,27.418 26.6803,27.493 26.8583,27.568 C27.0363,27.644 27.2203,27.709 27.3933,27.803 C27.5673,27.891 27.7413,27.977 27.9093,28.061 C28.0763,28.147 28.2413,28.225 28.3883,28.322 C28.6153,28.464 28.8803,28.635 29.1553,28.814 C29.4233,29.01 29.6953,29.226 29.9493,29.42 C30.0123,29.47 30.0753,29.516 30.1333,29.565 C30.1913,29.617 30.2483,29.668 30.3023,29.716 C30.4103,29.813 30.5103,29.902 30.5993,29.981 C30.7753,30.139 30.9043,30.253 30.9593,30.298 C31.0903,30.405 30.8763,30.309 30.3343,29.872" id="Fill-69" fill="#FFFFFF"></path>
            </g>
        </g>
    </g>
</svg>