<svg height="200" viewBox="0 0 1024 1024" width="200" xmlns="http://www.w3.org/2000/svg"><g fill="#d81e06"><path d="m1002.709333 371.841219-150.999771-238.089752c-13.185219-20.7616-40.738133-26.904381-61.561905-13.833753l-753.595733 476.737829c-20.766476 13.185219-26.904381 40.738133-13.861791 61.442438l150.999772 238.120229c13.186438 20.709181 40.738133 26.847086 61.505828 13.777676l753.623772-476.704915c20.823771-13.192533 27.079924-40.711314 13.889828-61.449752zm-30.076343 35.861943-753.623771 476.767086c-6.665752 4.199619-15.390476 2.233295-19.590095-4.404419l-150.999772-238.11901c-4.200838-6.666971-2.233295-15.362438 4.432458-19.619352l753.653028-476.737829c6.671848-4.171581 15.42339-2.200381 19.562057 4.437333l151.061943 238.115353c4.052114 6.523124 2.056533 15.275886-4.495848 19.560838zm-649.647542-151.085105 12.514742 30.014172 16.214553-28.166096 32.394971-2.614857-21.82339-24.143238 7.432533-31.575771-29.609447 13.309562-27.813791-16.833829 3.523048 32.338895-24.671086 21.033448zm191.885409-89.352533-15.567238-28.575695-13.185219 29.752076-32.014629 6.109866 24.171277 21.675886-4.171581 32.219429 28.195352-16.301105 29.404648 13.953219-6.785219-31.837867 22.290285-23.61539zm292.548267 478.676114-25.762134-19.799771-.11459 32.457143-26.904381 18.243047 30.985752 10.220495 9.133105 31.161296 19.209753-26.229029 32.514438.910629-19.090286-26.372877 11.014095-30.461561zm-105.15261 129.409219-12.275809-30.104381-16.481524 28.052724-32.366933 2.349105 21.61859 24.260266-7.695848 31.542858 29.781334-13.009677 27.700419 17.209296-3.262172-32.366934 24.671086-21.000533zm-192.624152 88.00061 15.424609 28.695162 13.452191-29.666743 32.014628-5.723429-24.028647-21.914819 4.409295-32.190171-28.314819 16.009752-29.257143-14.1568 6.519467 31.775695-22.614553 23.530057zm-288.547352-480.933791 25.614628 20.119162.380343-32.485181 27.023848-18.152838-30.813867-10.428952-8.900267-31.3088-19.44259 26.052266-32.514438-1.176381 18.82819 26.494781-11.223771 30.548115zm-114.403962 140.247772c-3.4048-137.519543 63.47581-273.481143 188.071009-352.285258 124.623238-78.805333 276.124038-81.038629 399.190553-19.295085l29.724038-18.800153c-36.419048-20.353219-75.600457-35.247543-116.866438-44.500114-55.133867-12.395276-111.290514-13.948343-166.805943-4.814019-57.480533 9.513448-111.818362 30.251886-161.456762 61.70941-49.609143 31.456305-91.671162 71.637333-124.862172 119.514209-32.132876 46.171429-54.718171 97.604267-67.142704 152.646705-9.252571 41.205029-12.542781 82.972038-9.662172 124.596419zm809.285485-21.028572c3.552305 137.519543-63.328305 273.481143-187.923504 352.257219-124.5952 78.890667-276.122819 81.066667-399.162515 19.324343l-29.781333 18.828191c36.419048 20.294705 75.628495 35.220724 116.900571 44.470857 55.127771 12.395276 111.285638 14.010514 166.799848 4.814019 57.480533-9.514667 111.819581-30.223848 161.428724-61.681372s91.671162-71.638552 124.890209-119.486171c32.014629-46.228724 54.599924-97.628648 66.9952-152.643048 9.28061-41.237943 12.514743-83.03299 9.632915-124.656152zm-531.338971-189.447314c34.895238-22.02819 73.281829-33.781029 111.819581-36.128914l45.994667-29.080381c-60.771962-7.166781-121.628038 6.523124-174.143391 39.684876-52.371505 33.128838-90.761752 82.328381-110.2336 140.247771l45.966629-29.075504c18.681905-33.95779 45.73501-63.562362 80.596114-85.647848zm253.509486 399.895162c-34.895238 22.090362-73.252571 33.838324-111.790324 36.186209l-45.967848 29.080381c60.743924 7.166781 121.571962-6.552381 174.115353-39.714133 52.371505-33.099581 90.761752-82.328381 110.204342-140.247771l-45.93859 29.137676c-18.679467 33.80541-45.76061 63.529448-80.622933 85.557638zm-338.951315-63.914667"/><path d="m139.871086 644.476343 136.065219-87.271619 1.083733-14.716343 23.276495 1.428724-4.670171 11.17379c21.238248 33.11421 35.531581 54.729143 42.878781 64.804572l-10.793448 13.933714-7.965257-12.418438-118.358552 75.912533 46.195809 72.02621c5.039543 9.235505 12.981638 9.982781 23.808 2.255238l111.83421-71.728762c11.540724-6.61699 15.262476-14.464 11.204266-23.544686-4.071619-9.070933-10.747124-21.533257-20.036266-37.393066l4.6592-2.987886c18.054095 28.14781 32.096305 39.788495 42.121752 34.912305.78019 13.521676-7.269181 24.907581-24.122514 34.166247l-129.539657 83.08541c-12.698819 8.912457-23.330133 6.019657-31.913448-8.74301-36.455619-56.838095-57.840152-89.473219-64.119467-97.918781l26.2144-6.295162-3.738819 10.576457 4.247162 6.624305 118.358553-75.913752-35.575467-55.466667-107.17501 68.740876c-8.081067 5.18339-15.006476 10.794667-20.77379 16.828953z"/><path d="m254.027581 799.252724c-9.20381 0-17.153219-5.617371-23.6288-16.698514-36.071619-56.238324-57.542705-89.033143-63.811048-97.464077l-5.507657-7.408152 46.099505-11.070171-5.828267 16.483961 106.787353-68.493409-28.993829-45.204724-102.044038 65.449448c-7.632457 4.895695-14.24701 10.247314-19.658362 15.90979l-2.202819 2.305219-32.163352-5.054171 147.004952-94.288457 1.301943-17.683505 37.841676 2.322286-6.742552 16.131657c20.193524 31.44899 33.965105 52.238629 40.94659 61.814247l2.698972 3.701029-18.885486 24.380952-9.335467-14.554209-108.096609 69.332114 43.125028 67.265829c2.3808 4.36419 4.534857 4.36419 5.454019 4.36419 1.665219 0 4.657981-.720457 9.462248-4.149638l.251124-.170667 112.093866-71.886019c12.512305-7.174095 9.918171-12.9792 8.671086-15.770819-3.964343-8.832-10.604495-21.216305-19.730286-36.800609l-2.958628-5.051734 14.717562-9.437866 3.290209 5.130971c19.21219 29.953219 28.980419 33.187352 32.288915 33.187353.736305 0 1.383619-.147505 2.035809-.465677l8.224914-4.000914.526629 9.130667c.919162 15.947581-8.194438 29.32419-27.088457 39.758019l-129.26781 82.909866c-5.775848 4.03139-11.454171 6.075733-16.878933 6.075734zm-72.412648-113.966324c9.857219 14.457905 29.6704 44.886552 59.114057 90.793448l.138972.226742c4.149638 7.136305 8.577219 10.754438 13.159619 10.754439 2.902552 0 6.262248-1.325105 9.984-3.936305l.210895-.14141 3.197562-2.051657c-3.153676 1.375086-6.145219 2.052876-9.030705 2.052876-4.667733 0-11.223771-1.83101-16.046323-10.515504l-55.128991-85.956267.992305-2.809905zm216.271238-15.969524a186.681295 186.681295 0 0 1 2.106515 4.517791c2.641676 5.914819 4.737219 16.392533-6.371962 26.154666l.49859-.302323c11.663848-6.408533 18.39421-13.574095 20.384915-21.758781-5.202895-.570514-10.691048-3.395048-16.618058-8.611353zm-72.903923-51.03299 3.198781 4.987124 2.72579-3.52061c-7.920152-11.246933-21.200457-31.416076-40.411429-61.369295l-1.726171-2.690438 2.596571-6.215924-8.710095-.533943-.287695 3.907048.457143-.292572z"/><path d="m559.303924 435.047619-3.424305-25.846248-154.704457 99.2256c4.075276 3.630324 6.64259 6.254933 7.704381 7.9104 2.123581 3.312152 2.607543 7.493486 1.44579 12.509867-1.16541 5.039543-4.096 8.671086-8.79299 10.899505-4.701867 2.247924-7.402057 2.812343-8.116419 1.700571-1.06179-1.656686-1.329981-3.419429-.789943-5.335771.977676-5.300419.958171-11.131124-.043886-17.49821-1.015467-6.359771-3.203657-13.520457-6.554819-21.501562l4.6592-2.989104 7.303314 9.336685 152.840534-98.029714 2.145524-13.059657 25.802362 3.31459c-8.606476 7.088762-13.824 20.166705-15.616 39.226515zm-139.739429 149.216305 158.432305-101.616153 6.014781-21.384533 30.721219 4.832305-70.829105 45.429028 35.576686 55.466667c4.683581 8.682057 12.930438 9.233067 24.740571 1.659124l34.481981-22.117181c5.846552-4.536076 7.89821-9.537829 6.139124-15.038171-1.7664-5.475962-7.653181-16.707048-17.648152-33.66522l3.729066-2.390552c6.278095 8.441905 12.200229 15.945143 17.727391 22.513372 5.536914 6.580419 12.422095 8.79299 20.677486 6.602361.330362 11.473676-6.518248 21.305295-20.526324 29.521677l-42.869029 27.498057c-16.426667 11.30179-28.706133 10.614248-36.844495-2.074819l-38.230552-59.606553-33.550629 21.518629c8.05059 16.65219 13.589943 31.7952 16.633905 45.415619 3.036648 13.643581 1.492114 27.287162-4.644572 40.953905-6.148876 13.676495-19.822933 31.992686-41.044114 54.952228l-3.056152-2.714819c23.450819-29.062095 35.492571-51.976533 36.141104-68.749409.633905-16.764343-5.355276-37.059048-18.00899-60.89021l-40.074971 25.7024-11.984458 10.024229zm1.928534-50.311314 104.379733-66.947658 4.811581-17.108114 26.333867 4.142324-102.51581 65.751771c-8.708876 5.584457-15.313676 10.989714-19.842438 16.229181zm13.038933-100.668953.799695-2.851352c13.394895-2.346667 23.018057-3.078095 28.869486-2.157715 5.852648.920381 9.667048 2.7648 11.433447 5.519848 1.776152 2.768457 2.463695 6.598705 2.11261 11.498057-.365714 4.909105-1.169067 7.759238-2.4064 8.554057-1.863924 1.194667-5.189486-.561981-9.97059-5.290666-7.441067-6.125714-17.716419-11.220114-30.838248-15.272229z"/><path d="m468.67139 691.258514-11.869866-10.542324 3.651047-4.523885c22.493867-27.875962 34.200381-49.798095 34.794058-65.158095.5376-14.249448-4.260571-31.687924-14.276267-51.902172l-34.102857 21.872152-13.81181 11.552915-30.283581-4.7616 169.984-109.025524 6.853486-24.367543 51.914362 8.1664-79.199086 50.796495 32.519314 50.731886c1.77981 3.297524 3.543771 3.752229 5.187048 3.752229 1.891962 0 5.318705-.750933 10.898286-4.330058l34.23939-21.961142c5.179733-4.105752 4.294705-6.869333 3.866819-8.20541-1.110552-3.44259-4.982248-11.877181-17.092266-32.427886l-2.979353-5.056609 13.455848-8.630857 3.393828 4.564114c6.070857 8.162743 11.960076 15.6416 17.500648 22.225676 4.061867 4.829867 8.501638 6.217143 14.450591 4.636038l7.434971-1.972419.221867 7.689753c.394971 13.770362-7.48739 25.508571-23.428877 34.890362l-42.68739 27.382247c-8.828343 6.059886-16.625371 9.006324-23.831162 9.006324-6.051352 0-14.695619-2.232076-21.51619-12.869486l-34.940343-54.475581-23.9104 15.335619c6.982705 15.112533 11.950324 29.17059 14.782171 41.848686 3.31581 14.894324 1.621333 29.958095-5.032228 44.778057-6.48899 14.432305-20.267886 32.942324-42.129067 56.593067l-4.056991 4.388571zm19.894858-144.009752.143847.271848c13.092571 24.655238 19.388952 46.179962 18.717257 63.978057a48.496152 48.496152 0 0 1 -.49859 5.251657c2.856229-9.569524 3.197562-18.9952 1.060571-28.598857-2.88061-12.89021-8.183467-27.437105-15.768381-43.248153zm47.527009-30.483505 38.125714 59.4432c4.1728 6.507276 8.421181 7.259429 11.253029 7.259429 4.472686 0 9.985219-2.186971 16.392533-6.499962-4.277638 2.06141-8.184686 3.072-11.834514 3.072-4.720152 0-11.273752-1.731048-15.797638-9.938895l-35.354819-55.120458zm113.673753 10.453333c.351086.88259.642438 1.683505.876495 2.405181 1.365333 4.270324 2.225981 12.255086-6.076953 19.927772l1.152-.732648c8.996571-5.277257 14.470095-11.006781 16.557105-17.376305-4.565333-.201143-8.747886-1.615238-12.508647-4.224zm-61.354667-59.093333-2.6112 9.285486 12.139276-7.786057zm-193.631086 79.967086c-2.757486.001219-5.124876-1.221486-6.493867-3.3536-1.952914-3.045181-2.507581-6.480457-1.615238-9.960838.803352-4.527543.765562-9.645105-.112152-15.218591-.928914-5.814857-3.000076-12.578133-6.153752-20.089904l-1.983391-4.72381 13.643581-8.751543 7.303314 9.336686 63.512381-40.735695a57.624381 57.624381 0 0 1 -1.588419-1.500648c-6.791314-5.525943-16.398629-10.231467-28.561066-13.987352l-5.673448-1.752991 3.440152-12.264838 3.780267-.661943c14.3616-2.517333 24.2176-3.220724 30.867505-2.176 7.727543 1.21539 12.836571 3.914362 15.617219 8.250514 1.8688 2.913524 2.901333 6.414629 3.1232 10.617905l61.366857-39.35939 2.659962-16.190172 45.610667 5.858743-10.872686 8.956343c-7.281371 5.997714-11.796724 17.80419-13.421714 35.092724l-.501029 5.329676-14.741943.527848-2.891581-21.827048-140.09539 89.854781c1.3568 1.429943 2.335695 2.630705 3.008609 3.680305 3.011048 4.695771 3.782705 10.410667 2.295467 16.994743l104.327314-66.914743 5.651505-20.089905 47.52579 7.476419-116.016761 74.411886c-8.162743 5.23459-14.394514 10.309486-18.52221 15.084495l-2.21379 2.561219-24.690591-3.880229c-2.08579 2.747733-4.849371 4.963962-8.221257 6.564572-4.105752 1.962667-6.998552 2.840381-9.363505 2.840381zm3.050057-34.478324a70.448762 70.448762 0 0 1 .769219 4.036267c.9216 5.861181 1.081295 11.396876.477867 16.512 2.936686-1.443352 4.572648-3.512076 5.307733-6.690134.785067-3.386514.57661-5.95261-.637562-7.84579-.247467-.387657-1.393371-1.93219-5.917257-6.012343zm137.25501-56.853943-1.408 5.009067 6.548724-4.200838zm-81.389714-22.599924c6.02941 2.896457 11.228648 6.134248 15.547733 9.688991l.413257.373028a43.885714 43.885714 0 0 0 1.910248 1.788343c.035352-.359619.069486-.748495.101181-1.170285.249905-3.488914-.152381-6.175695-1.16541-7.754362-.542476-.846019-2.767238-2.084571-7.249676-2.789181-2.299124-.362057-5.549105-.410819-9.557333-.136534zm107.048228-34.64899 1.397029 10.5472c1.332419-3.62301 2.896457-6.87421 4.699428-9.764572zm-2.708724-.348648-.259657 1.579886 2.095543-1.34461z"/><path d="m888.477257 378.152229-11.649219-42.770286 4.259352-1.564038c8.48579 18.712381 14.506667 30.823619 18.041905 36.334933s8.446781 9.771886 14.749257 12.740267c2.64899 1.404343 2.735543 2.919619.260877 4.506819-4.354438 2.792838-13.681371 6.036724-27.947886 9.746286-14.290895 3.707124-34.685562 1.998019-61.184-5.157791-7.932343 30.026362-20.573867 56.812495-37.885562 80.382781l-3.056152-2.7136c15.6416-30.278705 24.868571-57.61341 27.645561-81.994362-25.528076-12.436724-52.7104-37.066362-81.577447-73.869409l-73.624381 47.222247 24.555276 40.335848 42.870248-27.495619 3.076876-13.65821 21.412571 2.622172-4.670171 11.175009c19.375543 34.311314 29.188876 55.0912 29.447314 62.318934.252343 7.250895-2.907429 15.302705-9.476876 24.19078-6.816914-6.528-19.278019-7.499581-37.374781-2.902552l-2.1248-3.312152c12.858514-5.909943 21.813638-10.082743 26.821486-12.528153 5.016381-2.433219 6.457295-6.659657 4.341028-12.715885-2.122362-6.033067-11.2384-22.969295-27.334704-50.819658l-43.8016 28.092953c27.521219 47.012571 35.000076 87.382552 22.4512 121.137981l-3.457219-1.290972c3.057371-30.768762-2.464914-58.1888-16.583924-82.251581-14.109257-24.05059-25.059962-42.147352-32.849676-54.293942-7.7824-12.1344-14.830933-22.419505-21.109029-30.86141l21.5552-3.307276 71.759238-46.026362a12127.082057 12127.082057 0 0 0 -33.332419-41.71581l29.539962-7.263085-2.275962 10.806857c5.666133 8.834438 12.651276 18.377143 20.97981 28.60739l51.257295-32.875276 5.613714-19.959467 29.258362 4.601905-82.944 53.199238c27.092114 34.03459 50.074819 55.515429 68.95299 64.440077.718019-9.808457.199924-21.54301-1.549409-35.228039-1.75421-13.663086-4.404419-28.7232-7.921372-45.163276l28.067353.693638-5.733181 9.518324c3.947276 29.418057 4.939581 54.870552 2.957409 76.389181 21.898971 5.433295 41.756038 6.33539 59.589486 2.674591zm-154.127847-133.663696c17.295848-1.745676 29.265676-2.211352 35.918019-1.421409 6.646248.813105 10.66179 3.293867 12.028342 7.473981 1.375086 4.193524 1.248305 7.779962-.347428 10.73859-1.60061 2.98179-2.718476 4.666514-3.330438 5.059048-2.490514 1.596952-5.764876.592457-9.838934-3.036648-5.756343-4.872533-17.639619-9.718248-35.631542-14.535924z"/><path d="m710.289067 535.302095-13.574096-5.066362.464458-4.67139c2.914743-29.32541-2.39421-55.758019-15.775696-78.565181-13.999543-23.864076-25.009981-42.062019-32.724114-54.087924-7.581257-11.819886-14.602971-22.086705-20.868876-30.5152l-6.044038-8.126171 30.287238-4.648229 64.988647-41.682895a11708.523276 11708.523276 0 0 0 -29.110857-36.414172l-5.985523-7.453257 44.206323-10.869028-.540038-.145067 3.994819-14.217752 4.132572-.416915c11.995429-1.210514 21.651505-1.824914 28.700038-1.824914 3.403581 0 6.200076.135314 8.5504.415695 11.454171 1.400686 15.619657 7.099733 17.102019 11.632153.686324 2.097981 1.092267 4.119162 1.216609 6.057447l4.089905-14.542019 50.451505 7.934781-90.730057 58.193676c20.653105 25.336686 38.8096 43.028724 54.157409 52.785981-.060952-7.210667-.664381-15.331962-1.805409-24.266362-1.711543-13.331505-4.348343-28.358705-7.836038-44.661028l-1.616457-7.559314 46.275047 1.143466-10.040076 16.669257c3.449905 26.517943 4.499505 50.13699 3.126857 70.326858 10.743467 2.34179 21.023695 3.527924 30.623695 3.529142h.002438c5.0688 0 10.031543-.330362 14.826058-.987428l-11.352991-41.687772 14.8224-5.443047 2.338133 5.155352c8.30659 18.318629 14.236038 30.283581 17.621334 35.560838 2.945219 4.592152 6.940038 8.032305 12.216076 10.516724l.258438.129219c4.21059 2.234514 5.200457 5.224838 5.28701 7.339886.086552 2.105295-.638781 5.148038-4.592153 7.682438-4.992 3.202438-14.431086 6.543848-29.703314 10.514286-5.367467 1.392152-11.534629 2.097981-18.333257 2.097981-11.237181 0-24.707657-1.93219-40.107886-5.750248-8.160305 28.281905-20.676267 54.019657-37.250438 76.586667l-3.959467 5.389409-11.600457-10.298514 2.174781-4.210591c14.34941-27.776 23.241143-53.221181 26.467962-75.715047-24.064-12.782933-49.705448-36.042362-76.334324-69.244343l-63.971962 41.030705 18.213791 29.920304 35.512076-22.776685 3.740038-16.598553 34.872076 4.271543-6.625524 15.850057c25.07459 44.629333 28.565943 56.860038 28.768305 62.498134.299886 8.622324-3.28899 18.051657-10.667886 28.032l-4.116723 5.568609-5.000534-4.789638c-5.073676-4.860343-16.091429-5.351619-31.658666-1.397028l-4.258134 1.081295-8.284647-12.910934 6.371962-2.928152c13.468038-6.190324 21.950171-10.152229 26.692266-12.4672 1.482362-.719238 2.640457-1.281219 1.261715-5.227276-1.28-3.637638-6.48899-14.336-23.670248-44.25021l-33.542095 21.512534c25.963276 46.336 32.689981 87.108267 19.9936 121.261104zm-66.801372-172.032c4.832305 6.84739 10.007162 14.567619 15.453867 23.060724 7.799467 12.161219 18.895238 30.498133 32.976457 54.499962a130.08579 130.08579 0 0 1 10.149791 21.608838c-4.36541-16.458362-11.986895-34.03459-22.854705-52.660419l-.110934.071924-28.976761-47.598934zm106.870248 85.588115c4.461714.413257 8.387048 1.467733 11.747962 3.153676 3.4816-5.749029 5.162667-10.940952 5.00419-15.486781-.099962-2.812343-3.095162-14.254324-28.663466-59.53341l-1.466515-2.596571 2.717257-6.503619-7.953066-.974019-.893562 3.969219 2.478324 4.288609c21.914819 37.917257 26.365562 47.750095 27.807695 51.847315 3.158552 9.035581.44739 16.402286-7.431314 20.222781-.963048.470552-2.074819 1.006933-3.347505 1.6128zm-18.850133-143.188115 3.421866 4.361753c28.170971 35.9168 54.902248 60.192914 79.45021 72.151771l3.875352 1.887086-.487619 4.282514a166.389029 166.389029 0 0 1 -2.411276 14.923581 251.261562 251.261562 0 0 0 3.758324-12.845105l1.565257-5.92579 5.917257 1.598171c25.217219 6.810819 44.94141 8.546743 58.065676 5.143162 10.019352-2.605105 16.437638-4.687238 20.547048-6.2976a39.904305 39.904305 0 0 1 -11.210362-11.50659 63.071086 63.071086 0 0 1 -.867962-1.397029l2.934248 10.771505-6.36221 1.3056c-7.531276 1.545752-15.503848 2.3296-23.697067 2.3296h-.003657c-12.073448 0-25.056305-1.70179-38.582857-5.059048l-5.082209-1.261714.481523-5.213867c1.927314-20.929829.941105-46.17021-2.929371-75.018971l-.284038-2.122362 1.429943-2.372267-9.902324-.245028c2.785524 13.742324 4.945676 26.530133 6.430476 38.103771 1.794438 14.031238 2.325943 26.293638 1.582324 36.448305l-.648533 8.864914-8.034743-3.799771c-19.914362-9.414705-43.177448-31.055238-71.1168-66.155276l-4.204496-5.282134.501029-.321828c-8.134705-10.036419-15.138133-19.613257-20.823771-28.475734l-1.348267-2.102857.792381-3.760762-10.844648 2.667276c8.110324 10.120533 17.286095 21.613714 27.368838 34.282058l.266972.334019zm-5.077334-35.625447c4.494629 6.838857 9.796267 14.121448 15.818362 21.727085l30.000762-19.242666c-2.403962-.791162-4.871314-2.321067-7.459352-4.616534-3.49501-2.933029-12.097829-7.601981-33.219048-13.257143l-1.798095-.481523zm75.769905-16.156038-2.210133 7.8592 10.276571-6.590172zm-47.835429-4.872534c8.365105 3.126857 14.431086 6.318324 18.351543 9.635353l.11581.101181c1.121524.9984 1.948038 1.554286 2.499047 1.861485a52.175238 52.175238 0 0 0 1.247086-2.216228c.29379-.543695 1.169067-2.165029-.074362-5.956267-.694857-2.127238-4.177676-2.980571-6.977828-3.323124-3.31581-.394971-8.480914-.436419-15.161296-.1024z"/></g></svg>