<svg height="200" viewBox="0 0 1024 1024" width="200" xmlns="http://www.w3.org/2000/svg"><g fill="#13227a"><path d="m1002.709333 371.841219-150.999771-238.089752c-13.185219-20.7616-40.738133-26.904381-61.561905-13.833753l-753.595733 476.737829c-20.766476 13.185219-26.904381 40.738133-13.861791 61.442438l150.999772 238.120229c13.186438 20.709181 40.738133 26.847086 61.505828 13.777676l753.623772-476.704915c20.823771-13.192533 27.079924-40.711314 13.889828-61.449752zm-30.076343 35.861943-753.623771 476.767086c-6.665752 4.199619-15.390476 2.233295-19.590095-4.404419l-150.999772-238.11901c-4.200838-6.666971-2.233295-15.362438 4.432458-19.619352l753.653028-476.737829c6.671848-4.171581 15.42339-2.200381 19.562057 4.437333l151.061943 238.115353c4.052114 6.523124 2.056533 15.275886-4.495848 19.560838zm-649.647542-151.085105 12.514742 30.014172 16.214553-28.166096 32.394971-2.614857-21.82339-24.143238 7.432533-31.575771-29.609447 13.309562-27.813791-16.833829 3.523048 32.338895-24.671086 21.033448zm191.885409-89.352533-15.567238-28.575695-13.185219 29.752076-32.014629 6.109866 24.171277 21.675886-4.171581 32.219429 28.195352-16.301105 29.404648 13.953219-6.785219-31.837867 22.290285-23.61539zm292.548267 478.676114-25.762134-19.799771-.11459 32.457143-26.904381 18.243047 30.985752 10.220495 9.133105 31.161296 19.209753-26.229029 32.514438.910629-19.090286-26.372877 11.014095-30.461561zm-105.15261 129.409219-12.275809-30.104381-16.481524 28.052724-32.366933 2.349105 21.61859 24.260266-7.695848 31.542858 29.781334-13.009677 27.700419 17.209296-3.262172-32.366934 24.671086-21.000533zm-192.624152 88.00061 15.424609 28.695162 13.452191-29.666743 32.014628-5.723429-24.028647-21.914819 4.409295-32.190171-28.314819 16.009752-29.257143-14.1568 6.519467 31.775695-22.614553 23.530057zm-288.547352-480.933791 25.614628 20.119162.380343-32.485181 27.023848-18.152838-30.813867-10.428952-8.900267-31.3088-19.44259 26.052266-32.514438-1.176381 18.82819 26.494781-11.223771 30.548115zm-114.403962 140.247772c-3.4048-137.519543 63.47581-273.481143 188.071009-352.285258 124.623238-78.805333 276.124038-81.038629 399.190553-19.295085l29.724038-18.800153c-36.419048-20.353219-75.600457-35.247543-116.866438-44.500114-55.133867-12.395276-111.290514-13.948343-166.805943-4.814019-57.480533 9.513448-111.818362 30.251886-161.456762 61.70941-49.609143 31.456305-91.671162 71.637333-124.862172 119.514209-32.132876 46.171429-54.718171 97.604267-67.142704 152.646705-9.252571 41.205029-12.542781 82.972038-9.662172 124.596419zm809.285485-21.028572c3.552305 137.519543-63.328305 273.481143-187.923504 352.257219-124.5952 78.890667-276.122819 81.066667-399.162515 19.324343l-29.781333 18.828191c36.419048 20.294705 75.628495 35.220724 116.900571 44.470857 55.127771 12.395276 111.285638 14.010514 166.799848 4.814019 57.480533-9.514667 111.819581-30.223848 161.428724-61.681372s91.671162-71.638552 124.890209-119.486171c32.014629-46.228724 54.599924-97.628648 66.9952-152.643048 9.28061-41.237943 12.514743-83.03299 9.632915-124.656152zm-531.338971-189.447314c34.895238-22.02819 73.281829-33.781029 111.819581-36.128914l45.994667-29.080381c-60.771962-7.166781-121.628038 6.523124-174.143391 39.684876-52.371505 33.128838-90.761752 82.328381-110.2336 140.247771l45.966629-29.075504c18.681905-33.95779 45.73501-63.562362 80.596114-85.647848zm253.509486 399.895162c-34.895238 22.090362-73.252571 33.838324-111.790324 36.186209l-45.967848 29.080381c60.743924 7.166781 121.571962-6.552381 174.115353-39.714133 52.371505-33.099581 90.761752-82.328381 110.204342-140.247771l-45.93859 29.137676c-18.679467 33.80541-45.76061 63.529448-80.622933 85.557638zm-338.951315-63.914667"/><path d="m132.294705 638.816305.802133-2.850134c15.338057-2.043124 26.673981-2.502705 33.989486-1.351923 7.314286 1.149562 11.895467 3.871695 13.755733 8.118857 1.85539 4.269105 2.063848 8.023771.650972 11.266438-1.427505 3.252419-2.455162 5.078552-3.067124 5.471086-2.490514 1.598171-6.784-.321829-12.896305-5.750248-7.798248-6.680381-18.873295-11.644343-33.234895-14.904076zm116.362971 124.002743c10.015695.585143 21.346743.147505 33.989486-1.351924 12.636648-1.478705 28.689067-7.886019 48.1792-19.219505 19.476724-11.323733 37.571048-22.747429 54.319543-34.255238 16.724114-11.511467 32.329143-23.071695 46.804114-34.692876l2.123581 3.312152c-12.175848 12.483048-15.870781 21.078552-11.075048 25.797486-28.584229 18.335695-51.907048 32.889905-69.962362 43.705295-18.062629 10.799543-32.95939 18.016305-44.657371 21.633219-11.722362 3.6096-24.707657 4.54339-38.980267 2.800153-13.916648-1.19101-21.896533-1.328762-23.943314-.416915-2.037029.924038-4.132571 5.188267-6.269562 12.782934-2.141867 7.619048-3.844876 19.992381-5.105371 37.156571l-18.486857-2.161371c5.603962-14.495695 12.409905-30.543238 20.417828-48.147505l-44.602514-69.540572-8.387048 5.378438c-8.082286 5.18339-15.006476 10.793448-20.775009 16.828953l-13.165715-2.068724 36.345905-23.311848 4.410515-15.683047 20.481219 3.221943-4.671391 11.17379zm22.865676-89.447619-29.735009-46.359162-9.319619 5.975771c-8.082286 5.18339-15.006476 10.794667-20.773791 16.831391l-13.166933-2.071162 40.074971-25.7024a1294.806552 1294.806552 0 0 0 -29.604571-44.107581l27.806476-3.8144-4.670171 11.175009 18.583162 28.975543 37.278476-23.909181a1246.299429 1246.299429 0 0 0 -29.604572-44.107581l27.274972-4.643352-4.138667 12.005181 18.584381 28.974324 14.911391-9.563429 4.811581-17.108114 25.401295 4.740876-41.937676 26.897067 29.735009 46.3616 21.434514-13.7472 4.811581-17.108115 25.401296 4.740876-48.462019 31.082058c20.533638 32.017067 33.583543 51.687619 39.161904 59.009219l-10.261943 14.761447c-6.465829-11.428571-20.125257-33.428724-41.016076-66.000457l-37.278476 23.909181c14.779733 27.145752 11.679695 57.173333-9.298895 90.090057l-3.457219-1.288533c13.698438-30.583467 13.908114-57.590248.641219-81.031314l-14.911391 9.564647c-8.082286 5.18339-15.007695 10.793448-20.775009 16.828953l-13.165714-2.071162zm-17.620114-54.130591 29.736229 46.3616 37.278476-23.911619-29.73501-46.359162z"/><path d="m239.694019 826.864152-32.621714-3.8144 2.836724-7.338666c5.295543-13.697219 11.743086-28.974324 19.182933-45.448534l-39.522743-61.620419-3.257295 2.088229c-7.636114 4.898133-14.250667 10.249752-19.658362 15.908571l-2.202819 2.306438-32.164572-5.054171 47.900039-30.722438 5.249219-18.667276 33.501866 5.269943-6.432914 15.389257 4.010667 6.252495 46.587123-29.881295-23.15459-36.099657-4.188648 2.686781c-7.633676 4.895695-14.24701 10.248533-19.657143 15.911009l-2.204038 2.306438-25.602438-4.027733a17.130057 17.130057 0 0 1 -1.21539 4.127695c-2.186971 4.981029-3.487695 6.960762-5.358934 8.162743-1.543314.991086-3.364571 1.511619-5.27238 1.511619-4.252038 0-8.867352-2.414933-14.966248-7.832381-6.915657-5.922133-17.217829-10.493562-30.537143-13.518019l-6.256152-1.420191 3.627885-12.885333 3.975315-.530286c10.079086-1.34339 18.619733-2.023619 25.383009-2.023619 3.95459 0 7.438629.232838 10.357029.6912 9.457371 1.487238 15.645257 5.422324 18.39299 11.695543 1.008152 2.318629 1.65181 4.56899 1.930972 6.741334l41.812114-26.81661a1304.929524 1304.929524 0 0 0 -26.161981-38.776686l-5.733181-8.179809 48.265752-6.621867-7.548342 18.062629 13.566781 21.154133 27.005561-17.320229a1236.217905 1236.217905 0 0 0 -26.157104-38.769371l-5.552762-7.895771 46.927238-7.988419-6.526781 18.934247 13.698438 21.360153 7.831162-5.021258 5.692952-20.242285 45.993448 8.584533-49.750552 31.908571 23.153371 36.099658 14.354286-9.206248 5.692952-20.242286 45.993448 8.584534-56.272457 36.089904c18.502705 28.779276 30.466438 46.75779 35.586438 53.477181l2.690438 3.530362-5.814857 8.362667c1.540876-1.041067 3.072-2.084571 4.588495-3.126857 16.583924-11.415162 32.210895-22.998552 46.439619-34.421029l5.287009-4.244724 8.399238 13.097448-3.382857 3.46819c-11.529752 11.821105-11.730895 16.637562-11.162819 17.197105l5.439391 5.354057-6.424381 4.1216c-28.167314 18.067505-51.759543 32.80579-70.120838 43.802819-18.407619 11.005562-33.879771 18.4832-45.988572 22.228115-12.469638 3.837562-26.391162 4.860343-41.40739 3.040304-7.612952-.649752-13.432686-.980114-17.297067-.980114-1.537219 0-2.52221.053638-3.124419.107276-.574171.948419-1.755429 3.346286-3.297524 8.825905-2.023619 7.199695-3.670552 19.296305-4.893257 35.952153zm-15.529448-14.089752 4.341029.507124c.47421-5.523505.9984-10.475276 1.577448-14.880914a812.233143 812.233143 0 0 0 -5.918477 14.37379zm-30.915047-120.97341 47.550171 74.136381c.583924-.492495 1.194667-.893562 1.837105-1.21539l-43.845486-68.364191 2.908648-6.958323-7.460572-1.172724-1.008152 3.585219zm222.001981 2.119924a854.301257 854.301257 0 0 1 -26.6496 19.091505c-16.913067 11.621181-35.318248 23.228952-54.710857 34.503924-12.767086 7.424-24.015238 12.764648-33.974858 16.112152a72.941714 72.941714 0 0 0 6.670629-1.705447c11.17501-3.456 25.752381-10.53501 43.322514-21.039543 17.233676-10.322895 39.136305-23.979886 65.152-40.6272-.430324-2.06141-.310857-4.197181.190172-6.335391zm-163.163429 62.957715c1.774933.06339 3.593752.095086 5.438172.095085h.002438c3.537676 0 7.243581-.118248 11.093333-.352304 11.741867-26.344838 12.9792-49.16419 3.719314-69.519848l-9.251352 5.934324c-7.638552 4.898133-14.251886 10.249752-19.659581 15.908571l-2.204038 2.306438-20.469029-3.220724zm42.648381-84.142324c11.585829 25.033143 9.447619 52.392229-6.36099 81.526247 10.745905-2.516114 23.954286-8.309029 39.387428-17.283657a901.256533 901.256533 0 0 0 32.797257-19.999695l-.746057-1.31779c-6.120838-10.820267-18.745295-31.184457-37.552762-60.578134zm-14.793143 2.475885.071924.126781c5.315048 9.391543 8.624762 19.342629 9.929143 29.809372-.107276-10.904381-2.900114-21.36381-8.368762-31.473372l-56.296838-87.775085 1.792-4.287391-7.388648 1.013029a1296.5632 1296.5632 0 0 1 23.948191 35.966781l32.9216 51.326781.291352-.186515 3.103695 5.4784zm49.394591-31.681828c16.519314 25.757257 28.65981 45.130362 36.228876 57.807238l2.324724-3.345067c-6.595048-9.22941-18.669714-27.543162-36.69821-55.649523l-56.389485-87.918934 1.750552-5.074895-7.666591 1.304381c8.106667 11.729676 16.201143 23.888457 24.135924 36.255695zm-67.013486-22.449981 23.154591 36.099657 27.016533-17.329981-23.153372-36.098438zm-106.979962 19.040305c5.461333 2.583162 10.190019 5.578362 14.151924 8.97219 2.697752 2.395429 4.503162 3.607162 5.612495 4.217905.226743-.475429.493714-1.055695.803353-1.760305.257219-.590019 1.059352-2.430781-.659505-6.38659-1.201981-2.744076-5.61981-3.978971-9.1136-4.527543-2.812343-.443733-6.443886-.618057-10.794667-.515657zm208.293791-30.040991-1.366553 4.856686 6.174476-3.960686zm-39.444724-47.144228-1.365334 4.856685 6.173258-3.960685z"/><path d="m400.449829 453.973333 24.207847.831391c-3.640076 3.905829-7.378895 14.481067-11.216457 31.73059-3.485257 17.827352-9.935238 37.154133-19.36579 57.990096l-3.456-1.288534c4.899352-15.592838 8.221257-31.947581 9.975466-49.045943 1.749333-17.076419 1.699352-30.482286-.145066-40.2176zm62.395733 93.182781 57.877943 90.236343-9.200153 16.416914c-7.18019-12.535467-28.447695-46.401829-63.847619-101.595428-5.805105 22.417067-12.880457 42.143695-21.230933 59.183543l-3.457219-1.288534c5.613714-19.958248 9.882819-40.988038 12.787809-63.117409 2.914743-22.1184 3.223162-41.79261.944762-59.027505l23.806781 2.257676-5.733181 9.517105c-1.351924 15.674514-2.872076 28.334324-4.573866 37.986743l15.030857.876495zm-11.843048-96.394971 79.214934-50.808686 6.145219-19.130514 25.930362 5.568609-77.352229 49.6128c-8.081067 5.18339-15.005257 10.793448-20.772571 16.828953zm102.902248 141.980038c17.489676-9.646324 29.021867-16.275505 34.613638-19.860724 5.591771-3.587657 6.264686-8.693029 2.015086-15.314895l-54.161067-84.443429-35.414552 22.714515c-8.081067 5.18339-15.006476 10.793448-20.773791 16.828952l-13.166933-2.072381 107.176228-68.740876 6.545067-20.555581 26.461867 6.396343-57.780419 37.059047 56.814933 88.582096c10.169295 14.509105 8.065219 28.309943-6.307352 41.435428-4.961524-7.736076-19.425524-7.021714-43.368838 2.108953z"/><path d="m511.580648 666.17539-5.346743-9.335466c-6.704762-11.707733-25.63901-41.9072-56.328534-89.847467-5.154133 17.411657-11.184762 33.205638-17.987047 47.088153l-2.428343 4.956647-13.889829-5.174857 1.520153-5.402819c5.523505-19.6352 9.76701-40.583314 12.612266-62.260419 2.82819-21.462552 3.146362-40.786895.945981-57.436648l-1.003276-7.58979 41.073372 3.894857-10.004724 16.607086a694.941257 694.941257 0 0 1 -.557105 6.059885l108.867048-69.824609 7.599543-23.870172 45.84838 11.081143-64.660723 41.472 53.458895 83.348724c8.316343 11.925943 13.75939 30.132419-7.260648 49.329981l-5.338209 4.874971-3.903391-6.085485c-1.067886-1.665219-3.64861-2.510019-7.670247-2.510019-6.620648 0-16.174324 2.362514-28.396496 7.024152l-4.628723 1.765181-8.844191-13.791086 5.702705-3.145143c17.158095-9.464686 28.687848-16.0768 34.266209-19.654704 1.818819-1.166629 3.257295-2.090667.176762-6.891276l-50.870857-79.313677-30.283581 19.423086c-7.637333 4.899352-14.250667 10.25219-19.657143 15.909791l-2.202819 2.306438-22.998552-3.619353c-.658286 6.07939-1.351924 11.578514-2.077257 16.470553l15.85859.924038-3.715657 13.212038 58.374095 91.010438zm-62.066591-122.385066 3.291429 5.133409c28.718324 44.7744 48.348648 75.844267 58.565485 92.689067l2.246705-4.008229-57.380571-89.463466 1.095924-3.894857zm137.61341 39.571505c5.088305 0 9.300114.991086 12.601295 2.958628 8.513829-9.649981 8.928305-18.909867 1.515276-29.486324l-.138971-.208457-56.711315-88.417524-2.785523 1.787124 54.056228 84.281295c6.051352 9.429333 4.609219 18.304-3.854628 23.734858-2.219886 1.423848-5.310171 3.29021-9.25501 5.589333a46.175086 46.175086 0 0 1 4.572648-.238933zm-143.540419-88.623543c1.375086 15.873219.783848 33.674971-1.770058 53.050514a477.866667 477.866667 0 0 1 -.785066 5.717333c.249905-.936229.496152-1.874895.741181-2.819657l1.874895-7.237486-.619276-.035352 1.188571-6.74499c1.654248-9.384229 3.169524-21.985524 4.504381-37.4528l.121905-1.409219 1.464076-2.430781zm141.237638-66.180876-2.500267 7.851885 9.5744-6.141562zm-187.541943 123.668723-14.210438-5.296762 1.733485-5.518628c4.74819-15.113752 8.021333-31.210057 9.726781-47.840305 1.679848-16.405943 1.656686-29.346133-.070704-38.462171l-1.418972-7.487391 45.198629 1.551848-9.124572 9.787733c-1.299505 1.39459-4.845714 6.993676-9.708495 28.821943-3.565714 18.200381-10.220495 38.135467-19.779047 59.255467zm10.192457-91.912533c.664381 7.044876.6656 15.305143.007314 24.940495l.008534-.041447c2.616076-11.757714 4.984686-19.473067 7.053409-24.656458zm58.897067-.964267-32.160915-5.059047 90.872686-58.286324 7.163124-22.298819 45.787428 9.831619-89.802361 57.597562c-7.632457 4.896914-14.24701 10.249752-19.657143 15.90979zm74.105904-71.409371-2.105295 6.551162 8.17981-5.246781z"/><path d="m710.703543 320.413257c-13.804495-21.524724-24.56259-37.591771-32.259657-48.246247l28.207543-5.238248-3.207315 11.40419 21.239467 33.11421 65.237333-41.842591 1.083734-14.716342 22.746209.599771-4.139886 12.003962 30.7968 48.017067c3.899733 6.07939 8.270019 12.222171 13.143772 18.442971l-10.793448 13.932495-9.557333-14.900419-67.101257 43.037257c26.9056 41.948648 42.958019 66.304 48.188952 73.081905l-11.064076 17.611581c-7.536152-13.09379-24.556495-40.335848-51.104914-81.72739l-64.304762 41.244038 6.371962 9.9328-9.730438 15.5904c-5.76-10.326552-14.640762-24.878324-26.678858-43.646781-12.030781-18.757486-22.091581-33.738362-30.137295-44.935315l18.758705-1.516495zm-61.119391 46.212876 35.045181 54.638934 64.304762-41.244038-35.045181-54.638934zm78.2848-50.210133 35.045181 54.638933 67.100038-43.037257-35.045181-54.638933z"/><path d="m802.996419 478.538362-5.054171-8.782019c-7.253333-12.604952-23.281371-38.275657-47.663543-76.345295l-54.0416 34.661181 5.162666 8.049371-17.239771 27.619962-5.028571-9.016076c-5.763657-10.333867-14.673676-24.910019-26.486248-43.324953-11.810133-18.412495-21.888-33.442133-29.955657-44.670781l-6.296381-8.762514 27.996647-2.263771 57.885258-37.127315c-12.013714-18.629486-21.680762-33.024-28.773181-42.842209l-5.638096-7.804343 47.306362-8.785676-5.118781 18.200381 16.470553 25.678019 57.542705-36.906667 1.286095-17.476267 36.871314.9728-5.886781 17.072762 29.202286 45.531429c3.809524 5.9392 8.120076 11.986895 12.810971 17.974857l2.928153 3.7376-18.987886 24.51261-10.927543-17.03741-56.839314 36.4544c24.753981 38.537752 39.745829 61.241295 44.591543 67.519391l2.59779 3.36579zm-45.639924-96.676572c21.499124 33.521371 36.929829 58.044952 46.027581 73.145296l3.541334-5.636876c-7.008305-9.854781-22.124495-32.902095-45.955658-70.056229l-64.132876-99.9936 1.295848-4.609219-9.217219 1.711543c7.185067 10.357029 16.206019 23.995733 26.920228 40.701562zm-118.586514-13.471695c6.960762 10.052267 15.047924 22.257371 24.138362 36.430019 8.901486 13.877638 16.190171 25.628038 21.762438 35.082972l2.304-3.691276-43.730895-68.182553zm19.236571.075581 28.464762 44.37821 54.042819-34.6624-28.463543-44.37821zm78.283581-50.210133 28.463543 44.378209 56.839314-36.455619-28.464761-44.378209zm98.750172 6.308571 8.187124 12.763429 2.62339-3.387733a243.456 243.456 0 0 1 -10.575238-15.138134l-32.390095-50.502705 2.391771-6.933942-8.621105-.227962-.303542 4.114285.455923-.292571z"/></g></svg>